<?xml version="1.0" encoding="UTF-8" standalone="no"?>
<!-- Generated by graphviz version 2.36.0 (20140111.2315)
 -->

<!-- Title: vstruct Pages: 1 -->

<svg
   xmlns:dc="http://purl.org/dc/elements/1.1/"
   xmlns:cc="http://creativecommons.org/ns#"
   xmlns:rdf="http://www.w3.org/1999/02/22-rdf-syntax-ns#"
   xmlns:svg="http://www.w3.org/2000/svg"
   xmlns="http://www.w3.org/2000/svg"
   xmlns:sodipodi="http://sodipodi.sourceforge.net/DTD/sodipodi-0.dtd"
   xmlns:inkscape="http://www.inkscape.org/namespaces/inkscape"
   width="172.89378"
   height="121.28123"
   viewBox="0 0 138.31503 97.024988"
   id="svg2"
   version="1.1"
   inkscape:version="0.48.4 r9939"
   sodipodi:docname="Any.svg">
  <metadata
     id="metadata66">
    <rdf:RDF>
      <cc:Work
         rdf:about="">
        <dc:format>image/svg+xml</dc:format>
        <dc:type
           rdf:resource="http://purl.org/dc/dcmitype/StillImage" />
        <dc:title></dc:title>
      </cc:Work>
    </rdf:RDF>
  </metadata>
  <defs
     id="defs64" />
  <sodipodi:namedview
     pagecolor="#ffffff"
     bordercolor="#666666"
     borderopacity="1"
     objecttolerance="10"
     gridtolerance="10"
     guidetolerance="10"
     inkscape:pageopacity="0"
     inkscape:pageshadow="2"
     inkscape:window-width="985"
     inkscape:window-height="590"
     id="namedview62"
     showgrid="false"
     fit-margin-top="0"
     fit-margin-left="0"
     fit-margin-right="0"
     fit-margin-bottom="0"
     inkscape:zoom="1.6833333"
     inkscape:cx="102.67506"
     inkscape:cy="78.625321"
     inkscape:window-x="362"
     inkscape:window-y="78"
     inkscape:window-maximized="0"
     inkscape:current-layer="svg2" />
  <g
     id="g3136"
     transform="translate(2.8298787,-130.51461)">
    <path
       style="fill:#808080;stroke:none"
       inkscape:connector-curvature="0"
       id="path12-7"
       d="m 52.485149,168.5396 c 0,0 30,0 30,0 6,0 12,-6 12,-12 0,0 0,-12 0,-12 0,-6 -6,-12 -12,-12 0,0 -30,0 -30,0 -6,0 -12,6 -12,12 0,0 0,12 0,12 0,6 6,12 12,12" />
    <ellipse
       transform="translate(-0.51485149,227.5396)"
       style="fill:#808080;stroke:none"
       sodipodi:ry="18"
       sodipodi:rx="18"
       sodipodi:cy="-18"
       sodipodi:cx="18"
       d="M 36,-18 C 36,-8.0588745 27.941125,0 18,0 8.0588745,0 0,-8.0588745 0,-18 c 0,-9.941125 8.0588745,-18 18,-18 9.941125,0 18,8.058875 18,18 z"
       id="ellipse23-3"
       ry="18"
       rx="18"
       cy="-18"
       cx="18" />
    <ellipse
       transform="translate(-0.51485149,227.5396)"
       style="fill:#808080;stroke:none"
       sodipodi:ry="18"
       sodipodi:rx="18"
       sodipodi:cy="-18"
       sodipodi:cx="68"
       d="M 86,-18 C 86,-8.0588745 77.941125,0 68,0 58.058875,0 50,-8.0588745 50,-18 c 0,-9.941125 8.058875,-18 18,-18 9.941125,0 18,8.058875 18,18 z"
       id="ellipse37-5"
       ry="18"
       rx="18"
       cy="-18"
       cx="68" />
    <ellipse
       transform="translate(-0.51485149,227.5396)"
       style="fill:#808080;stroke:none"
       sodipodi:ry="18"
       sodipodi:rx="18"
       sodipodi:cy="-18"
       sodipodi:cx="118"
       d="m 136,-18 c 0,9.9411255 -8.05887,18 -18,18 -9.94113,0 -18,-8.0588745 -18,-18 0,-9.941125 8.05887,-18 18,-18 9.94113,0 18,8.058875 18,18 z"
       id="ellipse51-4"
       ry="18"
       rx="18"
       cy="-18"
       cx="118" />
  </g>
  <path
     d="m 53.5,36.5 c 0,0 30,0 30,0 6,0 12,-6 12,-12 0,0 0,-12 0,-12 0,-6 -6,-12 -12,-12 0,0 -30,0 -30,0 -6,0 -12,6 -12,12 0,0 0,12 0,12 0,6 6,12 12,12"
     id="path12"
     inkscape:connector-curvature="0"
     style="fill:#ffffff;stroke:#000000;stroke-width:1;stroke-miterlimit:4;stroke-dasharray:2, 2;stroke-dashoffset:0" />
  <text
     x="55.5"
     y="22.199997"
     font-size="14.00"
     id="text14"
     style="font-size:14px;line-height:125%;text-anchor:middle;font-family:Kp"
     sodipodi:linespacing="125%">
    <tspan
       style="font-size:14px;font-style:italic;font-variant:normal;font-weight:200;font-stretch:normal;text-align:center;line-height:125%;writing-mode:lr-tb;text-anchor:middle;font-family:Kp-Light;-inkscape-font-specification:Kp-Light Ultra-Light Italic"
       id="tspan3910">all</tspan>
  </text>
  <polyline
     points="69,-59 69,-95 "
     id="polyline16"
     style="fill:none;stroke:#000000"
     transform="translate(0.5,95.5)" />
  <text
     x="82.5"
     y="22.199997"
     font-size="14.00"
     id="text18"
     style="font-size:14px;text-anchor:middle;font-family:Kp">3</text>
  <ellipse
     cx="18"
     cy="-18"
     rx="18"
     ry="18"
     id="ellipse23"
     d="M 36,-18 C 36,-8.0588745 27.941125,0 18,0 8.0588745,0 0,-8.0588745 0,-18 c 0,-9.941125 8.0588745,-18 18,-18 9.941125,0 18,8.058875 18,18 z"
     sodipodi:cx="18"
     sodipodi:cy="-18"
     sodipodi:rx="18"
     sodipodi:ry="18"
     style="fill:#ffffff;stroke:#000000"
     transform="translate(0.5,95.5)" />
  <text
     x="18.5"
     y="81.199997"
     font-size="14.00"
     id="text25"
     style="font-size:14px;text-anchor:middle;font-family:Tt-Kp">A</text>
  <path
     d="M 48.7923,41.9668 C 42.4809,49.1618 35.6979,56.8944 30.1538,63.2147"
     id="path30"
     inkscape:connector-curvature="0"
     style="fill:none;stroke:#000000" />
  <polygon
     points="46.5404,-55.2514 46.5404,-55.2514 52.9984,-58.8981 50.2241,-52.0201 "
     id="polygon32"
     style="fill:#000000;stroke:#000000"
     transform="translate(0.5,95.5)" />
  <ellipse
     cx="68"
     cy="-18"
     rx="18"
     ry="18"
     id="ellipse37"
     d="M 86,-18 C 86,-8.0588745 77.941125,0 68,0 58.058875,0 50,-8.0588745 50,-18 c 0,-9.941125 8.058875,-18 18,-18 9.941125,0 18,8.058875 18,18 z"
     sodipodi:cx="68"
     sodipodi:cy="-18"
     sodipodi:rx="18"
     sodipodi:ry="18"
     style="fill:#ffffff;stroke:#000000"
     transform="translate(0.5,95.5)" />
  <text
     x="68.5"
     y="81.199997"
     font-size="14.00"
     id="text39"
     style="font-size:14px;text-anchor:middle;font-family:Tt-Kp">B</text>
  <path
     d="m 68.5,43.6359 c 0,5.3043 0,10.8153 0,15.7743"
     id="path44"
     inkscape:connector-curvature="0"
     style="fill:none;stroke:#000000" />
  <polygon
     points="65.5501,-51.8981 65.5501,-51.8981 68,-58.8981 70.4501,-51.8982 "
     id="polygon46"
     style="fill:#000000;stroke:#000000"
     transform="translate(0.5,95.5)" />
  <ellipse
     cx="118"
     cy="-18"
     rx="18"
     ry="18"
     id="ellipse51"
     d="m 136,-18 c 0,9.9411255 -8.05887,18 -18,18 -9.94113,0 -18,-8.0588745 -18,-18 0,-9.941125 8.05887,-18 18,-18 9.94113,0 18,8.058875 18,18 z"
     sodipodi:cx="118"
     sodipodi:cy="-18"
     sodipodi:rx="18"
     sodipodi:ry="18"
     style="fill:#ffffff;stroke:#000000"
     transform="translate(0.5,95.5)" />
  <text
     x="118.5"
     y="81.199997"
     font-size="14.00"
     id="text53"
     style="font-size:14px;text-anchor:middle;font-family:Tt-Kp">C</text>
  <path
     d="m 88.2077,41.9668 c 6.3114,7.195 13.0943,14.9276 18.6383,21.2479"
     id="path58"
     inkscape:connector-curvature="0"
     style="fill:none;stroke:#000000" />
  <polygon
     points="85.7759,-52.0201 85.7759,-52.0201 83.0016,-58.8981 89.4596,-55.2514 "
     id="polygon60"
     style="fill:#000000;stroke:#000000"
     transform="translate(0.5,95.5)" />
</svg>
