<?xml version="1.0" encoding="UTF-8" standalone="no"?>
<!-- Generated by graphviz version 2.36.0 (20140111.2315)
 -->

<!-- Title: vstruct Pages: 1 -->

<svg
   xmlns:dc="http://purl.org/dc/elements/1.1/"
   xmlns:cc="http://creativecommons.org/ns#"
   xmlns:rdf="http://www.w3.org/1999/02/22-rdf-syntax-ns#"
   xmlns:svg="http://www.w3.org/2000/svg"
   xmlns="http://www.w3.org/2000/svg"
   xmlns:sodipodi="http://sodipodi.sourceforge.net/DTD/sodipodi-0.dtd"
   xmlns:inkscape="http://www.inkscape.org/namespaces/inkscape"
   width="206pt"
   height="130pt"
   viewBox="0.00 0.00 206.00 130.00"
   id="svg2"
   version="1.1"
   inkscape:version="0.48.4 r9939"
   sodipodi:docname="All.svg">
  <metadata
     id="metadata82">
    <rdf:RDF>
      <cc:Work
         rdf:about="">
        <dc:format>image/svg+xml</dc:format>
        <dc:type
           rdf:resource="http://purl.org/dc/dcmitype/StillImage" />
        <dc:title />
      </cc:Work>
    </rdf:RDF>
  </metadata>
  <defs
     id="defs80" />
  <sodipodi:namedview
     pagecolor="#ffffff"
     bordercolor="#666666"
     borderopacity="1"
     objecttolerance="10"
     gridtolerance="10"
     guidetolerance="10"
     inkscape:pageopacity="0"
     inkscape:pageshadow="2"
     inkscape:window-width="1291"
     inkscape:window-height="660"
     id="namedview78"
     showgrid="false"
     inkscape:zoom="1.6641037"
     inkscape:cx="112.82688"
     inkscape:cy="103.0721"
     inkscape:window-x="0"
     inkscape:window-y="27"
     inkscape:window-maximized="0"
     inkscape:current-layer="svg2" />
  <g
     id="g5225"
     transform="translate(132.36108,113.13151)">
    <path
       style="fill:#4d4d4d;stroke:none"
       inkscape:connector-curvature="0"
       id="path12-8"
       d="m -42.882877,-60.43131 c 0,0 30,0 30,0 5.9999997,0 11.99999969,-6 11.99999969,-12 0,0 0,-22 0,-22 0,-6 -5.99999999,-12 -11.99999969,-12 0,0 -30,0 -30,0 -6,0 -12,6 -12,12 0,0 0,22 0,22 0,6 6,12 12,12" />
    <path
       style="fill:#4d4d4d;stroke:none"
       inkscape:connector-curvature="0"
       id="path27-4"
       d="m -114.88288,13.56869 c 0,0 30.000003,0 30.000003,0 6,0 12,-5.9999999 12,-11.9999999 0,0 0,-12.0000001 0,-12.0000001 0,-6 -6,-12 -12,-12 0,0 -30.000003,0 -30.000003,0 -6,0 -12,6 -12,12 0,0 0,12.0000001 0,12.0000001 0,6 6,11.9999999 12,11.9999999" />
    <path
       style="fill:#4d4d4d;stroke:none"
       inkscape:connector-curvature="0"
       id="path45-1"
       d="m -42.882877,13.56869 c 0,0 30,0 30,0 5.9999997,0 11.99999969,-5.9999999 11.99999969,-11.9999999 0,0 0,-12.0000001 0,-12.0000001 0,-6 -5.99999999,-12 -11.99999969,-12 0,0 -30,0 -30,0 -6,0 -12,6 -12,12 0,0 0,12.0000001 0,12.0000001 0,6 6,11.9999999 12,11.9999999" />
    <path
       style="fill:#4d4d4d;stroke:none"
       inkscape:connector-curvature="0"
       id="path63-4"
       d="m 29.117123,13.56869 c 0,0 30,0 30,0 6,0 12,-5.9999999 12,-11.9999999 0,0 0,-12.0000001 0,-12.0000001 0,-6 -6,-12 -12,-12 0,0 -30,0 -30,0 -6,0 -12,6 -12,12 0,0 0,12.0000001 0,12.0000001 0,6 6,11.9999999 12,11.9999999" />
  </g>
  <path
     d="m 88,51 c 0,0 30,0 30,0 6,0 12,-6 12,-12 0,0 0,-22 0,-22 0,-6 -6,-12 -12,-12 0,0 -30,0 -30,0 -6,0 -12,6 -12,12 0,0 0,22 0,22 0,6 6,12 12,12"
     id="path12"
     inkscape:connector-curvature="0"
     style="fill:#ffffff;stroke:#000000;stroke-width:1;stroke-miterlimit:4;stroke-dasharray:3, 3;stroke-dashoffset:0" />
  <path
     sodipodi:type="arc"
     style="fill:none;fill-opacity:1;stroke:#b17100;stroke-width:1;stroke-linejoin:miter;stroke-miterlimit:4;stroke-opacity:1;stroke-dasharray:none;stroke-dashoffset:0"
     id="path3120"
     sodipodi:cx="-157.21947"
     sodipodi:cy="41.823433"
     sodipodi:rx="10.19802"
     sodipodi:ry="10.19802"
     d="m -147.02145,41.823433 a 10.19802,10.19802 0 1 1 -20.39604,0 10.19802,10.19802 0 1 1 20.39604,0 z"
     transform="matrix(0.8,0,0,0.8,242.37294,5.4389442)" />
  <text
     x="90"
     y="31.699997"
     font-size="14.00"
     id="text14"
     style="font-size:14px;font-style:normal;font-variant:normal;font-weight:normal;font-stretch:normal;text-anchor:middle;font-family:Nimbus Roman No9 L;-inkscape-font-specification:Nimbus Roman No9 L">
    <tspan
       style="font-style:italic;font-weight:normal;-inkscape-font-specification:Nimbus Roman No9 L Italic"
       id="tspan3118">all</tspan>
  </text>
  <polyline
     points="100,-75 100,-121 "
     id="polyline16"
     style="fill:none;stroke:#000000"
     transform="translate(4,126)" />
  <text
     x="117"
     y="20.199997"
     font-size="14.00"
     id="text18"
     style="font-size:14px;text-anchor:middle;font-family:Nimbus Roman No9 L;-inkscape-font-specification:Nimbus Roman No9 L;font-weight:normal;font-style:normal;font-stretch:normal;font-variant:normal">1</text>
  <polyline
     points="100,-98 126,-98 "
     id="polyline20"
     style="fill:none;stroke:#000000"
     transform="translate(4,126)" />
  <text
     x="117"
     y="43.199997"
     font-size="14.00"
     id="text22"
     style="font-size:14px;font-style:normal;font-variant:normal;font-weight:normal;font-stretch:normal;text-anchor:middle;font-family:Nimbus Roman No9 L;-inkscape-font-specification:Nimbus Roman No9 L">3</text>
  <path
     d="m 16,125 c 0,0 30,0 30,0 6,0 12,-6 12,-12 0,0 0,-12 0,-12 0,-6 -6,-12 -12,-12 0,0 -30,0 -30,0 -6,0 -12,6 -12,12 0,0 0,12 0,12 0,6 6,12 12,12"
     id="path27"
     inkscape:connector-curvature="0"
     style="fill:#ffffff;stroke:#000000" />
  <text
     x="18"
     y="110.7"
     font-size="14.00"
     id="text29"
     style="font-size:14px;text-anchor:middle;font-family:Nimbus Roman No9 L;-inkscape-font-specification:Nimbus Roman No9 L;font-weight:normal;font-style:normal;font-stretch:normal;font-variant:normal">A</text>
  <polyline
     points="28,-1 28,-37 "
     id="polyline31"
     style="fill:none;stroke:#000000"
     transform="translate(4,126)" />
  <text
     x="45"
     y="110.7"
     font-size="14.00"
     id="text33"
     style="font-size:14px;text-anchor:middle;font-family:Nimbus Roman No9 L;-inkscape-font-specification:Nimbus Roman No9 L;font-weight:normal;font-style:normal;font-stretch:normal;font-variant:normal">1</text>
  <g
     class="edge"
     id="edge1"
     transform="translate(4,126)">
    <title
       id="title36">[]-&gt;[1]</title>
    <path
       style="fill:none;stroke:#000000"
       inkscape:connector-curvature="0"
       id="path38"
       d="m 78.1746,-74.7284 c -8.7827,9.3926 -19.0403,20.3625 -28.0562,30.0046" />
    <polygon
       style="fill:#000000;stroke:#000000"
       id="polygon40"
       points="47.4794,-47.026 52.5923,-42.2451 52.5923,-42.2451 43.2059,-37.3313 " />
  </g>
  <path
     d="m 88,125 c 0,0 30,0 30,0 6,0 12,-6 12,-12 0,0 0,-12 0,-12 0,-6 -6,-12 -12,-12 0,0 -30,0 -30,0 -6,0 -12,6 -12,12 0,0 0,12 0,12 0,6 6,12 12,12"
     id="path45"
     inkscape:connector-curvature="0"
     style="fill:#ffffff;stroke:#000000" />
  <text
     x="90"
     y="110.7"
     font-size="14.00"
     id="text47"
     style="font-size:14px;text-anchor:middle;font-family:Nimbus Roman No9 L;-inkscape-font-specification:Nimbus Roman No9 L;font-weight:normal;font-style:normal;font-stretch:normal;font-variant:normal">B</text>
  <polyline
     points="100,-1 100,-37 "
     id="polyline49"
     style="fill:none;stroke:#000000"
     transform="translate(4,126)" />
  <text
     x="117"
     y="110.7"
     font-size="14.00"
     id="text51"
     style="font-size:14px;text-anchor:middle;font-family:Nimbus Roman No9 L;-inkscape-font-specification:Nimbus Roman No9 L;font-weight:normal;font-style:normal;font-stretch:normal;font-variant:normal">1</text>
  <g
     class="edge"
     id="edge2"
     transform="translate(4,126)">
    <title
       id="title54">[]-&gt;[2]</title>
    <path
       style="fill:none;stroke:#000000"
       inkscape:connector-curvature="0"
       id="path56"
       d="m 99,-74.7284 c 0,8.4626 0,18.2057 0,27.1044" />
    <polygon
       style="fill:#000000;stroke:#000000"
       id="polygon58"
       points="95.5001,-47.3313 102.5,-47.3313 102.5,-47.3313 99,-37.3313 " />
  </g>
  <path
     d="m 160,125 c 0,0 30,0 30,0 6,0 12,-6 12,-12 0,0 0,-12 0,-12 0,-6 -6,-12 -12,-12 0,0 -30,0 -30,0 -6,0 -12,6 -12,12 0,0 0,12 0,12 0,6 6,12 12,12"
     id="path63"
     inkscape:connector-curvature="0"
     style="fill:#ffffff;stroke:#000000" />
  <text
     x="162"
     y="110.7"
     font-size="14.00"
     id="text65"
     style="font-size:14px;text-anchor:middle;font-family:Nimbus Roman No9 L;-inkscape-font-specification:Nimbus Roman No9 L;font-weight:normal;font-style:normal;font-stretch:normal;font-variant:normal">C</text>
  <polyline
     points="172,-1 172,-37 "
     id="polyline67"
     style="fill:none;stroke:#000000"
     transform="translate(4,126)" />
  <text
     x="189"
     y="110.7"
     font-size="14.00"
     id="text69"
     style="font-size:14px;text-anchor:middle;font-family:Nimbus Roman No9 L;-inkscape-font-specification:Nimbus Roman No9 L;font-weight:normal;font-style:normal;font-stretch:normal;font-variant:normal">1</text>
  <g
     class="edge"
     id="edge3"
     transform="translate(4,126)">
    <title
       id="title72">[]-&gt;[3]</title>
    <path
       style="fill:none;stroke:#000000"
       inkscape:connector-curvature="0"
       id="path74"
       d="m 119.825,-74.7284 c 8.783,9.3926 19.041,20.3625 28.057,30.0046" />
    <polygon
       style="fill:#000000;stroke:#000000"
       id="polygon76"
       points="145.408,-42.2451 150.521,-47.026 150.521,-47.026 154.794,-37.3313 " />
  </g>
</svg>
