<?xml version="1.0" encoding="UTF-8" standalone="no"?>
<!-- Created with Inkscape (http://www.inkscape.org/) -->

<svg
   xmlns:dc="http://purl.org/dc/elements/1.1/"
   xmlns:cc="http://creativecommons.org/ns#"
   xmlns:rdf="http://www.w3.org/1999/02/22-rdf-syntax-ns#"
   xmlns:svg="http://www.w3.org/2000/svg"
   xmlns="http://www.w3.org/2000/svg"
   xmlns:sodipodi="http://sodipodi.sourceforge.net/DTD/sodipodi-0.dtd"
   xmlns:inkscape="http://www.inkscape.org/namespaces/inkscape"
   id="svg2"
   version="1.1"
   inkscape:version="0.48.4 r9939"
   width="260.38751"
   height="107.94875"
   xml:space="preserve"
   sodipodi:docname="Consensus_FSM.pdf"><metadata
     id="metadata8"><rdf:RDF><cc:Work
         rdf:about=""><dc:format>image/svg+xml</dc:format><dc:type
           rdf:resource="http://purl.org/dc/dcmitype/StillImage" /><dc:title></dc:title></cc:Work></rdf:RDF></metadata><defs
     id="defs6"><clipPath
       clipPathUnits="userSpaceOnUse"
       id="clipPath280"><path
         d="m 3286.8,6212.4 2084,0 0,868 -2084,0 0,-868 z"
         id="path282"
         inkscape:connector-curvature="0" /></clipPath></defs><sodipodi:namedview
     pagecolor="#ffffff"
     bordercolor="#666666"
     borderopacity="1"
     objecttolerance="10"
     gridtolerance="10"
     guidetolerance="10"
     inkscape:pageopacity="0"
     inkscape:pageshadow="2"
     inkscape:window-width="1366"
     inkscape:window-height="702"
     id="namedview4"
     showgrid="false"
     fit-margin-top="0"
     fit-margin-left="0"
     fit-margin-right="0"
     fit-margin-bottom="0"
     inkscape:zoom="1.9070707"
     inkscape:cx="129.46599"
     inkscape:cy="33.142038"
     inkscape:window-x="0"
     inkscape:window-y="27"
     inkscape:window-maximized="1"
     inkscape:current-layer="g10" /><g
     id="g10"
     inkscape:groupmode="layer"
     inkscape:label="raft"
     transform="matrix(1.25,0,0,-1.25,-410.8525,884.9975)"><g
       id="g276"
       transform="scale(0.1,0.1)"><g
         clip-path="url(#clipPath280)"
         id="g278"><path
           inkscape:connector-curvature="0"
           id="path284"
           style="fill:#abdda4;fill-opacity:1;fill-rule:nonzero;stroke:none"
           d="m 4264.68,6729.01 254.31,0 c 59.5,0 107.4,-30.77 107.4,-69 0,-38.24 -47.9,-69 -107.4,-69 l -254.31,0 c -59.5,0 -107.41,30.76 -107.41,69 0,38.23 47.91,69 107.41,69" /><path
           inkscape:connector-curvature="0"
           id="path286"
           style="fill:none;stroke:#000000;stroke-width:9.60000038;stroke-linecap:round;stroke-linejoin:miter;stroke-miterlimit:4;stroke-opacity:1;stroke-dasharray:none"
           d="m 4264.68,6729.01 254.31,0 c 59.5,0 107.4,-30.77 107.4,-69 0,-38.24 -47.9,-69 -107.4,-69 l -254.31,0 c -59.5,0 -107.41,30.76 -107.41,69 0,38.23 47.91,69 107.41,69 z" /><path
           inkscape:connector-curvature="0"
           id="path288"
           style="fill:#000000;fill-opacity:1;fill-rule:nonzero;stroke:none"
           d="m 4272.06,6671.07 c -0.18,4.56 -1,7.44 -2.43,10.06 -3.13,5.38 -8.63,8.25 -15.81,8.25 -9,0 -16.44,-3.62 -22.44,-10.87 -6.06,-7.25 -9.82,-17.88 -9.82,-27.5 0,-5.38 1.5,-10.19 4.38,-13.82 3.5,-4.43 8.38,-6.5 15.19,-6.5 8.12,0 15.19,3 20.19,8.44 3,3.32 5.5,7.5 8.06,13.75 l -7.5,0 c -1.94,-4.37 -3.19,-6.69 -4.56,-8.56 -3.19,-4.56 -9.07,-7.44 -15.13,-7.44 -8,0 -13.25,6.25 -13.25,15.57 0,6.93 2.31,14.62 6.19,20.5 4.69,6.87 10.31,10.18 17.37,10.18 7.75,0 11.63,-3.75 12.19,-12.06 l 7.37,0 z m 38.76,-34.69 c -0.69,-0.19 -1,-0.19 -1.26,-0.19 -2,0 -2.93,0.69 -2.93,2.26 0,0.31 0,0.5 0.06,0.74 l 4.94,23.13 c 0.43,2.06 0.43,2.06 0.43,2.87 0,5.19 -5.31,8.63 -13.37,8.63 -10.69,0 -17.19,-4.5 -18.63,-13 l 6.44,0 c 0.69,2.13 1.19,3.19 2.32,4.25 1.68,1.69 4.87,2.88 8.18,2.88 4.63,0 8.13,-2.07 8.13,-4.94 0,-0.32 -0.07,-0.82 -0.13,-1.44 l -0.25,-1.38 c -0.69,-3.18 -2.12,-4 -7.75,-4.56 -10.25,-0.94 -13.5,-1.68 -17.25,-4.06 -4,-2.56 -6.31,-6.62 -6.31,-11.06 0,-6.13 4.12,-9.82 11.06,-9.82 2.69,0 5.88,0.5 8.69,1.5 2.44,0.88 3.63,1.63 6.75,4.38 l 0,-0.81 c 0,-3.19 2.12,-5.07 5.81,-5.07 0.88,0 1.13,0 3,0.44 0.19,0.06 0.63,0.19 1.07,0.25 l 1,5 z m -9.26,8.69 c -1,-4.81 -7.74,-8.88 -14.56,-8.88 -4.37,0 -6.81,1.88 -6.81,5.07 0,2.56 1.44,5.06 3.75,6.5 1.88,1.12 4.19,1.75 7.94,2.25 7.18,1 7.81,1.12 11.18,2.25 l -1.5,-7.19 z m 23.5,27.62 -8.5,-40.24 6.44,0 4.69,22.18 c 1.87,8.44 7.25,13.69 14.13,13.69 3.87,0 6.68,-2.69 6.68,-6.25 0,-0.44 -0.12,-1.56 -0.44,-2.81 l -5.68,-26.81 6.44,0 6.18,28.87 c 0.19,1 0.25,1.94 0.25,2.94 0,5.81 -4.06,9.56 -10.43,9.56 -5.82,0 -10.88,-2.06 -14.88,-6.13 l 1,5 -5.88,0 z m 78.82,15.76 -6.44,0 -4.62,-21.57 c -2.44,4.94 -5.57,6.94 -11,6.94 -12.76,0 -22.26,-12.13 -22.26,-28.31 0,-9 5.13,-14.82 13.13,-14.82 3.31,0 6.81,1.07 9.87,2.88 2.32,1.44 3.32,2.56 4.38,4.69 l -1.19,-5.81 6.19,0 11.94,56 z m -22.69,-20.5 c 5.69,0 9.06,-3.88 9.06,-10.38 0,-4.56 -1.19,-9.25 -3.5,-13.25 -3,-5.13 -6.75,-7.75 -11.43,-7.75 -5.69,0 -9,3.88 -9,10.5 0,4.25 1.31,9.19 3.37,13.12 2.94,5.26 6.63,7.76 11.5,7.76 z m 35.56,4.74 -6.43,0 -8.57,-40.24 6.44,0 8.56,40.24 z m 3.38,15.76 -6.44,0 -1.69,-7.94 6.44,0 1.69,7.94 z m 43.6,0 -6.43,0 -4.62,-21.57 c -2.45,4.94 -5.57,6.94 -11,6.94 -12.76,0 -22.26,-12.13 -22.26,-28.31 0,-9 5.13,-14.82 13.13,-14.82 3.31,0 6.81,1.07 9.87,2.88 2.31,1.44 3.31,2.56 4.38,4.69 l -1.19,-5.81 6.19,0 11.93,56 z m -22.68,-20.5 c 5.68,0 9.06,-3.88 9.06,-10.38 0,-4.56 -1.19,-9.25 -3.5,-13.25 -3,-5.13 -6.75,-7.75 -11.43,-7.75 -5.69,0 -9,3.88 -9,10.5 0,4.25 1.31,9.19 3.37,13.12 2.94,5.26 6.63,7.76 11.5,7.76 z m 57.87,-31.57 c -0.69,-0.19 -1,-0.19 -1.24,-0.19 -2,0 -2.95,0.69 -2.95,2.26 0,0.31 0,0.5 0.07,0.74 l 4.93,23.13 c 0.45,2.06 0.45,2.06 0.45,2.87 0,5.19 -5.32,8.63 -13.38,8.63 -10.69,0 -17.19,-4.5 -18.62,-13 l 6.43,0 c 0.69,2.13 1.19,3.19 2.31,4.25 1.69,1.69 4.88,2.88 8.19,2.88 4.62,0 8.12,-2.07 8.12,-4.94 0,-0.32 -0.05,-0.82 -0.12,-1.44 l -0.25,-1.38 c -0.68,-3.18 -2.13,-4 -7.75,-4.56 -10.25,-0.94 -13.5,-1.68 -17.25,-4.06 -4,-2.56 -6.31,-6.62 -6.31,-11.06 0,-6.13 4.13,-9.82 11.06,-9.82 2.69,0 5.88,0.5 8.69,1.5 2.43,0.88 3.62,1.63 6.75,4.38 l 0,-0.81 c 0,-3.19 2.13,-5.07 5.81,-5.07 0.87,0 1.13,0 3,0.44 0.19,0.06 0.63,0.19 1.06,0.25 l 1,5 z m -9.24,8.69 c -1,-4.81 -7.76,-8.88 -14.57,-8.88 -4.38,0 -6.81,1.88 -6.81,5.07 0,2.56 1.43,5.06 3.75,6.5 1.87,1.12 4.18,1.75 7.94,2.25 7.19,1 7.81,1.12 11.19,2.25 l -1.5,-7.19 z m 37.74,27.62 -6.87,0 2.44,11.07 -6.5,0 -2.38,-11.07 -5.43,0 -1.07,-5.12 5.44,0 -6.06,-28.44 c -0.19,-0.75 -0.26,-1.62 -0.26,-2.37 0,-3.75 2.63,-6.07 6.88,-6.07 1.5,0 3.88,0.19 4.94,0.5 l 1.25,5.63 c -2.38,-0.56 -2.75,-0.63 -3.69,-0.63 -1.69,0 -2.75,0.88 -2.75,2.07 0,0.25 0.06,0.62 0.13,1.12 l 6,28.19 6.87,0 1.06,5.12 z m 36.43,-22.24 0.24,1.24 c 0.7,3.69 1.07,6.94 1.07,9 0,7.38 -6.37,13.13 -14.69,13.13 -6.68,0 -13.12,-3.13 -17,-8.25 -3.56,-4.88 -6.43,-13.62 -6.43,-19.81 0,-4.19 1.81,-8.38 4.75,-11.25 2.68,-2.63 6.12,-3.82 10.5,-3.82 9.18,0 17.12,5.69 19.5,13.94 l -6.44,0 c -2.81,-5.25 -6.88,-8.06 -12,-8.06 -6.06,0 -9.56,3.81 -9.56,10.31 0,1.63 0.12,2.38 0.43,3.57 l 29.63,0 z m -28.26,5.5 c 2,7.06 7.7,12 13.88,12 5.44,0 8.94,-3.69 8.94,-9.44 0,-0.82 -0.12,-1.32 -0.25,-2.56" /><path
           inkscape:connector-curvature="0"
           id="path290"
           style="fill:none;stroke:#000000;stroke-width:9.60000038;stroke-linecap:round;stroke-linejoin:miter;stroke-miterlimit:4;stroke-opacity:1;stroke-dasharray:none"
           d="m 4981.11,6585.57 c 4.43,-263.44 -905.34,-155.8 -1028.79,-16.55" /><path
           inkscape:connector-curvature="0"
           id="path292"
           style="fill:#000000;fill-opacity:1;fill-rule:evenodd;stroke:none"
           d="m 3937.63,6585.6 36.39,-12.11 -28.73,-25.48" /><path
           inkscape:connector-curvature="0"
           id="path294"
           style="fill:none;stroke:#000000;stroke-width:4.80000019;stroke-linecap:butt;stroke-linejoin:miter;stroke-miterlimit:4;stroke-opacity:1;stroke-dasharray:none"
           d="m 3937.62,6585.6 36.4,-12.11 -28.73,-25.48 -7.67,37.59 z" /><path
           inkscape:connector-curvature="0"
           id="path296"
           style="fill:#abdda4;fill-opacity:1;fill-rule:nonzero;stroke:none"
           d="m 3624.68,6729.01 254.31,0 c 59.5,0 107.4,-30.77 107.4,-69 0,-38.24 -47.9,-69 -107.4,-69 l -254.31,0 c -59.5,0 -107.41,30.76 -107.41,69 0,38.23 47.91,69 107.41,69" /><path
           inkscape:connector-curvature="0"
           id="path298"
           style="fill:none;stroke:#000000;stroke-width:9.60000038;stroke-linecap:round;stroke-linejoin:miter;stroke-miterlimit:4;stroke-opacity:1;stroke-dasharray:none"
           d="m 3624.68,6729.01 254.31,0 c 59.5,0 107.4,-30.77 107.4,-69 0,-38.24 -47.9,-69 -107.4,-69 l -254.31,0 c -59.5,0 -107.41,30.76 -107.41,69 0,38.23 47.91,69 107.41,69 z" /><path
           inkscape:connector-curvature="0"
           id="path300"
           style="fill:#000000;fill-opacity:1;fill-rule:nonzero;stroke:none"
           d="m 3622.42,6657.95 26.69,0 1.31,6.31 -26.69,0 3.88,17.87 30.31,0 1.31,6.32 -37.55,0 -11.88,-56 7.19,0 5.43,25.5 z m 56.9,15.87 c -7.13,0 -13.44,-3.19 -17.38,-8.87 -3.44,-4.94 -6,-13.38 -6,-19.88 0,-8.56 5.94,-14.38 14.56,-14.38 7.38,0 13.19,3 17.5,8.88 3.5,4.88 6.06,13.25 6.06,19.94 0,4.06 -1.56,7.94 -4.24,10.56 -2.57,2.56 -6.07,3.75 -10.5,3.75 z m -1,-5.87 c 5.68,0 9,-3.69 9,-9.94 0,-4.5 -1.32,-9.5 -3.38,-13.38 -2.94,-5.25 -7.06,-8.06 -12.38,-8.06 -5.43,0 -8.87,3.88 -8.87,10 0,4.38 1.31,9.44 3.44,13.31 2.81,5.19 7.12,8.07 12.19,8.07 z m 37.81,20.5 -6.44,0 -11.87,-56 6.43,0 11.88,56 z m 17.1,0 -6.43,0 -11.88,-56 6.44,0 11.87,56 z m 23.04,-14.63 c -7.13,0 -13.44,-3.19 -17.38,-8.87 -3.43,-4.94 -6,-13.38 -6,-19.88 0,-8.56 5.94,-14.38 14.57,-14.38 7.37,0 13.18,3 17.5,8.88 3.5,4.88 6.06,13.25 6.06,19.94 0,4.06 -1.56,7.94 -4.25,10.56 -2.56,2.56 -6.06,3.75 -10.5,3.75 z m -1,-5.87 c 5.69,0 9,-3.69 9,-9.94 0,-4.5 -1.31,-9.5 -3.38,-13.38 -2.93,-5.25 -7.06,-8.06 -12.37,-8.06 -5.44,0 -8.88,3.88 -8.88,10 0,4.38 1.32,9.44 3.44,13.31 2.81,5.19 7.13,8.07 12.19,8.07 z m 56.94,-35.5 20.31,40.24 -7,0 -15.06,-31.31 -0.82,31.31 -8.12,0 -14.5,-31.31 -1.44,31.31 -7,0 3.06,-40.24 7.38,0 15,32.12 0.94,-32.12 7.25,0 z m 56.06,18 0.25,1.24 c 0.69,3.69 1.06,6.94 1.06,9 0,7.38 -6.37,13.13 -14.69,13.13 -6.68,0 -13.12,-3.13 -17,-8.25 -3.56,-4.88 -6.43,-13.62 -6.43,-19.81 0,-4.19 1.81,-8.38 4.75,-11.25 2.68,-2.63 6.12,-3.82 10.5,-3.82 9.18,0 17.12,5.69 19.5,13.94 l -6.44,0 c -2.81,-5.25 -6.88,-8.06 -12,-8.06 -6.06,0 -9.56,3.81 -9.56,10.31 0,1.63 0.12,2.38 0.43,3.57 l 29.63,0 z m -28.25,5.5 c 2,7.06 7.69,12 13.87,12 5.44,0 8.94,-3.69 8.94,-9.44 0,-0.82 -0.12,-1.32 -0.25,-2.56 l -22.56,0 z m 41.56,16.74 -8.5,-40.24 6.44,0 4.44,20.87 c 2,9.37 7.5,14.06 15.93,13.75 l 1.38,6.56 c -1,0.13 -1.63,0.19 -2.44,0.19 -4.5,0 -7.94,-2 -12.69,-7.44 l 1.32,6.31" /><path
           inkscape:connector-curvature="0"
           id="path302"
           style="fill:#abdda4;fill-opacity:1;fill-rule:nonzero;stroke:none"
           d="m 4904.68,6729.01 254.31,0 c 59.5,0 107.4,-30.77 107.4,-69 0,-38.24 -47.9,-69 -107.4,-69 l -254.31,0 c -59.5,0 -107.41,30.76 -107.41,69 0,38.23 47.91,69 107.41,69" /><path
           inkscape:connector-curvature="0"
           id="path304"
           style="fill:none;stroke:#000000;stroke-width:9.60000038;stroke-linecap:round;stroke-linejoin:miter;stroke-miterlimit:4;stroke-opacity:1;stroke-dasharray:none"
           d="m 4904.68,6729.01 254.31,0 c 59.5,0 107.4,-30.77 107.4,-69 0,-38.24 -47.9,-69 -107.4,-69 l -254.31,0 c -59.5,0 -107.41,30.76 -107.41,69 0,38.23 47.91,69 107.41,69 z" /><path
           inkscape:connector-curvature="0"
           id="path306"
           style="fill:#000000;fill-opacity:1;fill-rule:nonzero;stroke:none"
           d="m 4933.69,6688.45 -7.19,0 -11.94,-56 34.88,0 1.31,6.31 -27.62,0 10.56,49.69 z m 60.75,-38 0.25,1.24 c 0.69,3.69 1.06,6.94 1.06,9 0,7.38 -6.37,13.13 -14.69,13.13 -6.68,0 -13.12,-3.13 -17,-8.25 -3.56,-4.88 -6.43,-13.62 -6.43,-19.81 0,-4.19 1.81,-8.38 4.75,-11.25 2.68,-2.63 6.12,-3.82 10.5,-3.82 9.18,0 17.12,5.69 19.5,13.94 l -6.44,0 c -2.81,-5.25 -6.88,-8.06 -12,-8.06 -6.06,0 -9.56,3.81 -9.56,10.31 0,1.63 0.12,2.38 0.44,3.57 l 29.62,0 z m -28.25,5.5 c 2,7.06 7.69,12 13.87,12 5.44,0 8.94,-3.69 8.94,-9.44 0,-0.82 -0.12,-1.32 -0.25,-2.56 l -22.56,0 z m 70.13,-19.57 c -0.69,-0.19 -1,-0.19 -1.26,-0.19 -2,0 -2.93,0.69 -2.93,2.26 0,0.31 0,0.5 0.06,0.74 l 4.94,23.13 c 0.43,2.06 0.43,2.06 0.43,2.87 0,5.19 -5.31,8.63 -13.37,8.63 -10.69,0 -17.19,-4.5 -18.63,-13 l 6.44,0 c 0.69,2.13 1.19,3.19 2.32,4.25 1.68,1.69 4.87,2.88 8.18,2.88 4.63,0 8.13,-2.07 8.13,-4.94 0,-0.32 -0.07,-0.82 -0.13,-1.44 l -0.25,-1.38 c -0.69,-3.18 -2.12,-4 -7.75,-4.56 -10.25,-0.94 -13.5,-1.68 -17.25,-4.06 -4,-2.56 -6.31,-6.62 -6.31,-11.06 0,-6.13 4.12,-9.82 11.06,-9.82 2.69,0 5.88,0.5 8.69,1.5 2.44,0.88 3.63,1.63 6.75,4.38 l 0,-0.81 c 0,-3.19 2.12,-5.07 5.81,-5.07 0.88,0 1.13,0 3,0.44 0.19,0.06 0.63,0.19 1.07,0.25 l 1,5 z m -9.26,8.69 c -1,-4.81 -7.74,-8.88 -14.56,-8.88 -4.37,0 -6.81,1.88 -6.81,5.07 0,2.56 1.44,5.06 3.75,6.5 1.88,1.12 4.19,1.75 7.94,2.25 7.18,1 7.81,1.12 11.18,2.25 l -1.5,-7.19 z m 59.57,43.38 -6.44,0 -4.63,-21.57 c -2.43,4.94 -5.56,6.94 -11,6.94 -12.74,0 -22.24,-12.13 -22.24,-28.31 0,-9 5.12,-14.82 13.12,-14.82 3.31,0 6.81,1.07 9.88,2.88 2.31,1.44 3.31,2.56 4.37,4.69 l -1.19,-5.81 6.19,0 11.94,56 z m -22.69,-20.5 c 5.69,0 9.06,-3.88 9.06,-10.38 0,-4.56 -1.18,-9.25 -3.5,-13.25 -3,-5.13 -6.75,-7.75 -11.44,-7.75 -5.68,0 -9,3.88 -9,10.5 0,4.25 1.32,9.19 3.38,13.12 2.94,5.26 6.62,7.76 11.5,7.76 z m 58.75,-17.5 0.25,1.24 c 0.69,3.69 1.06,6.94 1.06,9 0,7.38 -6.37,13.13 -14.68,13.13 -6.69,0 -13.13,-3.13 -17,-8.25 -3.57,-4.88 -6.44,-13.62 -6.44,-19.81 0,-4.19 1.81,-8.38 4.75,-11.25 2.69,-2.63 6.12,-3.82 10.5,-3.82 9.19,0 17.12,5.69 19.5,13.94 l -6.44,0 c -2.81,-5.25 -6.87,-8.06 -12,-8.06 -6.06,0 -9.56,3.81 -9.56,10.31 0,1.63 0.12,2.38 0.43,3.57 l 29.63,0 z m -28.25,5.5 c 2,7.06 7.69,12 13.88,12 5.43,0 8.93,-3.69 8.93,-9.44 0,-0.82 -0.12,-1.32 -0.25,-2.56 l -22.56,0 z m 41.56,16.74 -8.5,-40.24 6.44,0 4.44,20.87 c 2,9.37 7.5,14.06 15.94,13.75 l 1.37,6.56 c -1,0.13 -1.63,0.19 -2.44,0.19 -4.5,0 -7.93,-2 -12.69,-7.44 l 1.32,6.31" /><path
           inkscape:connector-curvature="0"
           id="path308"
           style="fill:#000000;fill-opacity:1;fill-rule:nonzero;stroke:none"
           d="m 4714.58,7012.71 0,-40.25 6.44,0 0,20.88 c 0,5.75 1.44,9.55 4.56,11.75 2,1.5 3.88,1.93 8.38,2 l 0,6.56 c -1.13,0.12 -1.63,0.19 -2.5,0.19 -4.13,0 -7.32,-2.45 -11,-8.45 l 0,7.32 -5.88,0 z m 59.72,-22.25 c 0,6.13 -0.44,9.81 -1.57,12.81 -2.62,6.62 -8.74,10.57 -16.31,10.57 -11.19,0 -18.43,-8.57 -18.43,-21.82 0,-13.18 7,-21.31 18.31,-21.31 9.19,0 15.56,5.18 17.19,13.94 l -6.44,0 c -1.82,-5.26 -5.37,-8.06 -10.56,-8.06 -4.07,0 -7.5,1.87 -9.69,5.25 -1.5,2.31 -2.07,4.62 -2.12,8.62 l 29.62,0 z m -29.44,5.19 c 0.5,7.44 5.06,12.31 11.5,12.31 6.32,0 11.13,-5.25 11.13,-11.81 0,-0.19 0,-0.31 -0.07,-0.5 l -22.56,0 z m 69,3.56 c -0.31,3.88 -1.18,6.44 -2.68,8.68 -2.76,3.76 -7.63,5.95 -13.26,5.95 -10.81,0 -17.87,-8.57 -17.87,-21.95 0,-13 6.94,-21.18 17.81,-21.18 9.63,0 15.69,5.75 16.44,15.56 l -6.44,0 c -1.06,-6.43 -4.37,-9.68 -9.81,-9.68 -7.06,0 -11.32,5.8 -11.32,15.3 0,10.07 4.13,16.07 11.13,16.07 5.37,0 8.75,-3.19 9.56,-8.75 l 6.44,0 z m 41.58,-8.75 c 0,6.13 -0.44,9.81 -1.56,12.81 -2.63,6.62 -8.75,10.57 -16.32,10.57 -11.18,0 -18.43,-8.57 -18.43,-21.82 0,-13.18 7,-21.31 18.31,-21.31 9.19,0 15.56,5.18 17.19,13.94 l -6.44,0 c -1.81,-5.26 -5.37,-8.06 -10.56,-8.06 -4.07,0 -7.5,1.87 -9.69,5.25 -1.5,2.31 -2.06,4.62 -2.12,8.62 l 29.62,0 z m -29.44,5.19 c 0.5,7.44 5.06,12.31 11.5,12.31 6.32,0 11.13,-5.25 11.13,-11.81 0,-0.19 0,-0.31 -0.07,-0.5 l -22.56,0 z m 44.32,17.06 -6.38,0 0,-40.25 6.38,0 0,40.25 z m 0,15.75 -6.44,0 0,-8.07 6.44,0 0,8.07 z m 27.48,-56 15.43,40.25 -7.18,0 -11.37,-32.62 -10.76,32.62 -7.24,0 14.12,-40.25 7,0 z m 55.89,18 c 0,6.13 -0.44,9.81 -1.56,12.81 -2.63,6.62 -8.75,10.57 -16.31,10.57 -11.19,0 -18.44,-8.57 -18.44,-21.82 0,-13.18 7,-21.31 18.31,-21.31 9.19,0 15.56,5.18 17.19,13.94 l -6.44,0 c -1.81,-5.26 -5.38,-8.06 -10.56,-8.06 -4.06,0 -7.5,1.87 -9.69,5.25 -1.5,2.31 -2.06,4.62 -2.13,8.62 l 29.63,0 z m -29.44,5.19 c 0.5,7.44 5.07,12.31 11.5,12.31 6.31,0 11.13,-5.25 11.13,-11.81 0,-0.19 0,-0.31 -0.06,-0.5 l -22.57,0 z m 66.44,5.87 c -0.06,7.87 -5.25,12.32 -14.56,12.32 -9.38,0 -15.44,-4.82 -15.44,-12.25 0,-6.32 3.19,-9.32 12.75,-11.63 l 6,-1.44 c 4.44,-1.06 6.19,-2.68 6.19,-5.63 0,-3.74 -3.75,-6.3 -9.38,-6.3 -3.43,0 -6.37,1 -8,2.68 -1,1.19 -1.43,2.32 -1.81,5.19 l -6.75,0 c 0.31,-9.31 5.5,-13.75 16.06,-13.75 10.13,0 16.57,5 16.57,12.75 0,6 -3.38,9.25 -11.38,11.19 l -6.12,1.5 c -5.26,1.19 -7.44,2.87 -7.44,5.74 0,3.7 3.31,6.07 8.5,6.07 5.12,0 7.94,-2.25 8.06,-6.44 l 6.75,0 z m 47.95,-29.06 15.44,40.25 -7.19,0 -11.37,-32.62 -10.75,32.62 -7.25,0 14.12,-40.25 7,0 z m 37.41,41.38 c -11.25,0 -18.13,-8.07 -18.13,-21.57 0,-13.5 6.76,-21.56 18.26,-21.56 11.24,0 18.18,8.06 18.18,21.25 0,13.93 -6.68,21.88 -18.31,21.88 z m 0.13,-5.88 c 7.18,0 11.5,-5.94 11.5,-15.94 0,-9.43 -4.45,-15.43 -11.5,-15.43 -7.19,0 -11.57,5.93 -11.57,15.68 0,9.69 4.38,15.69 11.57,15.69 z m 41.24,4.75 -6.62,0 0,11.06 -6.38,0 0,-11.06 -5.43,0 0,-5.25 5.43,0 0,-30.37 c 0,-4.07 2.81,-6.38 7.81,-6.38 1.5,0 3.07,0.13 5.19,0.5 l 0,5.38 c -0.81,-0.2 -1.81,-0.32 -3.06,-0.32 -2.75,0 -3.56,0.82 -3.56,3.62 l 0,27.57 6.62,0 0,5.25 z m 41.17,-22.25 c 0,6.13 -0.43,9.81 -1.55,12.81 -2.63,6.62 -8.75,10.57 -16.32,10.57 -11.18,0 -18.43,-8.57 -18.43,-21.82 0,-13.18 7,-21.31 18.3,-21.31 9.2,0 15.57,5.18 17.2,13.94 l -6.44,0 c -1.81,-5.26 -5.38,-8.06 -10.56,-8.06 -4.07,0 -7.5,1.87 -9.7,5.25 -1.5,2.31 -2.05,4.62 -2.12,8.62 l 29.62,0 z m -29.43,5.19 c 0.5,7.44 5.06,12.31 11.5,12.31 6.31,0 11.13,-5.25 11.13,-11.81 0,-0.19 0,-0.31 -0.07,-0.5 l -22.56,0 z m 66.43,5.87 c -0.05,7.87 -5.24,12.32 -14.55,12.32 -9.38,0 -15.45,-4.82 -15.45,-12.25 0,-6.32 3.2,-9.32 12.76,-11.63 l 6,-1.44 c 4.44,-1.06 6.19,-2.68 6.19,-5.63 0,-3.74 -3.75,-6.3 -9.38,-6.3 -3.44,0 -6.37,1 -8,2.68 -1,1.19 -1.44,2.32 -1.81,5.19 l -6.76,0 c 0.32,-9.31 5.5,-13.75 16.07,-13.75 10.13,0 16.56,5 16.56,12.75 0,6 -3.37,9.25 -11.37,11.19 l -6.13,1.5 c -5.25,1.19 -7.43,2.87 -7.43,5.74 0,3.7 3.3,6.07 8.5,6.07 5.12,0 7.93,-2.25 8.06,-6.44 l 6.74,0 z m 45.9,11.19 -6.69,0 0,6.31 c 0,2.69 1.56,4.07 4.43,4.07 0.57,0 0.82,0 2.26,-0.07 l 0,5.25 c -1.44,0.32 -2.31,0.44 -3.63,0.44 -5.87,0 -9.44,-3.37 -9.44,-9.19 l 0,-6.81 -5.37,0 0,-5.25 5.37,0 0,-35 6.38,0 0,35 6.69,0 0,5.25 z m 6.8,0 0,-40.25 6.43,0 0,20.88 c 0,5.75 1.44,9.55 4.57,11.75 2,1.5 3.87,1.93 8.37,2 l 0,6.56 c -1.12,0.12 -1.62,0.19 -2.5,0.19 -4.12,0 -7.31,-2.45 -11,-8.45 l 0,7.32 -5.87,0 z m 41.2,1.13 c -11.26,0 -18.13,-8.07 -18.13,-21.57 0,-13.5 6.75,-21.56 18.25,-21.56 11.25,0 18.19,8.06 18.19,21.25 0,13.93 -6.69,21.88 -18.31,21.88 z m 0.12,-5.88 c 7.19,0 11.5,-5.94 11.5,-15.94 0,-9.43 -4.43,-15.43 -11.5,-15.43 -7.19,0 -11.56,5.93 -11.56,15.68 0,9.69 4.37,15.69 11.56,15.69 z m 27.12,4.75 0,-40.25 6.45,0 0,25.25 c 0,5.88 4.24,10.56 9.43,10.56 4.81,0 7.5,-2.93 7.5,-8.06 l 0,-27.75 6.44,0 0,25.25 c 0,5.88 4.18,10.56 9.44,10.56 4.69,0 7.43,-3 7.43,-8.06 l 0,-27.75 6.5,0 0,30.19 c 0,7.24 -4.19,11.19 -11.69,11.19 -5.37,0 -8.62,-1.57 -12.37,-6.13 -2.37,4.31 -5.63,6.13 -10.81,6.13 -5.37,0 -8.94,-2 -12.37,-6.82 l 0,5.69" /><path
           inkscape:connector-curvature="0"
           id="path310"
           style="fill:#000000;fill-opacity:1;fill-rule:nonzero;stroke:none"
           d="m 4733.85,6916.71 0,-40.25 6.44,0 0,25.25 c 0,5.88 4.25,10.56 9.43,10.56 4.82,0 7.5,-2.93 7.5,-8.06 l 0,-27.75 6.44,0 0,25.25 c 0,5.88 4.19,10.56 9.43,10.56 4.7,0 7.45,-3 7.45,-8.06 l 0,-27.75 6.5,0 0,30.19 c 0,7.24 -4.19,11.19 -11.69,11.19 -5.38,0 -8.63,-1.57 -12.38,-6.13 -2.38,4.31 -5.62,6.13 -10.81,6.13 -5.37,0 -8.94,-2 -12.37,-6.82 l 0,5.69 -5.94,0 z m 99.79,-36.5 c -0.75,-0.12 -1,-0.12 -1.43,-0.12 -2.19,0 -3.44,1.12 -3.44,3.12 l 0,23.68 c 0,7.13 -5.19,10.95 -15.13,10.95 -5.81,0 -10.68,-1.69 -13.37,-4.69 -1.81,-2.06 -2.63,-4.38 -2.75,-8.31 l 6.44,0 c 0.56,4.87 3.43,7.12 9.43,7.12 5.75,0 9,-2.19 9,-6 l 0,-1.69 c 0,-2.68 -1.62,-3.88 -6.68,-4.43 -9.07,-1.19 -10.44,-1.5 -12.88,-2.5 -4.69,-1.88 -7.06,-5.5 -7.06,-10.75 0,-7.32 5.06,-11.88 13.19,-11.88 5.06,0 9.12,1.75 13.68,5.88 0.44,-4.07 2.44,-5.88 6.57,-5.88 1.31,0 2.31,0.13 4.43,0.68 l 0,4.82 z m -11.25,8.94 c 0,-2.19 -0.62,-3.5 -2.5,-5.26 -2.62,-2.37 -5.81,-3.62 -9.56,-3.62 -5,0 -7.87,2.44 -7.87,6.5 0,4.19 2.81,6.38 9.62,7.38 6.81,0.87 8.19,1.19 10.31,2.19 l 0,-7.19 z m 18.25,27.56 0,-46.06 c 0,-4 -1.31,-5.31 -5.25,-5.31 -0.18,0 -0.18,0 -1.5,0.05 l 0,-5.43 c 0.75,-0.19 1.13,-0.25 2.13,-0.25 7.25,0 11,2.94 11,8.38 l 0,48.62 -6.38,0 z m 6.38,15.75 -6.38,0 0,-8.07 6.38,0 0,8.07 z m 26.21,-14.62 c -11.24,0 -18.12,-8.07 -18.12,-21.57 0,-13.5 6.75,-21.56 18.25,-21.56 11.25,0 18.19,8.06 18.19,21.25 0,13.93 -6.69,21.88 -18.32,21.88 z m 0.13,-5.88 c 7.19,0 11.5,-5.94 11.5,-15.94 0,-9.43 -4.44,-15.43 -11.5,-15.43 -7.18,0 -11.56,5.93 -11.56,15.68 0,9.69 4.38,15.69 11.56,15.69 z m 27.06,4.75 0,-40.25 6.44,0 0,20.88 c 0,5.75 1.44,9.55 4.56,11.75 2,1.5 3.88,1.93 8.38,2 l 0,6.56 c -1.12,0.12 -1.62,0.19 -2.5,0.19 -4.12,0 -7.31,-2.45 -11,-8.45 l 0,7.32 -5.88,0 z m 31.85,0 -6.38,0 0,-40.25 6.38,0 0,40.25 z m 0,15.75 -6.44,0 0,-8.07 6.44,0 0,8.07 z m 25.09,-15.75 -6.63,0 0,11.06 -6.37,0 0,-11.06 -5.44,0 0,-5.25 5.44,0 0,-30.37 c 0,-4.07 2.82,-6.38 7.82,-6.38 1.5,0 3.05,0.13 5.18,0.5 l 0,5.38 c -0.81,-0.2 -1.81,-0.32 -3.06,-0.32 -2.75,0 -3.57,0.82 -3.57,3.62 l 0,27.57 6.63,0 0,5.25 z m 31.63,0 -11.13,-31.32 -10.31,31.32 -6.82,0 13.57,-40.37 -2.44,-6.38 c -1,-2.87 -2.5,-3.94 -5.18,-3.94 -0.88,0 -2,0.13 -3.38,0.44 l 0,-5.75 c 1.31,-0.69 2.62,-1 4.31,-1 2.07,0 4.31,0.68 6,1.94 2,1.44 3.12,3.12 4.38,6.37 l 17.87,48.69 -6.87,0 z m 50.74,1.13 c -11.24,0 -18.12,-8.07 -18.12,-21.57 0,-13.5 6.75,-21.56 18.25,-21.56 11.25,0 18.19,8.06 18.19,21.25 0,13.93 -6.69,21.88 -18.32,21.88 z m 0.13,-5.88 c 7.19,0 11.5,-5.94 11.5,-15.94 0,-9.43 -4.44,-15.43 -11.5,-15.43 -7.18,0 -11.56,5.93 -11.56,15.68 0,9.69 4.38,15.69 11.56,15.69 z m 41.56,4.75 -6.69,0 0,6.31 c 0,2.69 1.57,4.07 4.45,4.07 0.55,0 0.81,0 2.24,-0.07 l 0,5.25 c -1.43,0.32 -2.31,0.44 -3.62,0.44 -5.88,0 -9.44,-3.37 -9.44,-9.19 l 0,-6.81 -5.37,0 0,-5.25 5.37,0 0,-35 6.37,0 0,35 6.69,0 0,5.25 z m 56.43,-11.19 c -0.06,7.87 -5.26,12.32 -14.56,12.32 -9.38,0 -15.44,-4.82 -15.44,-12.25 0,-6.32 3.19,-9.32 12.74,-11.63 l 6,-1.44 c 4.45,-1.06 6.2,-2.68 6.2,-5.63 0,-3.74 -3.75,-6.3 -9.38,-6.3 -3.44,0 -6.37,1 -8,2.68 -1,1.19 -1.44,2.32 -1.82,5.19 l -6.74,0 c 0.31,-9.31 5.5,-13.75 16.06,-13.75 10.13,0 16.56,5 16.56,12.75 0,6 -3.38,9.25 -11.38,11.19 l -6.12,1.5 c -5.25,1.19 -7.43,2.87 -7.43,5.74 0,3.7 3.31,6.07 8.5,6.07 5.12,0 7.93,-2.25 8.05,-6.44 l 6.76,0 z m 44.14,-11.06 c 0,6.13 -0.44,9.81 -1.57,12.81 -2.62,6.62 -8.74,10.57 -16.31,10.57 -11.19,0 -18.43,-8.57 -18.43,-21.82 0,-13.18 7,-21.31 18.31,-21.31 9.19,0 15.56,5.18 17.19,13.94 l -6.45,0 c -1.81,-5.26 -5.37,-8.06 -10.55,-8.06 -4.07,0 -7.5,1.87 -9.69,5.25 -1.5,2.31 -2.07,4.62 -2.13,8.62 l 29.63,0 z m -29.44,5.19 c 0.5,7.44 5.06,12.31 11.5,12.31 6.31,0 11.13,-5.25 11.13,-11.81 0,-0.19 0,-0.31 -0.07,-0.5 l -22.56,0 z m 38.13,17.06 0,-40.25 6.43,0 0,20.88 c 0,5.75 1.44,9.55 4.57,11.75 2,1.5 3.87,1.93 8.37,2 l 0,6.56 c -1.13,0.12 -1.63,0.19 -2.5,0.19 -4.13,0 -7.32,-2.45 -11,-8.45 l 0,7.32 -5.87,0 z m 42.21,-40.25 15.44,40.25 -7.19,0 -11.37,-32.62 -10.75,32.62 -7.25,0 14.12,-40.25 7,0 z m 55.91,18 c 0,6.13 -0.44,9.81 -1.57,12.81 -2.62,6.62 -8.74,10.57 -16.31,10.57 -11.19,0 -18.43,-8.57 -18.43,-21.82 0,-13.18 7,-21.31 18.31,-21.31 9.19,0 15.56,5.18 17.19,13.94 l -6.44,0 c -1.82,-5.26 -5.37,-8.06 -10.56,-8.06 -4.07,0 -7.5,1.87 -9.69,5.25 -1.5,2.31 -2.07,4.62 -2.12,8.62 l 29.62,0 z m -29.44,5.19 c 0.5,7.44 5.06,12.31 11.5,12.31 6.32,0 11.13,-5.25 11.13,-11.81 0,-0.19 0,-0.31 -0.07,-0.5 l -22.56,0 z m 38.13,17.06 0,-40.25 6.43,0 0,20.88 c 0,5.75 1.44,9.55 4.57,11.75 2,1.5 3.87,1.93 8.37,2 l 0,6.56 c -1.13,0.12 -1.63,0.19 -2.5,0.19 -4.13,0 -7.31,-2.45 -11,-8.45 l 0,7.32 -5.87,0 z m 53.95,-11.19 c -0.06,7.87 -5.25,12.32 -14.56,12.32 -9.38,0 -15.44,-4.82 -15.44,-12.25 0,-6.32 3.19,-9.32 12.75,-11.63 l 6,-1.44 c 4.44,-1.06 6.19,-2.68 6.19,-5.63 0,-3.74 -3.75,-6.3 -9.38,-6.3 -3.44,0 -6.37,1 -8,2.68 -1,1.19 -1.44,2.32 -1.81,5.19 l -6.75,0 c 0.31,-9.31 5.5,-13.75 16.06,-13.75 10.13,0 16.56,5 16.56,12.75 0,6 -3.37,9.25 -11.37,11.19 l -6.13,1.5 c -5.24,1.19 -7.43,2.87 -7.43,5.74 0,3.7 3.31,6.07 8.5,6.07 5.12,0 7.93,-2.25 8.06,-6.44" /><path
           inkscape:connector-curvature="0"
           id="path312"
           style="fill:none;stroke:#000000;stroke-width:9.60000038;stroke-linecap:round;stroke-linejoin:miter;stroke-miterlimit:4;stroke-opacity:1;stroke-dasharray:none"
           d="m 4567.11,6723.2 c 71.57,99.04 310.19,182.84 409.6,45.54" /><path
           inkscape:connector-curvature="0"
           id="path314"
           style="fill:#000000;fill-opacity:1;fill-rule:evenodd;stroke:none"
           d="m 4989.71,6750.79 -35.03,15.64 31.09,22.52" /><path
           inkscape:connector-curvature="0"
           id="path316"
           style="fill:none;stroke:#000000;stroke-width:4.80000019;stroke-linecap:butt;stroke-linejoin:miter;stroke-miterlimit:4;stroke-opacity:1;stroke-dasharray:none"
           d="m 4989.71,6750.79 -35.03,15.64 31.09,22.52 3.94,-38.16 z" /><path
           inkscape:connector-curvature="0"
           id="path318"
           style="fill:#000000;fill-opacity:1;fill-rule:nonzero;stroke:none"
           d="m 3721.16,6970.24 -6.62,0 0,11.06 -6.38,0 0,-11.06 -5.44,0 0,-5.25 5.44,0 0,-30.37 c 0,-4.07 2.81,-6.38 7.81,-6.38 1.5,0 3.07,0.12 5.19,0.5 l 0,5.38 c -0.81,-0.19 -1.81,-0.32 -3.07,-0.32 -2.74,0 -3.55,0.82 -3.55,3.63 l 0,27.56 6.62,0 0,5.25 z m 13.3,0 -6.38,0 0,-40.25 6.38,0 0,40.25 z m 0,15.75 -6.44,0 0,-8.06 6.44,0 0,8.06 z m 10.96,-15.75 0,-40.25 6.44,0 0,25.25 c 0,5.88 4.25,10.56 9.44,10.56 4.81,0 7.5,-2.94 7.5,-8.06 l 0,-27.75 6.43,0 0,25.25 c 0,5.88 4.19,10.56 9.45,10.56 4.68,0 7.43,-3 7.43,-8.06 l 0,-27.75 6.5,0 0,30.19 c 0,7.25 -4.19,11.18 -11.69,11.18 -5.37,0 -8.62,-1.56 -12.37,-6.12 -2.37,4.31 -5.63,6.12 -10.82,6.12 -5.37,0 -8.93,-2 -12.37,-6.81 l 0,5.69 -5.94,0 z m 98.07,-22.25 c 0,6.13 -0.44,9.81 -1.57,12.81 -2.62,6.63 -8.74,10.56 -16.31,10.56 -11.19,0 -18.43,-8.56 -18.43,-21.81 0,-13.19 7,-21.31 18.31,-21.31 9.19,0 15.56,5.19 17.19,13.94 l -6.45,0 c -1.81,-5.25 -5.37,-8.06 -10.55,-8.06 -4.07,0 -7.5,1.87 -9.69,5.24 -1.5,2.32 -2.07,4.63 -2.13,8.63 l 29.63,0 z m -29.44,5.19 c 0.5,7.44 5.06,12.31 11.5,12.31 6.31,0 11.13,-5.25 11.13,-11.81 0,-0.19 0,-0.32 -0.07,-0.5 l -22.56,0 z m 66.44,5.87 c -0.07,7.88 -5.26,12.31 -14.57,12.31 -9.37,0 -15.43,-4.81 -15.43,-12.24 0,-6.32 3.19,-9.32 12.74,-11.63 l 6,-1.44 c 4.45,-1.06 6.19,-2.69 6.19,-5.62 0,-3.75 -3.74,-6.31 -9.37,-6.31 -3.44,0 -6.37,1 -8,2.68 -1,1.19 -1.44,2.32 -1.82,5.19 l -6.74,0 c 0.31,-9.31 5.5,-13.75 16.06,-13.75 10.13,0 16.56,5 16.56,12.75 0,6 -3.38,9.25 -11.38,11.19 l -6.12,1.5 c -5.25,1.18 -7.43,2.87 -7.43,5.75 0,3.69 3.31,6.06 8.5,6.06 5.12,0 7.93,-2.25 8.05,-6.44 l 6.76,0 z m 46.93,12.31 c -11.24,0 -18.12,-8.06 -18.12,-21.56 0,-13.5 6.75,-21.56 18.25,-21.56 11.25,0 18.18,8.06 18.18,21.25 0,13.94 -6.68,21.87 -18.31,21.87 z m 0.13,-5.87 c 7.18,0 11.5,-5.94 11.5,-15.94 0,-9.43 -4.44,-15.43 -11.5,-15.43 -7.19,0 -11.56,5.93 -11.56,15.68 0,9.69 4.37,15.69 11.56,15.69 z m 58.75,-35.5 0,40.25 -6.38,0 0,-22.81 c 0,-8.25 -4.24,-13.63 -10.93,-13.63 -5.07,0 -8.31,3.13 -8.31,7.94 l 0,28.5 -6.38,0 0,-31.06 c 0,-6.63 5,-10.94 12.81,-10.94 5.94,0 9.69,2.06 13.44,7.38 l 0,-5.63 5.75,0 z m 25.25,40.25 -6.63,0 0,11.06 -6.37,0 0,-11.06 -5.44,0 0,-5.25 5.44,0 0,-30.37 c 0,-4.07 2.81,-6.38 7.81,-6.38 1.5,0 3.06,0.12 5.19,0.5 l 0,5.38 c -0.82,-0.19 -1.82,-0.32 -3.06,-0.32 -2.76,0 -3.57,0.82 -3.57,3.63 l 0,27.56 6.63,0 0,5.25 z m 8.5,-32.25 0,-8 4.63,0 0,-1.37 c 0,-5.32 -1,-6.88 -4.63,-7 l 0,-2.94 c 5.37,0 8.06,3.5 8.06,10.06 l 0,9.25" /><path
           inkscape:connector-curvature="0"
           id="path320"
           style="fill:#000000;fill-opacity:1;fill-rule:nonzero;stroke:none"
           d="m 3664.79,6863.05 c -0.07,7.88 -5.25,12.31 -14.57,12.31 -9.37,0 -15.43,-4.81 -15.43,-12.24 0,-6.32 3.18,-9.32 12.75,-11.63 l 6,-1.44 c 4.43,-1.06 6.18,-2.69 6.18,-5.62 0,-3.75 -3.75,-6.31 -9.37,-6.31 -3.44,0 -6.38,1 -8,2.68 -1,1.19 -1.44,2.32 -1.81,5.19 l -6.75,0 c 0.3,-9.31 5.5,-13.75 16.06,-13.75 10.12,0 16.56,5 16.56,12.75 0,6 -3.37,9.25 -11.37,11.19 l -6.13,1.5 c -5.25,1.18 -7.44,2.87 -7.44,5.75 0,3.69 3.32,6.06 8.5,6.06 5.12,0 7.94,-2.25 8.07,-6.44 l 6.75,0 z m 24.26,11.19 -6.63,0 0,11.06 -6.37,0 0,-11.06 -5.44,0 0,-5.25 5.44,0 0,-30.37 c 0,-4.07 2.81,-6.38 7.81,-6.38 1.5,0 3.06,0.12 5.19,0.5 l 0,5.38 c -0.82,-0.19 -1.82,-0.32 -3.06,-0.32 -2.76,0 -3.57,0.82 -3.57,3.63 l 0,27.56 6.63,0 0,5.25 z m 42.94,-36.5 c -0.76,-0.12 -1,-0.12 -1.44,-0.12 -2.19,0 -3.44,1.12 -3.44,3.12 l 0,23.69 c 0,7.12 -5.19,10.93 -15.12,10.93 -5.81,0 -10.69,-1.68 -13.38,-4.68 -1.81,-2.06 -2.62,-4.38 -2.75,-8.32 l 6.44,0 c 0.56,4.88 3.43,7.13 9.43,7.13 5.76,0 9,-2.19 9,-6 l 0,-1.69 c 0,-2.68 -1.62,-3.87 -6.68,-4.44 -9.06,-1.18 -10.44,-1.5 -12.87,-2.5 -4.69,-1.87 -7.07,-5.5 -7.07,-10.74 0,-7.32 5.07,-11.88 13.19,-11.88 5.06,0 9.12,1.75 13.69,5.88 0.43,-4.07 2.43,-5.88 6.56,-5.88 1.31,0 2.31,0.12 4.44,0.69 l 0,4.81 z m -11.26,8.94 c 0,-2.19 -0.62,-3.5 -2.5,-5.25 -2.62,-2.38 -5.81,-3.63 -9.55,-3.63 -5,0 -7.88,2.44 -7.88,6.5 0,4.19 2.81,6.38 9.62,7.38 6.81,0.87 8.19,1.18 10.31,2.18 l 0,-7.18 z m 18.19,27.56 0,-40.25 6.44,0 0,20.87 c 0,5.76 1.44,9.57 4.56,11.76 2,1.5 3.88,1.93 8.38,2 l 0,6.56 c -1.12,0.12 -1.62,0.18 -2.5,0.18 -4.12,0 -7.31,-2.43 -11,-8.43 l 0,7.31 -5.88,0 z m 39.83,0 -6.62,0 0,11.06 -6.38,0 0,-11.06 -5.43,0 0,-5.25 5.43,0 0,-30.37 c 0,-4.07 2.81,-6.38 7.81,-6.38 1.5,0 3.07,0.12 5.19,0.5 l 0,5.38 c -0.81,-0.19 -1.81,-0.32 -3.06,-0.32 -2.75,0 -3.56,0.82 -3.56,3.63 l 0,27.56 6.62,0 0,5.25 z m 35.43,-11.19 c -0.07,7.88 -5.26,12.31 -14.57,12.31 -9.38,0 -15.43,-4.81 -15.43,-12.24 0,-6.32 3.18,-9.32 12.74,-11.63 l 6,-1.44 c 4.44,-1.06 6.19,-2.69 6.19,-5.62 0,-3.75 -3.75,-6.31 -9.38,-6.31 -3.43,0 -6.37,1 -8,2.68 -1,1.19 -1.43,2.32 -1.81,5.19 l -6.74,0 c 0.31,-9.31 5.5,-13.75 16.05,-13.75 10.13,0 16.57,5 16.57,12.75 0,6 -3.38,9.25 -11.38,11.19 l -6.12,1.5 c -5.25,1.18 -7.44,2.87 -7.44,5.75 0,3.69 3.32,6.06 8.5,6.06 5.13,0 7.94,-2.25 8.06,-6.44 l 6.76,0 z m 65.45,-11.06 c 0,6.13 -0.44,9.81 -1.57,12.81 -2.62,6.63 -8.74,10.56 -16.31,10.56 -11.19,0 -18.43,-8.56 -18.43,-21.81 0,-13.19 7,-21.31 18.31,-21.31 9.19,0 15.56,5.19 17.19,13.94 l -6.44,0 c -1.82,-5.25 -5.38,-8.06 -10.56,-8.06 -4.07,0 -7.5,1.87 -9.69,5.24 -1.5,2.32 -2.07,4.63 -2.13,8.63 l 29.63,0 z m -29.44,5.19 c 0.5,7.44 5.06,12.31 11.5,12.31 6.31,0 11.13,-5.25 11.13,-11.81 0,-0.19 0,-0.32 -0.07,-0.5 l -22.56,0 z m 44.5,32.81 -6.44,0 0,-56 6.44,0 0,56 z m 44.8,-38 c 0,6.13 -0.44,9.81 -1.57,12.81 -2.62,6.63 -8.74,10.56 -16.31,10.56 -11.19,0 -18.43,-8.56 -18.43,-21.81 0,-13.19 7,-21.31 18.31,-21.31 9.19,0 15.56,5.19 17.19,13.94 l -6.45,0 c -1.81,-5.25 -5.37,-8.06 -10.55,-8.06 -4.07,0 -7.5,1.87 -9.69,5.24 -1.5,2.32 -2.07,4.63 -2.13,8.63 l 29.63,0 z m -29.44,5.19 c 0.5,7.44 5.06,12.31 11.5,12.31 6.31,0 11.13,-5.25 11.13,-11.81 0,-0.19 0,-0.32 -0.07,-0.5 l -22.56,0 z m 69,3.56 c -0.32,3.88 -1.19,6.44 -2.69,8.69 -2.75,3.75 -7.63,5.93 -13.25,5.93 -10.81,0 -17.88,-8.56 -17.88,-21.93 0,-13 6.95,-21.19 17.82,-21.19 9.63,0 15.68,5.75 16.44,15.56 l -6.44,0 c -1.06,-6.44 -4.37,-9.68 -9.82,-9.68 -7.05,0 -11.31,5.81 -11.31,15.31 0,10.06 4.13,16.06 11.13,16.06 5.37,0 8.75,-3.19 9.56,-8.75 l 6.44,0 z m 21.7,13.5 -6.62,0 0,11.06 -6.38,0 0,-11.06 -5.43,0 0,-5.25 5.43,0 0,-30.37 c 0,-4.07 2.81,-6.38 7.81,-6.38 1.5,0 3.07,0.12 5.19,0.5 l 0,5.38 c -0.81,-0.19 -1.81,-0.32 -3.06,-0.32 -2.75,0 -3.56,0.82 -3.56,3.63 l 0,27.56 6.62,0 0,5.25 z m 13.3,0 -6.37,0 0,-40.25 6.37,0 0,40.25 z m 0,15.75 -6.44,0 0,-8.06 6.44,0 0,8.06 z m 26.49,-14.63 c -11.25,0 -18.13,-8.06 -18.13,-21.56 0,-13.5 6.75,-21.56 18.25,-21.56 11.25,0 18.19,8.06 18.19,21.25 0,13.94 -6.69,21.87 -18.31,21.87 z m 0.12,-5.87 c 7.19,0 11.5,-5.94 11.5,-15.94 0,-9.43 -4.44,-15.43 -11.5,-15.43 -7.19,0 -11.57,5.93 -11.57,15.68 0,9.69 4.38,15.69 11.57,15.69 z m 27.13,4.75 0,-40.25 6.43,0 0,22.19 c 0,8.25 4.32,13.62 10.94,13.62 5.06,0 8.31,-3.06 8.31,-7.94 l 0,-27.87 6.38,0 0,30.44 c 0,6.69 -5,10.93 -12.76,10.93 -6,0 -9.87,-2.24 -13.37,-7.87 l 0,6.75" /><path
           inkscape:connector-curvature="0"
           id="path322"
           style="fill:none;stroke:#000000;stroke-width:9.60000038;stroke-linecap:round;stroke-linejoin:miter;stroke-miterlimit:4;stroke-opacity:1;stroke-dasharray:none"
           d="m 3931.29,6727.13 c 28.01,105.19 183.06,125.42 257.77,26.08" /><path
           inkscape:connector-curvature="0"
           id="path324"
           style="fill:#000000;fill-opacity:1;fill-rule:evenodd;stroke:none"
           d="m 4202.38,6735.51 -35.32,15 30.69,23.09" /><path
           inkscape:connector-curvature="0"
           id="path326"
           style="fill:none;stroke:#000000;stroke-width:4.80000019;stroke-linecap:butt;stroke-linejoin:miter;stroke-miterlimit:4;stroke-opacity:1;stroke-dasharray:none"
           d="m 4202.38,6735.51 -35.31,14.99 30.68,23.1 4.63,-38.09 z" /><path
           inkscape:connector-curvature="0"
           id="path328"
           style="fill:none;stroke:#000000;stroke-width:9.60000038;stroke-linecap:round;stroke-linejoin:miter;stroke-miterlimit:4;stroke-opacity:1;stroke-dasharray:none"
           d="m 3388.3,6882.84 c -2.92,-123.21 5.43,-207 98.24,-214.69" /><path
           inkscape:connector-curvature="0"
           id="path330"
           style="fill:#000000;fill-opacity:1;fill-rule:evenodd;stroke:none"
           d="m 3508.61,6666.32 -34.69,-16.39 3.17,38.26" /><path
           inkscape:connector-curvature="0"
           id="path332"
           style="fill:none;stroke:#000000;stroke-width:4.80000019;stroke-linecap:butt;stroke-linejoin:miter;stroke-miterlimit:4;stroke-opacity:1;stroke-dasharray:none"
           d="m 3508.61,6666.32 -34.69,-16.39 3.18,38.26 31.51,-21.87 z" /><path
           inkscape:connector-curvature="0"
           id="path334"
           style="fill:#000000;fill-opacity:1;fill-rule:nonzero;stroke:none"
           d="m 3317.82,6946.41 c -0.07,7.88 -5.26,12.31 -14.57,12.31 -9.37,0 -15.43,-4.81 -15.43,-12.24 0,-6.32 3.18,-9.32 12.74,-11.63 l 6,-1.44 c 4.44,-1.06 6.19,-2.69 6.19,-5.62 0,-3.75 -3.75,-6.31 -9.37,-6.31 -3.44,0 -6.38,1 -8,2.68 -1,1.19 -1.44,2.32 -1.82,5.19 l -6.74,0 c 0.31,-9.31 5.5,-13.75 16.06,-13.75 10.12,0 16.56,5 16.56,12.75 0,6 -3.38,9.25 -11.38,11.19 l -6.12,1.5 c -5.25,1.18 -7.44,2.87 -7.44,5.75 0,3.69 3.32,6.06 8.5,6.06 5.13,0 7.94,-2.25 8.06,-6.44 l 6.76,0 z m 24.26,11.19 -6.62,0 0,11.06 -6.38,0 0,-11.06 -5.44,0 0,-5.25 5.44,0 0,-30.37 c 0,-4.07 2.81,-6.38 7.81,-6.38 1.5,0 3.07,0.12 5.19,0.5 l 0,5.38 c -0.81,-0.19 -1.81,-0.32 -3.06,-0.32 -2.75,0 -3.56,0.82 -3.56,3.63 l 0,27.56 6.62,0 0,5.25 z m 42.94,-36.5 c -0.75,-0.12 -1,-0.12 -1.44,-0.12 -2.19,0 -3.44,1.12 -3.44,3.12 l 0,23.69 c 0,7.12 -5.18,10.93 -15.12,10.93 -5.81,0 -10.69,-1.68 -13.38,-4.68 -1.81,-2.06 -2.62,-4.38 -2.75,-8.32 l 6.44,0 c 0.56,4.88 3.44,7.13 9.44,7.13 5.75,0 9,-2.19 9,-6 l 0,-1.69 c 0,-2.68 -1.63,-3.87 -6.69,-4.44 -9.06,-1.18 -10.44,-1.5 -12.87,-2.5 -4.69,-1.87 -7.07,-5.5 -7.07,-10.74 0,-7.32 5.07,-11.88 13.19,-11.88 5.06,0 9.13,1.75 13.69,5.88 0.44,-4.07 2.44,-5.88 6.56,-5.88 1.31,0 2.31,0.12 4.44,0.69 l 0,4.81 z m -11.25,8.94 c 0,-2.19 -0.63,-3.5 -2.5,-5.25 -2.63,-2.38 -5.81,-3.63 -9.56,-3.63 -5,0 -7.88,2.44 -7.88,6.5 0,4.19 2.81,6.38 9.63,7.38 6.81,0.87 8.18,1.18 10.31,2.18 l 0,-7.18 z m 18.19,27.56 0,-40.25 6.43,0 0,20.87 c 0,5.76 1.44,9.57 4.57,11.76 2,1.5 3.87,1.93 8.37,2 l 0,6.56 c -1.12,0.12 -1.62,0.18 -2.5,0.18 -4.12,0 -7.31,-2.43 -11,-8.43 l 0,7.31 -5.87,0 z m 39.83,0 -6.63,0 0,11.06 -6.37,0 0,-11.06 -5.44,0 0,-5.25 5.44,0 0,-30.37 c 0,-4.07 2.8,-6.38 7.8,-6.38 1.5,0 3.07,0.12 5.2,0.5 l 0,5.38 c -0.82,-0.19 -1.82,-0.32 -3.07,-0.32 -2.75,0 -3.56,0.82 -3.56,3.63 l 0,27.56 6.63,0 0,5.25 z m 35.42,-11.19 c -0.07,7.88 -5.25,12.31 -14.57,12.31 -9.37,0 -15.43,-4.81 -15.43,-12.24 0,-6.32 3.18,-9.32 12.75,-11.63 l 6,-1.44 c 4.43,-1.06 6.18,-2.69 6.18,-5.62 0,-3.75 -3.75,-6.31 -9.37,-6.31 -3.44,0 -6.38,1 -8,2.68 -1,1.19 -1.44,2.32 -1.81,5.19 l -6.75,0 c 0.31,-9.31 5.5,-13.75 16.06,-13.75 10.12,0 16.56,5 16.56,12.75 0,6 -3.37,9.25 -11.37,11.19 l -6.13,1.5 c -5.25,1.18 -7.44,2.87 -7.44,5.75 0,3.69 3.32,6.06 8.5,6.06 5.13,0 7.94,-2.25 8.07,-6.44 l 6.75,0 z m 63.08,-29.06 0,40.25 -6.38,0 0,-22.81 c 0,-8.25 -4.25,-13.63 -10.94,-13.63 -5.06,0 -8.31,3.13 -8.31,7.94 l 0,28.5 -6.37,0 0,-31.06 c 0,-6.63 5,-10.94 12.8,-10.94 5.95,0 9.7,2.06 13.45,7.38 l 0,-5.63 5.75,0 z m 9.87,-16.75 6.5,0 0,21 c 3.38,-4.19 7.13,-6 12.31,-6 10.38,0 17.25,8.38 17.25,21.19 0,13.5 -6.63,21.93 -17.31,21.93 -5.44,0 -9.82,-2.43 -12.82,-7.18 l 0,6.06 -5.93,0 0,-57 z m 17.69,52.19 c 7.06,0 11.69,-6.25 11.69,-15.88 0,-9.12 -4.69,-15.31 -11.69,-15.31 -6.76,0 -11.19,6.12 -11.19,15.56 0,9.44 4.43,15.63 11.19,15.63" /><path
           inkscape:connector-curvature="0"
           id="path336"
           style="fill:#000000;fill-opacity:1;fill-rule:nonzero;stroke:none"
           d="m 4352.32,6385.15 -6.38,0 0,-20.81 c -2.69,4.05 -6.94,6.18 -12.38,6.18 -10.43,0 -17.24,-8.37 -17.24,-21.18 0,-13.57 6.68,-21.95 17.5,-21.95 5.56,0 9.37,2.07 12.81,7.07 l 0,-5.31 5.69,0 0,56 z m -17.63,-20.56 c 6.87,0 11.25,-6.2 11.25,-15.75 0,-9.32 -4.44,-15.45 -11.19,-15.45 -7.06,0 -11.75,6.2 -11.75,15.57 0,9.38 4.69,15.63 11.69,15.63 z m 33.87,4.8 -6.37,0 0,-40.24 6.37,0 0,40.24 z m 0,15.76 -6.43,0 0,-8.06 6.43,0 0,8.06 z m 39.23,-26.94 c -0.07,7.88 -5.25,12.31 -14.57,12.31 -9.37,0 -15.43,-4.81 -15.43,-12.25 0,-6.31 3.18,-9.31 12.75,-11.62 l 6,-1.44 c 4.43,-1.06 6.18,-2.69 6.18,-5.62 0,-3.75 -3.75,-6.32 -9.37,-6.32 -3.44,0 -6.38,1 -8,2.69 -1,1.19 -1.44,2.31 -1.81,5.19 l -6.75,0 c 0.3,-9.31 5.5,-13.76 16.06,-13.76 10.12,0 16.56,5 16.56,12.76 0,6 -3.37,9.24 -11.37,11.19 l -6.13,1.5 c -5.25,1.18 -7.44,2.87 -7.44,5.75 0,3.68 3.32,6.06 8.5,6.06 5.12,0 7.94,-2.26 8.07,-6.44 l 6.75,0 z m 40.96,-2.32 c -0.31,3.88 -1.19,6.45 -2.69,8.7 -2.74,3.75 -7.62,5.93 -13.24,5.93 -10.82,0 -17.88,-8.56 -17.88,-21.93 0,-13 6.94,-21.2 17.81,-21.2 9.63,0 15.69,5.76 16.44,15.57 l -6.44,0 c -1.06,-6.44 -4.37,-9.69 -9.81,-9.69 -7.06,0 -11.31,5.82 -11.31,15.32 0,10.06 4.12,16.06 11.12,16.06 5.38,0 8.75,-3.19 9.57,-8.76 l 6.43,0 z m 23.08,14.63 c -11.25,0 -18.12,-8.06 -18.12,-21.56 0,-13.5 6.75,-21.57 18.25,-21.57 11.25,0 18.18,8.07 18.18,21.26 0,13.94 -6.68,21.87 -18.31,21.87 z m 0.13,-5.87 c 7.18,0 11.5,-5.94 11.5,-15.94 0,-9.44 -4.44,-15.44 -11.5,-15.44 -7.19,0 -11.57,5.94 -11.57,15.69 0,9.69 4.38,15.69 11.57,15.69 z m 43.62,-35.5 15.44,40.24 -7.19,0 -11.37,-32.62 -10.75,32.62 -7.25,0 14.12,-40.24 7,0 z m 55.91,18 c 0,6.12 -0.44,9.81 -1.57,12.81 -2.62,6.63 -8.74,10.56 -16.31,10.56 -11.19,0 -18.43,-8.56 -18.43,-21.81 0,-13.19 7,-21.32 18.31,-21.32 9.19,0 15.56,5.2 17.19,13.95 l -6.45,0 c -1.81,-5.25 -5.37,-8.07 -10.55,-8.07 -4.07,0 -7.5,1.88 -9.69,5.25 -1.5,2.32 -2.07,4.63 -2.13,8.63 l 29.63,0 z m -29.44,5.19 c 0.5,7.43 5.06,12.31 11.5,12.31 6.31,0 11.13,-5.26 11.13,-11.81 0,-0.19 0,-0.32 -0.07,-0.5 l -22.56,0 z m 38.13,17.05 0,-40.24 6.43,0 0,20.87 c 0,5.75 1.44,9.57 4.57,11.75 2,1.5 3.87,1.94 8.37,2 l 0,6.57 c -1.13,0.12 -1.63,0.18 -2.5,0.18 -4.13,0 -7.32,-2.43 -11,-8.43 l 0,7.3 -5.87,0 z m 53.96,-11.18 c -0.06,7.88 -5.25,12.31 -14.56,12.31 -9.37,0 -15.44,-4.81 -15.44,-12.25 0,-6.31 3.19,-9.31 12.75,-11.62 l 6,-1.44 c 4.44,-1.06 6.19,-2.69 6.19,-5.62 0,-3.75 -3.75,-6.32 -9.37,-6.32 -3.44,0 -6.38,1 -8,2.69 -1,1.19 -1.44,2.31 -1.82,5.19 l -6.75,0 c 0.32,-9.31 5.5,-13.76 16.07,-13.76 10.12,0 16.56,5 16.56,12.76 0,6 -3.38,9.24 -11.38,11.19 l -6.12,1.5 c -5.25,1.18 -7.44,2.87 -7.44,5.75 0,3.68 3.31,6.06 8.5,6.06 5.13,0 7.94,-2.26 8.06,-6.44 l 6.75,0 z m 59.69,0 c -0.06,7.88 -5.25,12.31 -14.56,12.31 -9.38,0 -15.44,-4.81 -15.44,-12.25 0,-6.31 3.19,-9.31 12.75,-11.62 l 6,-1.44 c 4.44,-1.06 6.19,-2.69 6.19,-5.62 0,-3.75 -3.75,-6.32 -9.38,-6.32 -3.43,0 -6.37,1 -8,2.69 -1,1.19 -1.43,2.31 -1.81,5.19 l -6.75,0 c 0.31,-9.31 5.5,-13.76 16.06,-13.76 10.13,0 16.57,5 16.57,12.76 0,6 -3.38,9.24 -11.38,11.19 l -6.12,1.5 c -5.25,1.18 -7.44,2.87 -7.44,5.75 0,3.68 3.31,6.06 8.5,6.06 5.12,0 7.94,-2.26 8.06,-6.44 l 6.75,0 z m 44.16,-11.06 c 0,6.12 -0.44,9.81 -1.57,12.81 -2.62,6.63 -8.74,10.56 -16.31,10.56 -11.19,0 -18.43,-8.56 -18.43,-21.81 0,-13.19 7,-21.32 18.31,-21.32 9.19,0 15.56,5.2 17.19,13.95 l -6.45,0 c -1.81,-5.25 -5.37,-8.07 -10.55,-8.07 -4.07,0 -7.5,1.88 -9.69,5.25 -1.5,2.32 -2.07,4.63 -2.13,8.63 l 29.63,0 z m -29.44,5.19 c 0.5,7.43 5.06,12.31 11.5,12.31 6.31,0 11.13,-5.26 11.13,-11.81 0,-0.19 0,-0.32 -0.07,-0.5 l -22.56,0 z m 38.13,17.05 0,-40.24 6.43,0 0,20.87 c 0,5.75 1.44,9.57 4.57,11.75 2,1.5 3.87,1.94 8.37,2 l 0,6.57 c -1.13,0.12 -1.63,0.18 -2.5,0.18 -4.13,0 -7.32,-2.43 -11,-8.43 l 0,7.3 -5.87,0 z m 42.21,-40.24 15.44,40.24 -7.19,0 -11.37,-32.62 -10.75,32.62 -7.25,0 14.12,-40.24 7,0 z m 55.9,18 c 0,6.12 -0.44,9.81 -1.57,12.81 -2.63,6.63 -8.75,10.56 -16.31,10.56 -11.19,0 -18.44,-8.56 -18.44,-21.81 0,-13.19 7,-21.32 18.32,-21.32 9.18,0 15.56,5.2 17.18,13.95 l -6.43,0 c -1.82,-5.25 -5.38,-8.07 -10.57,-8.07 -4.06,0 -7.5,1.88 -9.68,5.25 -1.5,2.32 -2.07,4.63 -2.13,8.63 l 29.63,0 z m -29.44,5.19 c 0.5,7.43 5.06,12.31 11.5,12.31 6.31,0 11.12,-5.26 11.12,-11.81 0,-0.19 0,-0.32 -0.06,-0.5 l -22.56,0 z m 38.12,17.05 0,-40.24 6.44,0 0,20.87 c 0,5.75 1.44,9.57 4.56,11.75 2,1.5 3.88,1.94 8.38,2 l 0,6.57 c -1.13,0.12 -1.63,0.18 -2.5,0.18 -4.13,0 -7.31,-2.43 -11,-8.43 l 0,7.3" /><path
           inkscape:connector-curvature="0"
           id="path338"
           style="fill:#000000;fill-opacity:1;fill-rule:nonzero;stroke:none"
           d="m 4363.25,6233.15 11.81,40.24 -7.18,0 -8,-31.3 -7.94,31.3 -7.81,0 -7.69,-31.3 -8.25,31.3 -7.06,0 11.69,-40.24 7.24,0 7.76,31.56 8.12,-31.56 7.31,0 z m 24.44,40.24 -6.37,0 0,-40.24 6.37,0 0,40.24 z m 0,15.76 -6.44,0 0,-8.06 6.44,0 0,8.06 z m 25.1,-15.76 -6.63,0 0,11.07 -6.37,0 0,-11.07 -5.44,0 0,-5.24 5.44,0 0,-30.38 c 0,-4.06 2.8,-6.38 7.8,-6.38 1.5,0 3.07,0.13 5.2,0.5 l 0,5.38 c -0.82,-0.18 -1.82,-0.31 -3.07,-0.31 -2.75,0 -3.56,0.81 -3.56,3.63 l 0,27.56 6.63,0 0,5.24 z m 7.17,15.76 0,-56 6.37,0 0,22.19 c 0,8.25 4.31,13.62 10.94,13.62 2.06,0 4.12,-0.69 5.69,-1.87 1.81,-1.32 2.56,-3.2 2.56,-6.07 l 0,-27.87 6.37,0 0,30.44 c 0,6.75 -4.81,10.93 -12.62,10.93 -5.69,0 -9.19,-1.75 -12.94,-6.63 l 0,21.26 -6.37,0 z m 64.06,0 0,-56 6.37,0 0,22.19 c 0,8.25 4.32,13.62 10.94,13.62 2.06,0 4.13,-0.69 5.69,-1.87 1.81,-1.32 2.56,-3.2 2.56,-6.07 l 0,-27.87 6.38,0 0,30.44 c 0,6.75 -4.82,10.93 -12.63,10.93 -5.69,0 -9.19,-1.75 -12.94,-6.63 l 0,21.26 -6.37,0 z m 48.87,-15.76 -6.37,0 0,-40.24 6.37,0 0,40.24 z m 0,15.76 -6.43,0 0,-8.06 6.43,0 0,8.06 z m 37.22,-15.76 0,-5.8 c -3.19,4.75 -7.12,6.93 -12.25,6.93 -10.25,0 -17.13,-8.87 -17.13,-21.93 0,-6.63 1.76,-12 5.07,-15.82 3,-3.38 7.31,-5.38 11.5,-5.38 5.06,0 8.62,2.13 12.25,7.2 l 0,-2.07 c 0,-5.43 -0.75,-8.75 -2.32,-11 -1.68,-2.37 -5,-3.75 -8.93,-3.75 -2.94,0 -5.5,0.75 -7.31,2.19 -1.44,1.13 -2.07,2.19 -2.44,4.56 l -6.5,0 c 0.68,-7.56 6.56,-12.13 16,-12.13 6,0 11.18,1.95 13.75,5.13 3.12,3.69 4.25,8.82 4.25,18.25 l 0,33.62 -5.94,0 z m -11.56,-4.74 c 6.87,0 11,-5.88 11,-15.94 0,-9.56 -4.19,-15.44 -10.94,-15.44 -7,0 -11.19,5.94 -11.19,15.69 0,9.69 4.26,15.69 11.13,15.69 z m 28.06,20.5 0,-56 6.38,0 0,22.19 c 0,8.25 4.31,13.62 10.93,13.62 2.07,0 4.13,-0.69 5.69,-1.87 1.81,-1.32 2.57,-3.2 2.57,-6.07 l 0,-27.87 6.37,0 0,30.44 c 0,6.75 -4.82,10.93 -12.63,10.93 -5.69,0 -9.19,-1.75 -12.93,-6.63 l 0,21.26 -6.38,0 z m 76.75,-38 c 0,6.12 -0.44,9.81 -1.56,12.81 -2.62,6.63 -8.75,10.56 -16.31,10.56 -11.19,0 -18.44,-8.56 -18.44,-21.81 0,-13.19 7,-21.32 18.31,-21.32 9.19,0 15.56,5.2 17.19,13.95 l -6.44,0 c -1.81,-5.25 -5.38,-8.07 -10.56,-8.07 -4.06,0 -7.5,1.88 -9.69,5.25 -1.5,2.32 -2.06,4.63 -2.13,8.63 l 29.63,0 z m -29.44,5.19 c 0.5,7.43 5.07,12.31 11.5,12.31 6.31,0 11.13,-5.26 11.13,-11.81 0,-0.19 0,-0.32 -0.06,-0.5 l -22.57,0 z m 38.13,17.05 0,-40.24 6.44,0 0,20.87 c 0,5.75 1.43,9.57 4.56,11.75 2,1.5 3.87,1.94 8.37,2 l 0,6.57 c -1.12,0.12 -1.62,0.18 -2.5,0.18 -4.12,0 -7.31,-2.43 -11,-8.43 l 0,7.3 -5.87,0 z m 61.14,0 -6.63,0 0,11.07 -6.37,0 0,-11.07 -5.44,0 0,-5.24 5.44,0 0,-30.38 c 0,-4.06 2.81,-6.38 7.81,-6.38 1.5,0 3.06,0.13 5.19,0.5 l 0,5.38 c -0.81,-0.18 -1.81,-0.31 -3.06,-0.31 -2.75,0 -3.57,0.81 -3.57,3.63 l 0,27.56 6.63,0 0,5.24 z m 41.17,-22.24 c 0,6.12 -0.44,9.81 -1.56,12.81 -2.62,6.63 -8.75,10.56 -16.31,10.56 -11.19,0 -18.44,-8.56 -18.44,-21.81 0,-13.19 7,-21.32 18.31,-21.32 9.19,0 15.56,5.2 17.19,13.95 l -6.44,0 c -1.81,-5.25 -5.38,-8.07 -10.56,-8.07 -4.06,0 -7.5,1.88 -9.69,5.25 -1.5,2.32 -2.06,4.63 -2.13,8.63 l 29.63,0 z m -29.44,5.19 c 0.5,7.43 5.07,12.31 11.5,12.31 6.31,0 11.13,-5.26 11.13,-11.81 0,-0.19 0,-0.32 -0.06,-0.5 l -22.57,0 z m 38.13,17.05 0,-40.24 6.44,0 0,20.87 c 0,5.75 1.43,9.57 4.56,11.75 2,1.5 3.87,1.94 8.37,2 l 0,6.57 c -1.12,0.12 -1.62,0.18 -2.5,0.18 -4.12,0 -7.31,-2.43 -11,-8.43 l 0,7.3 -5.87,0 z m 25.72,0 0,-40.24 6.44,0 0,25.24 c 0,5.88 4.25,10.57 9.43,10.57 4.82,0 7.5,-2.94 7.5,-8.07 l 0,-27.74 6.44,0 0,25.24 c 0,5.88 4.19,10.57 9.44,10.57 4.69,0 7.44,-3 7.44,-8.07 l 0,-27.74 6.5,0 0,30.19 c 0,7.25 -4.19,11.18 -11.69,11.18 -5.38,0 -8.63,-1.56 -12.38,-6.13 -2.37,4.32 -5.62,6.13 -10.81,6.13 -5.37,0 -8.94,-2 -12.37,-6.81 l 0,5.68" /><path
           inkscape:connector-curvature="0"
           id="path340"
           style="fill:none;stroke:#000000;stroke-width:9.60000038;stroke-linecap:round;stroke-linejoin:miter;stroke-miterlimit:4;stroke-opacity:1;stroke-dasharray:none"
           d="m 4235.46,6585.24 c -411.74,-241.97 -467.27,-67.19 -483.32,-24.59" /><path
           inkscape:connector-curvature="0"
           id="path342"
           style="fill:#000000;fill-opacity:1;fill-rule:evenodd;stroke:none"
           d="m 3744.32,6581.38 29.68,-24.31 -35.94,-13.55" /><path
           inkscape:connector-curvature="0"
           id="path344"
           style="fill:none;stroke:#000000;stroke-width:4.80000019;stroke-linecap:butt;stroke-linejoin:miter;stroke-miterlimit:4;stroke-opacity:1;stroke-dasharray:none"
           d="m 3744.31,6581.38 29.69,-24.31 -35.93,-13.55 6.24,37.86 z" /><path
           inkscape:connector-curvature="0"
           id="path346"
           style="fill:#000000;fill-opacity:1;fill-rule:nonzero;stroke:none"
           d="m 3506.46,6375.07 -6.38,0 0,-20.81 c -2.69,4.06 -6.94,6.19 -12.37,6.19 -10.44,0 -17.25,-8.38 -17.25,-21.19 0,-13.57 6.68,-21.94 17.5,-21.94 5.56,0 9.37,2.06 12.81,7.06 l 0,-5.31 5.69,0 0,56 z m -17.63,-20.56 c 6.88,0 11.25,-6.19 11.25,-15.75 0,-9.31 -4.44,-15.44 -11.19,-15.44 -7.06,0 -11.75,6.19 -11.75,15.56 0,9.38 4.69,15.63 11.69,15.63 z m 33.88,4.81 -6.38,0 0,-40.25 6.38,0 0,40.25 z m 0,15.75 -6.44,0 0,-8.06 6.44,0 0,8.06 z m 39.21,-26.94 c -0.06,7.88 -5.24,12.32 -14.56,12.32 -9.37,0 -15.44,-4.82 -15.44,-12.26 0,-6.31 3.19,-9.31 12.76,-11.62 l 6,-1.44 c 4.43,-1.06 6.18,-2.68 6.18,-5.62 0,-3.75 -3.75,-6.32 -9.37,-6.32 -3.44,0 -6.38,1 -8,2.69 -1,1.19 -1.44,2.31 -1.81,5.19 l -6.76,0 c 0.31,-9.31 5.5,-13.75 16.07,-13.75 10.12,0 16.56,5 16.56,12.75 0,6 -3.37,9.25 -11.37,11.19 l -6.13,1.5 c -5.25,1.19 -7.44,2.87 -7.44,5.75 0,3.68 3.31,6.06 8.5,6.06 5.12,0 7.94,-2.25 8.07,-6.44 l 6.74,0 z m 40.97,-2.31 c -0.31,3.87 -1.18,6.44 -2.68,8.69 -2.75,3.75 -7.63,5.94 -13.25,5.94 -10.82,0 -17.88,-8.57 -17.88,-21.94 0,-13 6.94,-21.19 17.81,-21.19 9.63,0 15.69,5.75 16.44,15.56 l -6.44,0 c -1.06,-6.43 -4.37,-9.69 -9.81,-9.69 -7.06,0 -11.31,5.82 -11.31,15.32 0,10.06 4.12,16.06 11.12,16.06 5.38,0 8.75,-3.19 9.57,-8.75 l 6.43,0 z m 23.1,14.63 c -11.26,0 -18.13,-8.07 -18.13,-21.57 0,-13.5 6.75,-21.56 18.25,-21.56 11.25,0 18.19,8.06 18.19,21.25 0,13.94 -6.69,21.88 -18.31,21.88 z m 0.12,-5.88 c 7.19,0 11.5,-5.94 11.5,-15.94 0,-9.44 -4.43,-15.44 -11.5,-15.44 -7.19,0 -11.56,5.94 -11.56,15.69 0,9.69 4.37,15.69 11.56,15.69 z m 43.62,-35.5 15.45,40.25 -7.19,0 -11.38,-32.63 -10.75,32.63 -7.25,0 14.12,-40.25 7,0 z m 55.9,18 c 0,6.12 -0.44,9.81 -1.57,12.81 -2.62,6.63 -8.74,10.57 -16.31,10.57 -11.19,0 -18.43,-8.57 -18.43,-21.82 0,-13.18 7,-21.31 18.31,-21.31 9.19,0 15.56,5.19 17.19,13.94 l -6.44,0 c -1.82,-5.25 -5.38,-8.07 -10.56,-8.07 -4.07,0 -7.5,1.88 -9.69,5.26 -1.5,2.31 -2.07,4.62 -2.13,8.62 l 29.63,0 z m -29.44,5.19 c 0.5,7.43 5.06,12.31 11.5,12.31 6.31,0 11.13,-5.25 11.13,-11.81 0,-0.19 0,-0.31 -0.07,-0.5 l -22.56,0 z m 38.13,17.06 0,-40.25 6.43,0 0,20.88 c 0,5.74 1.44,9.56 4.57,11.74 2,1.5 3.87,1.94 8.37,2 l 0,6.57 c -1.13,0.12 -1.63,0.19 -2.5,0.19 -4.13,0 -7.31,-2.44 -11,-8.44 l 0,7.31 -5.87,0 z m 53.97,-11.19 c -0.07,7.88 -5.25,12.32 -14.57,12.32 -9.37,0 -15.43,-4.82 -15.43,-12.26 0,-6.31 3.18,-9.31 12.75,-11.62 l 6,-1.44 c 4.43,-1.06 6.18,-2.68 6.18,-5.62 0,-3.75 -3.75,-6.32 -9.37,-6.32 -3.44,0 -6.38,1 -8,2.69 -1,1.19 -1.44,2.31 -1.81,5.19 l -6.75,0 c 0.3,-9.31 5.5,-13.75 16.06,-13.75 10.12,0 16.56,5 16.56,12.75 0,6 -3.37,9.25 -11.37,11.19 l -6.13,1.5 c -5.25,1.19 -7.44,2.87 -7.44,5.75 0,3.68 3.32,6.06 8.5,6.06 5.12,0 7.94,-2.25 8.07,-6.44 l 6.75,0 z m 62.26,-2.31 c -0.32,3.87 -1.19,6.44 -2.69,8.69 -2.75,3.75 -7.63,5.94 -13.25,5.94 -10.81,0 -17.88,-8.57 -17.88,-21.94 0,-13 6.95,-21.19 17.82,-21.19 9.63,0 15.68,5.75 16.44,15.56 l -6.44,0 c -1.06,-6.43 -4.37,-9.69 -9.82,-9.69 -7.05,0 -11.31,5.82 -11.31,15.32 0,10.06 4.13,16.06 11.13,16.06 5.37,0 8.75,-3.19 9.56,-8.75 l 6.44,0 z m 39.2,-26.75 0,40.25 -6.37,0 0,-22.81 c 0,-8.25 -4.25,-13.63 -10.94,-13.63 -5.06,0 -8.31,3.13 -8.31,7.94 l 0,28.5 -6.38,0 0,-31.06 c 0,-6.63 5,-10.94 12.81,-10.94 5.94,0 9.69,2.06 13.44,7.37 l 0,-5.62 5.75,0 z m 11.07,40.25 0,-40.25 6.43,0 0,20.88 c 0,5.74 1.44,9.56 4.57,11.74 2,1.5 3.87,1.94 8.37,2 l 0,6.57 c -1.13,0.12 -1.63,0.19 -2.5,0.19 -4.13,0 -7.31,-2.44 -11,-8.44 l 0,7.31 -5.87,0 z m 25.65,0 0,-40.25 6.44,0 0,20.88 c 0,5.74 1.44,9.56 4.56,11.74 2,1.5 3.88,1.94 8.38,2 l 0,6.57 c -1.13,0.12 -1.63,0.19 -2.5,0.19 -4.13,0 -7.31,-2.44 -11,-8.44 l 0,7.31 -5.88,0 z m 59.71,-22.25 c 0,6.12 -0.45,9.81 -1.57,12.81 -2.62,6.63 -8.75,10.57 -16.31,10.57 -11.19,0 -18.44,-8.57 -18.44,-21.82 0,-13.18 7,-21.31 18.32,-21.31 9.18,0 15.55,5.19 17.18,13.94 l -6.44,0 c -1.81,-5.25 -5.37,-8.07 -10.56,-8.07 -4.06,0 -7.5,1.88 -9.68,5.26 -1.5,2.31 -2.07,4.62 -2.13,8.62 l 29.63,0 z m -29.45,5.19 c 0.5,7.43 5.07,12.31 11.5,12.31 6.32,0 11.13,-5.25 11.13,-11.81 0,-0.19 0,-0.31 -0.06,-0.5 l -22.57,0 z m 38.19,17.06 0,-40.25 6.44,0 0,22.19 c 0,8.25 4.32,13.62 10.94,13.62 5.06,0 8.31,-3.06 8.31,-7.93 l 0,-27.88 6.38,0 0,30.44 c 0,6.68 -5,10.94 -12.76,10.94 -6,0 -9.87,-2.26 -13.37,-7.88 l 0,6.75 -5.94,0 z m 56.88,0 -6.62,0 0,11.06 -6.38,0 0,-11.06 -5.44,0 0,-5.25 5.44,0 0,-30.38 c 0,-4.06 2.81,-6.37 7.81,-6.37 1.5,0 3.07,0.13 5.19,0.5 l 0,5.37 c -0.81,-0.18 -1.81,-0.31 -3.07,-0.31 -2.74,0 -3.55,0.81 -3.55,3.63 l 0,27.56 6.62,0" /><path
           inkscape:connector-curvature="0"
           id="path348"
           style="fill:#000000;fill-opacity:1;fill-rule:nonzero;stroke:none"
           d="m 3452.32,6279.07 -6.44,0 0,-56 6.44,0 0,56 z m 44.79,-38 c 0,6.12 -0.43,9.81 -1.56,12.81 -2.63,6.63 -8.75,10.57 -16.32,10.57 -11.18,0 -18.43,-8.57 -18.43,-21.82 0,-13.18 7,-21.31 18.31,-21.31 9.19,0 15.57,5.19 17.19,13.94 l -6.44,0 c -1.81,-5.25 -5.37,-8.07 -10.56,-8.07 -4.07,0 -7.5,1.88 -9.69,5.26 -1.5,2.31 -2.06,4.62 -2.12,8.62 l 29.62,0 z m -29.43,5.19 c 0.5,7.43 5.05,12.31 11.5,12.31 6.31,0 11.12,-5.25 11.12,-11.81 0,-0.19 0,-0.31 -0.07,-0.5 l -22.55,0 z m 73.93,-19.44 c -0.75,-0.13 -1,-0.13 -1.43,-0.13 -2.19,0 -3.45,1.13 -3.45,3.13 l 0,23.69 c 0,7.12 -5.18,10.94 -15.12,10.94 -5.81,0 -10.69,-1.69 -13.38,-4.69 -1.81,-2.07 -2.62,-4.38 -2.74,-8.31 l 6.43,0 c 0.57,4.87 3.44,7.12 9.44,7.12 5.75,0 9,-2.19 9,-6 l 0,-1.69 c 0,-2.69 -1.63,-3.87 -6.68,-4.43 -9.07,-1.19 -10.45,-1.5 -12.88,-2.5 -4.69,-1.88 -7.07,-5.5 -7.07,-10.76 0,-7.31 5.07,-11.87 13.19,-11.87 5.07,0 9.13,1.75 13.69,5.87 0.44,-4.06 2.44,-5.87 6.57,-5.87 1.31,0 2.31,0.13 4.43,0.69 l 0,4.81 z m -11.25,8.94 c 0,-2.19 -0.63,-3.5 -2.5,-5.25 -2.63,-2.38 -5.81,-3.63 -9.56,-3.63 -5,0 -7.88,2.44 -7.88,6.5 0,4.19 2.81,6.38 9.63,7.38 6.81,0.87 8.18,1.19 10.31,2.19 l 0,-7.19 z m 50.87,43.31 -6.37,0 0,-20.81 c -2.68,4.06 -6.94,6.19 -12.37,6.19 -10.44,0 -17.26,-8.38 -17.26,-21.19 0,-13.57 6.69,-21.94 17.5,-21.94 5.57,0 9.38,2.06 12.82,7.06 l 0,-5.31 5.68,0 0,56 z m -17.62,-20.56 c 6.88,0 11.25,-6.19 11.25,-15.75 0,-9.31 -4.44,-15.44 -11.18,-15.44 -7.07,0 -11.76,6.19 -11.76,15.56 0,9.38 4.69,15.63 11.69,15.63 z m 61.75,-17.44 c 0,6.12 -0.44,9.81 -1.56,12.81 -2.62,6.63 -8.75,10.57 -16.31,10.57 -11.19,0 -18.44,-8.57 -18.44,-21.82 0,-13.18 7,-21.31 18.31,-21.31 9.19,0 15.56,5.19 17.19,13.94 l -6.44,0 c -1.81,-5.25 -5.38,-8.07 -10.56,-8.07 -4.06,0 -7.5,1.88 -9.69,5.26 -1.5,2.31 -2.06,4.62 -2.13,8.62 l 29.63,0 z m -29.44,5.19 c 0.5,7.43 5.07,12.31 11.5,12.31 6.31,0 11.13,-5.25 11.13,-11.81 0,-0.19 0,-0.31 -0.06,-0.5 l -22.57,0 z m 38.13,17.06 0,-40.25 6.44,0 0,20.88 c 0,5.74 1.43,9.56 4.56,11.74 2,1.5 3.87,1.94 8.37,2 l 0,6.57 c -1.12,0.12 -1.62,0.19 -2.5,0.19 -4.12,0 -7.31,-2.44 -11,-8.44 l 0,7.31 -5.87,0 z m 62.5,1.13 c -11.25,0 -18.13,-8.07 -18.13,-21.57 0,-13.5 6.76,-21.56 18.26,-21.56 11.24,0 18.18,8.06 18.18,21.25 0,13.94 -6.68,21.88 -18.31,21.88 z m 0.13,-5.88 c 7.18,0 11.5,-5.94 11.5,-15.94 0,-9.44 -4.45,-15.44 -11.5,-15.44 -7.19,0 -11.57,5.94 -11.57,15.69 0,9.69 4.38,15.69 11.57,15.69 z m 27.05,4.75 0,-40.25 6.45,0 0,20.88 c 0,5.74 1.43,9.56 4.55,11.74 2,1.5 3.88,1.94 8.38,2 l 0,6.57 c -1.12,0.12 -1.62,0.19 -2.5,0.19 -4.12,0 -7.31,-2.44 -11,-8.44 l 0,7.31 -5.88,0 z m 47.02,0 0,-40.25 6.44,0 0,22.19 c 0,8.25 4.31,13.62 10.94,13.62 5.06,0 8.31,-3.06 8.31,-7.93 l 0,-27.88 6.38,0 0,30.44 c 0,6.68 -5,10.94 -12.76,10.94 -6,0 -9.87,-2.26 -13.37,-7.88 l 0,6.75 -5.94,0 z m 76.75,-22.25 c 0,6.12 -0.44,9.81 -1.56,12.81 -2.62,6.63 -8.75,10.57 -16.31,10.57 -11.19,0 -18.44,-8.57 -18.44,-21.82 0,-13.18 7,-21.31 18.31,-21.31 9.19,0 15.56,5.19 17.19,13.94 l -6.44,0 c -1.81,-5.25 -5.37,-8.07 -10.56,-8.07 -4.06,0 -7.5,1.88 -9.69,5.26 -1.5,2.31 -2.06,4.62 -2.12,8.62 l 29.62,0 z m -29.44,5.19 c 0.5,7.43 5.07,12.31 11.5,12.31 6.32,0 11.13,-5.25 11.13,-11.81 0,-0.19 0,-0.31 -0.06,-0.5 l -22.57,0 z m 75.38,-23.19 11.81,40.25 -7.19,0 -8,-31.31 -7.93,31.31 -7.81,0 -7.69,-31.31 -8.25,31.31 -7.06,0 11.68,-40.25 7.25,0 7.75,31.56 8.13,-31.56 7.31,0 z m 53.74,40.25 -6.63,0 0,11.06 -6.37,0 0,-11.06 -5.45,0 0,-5.25 5.45,0 0,-30.38 c 0,-4.06 2.81,-6.37 7.81,-6.37 1.5,0 3.06,0.13 5.19,0.5 l 0,5.37 c -0.82,-0.18 -1.82,-0.31 -3.07,-0.31 -2.75,0 -3.56,0.81 -3.56,3.63 l 0,27.56 6.63,0 0,5.25 z m 41.18,-22.25 c 0,6.12 -0.44,9.81 -1.56,12.81 -2.62,6.63 -8.75,10.57 -16.31,10.57 -11.19,0 -18.44,-8.57 -18.44,-21.82 0,-13.18 7,-21.31 18.31,-21.31 9.19,0 15.56,5.19 17.19,13.94 l -6.44,0 c -1.81,-5.25 -5.38,-8.07 -10.56,-8.07 -4.06,0 -7.5,1.88 -9.69,5.26 -1.5,2.31 -2.06,4.62 -2.13,8.62 l 29.63,0 z m -29.44,5.19 c 0.5,7.43 5.07,12.31 11.5,12.31 6.31,0 11.13,-5.25 11.13,-11.81 0,-0.19 0,-0.31 -0.06,-0.5 l -22.57,0 z m 38.13,17.06 0,-40.25 6.44,0 0,20.88 c 0,5.74 1.43,9.56 4.56,11.74 2,1.5 3.87,1.94 8.37,2 l 0,6.57 c -1.12,0.12 -1.62,0.19 -2.5,0.19 -4.12,0 -7.31,-2.44 -11,-8.44 l 0,7.31 -5.87,0 z m 25.7,0 0,-40.25 6.44,0 0,25.25 c 0,5.87 4.25,10.56 9.44,10.56 4.81,0 7.5,-2.93 7.5,-8.06 l 0,-27.75 6.43,0 0,25.25 c 0,5.87 4.19,10.56 9.44,10.56 4.69,0 7.44,-3 7.44,-8.06 l 0,-27.75 6.5,0 0,30.19 c 0,7.25 -4.19,11.19 -11.69,11.19 -5.37,0 -8.62,-1.57 -12.37,-6.13 -2.38,4.31 -5.63,6.13 -10.82,6.13 -5.37,0 -8.93,-2 -12.37,-6.82 l 0,5.69" /><path
           inkscape:connector-curvature="0"
           id="path350"
           style="fill:none;stroke:#000000;stroke-width:9.60000038;stroke-linecap:round;stroke-linejoin:miter;stroke-miterlimit:4;stroke-opacity:1;stroke-dasharray:none"
           d="m 4324.29,6732.82 c -139.87,213.55 207.25,240.9 114.96,31.78" /><path
           inkscape:connector-curvature="0"
           id="path352"
           style="fill:#000000;fill-opacity:1;fill-rule:evenodd;stroke:none"
           d="m 4430.3,6744.34 -4.16,38.14 35.15,-15.5" /><path
           inkscape:connector-curvature="0"
           id="path354"
           style="fill:none;stroke:#000000;stroke-width:4.80000019;stroke-linecap:butt;stroke-linejoin:miter;stroke-miterlimit:4;stroke-opacity:1;stroke-dasharray:none"
           d="m 4430.3,6744.33 -4.16,38.15 35.14,-15.5 -30.98,-22.65 z" /><path
           inkscape:connector-curvature="0"
           id="path356"
           style="fill:#000000;fill-opacity:1;fill-rule:nonzero;stroke:none"
           d="m 4241.83,7064.22 -6.62,0 0,11.07 -6.38,0 0,-11.07 -5.44,0 0,-5.24 5.44,0 0,-30.38 c 0,-4.06 2.81,-6.38 7.81,-6.38 1.5,0 3.07,0.13 5.19,0.5 l 0,5.38 c -0.81,-0.19 -1.81,-0.31 -3.06,-0.31 -2.75,0 -3.56,0.81 -3.56,3.62 l 0,27.57 6.62,0 0,5.24 z m 13.3,0 -6.38,0 0,-40.24 6.38,0 0,40.24 z m 0,15.76 -6.44,0 0,-8.07 6.44,0 0,8.07 z m 10.96,-15.76 0,-40.24 6.45,0 0,25.24 c 0,5.88 4.25,10.57 9.43,10.57 4.82,0 7.5,-2.94 7.5,-8.07 l 0,-27.74 6.44,0 0,25.24 c 0,5.88 4.18,10.57 9.44,10.57 4.69,0 7.44,-3 7.44,-8.07 l 0,-27.74 6.5,0 0,30.18 c 0,7.25 -4.2,11.19 -11.7,11.19 -5.37,0 -8.62,-1.56 -12.37,-6.13 -2.37,4.32 -5.63,6.13 -10.81,6.13 -5.37,0 -8.94,-2 -12.37,-6.81 l 0,5.68 -5.95,0 z m 98.05,-22.24 c 0,6.12 -0.43,9.81 -1.56,12.81 -2.62,6.62 -8.75,10.56 -16.31,10.56 -11.19,0 -18.44,-8.56 -18.44,-21.81 0,-13.19 7,-21.32 18.31,-21.32 9.19,0 15.57,5.19 17.19,13.94 l -6.44,0 c -1.81,-5.25 -5.37,-8.06 -10.56,-8.06 -4.06,0 -7.5,1.88 -9.69,5.25 -1.5,2.31 -2.06,4.63 -2.12,8.63 l 29.62,0 z m -29.43,5.18 c 0.5,7.44 5.06,12.32 11.5,12.32 6.31,0 11.12,-5.26 11.12,-11.82 0,-0.18 0,-0.31 -0.06,-0.5 l -22.56,0 z m 66.43,5.88 c -0.06,7.87 -5.25,12.31 -14.56,12.31 -9.37,0 -15.44,-4.81 -15.44,-12.25 0,-6.31 3.19,-9.31 12.75,-11.62 l 6,-1.44 c 4.44,-1.06 6.19,-2.69 6.19,-5.63 0,-3.75 -3.75,-6.31 -9.37,-6.31 -3.44,0 -6.38,1 -8,2.69 -1,1.19 -1.44,2.31 -1.82,5.19 l -6.75,0 c 0.32,-9.32 5.5,-13.76 16.07,-13.76 10.12,0 16.56,5 16.56,12.76 0,6 -3.38,9.24 -11.38,11.18 l -6.12,1.5 c -5.25,1.19 -7.44,2.88 -7.44,5.75 0,3.69 3.31,6.07 8.5,6.07 5.13,0 7.94,-2.26 8.06,-6.44 l 6.75,0 z m 46.95,12.31 c -11.24,0 -18.12,-8.06 -18.12,-21.56 0,-13.5 6.75,-21.57 18.25,-21.57 11.25,0 18.19,8.07 18.19,21.26 0,13.93 -6.69,21.87 -18.32,21.87 z m 0.13,-5.87 c 7.19,0 11.5,-5.94 11.5,-15.94 0,-9.44 -4.43,-15.44 -11.5,-15.44 -7.18,0 -11.56,5.94 -11.56,15.69 0,9.69 4.38,15.69 11.56,15.69 z m 58.75,-35.5 0,40.24 -6.38,0 0,-22.81 c 0,-8.25 -4.24,-13.62 -10.93,-13.62 -5.07,0 -8.31,3.12 -8.31,7.93 l 0,28.5 -6.38,0 0,-31.06 c 0,-6.62 5,-10.94 12.82,-10.94 5.93,0 9.68,2.07 13.43,7.38 l 0,-5.62 5.75,0 z m 25.25,40.24 -6.63,0 0,11.07 -6.37,0 0,-11.07 -5.43,0 0,-5.24 5.43,0 0,-30.38 c 0,-4.06 2.82,-6.38 7.82,-6.38 1.5,0 3.05,0.13 5.18,0.5 l 0,5.38 c -0.81,-0.19 -1.81,-0.31 -3.06,-0.31 -2.75,0 -3.57,0.81 -3.57,3.62 l 0,27.57 6.63,0 0,5.24 z m 8.49,-32.24 0,-8 4.62,0 0,-1.38 c 0,-5.31 -1,-6.88 -4.62,-7 l 0,-2.94 c 5.37,0 8.06,3.5 8.06,10.06 l 0,9.26" /><path
           inkscape:connector-curvature="0"
           id="path358"
           style="fill:#000000;fill-opacity:1;fill-rule:nonzero;stroke:none"
           d="m 4180.59,6968.22 0,-40.24 6.45,0 0,22.18 c 0,8.25 4.31,13.63 10.93,13.63 5.07,0 8.32,-3.07 8.32,-7.94 l 0,-27.87 6.37,0 0,30.43 c 0,6.69 -5,10.94 -12.75,10.94 -6,0 -9.87,-2.25 -13.37,-7.87 l 0,6.74 -5.95,0 z m 76.76,-22.24 c 0,6.12 -0.44,9.81 -1.56,12.81 -2.63,6.62 -8.75,10.56 -16.32,10.56 -11.18,0 -18.43,-8.56 -18.43,-21.81 0,-13.19 7,-21.32 18.31,-21.32 9.19,0 15.56,5.19 17.19,13.94 l -6.45,0 c -1.8,-5.25 -5.37,-8.06 -10.55,-8.06 -4.07,0 -7.5,1.88 -9.69,5.25 -1.5,2.31 -2.06,4.63 -2.13,8.63 l 29.63,0 z m -29.44,5.18 c 0.5,7.44 5.06,12.32 11.5,12.32 6.31,0 11.13,-5.26 11.13,-11.82 0,-0.18 0,-0.31 -0.07,-0.5 l -22.56,0 z m 75.38,-23.18 11.8,40.24 -7.18,0 -8,-31.31 -7.94,31.31 -7.81,0 -7.69,-31.31 -8.25,31.31 -7.06,0 11.69,-40.24 7.24,0 7.76,31.56 8.12,-31.56 7.32,0 z m 73.6,18 c 0,6.12 -0.43,9.81 -1.56,12.81 -2.62,6.62 -8.75,10.56 -16.31,10.56 -11.19,0 -18.44,-8.56 -18.44,-21.81 0,-13.19 7,-21.32 18.31,-21.32 9.19,0 15.57,5.19 17.19,13.94 l -6.44,0 c -1.81,-5.25 -5.37,-8.06 -10.56,-8.06 -4.06,0 -7.5,1.88 -9.69,5.25 -1.5,2.31 -2.06,4.63 -2.12,8.63 l 29.62,0 z m -29.43,5.18 c 0.5,7.44 5.06,12.32 11.5,12.32 6.31,0 11.12,-5.26 11.12,-11.82 0,-0.18 0,-0.31 -0.06,-0.5 l -22.56,0 z m 44.5,32.82 -6.44,0 0,-56 6.44,0 0,56 z m 44.79,-38 c 0,6.12 -0.43,9.81 -1.56,12.81 -2.63,6.62 -8.75,10.56 -16.31,10.56 -11.19,0 -18.44,-8.56 -18.44,-21.81 0,-13.19 7,-21.32 18.31,-21.32 9.19,0 15.57,5.19 17.19,13.94 l -6.44,0 c -1.81,-5.25 -5.37,-8.06 -10.56,-8.06 -4.06,0 -7.5,1.88 -9.69,5.25 -1.5,2.31 -2.06,4.63 -2.12,8.63 l 29.62,0 z m -29.43,5.18 c 0.5,7.44 5.06,12.32 11.5,12.32 6.31,0 11.12,-5.26 11.12,-11.82 0,-0.18 0,-0.31 -0.06,-0.5 l -22.56,0 z m 69,3.56 c -0.32,3.88 -1.19,6.44 -2.69,8.69 -2.75,3.75 -7.63,5.94 -13.25,5.94 -10.82,0 -17.88,-8.56 -17.88,-21.94 0,-13 6.94,-21.19 17.82,-21.19 9.62,0 15.68,5.76 16.43,15.57 l -6.43,0 c -1.07,-6.44 -4.38,-9.69 -9.82,-9.69 -7.06,0 -11.31,5.81 -11.31,15.31 0,10.07 4.13,16.07 11.13,16.07 5.37,0 8.74,-3.19 9.56,-8.76 l 6.44,0 z m 21.7,13.5 -6.63,0 0,11.07 -6.37,0 0,-11.07 -5.44,0 0,-5.24 5.44,0 0,-30.38 c 0,-4.06 2.81,-6.38 7.81,-6.38 1.5,0 3.06,0.13 5.19,0.5 l 0,5.38 c -0.81,-0.19 -1.81,-0.31 -3.06,-0.31 -2.75,0 -3.57,0.81 -3.57,3.62 l 0,27.57 6.63,0 0,5.24 z m 13.31,0 -6.37,0 0,-40.24 6.37,0 0,40.24 z m 0,15.76 -6.44,0 0,-8.07 6.44,0 0,8.07 z m 26.47,-14.63 c -11.25,0 -18.12,-8.06 -18.12,-21.56 0,-13.5 6.74,-21.57 18.24,-21.57 11.26,0 18.19,8.07 18.19,21.26 0,13.93 -6.69,21.87 -18.31,21.87 z m 0.12,-5.87 c 7.19,0 11.5,-5.94 11.5,-15.94 0,-9.44 -4.43,-15.44 -11.5,-15.44 -7.19,0 -11.56,5.94 -11.56,15.69 0,9.69 4.37,15.69 11.56,15.69 z m 27.13,4.74 0,-40.24 6.44,0 0,22.18 c 0,8.25 4.31,13.63 10.93,13.63 5.07,0 8.31,-3.07 8.31,-7.94 l 0,-27.87 6.38,0 0,30.43 c 0,6.69 -5,10.94 -12.75,10.94 -6,0 -9.87,-2.25 -13.37,-7.87 l 0,6.74" /></g></g></g></svg>