<?xml version="1.0" encoding="UTF-8" standalone="no"?>
<!-- Created with Inkscape (http://www.inkscape.org/) -->

<svg
   xmlns:dc="http://purl.org/dc/elements/1.1/"
   xmlns:cc="http://creativecommons.org/ns#"
   xmlns:rdf="http://www.w3.org/1999/02/22-rdf-syntax-ns#"
   xmlns:svg="http://www.w3.org/2000/svg"
   xmlns="http://www.w3.org/2000/svg"
   xmlns:sodipodi="http://sodipodi.sourceforge.net/DTD/sodipodi-0.dtd"
   xmlns:inkscape="http://www.inkscape.org/namespaces/inkscape"
   id="svg2"
   version="1.1"
   inkscape:version="0.48.4 r9939"
   width="290.10388"
   height="480.6687"
   xml:space="preserve"
   sodipodi:docname="Coverage_summary.svg"><metadata
     id="metadata8"><rdf:RDF><cc:Work
         rdf:about=""><dc:format>image/svg+xml</dc:format><dc:type
           rdf:resource="http://purl.org/dc/dcmitype/StillImage" /><dc:title></dc:title></cc:Work></rdf:RDF></metadata><defs
     id="defs6"><clipPath
       clipPathUnits="userSpaceOnUse"
       id="clipPath16"><path
         d="m 54,738 504,0 0,-661.699 -504,0 L 54,738 z"
         id="path18"
         inkscape:connector-curvature="0" /></clipPath></defs><sodipodi:namedview
     pagecolor="#ffffff"
     bordercolor="#666666"
     borderopacity="1"
     objecttolerance="10"
     gridtolerance="10"
     guidetolerance="10"
     inkscape:pageopacity="0"
     inkscape:pageshadow="2"
     inkscape:window-width="917"
     inkscape:window-height="701"
     id="namedview4"
     showgrid="false"
     fit-margin-top="5"
     fit-margin-left="5"
     fit-margin-right="5"
     fit-margin-bottom="5"
     inkscape:zoom="0.95353533"
     inkscape:cx="115.32227"
     inkscape:cy="248.23153"
     inkscape:window-x="0"
     inkscape:window-y="27"
     inkscape:window-maximized="0"
     inkscape:current-layer="g12" /><g
     id="g10"
     inkscape:groupmode="layer"
     inkscape:label="Coverage_summary"
     transform="matrix(1.25,0,0,-1.25,-48.545926,935.35809)"><g
       id="g12"><g
         id="g3930"
         transform="matrix(1,0,0,1.0112663,-1.6,-7.3792588)"><path
           d="m 49.838143,373.13343 4.393538,1.43039 2.04189,-0.37686 2.341412,-2.96525 4.222057,1.11233 4.041388,-0.57693 3.058486,-0.47523 1.874681,2.71337 3.439525,-0.58277 5.547168,1.8292 2.409304,-3.02196 1.991369,2.13948 4.723696,-0.8976 3.885093,0.39712 0.48383,1.18008 2.881007,-0.62246 4.176893,0.67837 2.07103,-2.69622 5.93961,-0.84123 3.03525,-0.18942 1.58039,1.55896 2.83881,-1.09732 4.52516,-0.87797 4.52399,2.50529 2.71564,1.76773 3.22729,-2.82302 4.18466,2.3233 0.0876,0.50189 4.31813,-4.10437 3.98575,2.05608 4.21378,-0.32934 1.0457,0.82149 5.03558,-2.66792 3.42149,2.4115 4.89141,-1.85692 1.08599,3.12034 4.19167,0.42248 0.92627,-2.95837 3.58711,2.51326 2.81137,-2.2377 3.31221,-1.15673 4.76538,1.62877 2.13942,-1.08194 5.47308,-0.69536 3.23366,0.14732 2.1493,0.42591 1.51554,2.14546 7.09816,-1.51457 -0.80997,0.72876 6.09806,-0.45349 4.69529,1.31688 -0.28405,-2.69221 3.46091,-0.25451 5.99243,1.22652 2.53291,-1.17328 1.99005,2.898 3.58945,-2.0163 4.90797,1.62238 0.22099,1.05073 3.6405,-0.80217 4.05812,0.0735 5.48441,1.22101 0.16129,-2.93026 5.78323,0.39898 0.62107,-0.66528 2.73843,3.55867 6.24078,-2.2906 0.77886,3.315 0.49928,5.72662 -2.54391,0.94375 1.83268,4.84961 -1.01885,4.27665 0.79471,0.70975 -1.17866,3.64892 0.37817,4.57511 -0.40179,4.73395 1.86235,3.6095 -2.77686,1.53616 -0.26761,4.65861 2.22018,4.88362 -0.10992,-0.22669 0.60802,3.05163 -1.9117,5.01819 -0.84708,2.49289 3.84988,6.05372 -3.87164,4.01576 1.12848,3.36307 2.69761,4.19907 -2.71467,0.43886 -0.98511,4.94943 0.21528,5.10023 0.58954,2.79202 -0.52284,3.34749 2.59782,2.60121 -0.47788,3.31212 0.20321,1.31453 -2.53073,5.94663 2.47963,3.62624 0.77097,4.94343 -1.14791,3.53143 -2.13382,-0.0644 2.58117,6.92717 0.22783,-0.639 -0.82194,6.32974 1.93679,3.70853 -3.09728,0.84858 1.2736,5.51897 0.13889,1.42987 1.647,5.75328 -3.24995,1.19298 -0.61123,7.32864 0.18314,-0.0498 1.7898,4.05028 2.03138,3.21167 -2.15508,5.10926 0.9009,0.6471 -2.6349,4.17267 0.88937,5.5702 2.80683,2.51297 -2.49507,3.82021 -1.44917,4.3842 1.04919,3.27789 -0.74494,3.14998 3.09119,3.67872 -1.41735,2.66605 -0.0429,5.551 -0.77968,0.76838 -0.99923,2.39946 0.58793,7.61074 -0.58371,-0.43915 1.06888,3.66955 1.48071,7.15946 0.19563,0.16888 -2.75175,4.371 0.6614,5.96897 1.24698,0.7877 0.91525,2.36771 -2.81062,3.88151 1.76498,5.23371 0.53095,3.5569 0.58003,1.04319 -2.47481,5.10733 2.24114,2.53579 -1.2061,4.33635 1.97503,2.30297 -2.39466,3.51686 1.08174,3.31204 -1.69463,7.55541 2.18611,2.70433 -2.72963,3.05224 0.8896,4.76932 1.0635,3.08891 -1.14136,-0.2958 1.78896,7.70759 -1.21518,3.48678 2.12203,3.09547 0.36471,2.04434 -0.20589,4.47671 0.0714,1.54212 -2.31609,6.25752 -0.92644,-0.28547 3.63793,5.65909 -0.44007,1.15687 -1.25534,6.59293 -0.80086,1.88939 0.88101,5.08623 -0.21562,2.33332 1.62803,2.58328 -3.64622,3.42425 0.84931,5.04912 0.88159,4.36224 -2.28678,0.75533 -4.89107,-0.59556 -3.41582,0.57935 -3.10093,-2.33451 -1.18541,0.76425 -3.41455,1.51499 -5.24366,0.3839 -4.14155,-1.20264 -2.78819,-1.72495 -0.12049,1.18442 -5.20906,2.90111 -2.55639,-1.31547 -3.32967,-2.83637 -4.65441,2.57703 -3.71508,-0.79865 -2.64187,-1.16898 -4.64682,-0.36545 -2.98395,-0.29913 -3.39752,0.45876 -3.15919,-0.1969 -1.00528,1.18058 -2.86056,-0.80585 -4.38188,0.0762 -3.82923,3.11937 -3.22886,-1.91095 -2.01164,0.11905 -5.58981,2.09519 -2.98287,-0.4729 -1.13877,0.48295 -5.44846,-0.64026 -1.65419,-2.33013 -1.55278,2.76211 -5.61672,-1.38724 -3.22783,-0.34435 -4.7319,1.65934 -0.6115,-0.7338 -5.71768,-0.2437 -3.64856,-2.70077 -2.06613,1.65108 -3.80094,-2.0022 -3.34849,4.29805 -1.07162,-1.4315 -3.39649,-1.39929 -3.26735,-0.83581 -3.57878,2.4516 -5.11495,0.1032 -0.01,-1.8667 -5.625,3.05561 -2.45464,-4.19325 -1.76124,4.09244 -4.71154,-3.77172 -1.673576,1.6806 -5.974455,0.28986 -2.488299,-0.28033 -1.51156,-1.07428 -5.437668,0.38787 -1.711601,2.05802 -3.683031,-3.4187 -3.036361,1.64993 -4.114503,-1.61287 -2.671394,-0.36129 -4.424569,4.09451 -4.472434,0.0446 0.112853,-2.38765 -3.700402,-0.0286 -5.448627,0.60139 0.69424,-5.35197 -2.458865,-2.93917 1.371851,-2.20783 -0.823307,-1.47571 2.113815,-4.93384 -1.604572,-5.04762 1.071117,-0.70186 -1.077355,-4.52488 0.915466,-5.57525 -1.503715,-2.09679 1.005879,-1.6993 1.54331,-3.47535 -0.368781,-6.84306 -1.613924,-3.82123 2.696753,-1.24555 -3.938608,-1.61471 0.458023,-3.49202 2.680933,-6.76865 0.609378,-2.87961 -0.581201,-1.50901 -1.221456,-4.61774 -1.864148,-5.51844 2.663877,-2.99493 0.808754,-0.0781 -1.789743,-4.21795 0.17972,-4.09205 1.097087,-4.78375 -1.580393,-1.84211 0.794671,-3.53452 1.278729,-3.10608 -2.25514,-3.80571 0.737932,-5.60464 -0.06069,-1.30313 1.420482,-2.62364 -1.757152,-5.19501 0.880854,-4.64116 0.04388,-5.19733 1.245024,0.48429 -3.360292,-4.70032 2.390141,-4.82817 -1.575815,-1.5237 1.582939,-6.23178 -0.858631,-1.29621 -1.944092,-4.1642 0.02458,-1.31292 0.126336,-5.17874 1.350512,-2.10561 -1.314173,-5.15269 0.895177,-4.43467 2.959804,-4.55558 -0.07247,-0.0773 -3.517165,-6.4992 1.8277,-1.66921 0.322597,-2.00177 -1.127451,-4.8511 2.382668,-4.78292 -0.769126,-2.33689 -1.969703,-2.52532 -1.269071,-4.50553 1.492429,-2.23081 -0.0075,-5.57125 -1.202085,-2.65769 3.196622,-1.96998 -2.954767,-7.214 0.109335,0.62417 1.136409,-3.42524 0.11541,-5.37016 -1.053996,-5.18362 2.41196,-3.22276 -2.814381,-2.99038 1.773759,-1.87804 1.812895,-6.63982 -1.472402,-2.8085 -1.568035,0.0861 0.884918,-6.29929 0.530647,-3.77082 1.535575,-3.12478 -3.619071,-4.42108 1.317101,-1.37929 1.248433,-5.14943 -1.545386,-2.04188 -0.647456,-4.14954 2.164063,-1.93255 1.084173,-2.57201 -0.977821,-6.77138 -0.435876,-2.78601 -1.352151,-0.87975 2.495619,-6.75261 -2.201987,-1.61654 0.646614,-4.29474 -1.534952,-3.54339 0.647073,-2.62815 2.402356,-2.86263 -0.800308,-6.24306 -2.719337,-3.34759 3.021721,-0.71409 -0.706138,-5.92329 1.228514,-0.97967 -3.099174,-4.50299 1.422809,-2.04553 0.351059,-6.40974 1.105325,-2.19636 -3.122774,-5.28374 1.80352,-3.73771 z"
           style="fill:#666666;fill-opacity:0.45490196;fill-rule:nonzero;stroke:none"
           id="path3211"
           inkscape:connector-curvature="0" /><path
           d="m 46.741034,376.44251 4.393539,1.43038 2.04189,-0.37685 2.341411,-2.96525 4.222057,1.11233 4.041388,-0.57694 3.058486,-0.47523 1.87468,2.71338 3.439525,-0.58277 5.547168,1.8292 2.409304,-3.02197 1.991369,2.13949 4.723696,-0.89761 3.885093,0.39713 0.48383,1.18008 2.881007,-0.62245 4.176889,0.67835 2.071034,-2.69621 5.93961,-0.84123 3.03525,-0.18942 1.58039,1.55896 2.83881,-1.09732 4.52517,-0.87797 4.52397,2.50528 2.71565,1.76774 3.22729,-2.82302 4.18466,2.3233 0.0875,0.50189 4.31813,-4.10437 3.98575,2.05607 4.21378,-0.32934 1.0457,0.8215 5.03559,-2.66792 3.42148,2.4115 4.89141,-1.85692 1.08599,3.12034 4.19167,0.42248 0.92627,-2.95837 3.58711,2.51326 2.81137,-2.23771 3.3122,-1.15672 4.7654,1.62877 2.13941,-1.08195 5.47308,-0.69536 3.23365,0.14732 2.14931,0.42591 1.51554,2.14547 7.09816,-1.51458 -0.80997,0.72876 6.09806,-0.45348 4.69529,1.31687 -0.28405,-2.69221 3.4609,-0.2545 5.99244,1.22652 2.53291,-1.17328 1.99005,2.89799 3.58945,-2.0163 4.90797,1.62239 0.22098,1.05073 3.6405,-0.80217 4.05813,0.0735 5.48441,1.22101 0.16129,-2.93026 5.78322,0.39898 0.62108,-0.66528 2.73843,3.55867 6.24078,-2.2906 0.77886,3.315 0.49927,5.72662 -2.54391,0.94375 1.83268,4.84961 -1.01884,4.27665 0.79471,0.70975 -1.17866,3.64892 0.37816,4.57511 -0.40178,4.73395 1.86235,3.6095 -2.77686,1.53615 -0.26761,4.65861 2.22017,4.88363 -0.10991,-0.2267 0.60802,3.05164 -1.9117,5.01819 -0.84709,2.49288 3.84988,6.05372 -3.87163,4.01576 1.12847,3.36307 2.69761,4.19907 -2.71466,0.43887 -0.98512,4.94942 0.21529,5.10023 0.58953,2.79203 -0.52283,3.34748 2.59782,2.60122 -0.47789,3.31211 0.20322,1.31454 -2.53073,5.94662 2.47962,3.62625 0.77097,4.94343 -1.1479,3.53142 -2.13382,-0.0644 2.58117,6.92716 0.22782,-0.639 -0.82194,6.32975 1.9368,3.70853 -3.09728,0.84857 1.2736,5.51897 0.13889,1.42988 1.647,5.75328 -3.24995,1.19296 -0.61123,7.32865 0.18314,-0.0498 1.7898,4.05028 2.03138,3.21168 -2.15509,5.10925 0.90091,0.6471 -2.6349,4.17268 0.88937,5.5702 2.80684,2.51297 -2.49508,3.8202 -1.44917,4.3842 1.04918,3.27789 -0.74493,3.14999 3.09119,3.67871 -1.41735,2.66605 -0.0428,5.55101 -0.77968,0.76837 -0.99923,2.39947 0.58793,7.61073 -0.58371,-0.43915 1.06887,3.66956 1.48072,7.15945 0.19563,0.16889 -2.75175,4.37099 0.66141,5.96897 1.24697,0.7877 0.91525,2.36772 -2.81062,3.8815 1.76498,5.23371 0.53095,3.5569 0.58003,1.04319 -2.47481,5.10733 2.24113,2.53579 -1.20609,4.33635 1.97503,2.30297 -2.39466,3.51686 1.08174,3.31205 -1.69464,7.55539 2.18611,2.70434 -2.72962,3.05224 0.8896,4.76932 1.0635,3.0889 -1.14137,-0.29579 1.78897,7.70759 -1.21518,3.48678 2.12203,3.09546 0.36471,2.04435 -0.20589,4.47671 0.0715,1.54212 -2.3161,6.25752 -0.92643,-0.28547 3.63793,5.65908 -0.44007,1.15688 -1.25534,6.59293 -0.80085,1.88938 0.881,5.08624 -0.21562,2.33332 1.62802,2.58328 -3.64622,3.42425 0.84932,5.04912 0.8816,4.36224 -2.28679,0.75532 -4.89107,-0.59555 -3.41582,0.57935 -3.10093,-2.3345 -1.18541,0.76424 -3.41455,1.51499 -5.24366,0.3839 -4.14156,-1.20264 -2.78819,-1.72495 -0.12048,1.18441 -5.20905,2.90112 -2.5564,-1.31547 -3.32967,-2.83637 -4.65441,2.57704 -3.71507,-0.79866 -2.64188,-1.16898 -4.64682,-0.36545 -2.98395,-0.29913 -3.39752,0.45876 -3.15918,-0.1969 -1.00529,1.18058 -2.86055,-0.80586 -4.38189,0.0762 -3.82922,3.11937 -3.22887,-1.91094 -2.01164,0.11905 -5.5898,2.09519 -2.98288,-0.47289 -1.13876,0.48294 -5.44846,-0.64026 -1.65419,-2.33014 -1.55278,2.76212 -5.61673,-1.38724 -3.22783,-0.34436 -4.7319,1.65935 -0.61149,-0.7338 -5.71769,-0.2437 -3.64856,-2.70077 -2.06613,1.65108 -3.80094,-2.00219 -3.34849,4.29804 -1.07162,-1.4315 -3.39649,-1.39929 -3.26735,-0.83581 -3.57877,2.4516 -5.11495,0.10319 -0.0103,-1.86669 -5.62498,3.05561 -2.45465,-4.19325 -1.76124,4.09244 -4.711534,-3.77171 -1.673584,1.68059 -5.974455,0.28986 -2.488299,-0.28033 -1.51156,-1.07428 -5.437667,0.38787 -1.711602,2.05801 -3.68303,-3.4187 -3.036361,1.64994 -4.114504,-1.61287 -2.671394,-0.36129 -4.424568,4.09451 -4.472434,0.0446 0.112853,-2.38765 -3.700402,-0.0286 -5.448627,0.60139 0.69424,-5.35198 -2.458864,-2.93917 1.371851,-2.20783 -0.823308,-1.4757 2.113815,-4.93383 -1.604571,-5.04763 1.071116,-0.70186 -1.077355,-4.52488 0.915467,-5.57525 -1.503715,-2.09679 1.005879,-1.69929 1.54331,-3.47535 -0.368781,-6.84307 -1.613924,-3.82123 2.696753,-1.24555 -3.938608,-1.61471 0.458022,-3.49202 2.680933,-6.76865 0.609379,-2.87961 -0.581201,-1.50901 -1.221456,-4.61774 -1.864148,-5.51844 2.663877,-2.99493 0.808754,-0.0781 -1.789743,-4.21793 0.179719,-4.09206 1.097088,-4.78375 -1.580393,-1.84211 0.79467,-3.53452 1.27873,-3.10608 -2.255141,-3.80572 0.737933,-5.60463 -0.06069,-1.30312 1.420482,-2.62365 -1.757152,-5.19501 0.880854,-4.64116 0.04388,-5.19733 1.245023,0.48429 -3.360291,-4.70033 2.390141,-4.82816 -1.575814,-1.52369 1.582938,-6.23179 -0.858631,-1.29621 -1.944092,-4.16419 0.02459,-1.31293 0.126337,-5.17874 1.350512,-2.10561 -1.314173,-5.15268 0.895177,-4.43468 2.959804,-4.55558 -0.07247,-0.0773 -3.517165,-6.49919 1.8277,-1.66921 0.322596,-2.00178 -1.12745,-4.85109 2.382668,-4.78293 -0.769126,-2.33689 -1.969703,-2.52532 -1.269071,-4.50553 1.492429,-2.2308 -0.0075,-5.57125 -1.202085,-2.65771 3.196621,-1.96997 -2.954767,-7.214 0.109335,0.62418 1.13641,-3.42525 0.11541,-5.37016 -1.053996,-5.18362 2.411959,-3.22276 -2.81438,-2.99038 1.773758,-1.87803 1.812895,-6.63982 -1.472401,-2.80851 -1.568036,0.0861 0.884918,-6.29928 0.530648,-3.77083 1.535574,-3.12478 -3.61907,-4.42107 1.317101,-1.3793 1.248432,-5.14943 -1.545386,-2.04187 -0.647456,-4.14955 2.164063,-1.93254 1.084173,-2.57201 -0.977821,-6.77139 -0.435876,-2.78601 -1.352151,-0.87974 2.495618,-6.75261 -2.201985,-1.61655 0.646614,-4.29473 -1.534953,-3.54339 0.647074,-2.62816 2.402355,-2.86262 -0.800307,-6.24307 -2.719338,-3.34758 3.021722,-0.71409 -0.706139,-5.92329 1.228514,-0.97967 -3.099174,-4.50299 1.42281,-2.04553 0.351058,-6.40974 1.105325,-2.19636 -3.122774,-5.28374 1.803521,-3.73771 z"
           style="fill:#f9f9f9;fill-opacity:1;fill-rule:nonzero;stroke:#181818;stroke-width:0.40000001;stroke-linecap:butt;stroke-linejoin:miter;stroke-miterlimit:10;stroke-opacity:1;stroke-dasharray:none"
           id="path3215"
           inkscape:connector-curvature="0" /></g><text
         id="text22"
         transform="scale(1,-1)"
         x="60"
         y="-711.5"
         style="font-style:normal;font-variant:normal;font-weight:bold;font-stretch:normal;font-family:Myriad Pro;-inkscape-font-specification:Myriad Pro Bold"><tspan
           id="tspan24"
           sodipodi:role="line"
           y="-711.5"
           x="60 73.127998 86.975998 100.968 109.896 120.456 133.12799 137.976 150.936 164.92801 185.56799 206.20799 218.88 228.43201"
           style="font-size:24px;font-style:normal;font-variant:normal;font-weight:bold;font-stretch:normal;writing-mode:lr-tb;fill:#000000;fill-opacity:1;fill-rule:nonzero;stroke:none;font-family:Myriad Pro;-inkscape-font-specification:Myriad Pro Bold">Source Summary</tspan></text>
<text
         id="text26"
         transform="scale(1,-1)"
         x="60"
         y="-674.92499"
         style="font-style:normal;font-variant:normal;font-weight:bold;font-stretch:normal;font-family:Myriad Pro;-inkscape-font-specification:Myriad Pro Bold"><tspan
           id="tspan28"
           sodipodi:role="line"
           y="-674.92499"
           x="60 66.555511 74.655151 79.806915 87.218712 91.079025 94.728775 97.564346 105.35516 113.14597"
           style="font-size:14.03750038px;font-style:normal;font-variant:normal;font-weight:bold;font-stretch:normal;writing-mode:lr-tb;fill:#000000;fill-opacity:1;fill-rule:nonzero;stroke:none;font-family:Myriad Pro;-inkscape-font-specification:Myriad Pro Bold">Total: 69%</tspan></text>
<text
         id="text30"
         transform="scale(1,-1)"
         x="98.449997"
         y="-643.63751"
         style="font-style:normal;font-variant:normal;font-weight:bold;font-stretch:normal;font-family:Myriad Pro;-inkscape-font-specification:Myriad Pro Bold"><tspan
           id="tspan32"
           sodipodi:role="line"
           y="-643.63751"
           x="98.449997 108.638 115.598 122.75 129.758 133.058 179.81 186.73399 193.53799 199.718 206.054 210.48199 216.81799 223.838 230.18599 232.61"
           style="font-size:12px;font-style:normal;font-variant:normal;font-weight:bold;font-stretch:normal;writing-mode:lr-tb;fill:#000000;fill-opacity:1;fill-rule:nonzero;stroke:none;font-family:Myriad Pro;-inkscape-font-specification:Myriad Pro Bold">ModuleCoverage %</tspan></text>
<path
         inkscape:connector-curvature="0"
         id="path34"
         style="fill:none;stroke:#0000ee;stroke-width:1;stroke-linecap:butt;stroke-linejoin:miter;stroke-miterlimit:10;stroke-opacity:1;stroke-dasharray:none"
         d="m 62,625.5 27,0" /><text
         id="text36"
         transform="scale(1,-1)"
         x="62.25"
         y="-626.63751"><tspan
           id="tspan38"
           sodipodi:role="line"
           y="-626.63751"
           x="62.25 66.113998 71.898003 75.533997 79.433998 85.445999"
           style="font-size:12px;font-variant:normal;font-weight:normal;writing-mode:lr-tb;fill:#0000ee;fill-opacity:1;fill-rule:nonzero;stroke:none;font-family:Myriad Pro;-inkscape-font-specification:MyriadPro-Regular">rafter</tspan></text>
<text
         id="text40"
         transform="scale(1,-1)"
         x="178.58749"
         y="-626.63751"><tspan
           id="tspan42"
           sodipodi:role="line"
           y="-626.63751"
           x="178.58749 184.7435 190.89951"
           style="font-size:12px;font-variant:normal;font-weight:normal;writing-mode:lr-tb;fill:#000000;fill-opacity:1;fill-rule:nonzero;stroke:none;font-family:Myriad Pro;-inkscape-font-specification:MyriadPro-Regular">57%</tspan></text>
<path
         inkscape:connector-curvature="0"
         id="path44"
         style="fill:none;stroke:#0000ee;stroke-width:1;stroke-linecap:butt;stroke-linejoin:miter;stroke-miterlimit:10;stroke-opacity:1;stroke-dasharray:none"
         d="m 62,608.5 53,0" /><text
         id="text46"
         transform="scale(1,-1)"
         x="62.25"
         y="-609.63751"><tspan
           id="tspan48"
           sodipodi:role="line"
           y="-609.63751"
           x="62.25 66.113998 71.898003 75.533997 79.433998 85.445999 89.382004 95.382004 101.166 107.994"
           style="font-size:12px;font-variant:normal;font-weight:normal;writing-mode:lr-tb;fill:#0000ee;fill-opacity:1;fill-rule:nonzero;stroke:none;font-family:Myriad Pro;-inkscape-font-specification:MyriadPro-Regular">rafter_app</tspan></text>
<text
         id="text50"
         transform="scale(1,-1)"
         x="178.58749"
         y="-609.63751"><tspan
           id="tspan52"
           sodipodi:role="line"
           y="-609.63751"
           x="178.58749 184.7435 190.8875 197.0435"
           style="font-size:12px;font-variant:normal;font-weight:normal;writing-mode:lr-tb;fill:#000000;fill-opacity:1;fill-rule:nonzero;stroke:none;font-family:Myriad Pro;-inkscape-font-specification:MyriadPro-Regular">100%</tspan></text>
<path
         inkscape:connector-curvature="0"
         id="path54"
         style="fill:none;stroke:#0000ee;stroke-width:1;stroke-linecap:butt;stroke-linejoin:miter;stroke-miterlimit:10;stroke-opacity:1;stroke-dasharray:none"
         d="m 62,591.5 76,0" /><text
         id="text56"
         transform="scale(1,-1)"
         x="62.25"
         y="-592.63751"><tspan
           id="tspan58"
           sodipodi:role="line"
           y="-592.63751"
           x="62.25 66.113998 71.898003 75.533997 79.433998 85.445999 89.382004 95.382004 102.198 107.994 113.37 118.986 125.00999 131.67"
           style="font-size:12px;font-variant:normal;font-weight:normal;writing-mode:lr-tb;fill:#0000ee;fill-opacity:1;fill-rule:nonzero;stroke:none;font-family:Myriad Pro;-inkscape-font-specification:MyriadPro-Regular">rafter_backend</tspan></text>
<text
         id="text60"
         transform="scale(1,-1)"
         x="178.58749"
         y="-592.63751"><tspan
           id="tspan62"
           sodipodi:role="line"
           y="-592.63751"
           x="178.58749 185.2475 191.83549 195.8195 198.36349 204.33951 209.7155 215.72749 221.1035 227.7155 231.61549 237.6275"
           style="font-size:12px;font-variant:normal;font-weight:normal;writing-mode:lr-tb;fill:#000000;fill-opacity:1;fill-rule:nonzero;stroke:none;font-family:Myriad Pro;-inkscape-font-specification:MyriadPro-Regular">not executed</tspan></text>
<path
         inkscape:connector-curvature="0"
         id="path64"
         style="fill:none;stroke:#0000ee;stroke-width:1;stroke-linecap:butt;stroke-linejoin:miter;stroke-miterlimit:10;stroke-opacity:1;stroke-dasharray:none"
         d="m 62,574.5 107,0" /><text
         id="text66"
         transform="scale(1,-1)"
         x="62.25"
         y="-575.63751"><tspan
           id="tspan68"
           sodipodi:role="line"
           y="-575.63751"
           x="62.25 66.113998 71.898003 75.533997 79.433998 85.445999 89.382004 95.382004 102.198 107.994 113.37 118.986 125.00999 131.67 138.42599 144.42599 150.438 155.814 162.48599"
           style="font-size:12px;font-variant:normal;font-weight:normal;writing-mode:lr-tb;fill:#0000ee;fill-opacity:1;fill-rule:nonzero;stroke:none;font-family:Myriad Pro;-inkscape-font-specification:MyriadPro-Regular">rafter_backend_echo</tspan></text>
<text
         id="text70"
         transform="scale(1,-1)"
         x="178.58749"
         y="-575.63751"><tspan
           id="tspan72"
           sodipodi:role="line"
           y="-575.63751"
           x="178.58749 184.7435 190.89951"
           style="font-size:12px;font-variant:normal;font-weight:normal;writing-mode:lr-tb;fill:#000000;fill-opacity:1;fill-rule:nonzero;stroke:none;font-family:Myriad Pro;-inkscape-font-specification:MyriadPro-Regular">66%</tspan></text>
<path
         inkscape:connector-curvature="0"
         id="path74"
         style="fill:none;stroke:#0000ee;stroke-width:1;stroke-linecap:butt;stroke-linejoin:miter;stroke-miterlimit:10;stroke-opacity:1;stroke-dasharray:none"
         d="m 62,557.5 97,0" /><text
         id="text76"
         transform="scale(1,-1)"
         x="62.25"
         y="-558.63751"><tspan
           id="tspan78"
           sodipodi:role="line"
           y="-558.63751"
           x="62.25 66.113998 71.898003 75.533997 79.433998 85.445999 89.382004 95.382004 102.198 107.994 113.37 118.986 125.00999 131.67 138.42599 144.42599 150.438 154.422"
           style="font-size:12px;font-variant:normal;font-weight:normal;writing-mode:lr-tb;fill:#0000ee;fill-opacity:1;fill-rule:nonzero;stroke:none;font-family:Myriad Pro;-inkscape-font-specification:MyriadPro-Regular">rafter_backend_ets</tspan></text>
<text
         id="text80"
         transform="scale(1,-1)"
         x="178.58749"
         y="-558.63751"><tspan
           id="tspan82"
           sodipodi:role="line"
           y="-558.63751"
           x="178.58749 184.7435 190.89951"
           style="font-size:12px;font-variant:normal;font-weight:normal;writing-mode:lr-tb;fill:#000000;fill-opacity:1;fill-rule:nonzero;stroke:none;font-family:Myriad Pro;-inkscape-font-specification:MyriadPro-Regular">84%</tspan></text>
<path
         inkscape:connector-curvature="0"
         id="path84"
         style="fill:none;stroke:#0000ee;stroke-width:1;stroke-linecap:butt;stroke-linejoin:miter;stroke-miterlimit:10;stroke-opacity:1;stroke-dasharray:none"
         d="m 62,540.5 65,0" /><text
         id="text86"
         transform="scale(1,-1)"
         x="62.25"
         y="-541.63751"><tspan
           id="tspan88"
           sodipodi:role="line"
           y="-541.63751"
           x="62.25 66.113998 71.898003 75.533997 79.433998 85.445999 89.382004 95.382004"
           style="font-size:12px;font-variant:normal;font-weight:normal;writing-mode:lr-tb;fill:#0000ee;fill-opacity:1;fill-rule:nonzero;stroke:none;font-family:Myriad Pro;-inkscape-font-specification:MyriadPro-Regular">rafter_config</tspan></text>
<text
         id="text90"
         transform="scale(1,-1)"
         x="178.58749"
         y="-541.63751"><tspan
           id="tspan92"
           sodipodi:role="line"
           y="-541.63751"
           x="178.58749 184.7435 190.89951"
           style="font-size:12px;font-variant:normal;font-weight:normal;writing-mode:lr-tb;fill:#000000;fill-opacity:1;fill-rule:nonzero;stroke:none;font-family:Myriad Pro;-inkscape-font-specification:MyriadPro-Regular">66%</tspan></text>
<path
         inkscape:connector-curvature="0"
         id="path94"
         style="fill:none;stroke:#0000ee;stroke-width:1;stroke-linecap:butt;stroke-linejoin:miter;stroke-miterlimit:10;stroke-opacity:1;stroke-dasharray:none"
         d="m 62,523.5 110,0" /><text
         id="text96"
         transform="scale(1,-1)"
         x="62.25"
         y="-524.63751"><tspan
           id="tspan98"
           sodipodi:role="line"
           y="-524.63751"
           x="62.25 66.113998 71.898003 75.533997 79.433998 85.445999 89.382004 95.382004 100.674 107.262 113.934 118.674 124.686 131.358 136.11 142.722 147.474 153.474 156.87 161.62201"
           style="font-size:12px;font-variant:normal;font-weight:normal;writing-mode:lr-tb;fill:#0000ee;fill-opacity:1;fill-rule:nonzero;stroke:none;font-family:Myriad Pro;-inkscape-font-specification:MyriadPro-Regular">rafter_consensus_fsm</tspan></text>
<text
         id="text100"
         transform="scale(1,-1)"
         x="178.58749"
         y="-524.63751"><tspan
           id="tspan102"
           sodipodi:role="line"
           y="-524.63751"
           x="178.58749 184.7435 190.89951"
           style="font-size:12px;font-variant:normal;font-weight:normal;writing-mode:lr-tb;fill:#000000;fill-opacity:1;fill-rule:nonzero;stroke:none;font-family:Myriad Pro;-inkscape-font-specification:MyriadPro-Regular">56%</tspan></text>
<path
         inkscape:connector-curvature="0"
         id="path104"
         style="fill:none;stroke:#0000ee;stroke-width:1;stroke-linecap:butt;stroke-linejoin:miter;stroke-miterlimit:10;stroke-opacity:1;stroke-dasharray:none"
         d="m 62,506.5 110,0" /><text
         id="text106"
         transform="scale(1,-1)"
         x="62.25"
         y="-507.63751"><tspan
           id="tspan108"
           sodipodi:role="line"
           y="-507.63751"
           x="62.25 66.113998 71.898003 75.533997 79.433998 85.445999 89.382004 95.382004 100.674 107.262 113.934 118.674 124.686 131.358 136.11 142.722 147.474 153.474 158.21399 164.838"
           style="font-size:12px;font-variant:normal;font-weight:normal;writing-mode:lr-tb;fill:#0000ee;fill-opacity:1;fill-rule:nonzero;stroke:none;font-family:Myriad Pro;-inkscape-font-specification:MyriadPro-Regular">rafter_consensus_sup</tspan></text>
<text
         id="text110"
         transform="scale(1,-1)"
         x="178.58749"
         y="-507.63751"><tspan
           id="tspan112"
           sodipodi:role="line"
           y="-507.63751"
           x="178.58749 184.7435 190.89951"
           style="font-size:12px;font-variant:normal;font-weight:normal;writing-mode:lr-tb;fill:#000000;fill-opacity:1;fill-rule:nonzero;stroke:none;font-family:Myriad Pro;-inkscape-font-specification:MyriadPro-Regular">70%</tspan></text>
<path
         inkscape:connector-curvature="0"
         id="path114"
         style="fill:none;stroke:#0000ee;stroke-width:1;stroke-linecap:butt;stroke-linejoin:miter;stroke-miterlimit:10;stroke-opacity:1;stroke-dasharray:none"
         d="m 62,489.5 50,0" /><text
         id="text116"
         transform="scale(1,-1)"
         x="62.25"
         y="-490.63751"><tspan
           id="tspan118"
           sodipodi:role="line"
           y="-490.63751"
           x="62.25 66.113998 71.898003 75.533997 79.433998 85.445999 89.382004 95.382004 98.214005 104.802"
           style="font-size:12px;font-variant:normal;font-weight:normal;writing-mode:lr-tb;fill:#0000ee;fill-opacity:1;fill-rule:nonzero;stroke:none;font-family:Myriad Pro;-inkscape-font-specification:MyriadPro-Regular">rafter_log</tspan></text>
<text
         id="text120"
         transform="scale(1,-1)"
         x="178.58749"
         y="-490.63751"><tspan
           id="tspan122"
           sodipodi:role="line"
           y="-490.63751"
           x="178.58749 184.7435 190.89951"
           style="font-size:12px;font-variant:normal;font-weight:normal;writing-mode:lr-tb;fill:#000000;fill-opacity:1;fill-rule:nonzero;stroke:none;font-family:Myriad Pro;-inkscape-font-specification:MyriadPro-Regular">75%</tspan></text>
<path
         inkscape:connector-curvature="0"
         id="path124"
         style="fill:none;stroke:#0000ee;stroke-width:1;stroke-linecap:butt;stroke-linejoin:miter;stroke-miterlimit:10;stroke-opacity:1;stroke-dasharray:none"
         d="m 62,472.5 81,0" /><text
         id="text126"
         transform="scale(1,-1)"
         x="62.25"
         y="-473.63751"><tspan
           id="tspan128"
           sodipodi:role="line"
           y="-473.63751"
           x="62.25 66.113998 71.898003 75.533997 79.433998 85.445999 89.382004 95.382004 99.173996 105.186 111.942 118.554 124.566 129.31799 133.218 139.23001"
           style="font-size:12px;font-variant:normal;font-weight:normal;writing-mode:lr-tb;fill:#0000ee;fill-opacity:1;fill-rule:nonzero;stroke:none;font-family:Myriad Pro;-inkscape-font-specification:MyriadPro-Regular">rafter_requester</tspan></text>
<text
         id="text130"
         transform="scale(1,-1)"
         x="178.58749"
         y="-473.63751"><tspan
           id="tspan132"
           sodipodi:role="line"
           y="-473.63751"
           x="178.58749 184.7435 190.89951"
           style="font-size:12px;font-variant:normal;font-weight:normal;writing-mode:lr-tb;fill:#000000;fill-opacity:1;fill-rule:nonzero;stroke:none;font-family:Myriad Pro;-inkscape-font-specification:MyriadPro-Regular">83%</tspan></text>
<path
         inkscape:connector-curvature="0"
         id="path134"
         style="fill:none;stroke:#0000ee;stroke-width:1;stroke-linecap:butt;stroke-linejoin:miter;stroke-miterlimit:10;stroke-opacity:1;stroke-dasharray:none"
         d="m 62,455.5 52,0" /><text
         id="text136"
         transform="scale(1,-1)"
         x="62.25"
         y="-456.63751"><tspan
           id="tspan138"
           sodipodi:role="line"
           y="-456.63751"
           x="62.25 66.113998 71.898003 75.533997 79.433998 85.445999 89.382004 95.382004 100.122 106.746"
           style="font-size:12px;font-variant:normal;font-weight:normal;writing-mode:lr-tb;fill:#0000ee;fill-opacity:1;fill-rule:nonzero;stroke:none;font-family:Myriad Pro;-inkscape-font-specification:MyriadPro-Regular">rafter_sup</tspan></text>
<text
         id="text140"
         transform="scale(1,-1)"
         x="178.58749"
         y="-456.63751"><tspan
           id="tspan142"
           sodipodi:role="line"
           y="-456.63751"
           x="178.58749 184.7435 190.89951"
           style="font-size:12px;font-variant:normal;font-weight:normal;writing-mode:lr-tb;fill:#000000;fill-opacity:1;fill-rule:nonzero;stroke:none;font-family:Myriad Pro;-inkscape-font-specification:MyriadPro-Regular">64%</tspan></text>
<path
         inkscape:connector-curvature="0"
         id="path144"
         style="fill:none;stroke:#0000ee;stroke-width:1;stroke-linecap:butt;stroke-linejoin:miter;stroke-miterlimit:10;stroke-opacity:1;stroke-dasharray:none"
         d="m 62,438.5 66,0" /><text
         id="text146"
         transform="scale(1,-1)"
         x="62.25"
         y="-439.63751"><tspan
           id="tspan148"
           sodipodi:role="line"
           y="-439.63751"
           x="62.25 66.113998 71.898003 75.533997 79.433998 85.445999 89.382004 95.382004 101.022 107.61 111.594 114.402 121.062"
           style="font-size:12px;font-variant:normal;font-weight:normal;writing-mode:lr-tb;fill:#0000ee;fill-opacity:1;fill-rule:nonzero;stroke:none;font-family:Myriad Pro;-inkscape-font-specification:MyriadPro-Regular">rafter_voting</tspan></text>
<text
         id="text150"
         transform="scale(1,-1)"
         x="178.58749"
         y="-439.63751"><tspan
           id="tspan152"
           sodipodi:role="line"
           y="-439.63751"
           x="178.58749 184.7435 190.89951"
           style="font-size:12px;font-variant:normal;font-weight:normal;writing-mode:lr-tb;fill:#000000;fill-opacity:1;fill-rule:nonzero;stroke:none;font-family:Myriad Pro;-inkscape-font-specification:MyriadPro-Regular">93%</tspan></text>
<path
         inkscape:connector-curvature="0"
         id="path154"
         style="fill:none;stroke:#0000ee;stroke-width:1;stroke-linecap:butt;stroke-linejoin:miter;stroke-miterlimit:10;stroke-opacity:1;stroke-dasharray:none"
         d="m 62,421.5 92,0" /><text
         id="text156"
         transform="scale(1,-1)"
         x="62.25"
         y="-422.63751"><tspan
           id="tspan158"
           sodipodi:role="line"
           y="-422.63751"
           x="62.25 66.113998 71.898003 75.533997 79.433998 85.445999 89.382004 95.382004 101.022 107.61 111.594 114.402 121.062 127.782 133.782 140.418 144.39 147.20999"
           style="font-size:12px;font-variant:normal;font-weight:normal;writing-mode:lr-tb;fill:#0000ee;fill-opacity:1;fill-rule:nonzero;stroke:none;font-family:Myriad Pro;-inkscape-font-specification:MyriadPro-Regular">rafter_voting_grid</tspan></text>
<text
         id="text160"
         transform="scale(1,-1)"
         x="178.58749"
         y="-422.63751"><tspan
           id="tspan162"
           sodipodi:role="line"
           y="-422.63751"
           x="178.58749 184.7435 190.8875 197.0435"
           style="font-size:12px;font-variant:normal;font-weight:normal;writing-mode:lr-tb;fill:#000000;fill-opacity:1;fill-rule:nonzero;stroke:none;font-family:Myriad Pro;-inkscape-font-specification:MyriadPro-Regular">100%</tspan></text>
<path
         inkscape:connector-curvature="0"
         id="path164"
         style="fill:none;stroke:#0000ee;stroke-width:1;stroke-linecap:butt;stroke-linejoin:miter;stroke-miterlimit:10;stroke-opacity:1;stroke-dasharray:none"
         d="m 62,404.5 114,0" /><text
         id="text166"
         transform="scale(1,-1)"
         x="62.25"
         y="-405.63751"><tspan
           id="tspan168"
           sodipodi:role="line"
           y="-405.63751"
           x="62.25 66.113998 71.898003 75.533997 79.433998 85.445999 89.382004 95.382004 101.022 107.61 111.594 114.402 121.062 127.782 133.782 143.79001 149.586 152.48999 159.078 163.062 165.87 169.95"
           style="font-size:12px;font-variant:normal;font-weight:normal;writing-mode:lr-tb;fill:#0000ee;fill-opacity:1;fill-rule:nonzero;stroke:none;font-family:Myriad Pro;-inkscape-font-specification:MyriadPro-Regular">rafter_voting_majority</tspan></text>
<text
         id="text170"
         transform="scale(1,-1)"
         x="178.58749"
         y="-405.63751"><tspan
           id="tspan172"
           sodipodi:role="line"
           y="-405.63751"
           x="178.58749 184.7435 190.8875 197.0435"
           style="font-size:12px;font-variant:normal;font-weight:normal;writing-mode:lr-tb;fill:#000000;fill-opacity:1;fill-rule:nonzero;stroke:none;font-family:Myriad Pro;-inkscape-font-specification:MyriadPro-Regular">100%</tspan></text>
<path
         inkscape:connector-curvature="0"
         id="path174"
         style="fill:none;stroke:#0000ee;stroke-width:1;stroke-linecap:butt;stroke-linejoin:miter;stroke-miterlimit:10;stroke-opacity:1;stroke-dasharray:none"
         d="m 62,387.5 92,0" /><text
         id="text176"
         transform="scale(1,-1)"
         x="62.25"
         y="-388.63751"><tspan
           id="tspan178"
           sodipodi:role="line"
           y="-388.63751"
           x="62.25 66.113998 71.898003 75.533997 79.433998 85.445999 89.382004 95.382004 101.022 107.61 111.594 114.402 121.062 127.782 133.782 137.754 141.558 147.57001"
           style="font-size:12px;font-variant:normal;font-weight:normal;writing-mode:lr-tb;fill:#0000ee;fill-opacity:1;fill-rule:nonzero;stroke:none;font-family:Myriad Pro;-inkscape-font-specification:MyriadPro-Regular">rafter_voting_tree</tspan></text>
<text
         id="text180"
         transform="scale(1,-1)"
         x="178.58749"
         y="-388.63751"><tspan
           id="tspan182"
           sodipodi:role="line"
           y="-388.63751"
           x="178.58749 184.7435 190.8875 197.0435"
           style="font-size:12px;font-variant:normal;font-weight:normal;writing-mode:lr-tb;fill:#000000;fill-opacity:1;fill-rule:nonzero;stroke:none;font-family:Myriad Pro;-inkscape-font-specification:MyriadPro-Regular">100%</tspan></text>
</g></g></svg>