<?xml version="1.0" encoding="UTF-8" standalone="no"?>
<!-- Generated by graphviz version 2.36.0 (20140111.2315)
 -->

<!-- Title: vstruct Pages: 1 -->

<svg
   xmlns:dc="http://purl.org/dc/elements/1.1/"
   xmlns:cc="http://creativecommons.org/ns#"
   xmlns:rdf="http://www.w3.org/1999/02/22-rdf-syntax-ns#"
   xmlns:svg="http://www.w3.org/2000/svg"
   xmlns="http://www.w3.org/2000/svg"
   xmlns:sodipodi="http://sodipodi.sourceforge.net/DTD/sodipodi-0.dtd"
   xmlns:inkscape="http://www.inkscape.org/namespaces/inkscape"
   width="645pt"
   height="342pt"
   viewBox="0.00 0.00 645.00 342.00"
   id="svg5007"
   version="1.1"
   inkscape:version="0.48.4 r9939"
   sodipodi:docname="Dependencies2.svg">
  <metadata
     id="metadata5193">
    <rdf:RDF>
      <cc:Work
         rdf:about="">
        <dc:format>image/svg+xml</dc:format>
        <dc:type
           rdf:resource="http://purl.org/dc/dcmitype/StillImage" />
        <dc:title></dc:title>
      </cc:Work>
    </rdf:RDF>
  </metadata>
  <defs
     id="defs5191" />
  <sodipodi:namedview
     pagecolor="#ffffff"
     bordercolor="#666666"
     borderopacity="1"
     objecttolerance="10"
     gridtolerance="10"
     guidetolerance="10"
     inkscape:pageopacity="0"
     inkscape:pageshadow="2"
     inkscape:window-width="835"
     inkscape:window-height="694"
     id="namedview5189"
     showgrid="false"
     inkscape:zoom="0.76155039"
     inkscape:cx="362.55935"
     inkscape:cy="225.99091"
     inkscape:window-x="0"
     inkscape:window-y="27"
     inkscape:window-maximized="0"
     inkscape:current-layer="svg5007" />
  <g
     id="g5391"
     transform="translate(235.35798,-167.52866)">
    <path
       style="fill:#808080;stroke:none"
       inkscape:connector-curvature="0"
       id="path5017-3"
       d="m -143.70847,209.89902 c 0,0 275,0 275,0 6,0 12,-6 12,-12 0,0 0,-12 0,-12 0,-6 -6,-12 -12,-12 0,0 -275,0 -275,0 -6,0 -12,6 -12,12 0,0 0,12 0,12 0,6 6,12 12,12" />
    <path
       style="fill:#808080;stroke:none"
       inkscape:connector-curvature="0"
       id="path5024-2"
       d="m -217.70847,283.89902 c 0,0 133.000001,0 133.000001,0 6,0 12,-6 12,-12 0,0 0,-12 0,-12 0,-6 -6,-12 -12,-12 0,0 -133.000001,0 -133.000001,0 -6,0 -12,6 -12,12 0,0 0,12 0,12 0,6 6,12 12,12" />
    <path
       style="fill:#808080;stroke:none"
       inkscape:connector-curvature="0"
       id="path5038-3"
       d="m 33.791531,283.89902 c 0,0 161.999999,0 161.999999,0 6,0 12,-6 12,-12 0,0 0,-12 0,-12 0,-6 -6,-12 -12,-12 0,0 -161.999999,0 -161.999999,0 -6,0 -12,6 -12,12 0,0 0,12 0,12 0,6 6,12 12,12" />
    <path
       style="fill:#808080;stroke:none"
       inkscape:connector-curvature="0"
       id="path5052-0"
       d="m -110.70847,357.89902 c 0,0 111.00000099,0 111.00000099,0 6.00000001,0 12.00000001,-6 12.00000001,-12 0,0 0,-12 0,-12 0,-6 -6,-12 -12.00000001,-12 0,0 -111.00000099,0 -111.00000099,0 -6,0 -12,6 -12,12 0,0 0,12 0,12 0,6 6,12 12,12" />
    <path
       style="fill:#808080;stroke:none"
       inkscape:connector-curvature="0"
       id="path5066-7"
       d="m 42.791531,357.89902 c 0,0 85.999999,0 85.999999,0 6,0 12,-6 12,-12 0,0 0,-12 0,-12 0,-6 -6,-12 -12,-12 0,0 -85.999999,0 -85.999999,0 -6,0 -12,6 -12,12 0,0 0,12 0,12 0,6 6,12 12,12" />
    <path
       style="fill:#808080;stroke:none"
       inkscape:connector-curvature="0"
       id="path5080-8"
       d="m 171.29153,357.89902 c 0,0 143,0 143,0 6,0 12,-6 12,-12 0,0 0,-12 0,-12 0,-6 -6,-12 -12,-12 0,0 -143,0 -143,0 -6,0 -12,6 -12,12 0,0 0,12 0,12 0,6 6,12 12,12" />
    <path
       style="fill:#808080;stroke:none"
       inkscape:connector-curvature="0"
       id="path5094-8"
       d="m -38.708469,431.89902 c 0,0 107,0 107,0 6,0 12,-6 12,-12 0,0 0,-12 0,-12 0,-6 -6,-12 -12,-12 0,0 -107,0 -107,0 -6,0 -12,6 -12,12 0,0 0,12 0,12 0,6 6,12 12,12" />
    <path
       style="fill:#808080;stroke:none"
       inkscape:connector-curvature="0"
       id="path5150-8"
       d="m 90.791531,505.89902 c 0,0 165.999999,0 165.999999,0 6,0 12,-6 12,-12 0,0 0,-12 0,-12 0,-6 -6,-12 -12,-12 0,0 -165.999999,0 -165.999999,0 -6,0 -12,6 -12,12 0,0 0,12 0,12 0,6 6,12 12,12" />
    <path
       style="fill:#808080;stroke:none"
       inkscape:connector-curvature="0"
       id="path5164-8"
       d="m 110.29153,431.89902 c 0,0 127,0 127,0 6,0 12,-6 12,-12 0,0 0,-12 0,-12 0,-6 -6,-12 -12,-12 0,0 -127,0 -127,0 -6,0 -11.999999,6 -11.999999,12 0,0 0,12 0,12 0,6 5.999999,12 11.999999,12" />
    <path
       style="fill:#808080;stroke:none"
       inkscape:connector-curvature="0"
       id="path5178-8"
       d="m 279.29153,431.89902 c 0,0 117,0 117,0 6,0 12,-6 12,-12 0,0 0,-12 0,-12 0,-6 -6,-12 -12,-12 0,0 -117,0 -117,0 -6,0 -12,6 -12,12 0,0 0,12 0,12 0,6 6,12 12,12" />
  </g>
  <path
     d="m 89.5,41 c 0,0 275,0 275,0 6,0 12,-6 12,-12 0,0 0,-12 0,-12 0,-6 -6,-12 -12,-12 0,0 -275,0 -275,0 -6,0 -12,6 -12,12 0,0 0,12 0,12 0,6 6,12 12,12"
     id="path5017"
     inkscape:connector-curvature="0"
     style="fill:#ffffff;stroke:#000000" />
  <text
     x="227"
     y="26.700012"
     font-size="14.00"
     id="text5019"
     style="font-size:14px;text-anchor:middle;font-family:Kp">Voting structure and state type specification</text>
  <path
     d="m 15.5,115 c 0,0 133,0 133,0 6,0 12,-6 12,-12 0,0 0,-12 0,-12 0,-6 -6,-12 -12,-12 0,0 -133,0 -133,0 -6,0 -12,6 -12,12 0,0 0,12 0,12 0,6 6,12 12,12"
     id="path5024"
     inkscape:connector-curvature="0"
     style="fill:#ffffff;stroke:#000000" />
  <text
     x="82"
     y="100.7"
     font-size="14.00"
     id="text5026"
     style="font-size:14px;text-anchor:middle;font-family:Kp">Core voting algorithm</text>
  <path
     d="M 183.404,45.648 C 161.938,56.307 136.43,68.973 116.367,78.935"
     id="path5031"
     inkscape:connector-curvature="0"
     style="fill:none;stroke:#000000" />
  <polygon
     points="178.124,-295.624 188.637,-296.937 181.237,-289.355 178.124,-295.624 "
     id="polygon5033"
     style="fill:#000000;stroke:#000000"
     transform="translate(4,338)" />
  <path
     d="m 267,115 c 0,0 162,0 162,0 6,0 12,-6 12,-12 0,0 0,-12 0,-12 0,-6 -6,-12 -12,-12 0,0 -162,0 -162,0 -6,0 -12,6 -12,12 0,0 0,12 0,12 0,6 6,12 12,12"
     id="path5038"
     inkscape:connector-curvature="0"
     style="fill:#ffffff;stroke:#000000" />
  <text
     x="348"
     y="100.7"
     font-size="14.00"
     id="text5040"
     style="font-size:14px;text-anchor:middle;font-family:Kp">Voting structure visualiser</text>
  <path
     d="m 264.557,46.348 c 17.587,10.465 38.211,22.737 54.554,32.462"
     id="path5045"
     inkscape:connector-curvature="0"
     style="fill:none;stroke:#000000" />
  <polygon
     points="258.479,-288.816 251.675,-296.937 262.059,-294.831 258.479,-288.816 "
     id="polygon5047"
     style="fill:#000000;stroke:#000000"
     transform="translate(4,338)" />
  <path
     d="m 122.5,189 c 0,0 111,0 111,0 6,0 12,-6 12,-12 0,0 0,-12 0,-12 0,-6 -6,-12 -12,-12 0,0 -111,0 -111,0 -6,0 -12,6 -12,12 0,0 0,12 0,12 0,6 6,12 12,12"
     id="path5052"
     inkscape:connector-curvature="0"
     style="fill:#ffffff;stroke:#000000" />
  <text
     x="178"
     y="174.7"
     font-size="14.00"
     id="text5054"
     style="font-size:14px;text-anchor:middle;font-family:Kp">Majority generator</text>
  <path
     d="M 218.026,50.738 C 208.071,80.4 192.3,127.392 183.832,152.622"
     id="path5059"
     inkscape:connector-curvature="0"
     style="fill:none;stroke:#000000" />
  <polygon
     points="210.783,-288.6 217.283,-296.966 217.419,-286.372 210.783,-288.6 "
     id="polygon5061"
     style="fill:#000000;stroke:#000000"
     transform="translate(4,338)" />
  <path
     d="m 276,189 c 0,0 86,0 86,0 6,0 12,-6 12,-12 0,0 0,-12 0,-12 0,-6 -6,-12 -12,-12 0,0 -86,0 -86,0 -6,0 -12,6 -12,12 0,0 0,12 0,12 0,6 6,12 12,12"
     id="path5066"
     inkscape:connector-curvature="0"
     style="fill:#ffffff;stroke:#000000" />
  <text
     x="319"
     y="174.7"
     font-size="14.00"
     id="text5068"
     style="font-size:14px;text-anchor:middle;font-family:Kp">Grid generator</text>
  <path
     d="m 227.563,51.325 c 1.551,19.393 6.059,45.312 18.437,64.675 9.764,15.275 25.487,27.723 39.845,36.802"
     id="path5073"
     inkscape:connector-curvature="0"
     style="fill:none;stroke:#000000" />
  <polygon
     points="220.067,-286.506 222.973,-296.694 227.054,-286.917 220.067,-286.506 "
     id="polygon5075"
     style="fill:#000000;stroke:#000000"
     transform="translate(4,338)" />
  <path
     d="m 404.5,189 c 0,0 143,0 143,0 6,0 12,-6 12,-12 0,0 0,-12 0,-12 0,-6 -6,-12 -12,-12 0,0 -143,0 -143,0 -6,0 -12,6 -12,12 0,0 0,12 0,12 0,6 6,12 12,12"
     id="path5080"
     inkscape:connector-curvature="0"
     style="fill:#ffffff;stroke:#000000" />
  <text
     x="476"
     y="174.7"
     font-size="14.00"
     id="text5082"
     style="font-size:14px;text-anchor:middle;font-family:Kp">Tree Quorum generator</text>
  <path
     d="M 350.956,43.004 C 393.298,51.787 433.825,63.52 449,78 c 20.593,19.65 25.722,54.098 26.858,74.807"
     id="path5087"
     inkscape:connector-curvature="0"
     style="fill:none;stroke:#000000" />
  <polygon
     points="346.151,-291.588 337.04,-296.995 347.534,-298.45 346.151,-291.588 "
     id="polygon5089"
     style="fill:#000000;stroke:#000000"
     transform="translate(4,338)" />
  <path
     d="m 194.5,263 c 0,0 107,0 107,0 6,0 12,-6 12,-12 0,0 0,-12 0,-12 0,-6 -6,-12 -12,-12 0,0 -107,0 -107,0 -6,0 -12,6 -12,12 0,0 0,12 0,12 0,6 6,12 12,12"
     id="path5094"
     inkscape:connector-curvature="0"
     style="fill:#ffffff;stroke:#000000" />
  <text
     x="248"
     y="248.7"
     font-size="14.00"
     id="text5096"
     style="font-size:14px;text-anchor:middle;font-family:Kp">Rafter integration</text>
  <path
     d="M 80.9239,125.161 C 81.5688,145.285 85.6592,172.196 101,190 c 20.498,23.79 52.422,37.105 81.29,44.555"
     id="path5101"
     inkscape:connector-curvature="0"
     style="fill:none;stroke:#000000" />
  <polygon
     points="73.4234,-212.919 76.8648,-222.939 80.4233,-212.96 73.4234,-212.919 "
     id="polygon5103"
     style="fill:#000000;stroke:#000000"
     transform="translate(4,338)" />
  <path
     d="m 298.237,119.076 c -25.442,10.775 -56.001,23.718 -79.944,33.859"
     id="path5108"
     inkscape:connector-curvature="0"
     style="fill:none;stroke:#000000;stroke-dasharray:5, 2" />
  <polygon
     points="293.139,-222.26 303.712,-222.937 295.869,-215.814 293.139,-222.26 "
     id="polygon5110"
     style="fill:#000000;stroke:#000000"
     transform="translate(4,338)" />
  <path
     d="m 337.371,124.388 c -3.781,9.389 -7.942,19.72 -11.346,28.171"
     id="path5115"
     inkscape:connector-curvature="0"
     style="fill:none;stroke:#000000;stroke-dasharray:5, 2" />
  <polygon
     points="330.145,-214.969 337.127,-222.937 336.638,-212.353 330.145,-214.969 "
     id="polygon5117"
     style="fill:#000000;stroke:#000000"
     transform="translate(4,338)" />
  <path
     d="m 387.218,120.06 c 18.715,10.527 40.774,22.936 58.222,32.75"
     id="path5122"
     inkscape:connector-curvature="0"
     style="fill:none;stroke:#000000;stroke-dasharray:5, 2" />
  <polygon
     points="381.334,-214.984 374.334,-222.937 384.766,-221.085 381.334,-214.984 "
     id="polygon5124"
     style="fill:#000000;stroke:#000000"
     transform="translate(4,338)" />
  <path
     d="m 201.654,196.329 c 9.64,9.916 20.567,21.156 29.39,30.23"
     id="path5129"
     inkscape:connector-curvature="0"
     style="fill:none;stroke:#000000" />
  <polygon
     points="195.05,-139.327 190.589,-148.937 200.069,-144.207 195.05,-139.327 "
     id="polygon5131"
     style="fill:#000000;stroke:#000000"
     transform="translate(4,338)" />
  <path
     d="m 295.008,196.329 c -9.777,9.916 -20.861,21.156 -29.81,30.23"
     id="path5136"
     inkscape:connector-curvature="0"
     style="fill:none;stroke:#000000;stroke-dasharray:5, 2" />
  <polygon
     points="288.66,-144.274 298.174,-148.937 293.645,-139.359 288.66,-144.274 "
     id="polygon5138"
     style="fill:#000000;stroke:#000000"
     transform="translate(4,338)" />
  <path
     d="m 412.395,192.086 c -34.722,10.965 -77.253,24.395 -110.355,34.849"
     id="path5143"
     inkscape:connector-curvature="0"
     style="fill:none;stroke:#000000;stroke-dasharray:5, 2" />
  <polygon
     points="407.377,-149.263 417.967,-148.937 409.485,-142.588 407.377,-149.263 "
     id="polygon5145"
     style="fill:#000000;stroke:#000000"
     transform="translate(4,338)" />
  <path
     d="m 324,337 c 0,0 166,0 166,0 6,0 12,-6 12,-12 0,0 0,-12 0,-12 0,-6 -6,-12 -12,-12 0,0 -166,0 -166,0 -6,0 -12,6 -12,12 0,0 0,12 0,12 0,6 6,12 12,12"
     id="path5150"
     inkscape:connector-curvature="0"
     style="fill:#ffffff;stroke:#000000" />
  <text
     x="407"
     y="322.70001"
     font-size="14.00"
     id="text5152"
     style="font-size:14px;text-anchor:middle;font-family:Kp">Benchmarking and analysis</text>
  <path
     d="m 294.858,267.2188 c 23.732,10.7466 52.161,23.62 74.456,33.7161"
     id="path5157"
     inkscape:connector-curvature="0"
     style="fill:none;stroke:#000000" />
  <polygon
     points="289.347,-67.6235 281.681,-74.937 292.234,-74.0002 289.347,-67.6235 "
     id="polygon5159"
     style="fill:#000000;stroke:#000000"
     transform="translate(4,338)" />
  <path
     d="m 343.5,263 c 0,0 127,0 127,0 6,0 12,-6 12,-12 0,0 0,-12 0,-12 0,-6 -6,-12 -12,-12 0,0 -127,0 -127,0 -6,0 -12,6 -12,12 0,0 0,12 0,12 0,6 6,12 12,12"
     id="path5164"
     inkscape:connector-curvature="0"
     style="fill:#ffffff;stroke:#000000" />
  <text
     x="407"
     y="248.7"
     font-size="14.00"
     id="text5166"
     style="font-size:14px;text-anchor:middle;font-family:Kp">Memcached frontend</text>
  <path
     d="m 407,273.2807 c 0,9.1473 0,19.0938 0,27.2786"
     id="path5171"
     inkscape:connector-curvature="0"
     style="fill:none;stroke:#000000" />
  <polygon
     points="399.5,-64.937 403,-74.937 406.5,-64.937 399.5,-64.937 "
     id="polygon5173"
     style="fill:#000000;stroke:#000000"
     transform="translate(4,338)" />
  <path
     d="m 512.5,263 c 0,0 117,0 117,0 6,0 12,-6 12,-12 0,0 0,-12 0,-12 0,-6 -6,-12 -12,-12 0,0 -117,0 -117,0 -6,0 -12,6 -12,12 0,0 0,12 0,12 0,6 6,12 12,12"
     id="path5178"
     inkscape:connector-curvature="0"
     style="fill:#ffffff;stroke:#000000" />
  <text
     x="571"
     y="248.7"
     font-size="14.00"
     id="text5180"
     style="font-size:14px;text-anchor:middle;font-family:Kp">Amazon EC2 set-up</text>
  <path
     d="m 522.668,267.2188 c -24.478,10.7466 -53.801,23.62 -76.797,33.7161"
     id="path5185"
     inkscape:connector-curvature="0"
     style="fill:none;stroke:#000000" />
  <polygon
     points="517.571,-74.1218 528.134,-74.937 520.385,-67.7123 517.571,-74.1218 "
     id="polygon5187"
     style="fill:#000000;stroke:#000000"
     transform="translate(4,338)" />
</svg>
