<?xml version="1.0" encoding="UTF-8" standalone="no"?>
<!-- Created with Inkscape (http://www.inkscape.org/) -->

<svg
   xmlns:dc="http://purl.org/dc/elements/1.1/"
   xmlns:cc="http://creativecommons.org/ns#"
   xmlns:rdf="http://www.w3.org/1999/02/22-rdf-syntax-ns#"
   xmlns:svg="http://www.w3.org/2000/svg"
   xmlns="http://www.w3.org/2000/svg"
   xmlns:sodipodi="http://sodipodi.sourceforge.net/DTD/sodipodi-0.dtd"
   xmlns:inkscape="http://www.inkscape.org/namespaces/inkscape"
   id="svg4454"
   version="1.1"
   inkscape:version="0.48.4 r9939"
   width="731.25"
   height="551.25"
   xml:space="preserve"
   sodipodi:docname="failure.svg"><metadata
     id="metadata4460"><rdf:RDF><cc:Work
         rdf:about=""><dc:format>image/svg+xml</dc:format><dc:type
           rdf:resource="http://purl.org/dc/dcmitype/StillImage" /><dc:title></dc:title></cc:Work></rdf:RDF></metadata><defs
     id="defs4458"><clipPath
       clipPathUnits="userSpaceOnUse"
       id="clipPath4472"><path
         d="m 73.125,44.1 453.375,0 0,352.8 -453.375,0 0,-352.8 z"
         id="path4474" /></clipPath><clipPath
       clipPathUnits="userSpaceOnUse"
       id="clipPath4482"><path
         d="m 73.125,44.1 453.375,0 0,352.8 -453.375,0 0,-352.8 z"
         id="path4484" /></clipPath><clipPath
       clipPathUnits="userSpaceOnUse"
       id="clipPath4492"><path
         d="m 73.125,44.1 453.375,0 0,352.8 -453.375,0 0,-352.8 z"
         id="path4494" /></clipPath><clipPath
       clipPathUnits="userSpaceOnUse"
       id="clipPath4502"><path
         d="m 73.125,44.1 453.375,0 0,352.8 -453.375,0 0,-352.8 z"
         id="path4504" /></clipPath><clipPath
       clipPathUnits="userSpaceOnUse"
       id="clipPath4512"><path
         d="m 73.125,44.1 453.375,0 0,352.8 -453.375,0 0,-352.8 z"
         id="path4514" /></clipPath><clipPath
       clipPathUnits="userSpaceOnUse"
       id="clipPath4522"><path
         d="m 73.125,44.1 453.375,0 0,352.8 -453.375,0 0,-352.8 z"
         id="path4524" /></clipPath><clipPath
       clipPathUnits="userSpaceOnUse"
       id="clipPath4532"><path
         d="m 73.125,44.1 453.375,0 0,352.8 -453.375,0 0,-352.8 z"
         id="path4534" /></clipPath><clipPath
       clipPathUnits="userSpaceOnUse"
       id="clipPath4552"><path
         d="m 73.125,44.1 453.375,0 0,352.8 -453.375,0 0,-352.8 z"
         id="path4554" /></clipPath><clipPath
       clipPathUnits="userSpaceOnUse"
       id="clipPath4572"><path
         d="m 73.125,44.1 453.375,0 0,352.8 -453.375,0 0,-352.8 z"
         id="path4574" /></clipPath><clipPath
       clipPathUnits="userSpaceOnUse"
       id="clipPath4592"><path
         d="m 73.125,44.1 453.375,0 0,352.8 -453.375,0 0,-352.8 z"
         id="path4594" /></clipPath><clipPath
       clipPathUnits="userSpaceOnUse"
       id="clipPath4612"><path
         d="m 73.125,44.1 453.375,0 0,352.8 -453.375,0 0,-352.8 z"
         id="path4614" /></clipPath><clipPath
       clipPathUnits="userSpaceOnUse"
       id="clipPath4636"><path
         d="m 73.125,44.1 453.375,0 0,352.8 -453.375,0 0,-352.8 z"
         id="path4638" /></clipPath><clipPath
       clipPathUnits="userSpaceOnUse"
       id="clipPath4656"><path
         d="m 73.125,44.1 453.375,0 0,352.8 -453.375,0 0,-352.8 z"
         id="path4658" /></clipPath><clipPath
       clipPathUnits="userSpaceOnUse"
       id="clipPath4676"><path
         d="m 73.125,44.1 453.375,0 0,352.8 -453.375,0 0,-352.8 z"
         id="path4678" /></clipPath><clipPath
       clipPathUnits="userSpaceOnUse"
       id="clipPath4696"><path
         d="m 73.125,44.1 453.375,0 0,352.8 -453.375,0 0,-352.8 z"
         id="path4698" /></clipPath><clipPath
       clipPathUnits="userSpaceOnUse"
       id="clipPath4716"><path
         d="m 73.125,44.1 453.375,0 0,352.8 -453.375,0 0,-352.8 z"
         id="path4718" /></clipPath></defs><sodipodi:namedview
     pagecolor="#ffffff"
     bordercolor="#666666"
     borderopacity="1"
     objecttolerance="10"
     gridtolerance="10"
     guidetolerance="10"
     inkscape:pageopacity="0"
     inkscape:pageshadow="2"
     inkscape:window-width="1366"
     inkscape:window-height="702"
     id="namedview4456"
     showgrid="false"
     inkscape:zoom="0.85623583"
     inkscape:cx="263.29973"
     inkscape:cy="236.57829"
     inkscape:window-x="0"
     inkscape:window-y="27"
     inkscape:window-maximized="1"
     inkscape:current-layer="g4462" /><g
     id="g4462"
     inkscape:groupmode="layer"
     inkscape:label="failure"
     transform="matrix(1.25,0,0,-1.25,0,551.25)"><path
       d="M 0,0 585,0 585,441 0,441 0,0 z"
       style="fill:#ffffff;fill-opacity:1;fill-rule:nonzero;stroke:none"
       id="path4464" /><path
       d="m 73.125,44.1 453.375,0 0,352.8 -453.375,0 0,-352.8 z"
       style="fill:#ffffff;fill-opacity:1;fill-rule:nonzero;stroke:none"
       id="path4466" /><g
       id="g4468"
       style="stroke:#ff0000"><g
         id="g4470"
         clip-path="url(#clipPath4472)"
         style="stroke:#ff0000"><path
           d="m 142.15113,44.1 0,1.017154 0.82253,0 0,2.712412 0.41127,0 0,1.695257 0.41126,0 0,1.356206 0.41127,0 0,1.017155 0.41127,0 0,2.712411 0.41126,0 0,2.712412 0.41127,0 0,3.390515 0.41127,0 0,1.356206 0.41126,0 0,4.068617 0.41127,0 0,3.051463 0.41126,0 0,3.390515 0.41127,0 0,4.068617 0.41127,0 0,4.746721 0.41126,0 0,4.74672 0.41127,0 0,6.441978 0.41127,0 0,5.763875 0.41126,0 0,5.763876 0.41127,0 0,6.44198 0.41126,0 0,5.08577 0.41127,0 0,6.10293 0.41127,0 0,4.40766 0.41126,0 0,4.40767 0.41127,0 0,4.74672 0.41127,0 0,3.05147 0.41126,0 0,2.71241 0.41127,0 0,2.71241 0.41127,0 0,2.37336 0.41126,0 0,1.35621 0.41127,0 0,2.03431 0.41126,0 0,2.0343 0.41127,0 0,1.35621 0.41127,0 0,0.33905 0.41126,0 0,1.35621 0.41127,0 0,0.33905 0.82253,0 0,1.01715 0.41127,0 0,0.33905 6.99153,0 0,0.67811 0.82253,0 0,0.33905 1.64506,0 0,1.3562 0.41127,0 0,1.01716 0.41127,0 0,0.33905 0.41126,0 0,0.33905 0.41127,0 0,1.01716 0.41127,0 0,1.69525 0.41126,0 0,1.69526 0.41127,0 0,2.37336 0.41126,0 0,4.06862 0.41127,0 0,5.76387 0.41127,0 0,3.05147 0.41126,0 0,4.40767 0.41127,0 0,6.44197 0.41127,0 0,6.44198 0.41126,0 0,7.79819 0.41127,0 0,7.12008 0.41126,0 0,8.81533 0.41127,0 0,8.47629 0.41127,0 0,14.24016 0.41126,0 0,9.49344 0.41127,0 0,6.10293 0.41127,0 0,9.15439 0.41126,0 0,8.13723 0.41127,0 0,9.8325 0.41127,0 0,8.81533 0.41126,0 0,9.15439 0.41127,0 0,6.78103 0.41126,0 0,7.45914 0.41127,0 0,7.79818 0.41127,0 0,7.12008 0.41126,0 0,8.13723 0.41127,0 0,5.42483 0.41127,0 0,4.40767 0.41126,0 0,2.37336 0.41127,0 0,1.69525 0.41126,0 0,2.71242 0.41127,0 0,2.37336 0.41127,0 0,0.33905 0.41126,0 0,2.03431 0.82254,0 0,1.3562 0.41126,0 0,0.33905 0.41127,0 0,0.33906 0.41127,0 0,1.01715 0.41126,0 0,1.35621 0.82253,0 0,0.33905 0.82254,0 0,0.33905 0.82253,0 0,0.33905 0.41127,0 0,0.6781 0.82253,0 0,0.33905 14.39432,0 0,0.33906 24.67598,0 0,0.33905 25.08724,0 0,0.33905 24.67598,0 0,0.33905 24.67598,0 0,0.33905 23.85345,0 0,0.33905 0.82253,0 0,0.33905 22.20838,0 0,0.33906 23.85345,0 0,0.33905 25.08724,0 0,0.33905 23.44218,0 0,0.33905 26.73231,0 0,0.33905 24.67598,0 0,0.33905 18.50698,0 0,0.33906 2.4676,0 0,0.33905 6.99153,0 0,0.33905 3.7014,0 0,0.33905 2.05633,0 0,0.33905 1.2338,0 0,0.33905 1.64506,0 0,0.33905 2.87887,0 0,0.33906 1.64506,0 0,0.33905 1.2338,0 0,0.33905 2.4676,0 0,0.33905 23.44218,0 0,0.33905 4.11266,0 0,0.33905 0.82253,0 0,0.33905 1.2338,0 0,0.33906 1.2338,0 0,0.33905 2.05633,0 0,0.33905 2.05634,0 0,0.33905 0.41126,0 0,-336 0,0"
           style="fill:none;stroke:#ff0000;stroke-opacity:1;stroke-width:1;stroke-linecap:butt;stroke-linejoin:round;stroke-miterlimit:10;stroke-dasharray:none"
           id="path4476" /></g></g><g
       id="g4478"
       style="stroke:#ff0000;stroke-width:1;stroke-miterlimit:7;stroke-dasharray:8,8;stroke-dashoffset:0"><g
         id="g4480"
         clip-path="url(#clipPath4482)"
         style="stroke:#ff0000;stroke-width:1;stroke-miterlimit:7;stroke-dasharray:8,8;stroke-dashoffset:0"><path
           d="m 144.50679,44.1 0,0.678103 0.71929,0 0,1.356206 0.71929,0 0,0.339051 0.71929,0 0,2.034309 0.71929,0 0,2.034309 0.71929,0 0,3.051463 0.71929,0 0,2.37336 0.71929,0 0,1.356206 0.71929,0 0,2.712412 0.7193,0 0,3.390514 0.71929,0 0,1.695258 0.71929,0 0,1.695257 0.71929,0 0,2.712412 0.71929,0 0,2.034309 0.71929,0 0,1.017154 0.71929,0 0,1.017154 0.71929,0 0,1.017155 0.71929,0 0,1.695257 0.71929,0 0,0.339051 0.71929,0 0,2.712412 0.7193,0 0,2.034309 0.71929,0 0,1.695257 0.71929,0 0,1.017155 0.71929,0 0,0.339051 0.71929,0 0,0.339052 0.71929,0 0,2.712411 0.71929,0 0,0.339052 0.71929,0 0,0.339051 0.71929,0 0,0.678103 0.71929,0 0,0.339052 0.7193,0 0,0.678103 1.43858,0 0,0.678102 1.43858,0 0,0.678103 1.43858,0 0,0.678103 0.71929,0 0,0.678103 0.71929,0 0,3.729566 0.71929,0 0,2.034309 0.71929,0 0,3.729566 0.7193,0 0,2.03431 0.71929,0 0,1.3562 0.71929,0 0,1.35621 0.71929,0 0,2.03431 0.71929,0 0,3.39051 0.71929,0 0,2.37336 0.71929,0 0,3.05147 0.71929,0 0,5.08577 0.71929,0 0,5.08577 0.71929,0 0,2.71241 0.71929,0 0,1.69526 0.7193,0 0,3.05146 0.71929,0 0,2.37336 0.71929,0 0,1.35621 0.71929,0 0,1.35621 0.71929,0 0,1.69525 0.71929,0 0,2.37336 0.71929,0 0,1.69526 0.71929,0 0,2.71241 0.71929,0 0,1.69526 0.71929,0 0,3.39051 0.71929,0 0,3.05147 0.7193,0 0,1.69525 0.71929,0 0,1.35621 0.71929,0 0,0.33905 1.43858,0 0,1.01716 0.71929,0 0,3.72956 0.71929,0 0,2.71241 0.71929,0 0,1.01716 0.71929,0 0,1.3562 0.71929,0 0,2.37336 0.7193,0 0,1.35621 0.71929,0 0,2.03431 0.71929,0 0,1.01715 0.71929,0 0,1.35621 0.71929,0 0,1.35621 0.71929,0 0,0.6781 0.71929,0 0,0.33905 0.71929,0 0,1.35621 0.71929,0 0,3.39051 0.71929,0 0,3.05146 0.71929,0 0,3.05147 0.7193,0 0,3.39051 0.71929,0 0,2.03431 0.71929,0 0,3.39051 0.71929,0 0,3.72957 0.71929,0 0,3.39052 0.71929,0 0,3.39051 0.71929,0 0,2.03431 0.71929,0 0,2.37336 0.71929,0 0,1.69526 0.71929,0 0,1.3562 0.71929,0 0,0.6781 0.7193,0 0,1.01716 0.71929,0 0,2.71241 0.71929,0 0,2.71241 0.71929,0 0,0.67811 0.71929,0 0,0.33905 0.71929,0 0,0.6781 0.71929,0 0,0.33905 0.71929,0 0,1.69526 2.15787,0 0,0.33905 0.7193,0 0,0.33905 0.71929,0 0,0.6781 0.71929,0 0,1.01716 0.71929,0 0,2.37336 0.71929,0 0,1.35621 0.71929,0 0,2.37336 0.71929,0 0,3.39051 0.71929,0 0,2.37336 0.71929,0 0,1.69526 0.71929,0 0,0.33905 0.71929,0 0,1.01715 0.7193,0 0,2.37336 0.71929,0 0,3.72957 0.71929,0 0,1.01715 0.71929,0 0,2.71242 0.71929,0 0,3.39051 0.71929,0 0,2.71241 0.71929,0 0,2.37336 0.71929,0 0,4.06862 0.71929,0 0,1.35621 0.71929,0 0,2.37336 0.7193,0 0,0.6781 0.71929,0 0,0.6781 0.71929,0 0,0.6781 0.71929,0 0,0.33906 1.43858,0 0,0.33905 0.71929,0 0,0.6781 0.71929,0 0,2.71241 0.71929,0 0,2.03431 0.71929,0 0,1.69526 0.71929,0 0,1.69526 0.7193,0 0,0.6781 0.71929,0 0,0.6781 0.71929,0 0,1.35621 0.71929,0 0,2.37336 0.71929,0 0,1.01715 0.71929,0 0,2.03431 0.71929,0 0,1.69526 0.71929,0 0,2.37336 0.71929,0 0,1.3562 0.71929,0 0,2.37336 0.71929,0 0,1.69526 0.7193,0 0,1.01716 0.71929,0 0,1.01715 0.71929,0 0,0.6781 0.71929,0 0,0.33906 0.71929,0 0,2.37336 0.71929,0 0,0.6781 0.71929,0 0,1.69526 0.71929,0 0,2.71241 0.71929,0 0,2.37336 0.71929,0 0,3.39051 0.71929,0 0,3.05147 0.7193,0 0,2.37336 0.71929,0 0,2.37336 0.71929,0 0,1.01715 0.71929,0 0,1.35621 2.87716,0 0,0.6781 1.43858,0 0,1.3562 0.7193,0 0,0.67811 0.71929,0 0,1.3562 0.71929,0 0,2.71242 0.71929,0 0,0.6781 0.71929,0 0,1.01715 0.71929,0 0,1.01716 0.71929,0 0,1.69525 0.71929,0 0,1.69526 0.71929,0 0,0.6781 0.71929,0 0,0.33906 1.43859,0 0,1.01715 0.71929,0 0,0.33905 0.71929,0 0,0.33905 1.43858,0 0,0.67811 2.15787,0 0,1.3562 0.71929,0 0,0.33905 1.43858,0 0,0.33906 0.7193,0 0,1.3562 0.71929,0 0,1.01716 0.71929,0 0,0.6781 0.71929,0 0,0.6781 0.71929,0 0,0.6781 0.71929,0 0,1.35621 0.71929,0 0,0.33905 2.87716,0 0,0.33905 1.43859,0 0,0.33905 0.71929,0 0,0.33906 0.71929,0 0,1.01715 0.71929,0 0,0.33905 0.71929,0 0,0.33905 1.43858,0 0,0.33905 0.71929,0 0,0.67811 2.15788,0 0,0.33905 0.71929,0 0,1.01715 1.43858,0 0,0.67811 0.71929,0 0,0.33905 0.71929,0 0,1.01715 0.71929,0 0,0.67811 0.71929,0 0,0.6781 5.75433,0 0,0.33905 0.71929,0 0,0.33905 0.71929,0 0,0.33905 0.71929,0 0,0.33905 1.43858,0 0,0.67811 0.7193,0 0,0.6781 7.1929,0 0,0.33905 5.03504,0 0,0.33905 5.75433,0 0,0.33905 0.71929,0 0,0.33906 2.15787,0 0,0.6781 0.71929,0 0,0.33905 2.87717,0 0,0.6781 7.9122,0 0,0.33905 5.03503,0 0,0.33906 0.71929,0 0,0.33905 0.7193,0 0,0.33905 0.71929,0 0,0.33905 0.71929,0 0,0.6781 0.71929,0 0,0.67811 0.71929,0 0,0.33905 3.59645,0 0,0.33905 12.94724,0 0,0.33905 23.01731,0 0,0.33905 26.61376,0 0,0.33905 26.61377,0 0,0.33905 15.8244,0 0,0.33906 8.63149,0 0,0.33905 17.26298,0 0,0.33905 3.59646,0 0,0.33905 81.27987,0 0,0.33905 11.35724,0 0,0"
           style="fill:none;stroke:#ff0000;stroke-opacity:1;stroke-width:1;stroke-linecap:butt;stroke-linejoin:round;stroke-miterlimit:7;stroke-dasharray:8,8;stroke-dashoffset:0"
           id="path4486" /></g></g><g
       id="g4488"
       style="stroke:#ff0000;stroke-width:1;stroke-miterlimit:7;stroke-dasharray:3,3;stroke-dashoffset:0"><g
         id="g4490"
         clip-path="url(#clipPath4492)"
         style="stroke:#ff0000;stroke-width:1;stroke-miterlimit:7;stroke-dasharray:3,3;stroke-dashoffset:0"><path
           d="m 145.1876,44.1 0,1.695257 1.12227,0 0,2.373361 1.12226,0 0,1.356205 1.12227,0 0,3.390515 1.12226,0 0,2.034309 1.12227,0 0,3.051463 1.12226,0 0,3.390515 1.12227,0 0,2.37336 1.12226,0 0,1.356206 1.12227,0 0,1.017154 1.12226,0 0,0.339052 2.24453,0 0,1.017154 1.12227,0 0,0.339051 4.48906,0 0,0.339052 5.61132,0 0,1.017154 1.12226,0 0,0.339052 1.12227,0 0,0.678103 1.12226,0 0,1.356206 1.12227,0 0,1.695257 1.12226,0 0,2.712412 1.12227,0 0,4.407669 1.12226,0 0,2.37336 1.12227,0 0,2.37336 1.12226,0 0,1.695257 1.12227,0 0,0.678103 1.12226,0 0,0.339052 14.58945,0 0,0.678103 1.12226,0 0,0.339051 2.24453,0 0,1.017155 4.48906,0 0,0.678102 2.24453,0 0,0.339052 2.24453,0 0,0.339051 1.12226,0 0,0.678103 1.12227,0 0,0.678103 1.12226,0 0,0.678103 1.12227,0 0,0.339052 1.12226,0 0,0.339051 2.24453,0 0,0.678103 5.61133,0 0,0.339051 1.12226,0 0,0.678103 1.12227,0 0,0.339052 1.12226,0 0,0.339051 1.12227,0 0,1.695258 1.12226,0 0,0.339051 5.61133,0 0,0.339052 1.12226,0 0,2.034304 1.12227,0 0,1.01716 1.12226,0 0,2.03431 1.12227,0 0,0.6781 1.12226,0 0,0.6781 1.12226,0 0,0.67811 1.12227,0 0,0.6781 3.36679,0 0,0.33905 1.12227,0 0,0.33905 2.24453,0 0,0.33905 1.12226,0 0,0.67811 2.24453,0 0,1.3562 1.12227,0 0,0.33905 4.48906,0 0,0.67811 2.24453,0 0,2.03431 1.12226,0 0,2.0343 1.12227,0 0,1.01716 3.36679,0 0,1.01715 6.73359,0 0,0.33905 1.12227,0 0,1.69526 1.12226,0 0,2.37336 1.12226,0 0,1.01716 1.12227,0 0,1.69525 1.12226,0 0,2.37336 1.12227,0 0,1.01716 1.12226,0 0,1.01715 1.12227,0 0,1.01716 1.12226,0 0,1.01715 1.12227,0 0,2.03431 1.12226,0 0,1.35621 1.12227,0 0,0.33905 1.12226,0 0,1.01715 1.12227,0 0,2.71241 1.12226,0 0,1.35621 1.12227,0 0,2.03431 1.12226,0 0,3.05146 1.12227,0 0,1.01716 1.12226,0 0,0.6781 1.12227,0 0,0.6781 2.24453,0 0,0.33905 1.12226,0 0,2.03431 1.12227,0 0,1.35621 1.12226,0 0,0.33905 1.12227,0 0,1.35621 1.12226,0 0,2.0343 2.24453,0 0,2.37336 1.12227,0 0,1.69526 1.12226,0 0,0.6781 1.12227,0 0,0.67811 1.12226,0 0,1.01715 2.24453,0 0,1.35621 1.12226,0 0,1.69526 1.12227,0 0,0.6781 1.12226,0 0,1.3562 1.12227,0 0,1.35621 1.12226,0 0,1.69526 1.12227,0 0,2.71241 1.12226,0 0,3.72956 1.12227,0 0,4.40767 1.12226,0 0,1.35621 1.12227,0 0,2.71241 1.12226,0 0,2.03431 1.12227,0 0,2.03431 1.12226,0 0,4.06862 1.12227,0 0,1.69525 1.12226,0 0,2.03431 1.12227,0 0,0.67811 1.12226,0 0,1.01715 1.12227,0 0,1.69526 1.12226,0 0,0.6781 1.12227,0 0,0.33905 1.12226,0 0,1.01716 1.12227,0 0,0.33905 2.24453,0 0,1.01715 1.12226,0 0,1.01716 3.3668,0 0,0.6781 1.12226,0 0,1.01715 1.12226,0 0,3.39052 1.12227,0 0,1.69526 1.12226,0 0,3.72956 1.12227,0 0,0.33905 1.12226,0 0,2.03431 1.12227,0 0,1.69526 1.12226,0 0,1.3562 1.12227,0 0,2.37337 1.12226,0 0,1.01715 1.12227,0 0,2.37336 1.12226,0 0,2.37336 1.12227,0 0,1.01715 2.24453,0 0,3.05147 1.12226,0 0,2.71241 1.12227,0 0,2.37336 1.12226,0 0,2.37336 1.12227,0 0,0.6781 1.12226,0 0,3.05147 1.12227,0 0,1.69525 1.12226,0 0,0.67811 1.12227,0 0,0.33905 1.12226,0 0,1.01715 2.24453,0 0,0.33905 1.12227,0 0,1.35621 1.12226,0 0,2.71241 1.12227,0 0,1.01716 1.12226,0 0,1.01715 1.12227,0 0,1.01715 1.12226,0 0,0.67811 1.12227,0 0,0.6781 1.12226,0 0,0.6781 1.12226,0 0,1.69526 1.12227,0 0,1.35621 1.12226,0 0,1.69525 1.12227,0 0,0.33905 1.12226,0 0,0.33906 1.12227,0 0,0.6781 1.12226,0 0,0.6781 1.12227,0 0,0.33905 1.12226,0 0,0.33906 1.12227,0 0,0.33905 2.24453,0 0,0.6781 1.12226,0 0,1.01715 1.12227,0 0,1.35621 1.12226,0 0,3.05146 1.12227,0 0,2.03431 1.12226,0 0,2.37336 1.12227,0 0,4.40767 1.12226,0 0,3.39052 1.12227,0 0,1.69525 1.12226,0 0,0.33905 1.12227,0 0,1.35621 1.12226,0 0,0.6781 1.12227,0 0,0.33905 2.24453,0 0,1.35621 1.12226,0 0,1.69526 1.12227,0 0,0.33905 2.24453,0 0,0.6781 1.12226,0 0,1.01716 1.12226,0 0,0.6781 1.12227,0 0,0.33905 1.12226,0 0,0.6781 1.12227,0 0,1.35621 1.12226,0 0,0.6781 1.12227,0 0,0.67811 1.12226,0 0,0.6781 1.12227,0 0,1.3562 1.12226,0 0,1.69526 1.12227,0 0,1.01716 1.12226,0 0,1.01715 1.12227,0 0,3.39052 1.12226,0 0,0.6781 1.12227,0 0,2.37336 1.12226,0 0,1.3562 1.12227,0 0,0.33906 1.12226,0 0,1.3562 1.12227,0 0,0.6781 1.12226,0 0,3.39052 1.12227,0 0,1.3562 1.12226,0 0,1.01716 1.12227,0 0,0.6781 2.24453,0 0,0.67811 3.36679,0 0,0.33905 4.48906,0 0,0.33905 2.24453,0 0,0.33905 2.24453,0 0,0.33905 1.12226,0 0,0.6781 1.12227,0 0,0.67811 2.24453,0 0,1.01715 3.36679,0 0,0.6781 5.61133,0 0,0.33906 1.12226,0 0,0.33905 1.12227,0 0,0.33905 2.24453,0 0,0.33905 1.12226,0 0,0.6781 1.12227,0 0,0.33905 1.12226,0 0,0.67811 1.12227,0 0,1.3562 4.48906,0 0,0.33905 1.12226,0 0,1.69526 1.12227,0 0,1.35621 1.12226,0 0,1.3562 1.12227,0 0,2.03431 1.12226,0 0,3.39052 1.12226,0 0,2.37336 1.12227,0 0,2.03431 1.12226,0 0,1.3562 1.12227,0 0,0.33905 2.24453,0 0,0.33905 1.12226,0 0,1.01716 1.12227,0 0,2.03431 1.12226,0 0,1.01715 1.12227,0 0,0.67811 1.12226,0 0,0.6781 1.12227,0 0,1.01715 1.12226,0 0,0.67811 5.61133,0 0,0.33905 1.12226,0 0,0.33905 3.3668,0 0,2.03431 1.12226,0 0,0.6781 1.12227,0 0,1.35621 1.12226,0 0,1.69525 4.48906,0 0,0.33905 15.71171,0 0,0.33906 11.22265,0 0,0.33905 7.85585,0 0,0.33905 3.36679,0 0,0.33905 1.12227,0 0,0.6781 1.12226,0 0,1.01716 2.24453,0 0,0.33905 1.12227,0 0,0.6781 1.12226,0 0,0.33905 4.48906,0 0,0.67811 1.12227,0 0,0.6781 11.22265,0 0,0.33905 4.25137,0 0,0"
           style="fill:none;stroke:#ff0000;stroke-opacity:1;stroke-width:1;stroke-linecap:butt;stroke-linejoin:round;stroke-miterlimit:7;stroke-dasharray:3,3;stroke-dashoffset:0"
           id="path4496" /></g></g><g
       id="g4498"
       style="stroke:#000080"><g
         id="g4500"
         clip-path="url(#clipPath4502)"
         style="stroke:#000080"><path
           d="m 93.122128,44.1 0,0.33871 36.541132,0 0,0.677419 0.46255,0 0,2.032258 0.46254,0 0,1.016129 0.46255,0 0,2.370968 0.46254,0 0,4.741935 0.46255,0 0,3.048387 0.46255,0 0,5.758065 0.46254,0 0,4.741935 0.46255,0 0,5.419355 0.46254,0 0,7.790323 0.46255,0 0,10.5 0.46255,0 0,11.177416 0.46254,0 0,12.53226 0.46255,0 0,16.93549 0.46254,0 0,17.95161 0.46255,0 0,16.25806 0.46255,0 0,17.2742 0.46254,0 0,12.53225 0.46255,0 0,11.85484 0.46254,0 0,11.85484 0.46255,0 0,10.16129 0.46255,0 0,8.46774 0.46254,0 0,10.5 0.46255,0 0,6.09678 0.46254,0 0,6.77419 0.46255,0 0,4.40323 0.46255,0 0,5.41935 0.46254,0 0,3.04839 0.46255,0 0,2.03226 0.46254,0 0,0.67742 0.46255,0 0,1.01613 0.46255,0 0,1.69354 1.38763,0 0,0.67742 0.9251,0 0,0.67742 0.46254,0 0,0.67742 0.92509,0 0,0.33871 6.93819,0 0,0.33871 1.38764,0 0,0.33871 0.92509,0 0,0.33871 0.46255,0 0,1.01613 0.46254,0 0,0.67742 0.46255,0 0,3.04839 0.46255,0 0,1.69354 0.46254,0 0,0.33871 0.46255,0 0,1.69355 0.46254,0 0,2.03226 0.46255,0 0,2.70968 0.46255,0 0,1.35484 0.46254,0 0,1.35484 0.46255,0 0,4.06451 0.46254,0 0,3.72581 0.46255,0 0,3.04839 0.46255,0 0,3.7258 0.46254,0 0,4.06452 0.46255,0 0,3.7258 0.46254,0 0,6.09678 0.46255,0 0,5.75806 0.46255,0 0,5.08065 0.46254,0 0,4.74193 0.46255,0 0,3.04839 0.46254,0 0,5.08065 0.46255,0 0,2.37096 0.46255,0 0,1.01613 0.46254,0 0,2.03226 0.46255,0 0,3.3871 0.46254,0 0,1.35484 0.46255,0 0,2.03225 0.46255,0 0,1.01613 0.46254,0 0,1.35484 0.46255,0 0,1.01613 0.92509,0 0,0.33871 0.46255,0 0,0.67742 0.92509,0 0,0.33871 12.95129,0 0,0.33871 24.51493,0 0,0.33871 3.23782,0 0,0.33871 25.90258,0 0,0.33871 25.90257,0 0,0.33871 26.82767,0 0,0.33871 22.66475,0 0,0.33871 25.90258,0 0,0.33871 25.90257,0 0,0.33871 24.97748,0 0,0.33871 27.75276,0 0,0.33871 24.97748,0 0,0.33871 24.0524,0 0,0.33871 24.97748,0 0,0.33871 0.92509,0 0,0.33871 19.42693,0 0,0.3387 0.92509,0 0,0.33871 0.92509,0 0,0.33871 1.38764,0 0,0.67742 0.46255,0 0,0.33871 0.92509,0 0,0.33871 0.92509,0 0,0.33871 0.92509,0 0,0.33871 0.9251,0 0,0.33871 0.92509,0 0,0.33871 0.46254,0 0,0.33871 1.85019,0 0,0.33871 2.31273,0 0,0.33871 20.35202,0 0,0.33871 7.40074,0 0,0.33871 0.46254,0 0,-336 0,0"
           style="fill:none;stroke:#000080;stroke-opacity:1;stroke-width:1;stroke-linecap:butt;stroke-linejoin:round;stroke-miterlimit:10;stroke-dasharray:none"
           id="path4506" /></g></g><g
       id="g4508"
       style="stroke:#000080;stroke-width:1;stroke-miterlimit:7;stroke-dasharray:8,8;stroke-dashoffset:0"><g
         id="g4510"
         clip-path="url(#clipPath4512)"
         style="stroke:#000080;stroke-width:1;stroke-miterlimit:7;stroke-dasharray:8,8;stroke-dashoffset:0"><path
           d="m 118.98243,44.1 0,0.678103 0.69746,0 0,0.339051 1.39491,0 0,0.339052 8.36949,0 0,0.339051 5.57966,0 0,0.339052 2.09237,0 0,1.356206 0.69745,0 0,1.356205 0.69746,0 0,1.695258 0.69746,0 0,2.034309 0.69746,0 0,1.695257 0.69745,0 0,2.37336 0.69746,0 0,5.424824 0.69746,0 0,3.729566 0.69745,0 0,4.74672 0.69746,0 0,3.390515 0.69746,0 0,3.051463 0.69746,0 0,2.37336 0.69745,0 0,0.678103 0.69746,0 0,1.356206 0.69746,0 0,1.695257 0.69745,0 0,3.390515 0.69746,0 0,1.356206 0.69746,0 0,0.678103 1.39491,0 0,0.339051 0.69746,0 0,0.678103 0.69746,0 0,1.695257 0.69745,0 0,0.678103 0.69746,0 0,1.356206 0.69746,0 0,0.678103 0.69746,0 0,0.678103 0.69745,0 0,1.017154 1.39492,0 0,1.695258 0.69745,0 0,1.695257 0.69746,0 0,1.356203 0.69746,0 0,2.03431 0.69746,0 0,1.01716 0.69745,0 0,0.33905 0.69746,0 0,0.6781 0.69746,0 0,1.01715 0.69745,0 0,1.69526 0.69746,0 0,1.69526 0.69746,0 0,1.35621 0.69745,0 0,1.69525 0.69746,0 0,2.03431 0.69746,0 0,1.69526 0.69746,0 0,1.3562 0.69745,0 0,1.69526 0.69746,0 0,2.03431 0.69746,0 0,4.40767 0.69745,0 0,2.71241 0.69746,0 0,2.37336 0.69746,0 0,2.37336 0.69746,0 0,1.01716 0.69745,0 0,1.69525 0.69746,0 0,3.39052 0.69746,0 0,3.05146 0.69745,0 0,2.03431 0.69746,0 0,2.03431 0.69746,0 0,2.03431 0.69746,0 0,1.69526 0.69745,0 0,4.40766 0.69746,0 0,2.37336 0.69746,0 0,3.39052 0.69745,0 0,2.71241 0.69746,0 0,3.72957 0.69746,0 0,3.05146 0.69746,0 0,3.05146 0.69745,0 0,4.06862 0.69746,0 0,4.06862 0.69746,0 0,1.69526 0.69745,0 0,3.39051 0.69746,0 0,4.40767 0.69746,0 0,3.39051 0.69746,0 0,5.76388 0.69745,0 0,1.01715 0.69746,0 0,2.71241 0.69746,0 0,2.71242 0.69745,0 0,1.69525 0.69746,0 0,2.71242 0.69746,0 0,2.0343 0.69746,0 0,1.35621 0.69745,0 0,0.6781 1.39492,0 0,1.01716 0.69745,0 0,2.71241 0.69746,0 0,1.69526 0.69746,0 0,1.69525 0.69745,0 0,1.69526 0.69746,0 0,2.03431 0.69746,0 0,2.71241 0.69746,0 0,2.71241 0.69745,0 0,2.03431 0.69746,0 0,0.6781 0.69746,0 0,3.72957 0.69745,0 0,3.05146 0.69746,0 0,3.72957 0.69746,0 0,1.69526 0.69746,0 0,0.6781 0.69745,0 0,2.03431 0.69746,0 0,1.69526 0.69746,0 0,0.6781 0.69745,0 0,2.03431 0.69746,0 0,1.01715 0.69746,0 0,0.67811 0.69746,0 0,0.33905 0.69745,0 0,0.33905 0.69746,0 0,0.33905 0.69746,0 0,2.03431 0.69745,0 0,1.3562 0.69746,0 0,1.35621 0.69746,0 0,3.72957 0.69746,0 0,3.39051 0.69745,0 0,3.39052 0.69746,0 0,2.71241 0.69746,0 0,1.3562 0.69745,0 0,2.37336 0.69746,0 0,2.37336 0.69746,0 0,3.05147 0.69746,0 0,1.69525 0.69745,0 0,0.33906 0.69746,0 0,0.33905 0.69746,0 0,0.6781 0.69745,0 0,0.33905 0.69746,0 0,2.03431 0.69746,0 0,1.69526 0.69746,0 0,2.03431 0.69745,0 0,0.33905 0.69746,0 0,1.01715 0.69746,0 0,1.01716 0.69745,0 0,0.6781 0.69746,0 0,1.69526 0.69746,0 0,2.03431 0.69746,0 0,1.69525 0.69745,0 0,1.35621 0.69746,0 0,2.37336 0.69746,0 0,1.01715 0.69745,0 0,2.71242 0.69746,0 0,1.3562 0.69746,0 0,1.01716 0.69745,0 0,0.6781 0.69746,0 0,2.37336 0.69746,0 0,0.33905 0.69746,0 0,0.33905 1.39491,0 0,0.33905 0.69746,0 0,0.33905 0.69745,0 0,1.01716 0.69746,0 0,0.33905 2.78983,0 0,0.33905 0.69746,0 0,0.33905 0.69745,0 0,2.03431 0.69746,0 0,0.33905 1.39492,0 0,1.69526 1.39491,0 0,0.6781 0.69746,0 0,1.01716 0.69745,0 0,2.37336 0.69746,0 0,0.33905 0.69746,0 0,1.35621 0.69746,0 0,1.01715 0.69745,0 0,1.69526 0.69746,0 0,1.69525 0.69746,0 0,1.01716 0.69745,0 0,1.69526 0.69746,0 0,1.3562 0.69746,0 0,2.37336 0.69746,0 0,2.37336 0.69745,0 0,1.01716 0.69746,0 0,2.37336 0.69746,0 0,2.71241 0.69745,0 0,2.37336 0.69746,0 0,1.69526 0.69746,0 0,1.3562 0.69746,0 0,2.03431 0.69745,0 0,1.01716 0.69746,0 0,0.6781 0.69746,0 0,0.33905 2.78982,0 0,0.33905 0.69746,0 0,0.33905 2.09237,0 0,0.33905 1.39492,0 0,0.33906 0.69745,0 0,0.33905 0.69746,0 0,1.3562 0.69746,0 0,0.67811 0.69746,0 0,0.33905 0.69745,0 0,1.01715 0.69746,0 0,1.01716 2.78983,0 0,0.33905 0.69746,0 0,0.33905 0.69745,0 0,0.33905 0.69746,0 0,1.01716 0.69746,0 0,0.33905 0.69745,0 0,0.33905 0.69746,0 0,0.33905 1.39492,0 0,0.33905 1.39491,0 0,0.33905 0.69746,0 0,0.33905 0.69745,0 0,0.67811 1.39492,0 0,0.6781 0.69746,0 0,0.33905 1.39491,0 0,0.33905 4.18474,0 0,0.67811 0.69746,0 0,0.33905 0.69746,0 0,1.01715 0.69745,0 0,0.6781 2.09238,0 0,0.33906 0.69745,0 0,0.33905 15.34406,0 0,0.33905 8.36948,0 0,0.33905 8.36949,0 0,0.33905 9.06694,0 0,0.33905 25.10846,0 0,0.33905 82.29994,0 0,0.33906 26.50337,0 0,0.33905 22.31863,0 0,0.33905 0.69745,0 0,0.33905 52.30929,0 0,0.33905 25.80591,0 0,0.33905 14.3679,0 0,0"
           style="fill:none;stroke:#000080;stroke-opacity:1;stroke-width:1;stroke-linecap:butt;stroke-linejoin:round;stroke-miterlimit:7;stroke-dasharray:8,8;stroke-dashoffset:0"
           id="path4516" /></g></g><g
       id="g4518"
       style="stroke:#000080;stroke-width:1;stroke-miterlimit:7;stroke-dasharray:3,3;stroke-dashoffset:0"><g
         id="g4520"
         clip-path="url(#clipPath4522)"
         style="stroke:#000080;stroke-width:1;stroke-miterlimit:7;stroke-dasharray:3,3;stroke-dashoffset:0"><path
           d="m 114.86588,44.1 0,1.016129 7.65755,0 0,1.354839 1.91439,0 0,0.677419 3.82878,0 0,0.33871 1.91439,0 0,0.338709 1.91439,0 0,0.33871 4.78597,0 0,1.016129 0.95719,0 0,1.693549 0.9572,0 0,2.032258 0.95719,0 0,4.064516 0.95719,0 0,8.806451 0.9572,0 0,9.145162 0.95719,0 0,9.145161 0.9572,0 0,7.451613 0.95719,0 0,4.064516 0.9572,0 0,1.354839 0.95719,0 0,0.677419 0.95719,0 0,1.693548 0.9572,0 0,0.33871 0.95719,0 0,1.016133 7.65756,0 0,0.33871 1.91438,0 0,1.01612 0.9572,0 0,1.35484 0.95719,0 0,1.01613 0.9572,0 0,1.01613 0.95719,0 0,0.67742 0.95719,0 0,0.33871 0.9572,0 0,2.03226 0.95719,0 0,1.69355 0.9572,0 0,2.03226 0.95719,0 0,1.01612 0.9572,0 0,1.01613 0.95719,0 0,1.01613 0.95719,0 0,0.33871 0.9572,0 0,1.35484 0.95719,0 0,2.70968 0.9572,0 0,2.03226 0.95719,0 0,1.35483 1.91439,0 0,0.33871 0.95719,0 0,0.33871 0.9572,0 0,0.33871 0.95719,0 0,0.33871 0.9572,0 0,0.67742 3.82877,0 0,0.33871 0.9572,0 0,1.01613 0.95719,0 0,0.33871 0.9572,0 0,0.33871 2.87158,0 0,0.33871 0.95719,0 0,0.67742 0.9572,0 0,1.35484 0.95719,0 0,1.69355 0.95719,0 0,0.67742 0.9572,0 0,1.69354 0.95719,0 0,2.37097 0.9572,0 0,0.67742 0.95719,0 0,0.67742 0.9572,0 0,1.69355 0.95719,0 0,1.01613 0.95719,0 0,1.01613 0.9572,0 0,0.67742 0.95719,0 0,0.33871 0.9572,0 0,1.35484 0.95719,0 0,0.67741 0.95719,0 0,0.33871 2.87159,0 0,0.33871 0.95719,0 0,0.67742 0.9572,0 0,0.67742 1.91438,0 0,0.33871 0.9572,0 0,0.33871 0.95719,0 0,1.01613 0.9572,0 0,0.33871 0.95719,0 0,1.01613 0.95719,0 0,0.33871 0.9572,0 0,0.67742 0.95719,0 0,2.03226 0.9572,0 0,0.33871 0.95719,0 0,1.01613 0.9572,0 0,1.01612 0.95719,0 0,0.67742 0.95719,0 0,0.33871 0.9572,0 0,0.33871 1.91439,0 0,0.33871 0.95719,0 0,0.33871 0.95719,0 0,1.69355 0.9572,0 0,1.69355 0.95719,0 0,1.35484 0.9572,0 0,0.67742 0.95719,0 0,1.35484 0.9572,0 0,0.67742 0.95719,0 0,1.01612 1.91439,0 0,1.01613 0.95719,0 0,1.01613 0.9572,0 0,0.33871 0.95719,0 0,1.69355 0.95719,0 0,0.33871 4.78598,0 0,0.33871 0.95719,0 0,1.01613 0.95719,0 0,0.67742 0.9572,0 0,0.67742 0.95719,0 0,1.01613 0.9572,0 0,1.01613 0.95719,0 0,0.33871 0.9572,0 0,1.01612 0.95719,0 0,1.35484 0.95719,0 0,4.06452 0.9572,0 0,1.01613 0.95719,0 0,0.67742 0.9572,0 0,0.33871 0.95719,0 0,0.67742 1.91439,0 0,0.67742 0.95719,0 0,0.67742 0.9572,0 0,0.67742 0.95719,0 0,1.35483 0.9572,0 0,2.03226 0.95719,0 0,2.70968 0.95719,0 0,3.04839 0.9572,0 0,1.35484 0.95719,0 0,1.01612 0.9572,0 0,1.69355 0.95719,0 0,0.67742 0.95719,0 0,0.67742 0.9572,0 0,1.35484 0.95719,0 0,1.69355 0.9572,0 0,3.04839 0.95719,0 0,2.03225 0.9572,0 0,2.37097 0.95719,0 0,3.3871 0.95719,0 0,1.69355 0.9572,0 0,1.69354 0.95719,0 0,1.35484 0.9572,0 0,1.01613 0.95719,0 0,0.67742 1.91439,0 0,3.04839 0.95719,0 0,2.03226 0.9572,0 0,0.33871 0.95719,0 0,2.03225 0.9572,0 0,0.33871 0.95719,0 0,0.33871 0.95719,0 0,1.01613 0.9572,0 0,0.67742 0.95719,0 0,0.33871 0.9572,0 0,0.67742 0.95719,0 0,1.01613 0.95719,0 0,0.67742 0.9572,0 0,2.70968 0.95719,0 0,1.35484 0.9572,0 0,1.01613 0.95719,0 0,1.01612 0.9572,0 0,0.67742 0.95719,0 0,1.35484 0.95719,0 0,0.33871 0.9572,0 0,1.01613 0.95719,0 0,0.33871 0.9572,0 0,0.67742 0.95719,0 0,0.33871 0.95719,0 0,0.33871 0.9572,0 0,0.33871 0.95719,0 0,0.33871 0.9572,0 0,0.33871 0.95719,0 0,0.33871 2.87158,0 0,0.33871 0.9572,0 0,0.33871 0.95719,0 0,0.33871 0.9572,0 0,1.01613 0.95719,0 0,0.33871 0.9572,0 0,1.01612 0.95719,0 0,1.01613 0.95719,0 0,0.67742 0.9572,0 0,1.35484 0.95719,0 0,2.03226 0.9572,0 0,3.3871 0.95719,0 0,0.67742 0.95719,0 0,1.01613 0.9572,0 0,0.67741 0.95719,0 0,0.67742 0.9572,0 0,1.01613 0.95719,0 0,2.03226 1.91439,0 0,1.35484 0.95719,0 0,2.37097 0.9572,0 0,1.35484 0.95719,0 0,0.67742 0.9572,0 0,1.69354 0.95719,0 0,0.33871 0.95719,0 0,1.01613 0.9572,0 0,0.33871 0.95719,0 0,1.01613 0.9572,0 0,1.01613 0.95719,0 0,0.33871 0.9572,0 0,0.67742 0.95719,0 0,0.33871 0.95719,0 0,0.33871 0.9572,0 0,0.33871 0.95719,0 0,1.69355 0.9572,0 0,0.67742 0.95719,0 0,0.33871 0.95719,0 0,1.01612 0.9572,0 0,0.67742 0.95719,0 0,0.67742 2.87159,0 0,0.67742 0.95719,0 0,1.01613 0.95719,0 0,2.03226 0.9572,0 0,2.70968 0.95719,0 0,1.35484 0.9572,0 0,0.67742 0.95719,0 0,1.01612 0.95719,0 0,1.35484 0.9572,0 0,0.67742 0.95719,0 0,0.67742 0.9572,0 0,1.35484 1.91439,0 0,1.35484 3.82877,0 0,1.01613 0.9572,0 0,0.33871 0.95719,0 0,1.01613 0.95719,0 0,1.35484 0.9572,0 0,1.01612 0.95719,0 0,1.01613 0.9572,0 0,1.35484 0.95719,0 0,0.33871 0.9572,0 0,0.33871 1.91438,0 0,0.67742 0.9572,0 0,0.67742 0.95719,0 0,0.33871 0.9572,0 0,0.67742 0.95719,0 0,2.37097 0.9572,0 0,1.35484 1.91438,0 0,1.69354 0.9572,0 0,0.67742 0.95719,0 0,0.67742 5.74317,0 0,0.33871 0.95719,0 0,1.01613 1.91439,0 0,1.35484 5.74316,0 0,1.01613 0.9572,0 0,0.67742 8.61475,0 0,1.01613 0.95719,0 0,0.67742 0.95719,0 0,1.35484 0.9572,0 0,0.33871 3.82878,0 0,0.33871 0.95719,0 0,0.67741 0.95719,0 0,0.67742 0.9572,0 0,0.67742 0.95719,0 0,0.33871 1.91439,0 0,0.33871 1.91439,0 0,0.33871 0.95719,0 0,0.33871 0.9572,0 0,0.67742 0.95719,0 0,1.01613 0.9572,0 0,2.70968 0.95719,0 0,0.67742 1.91439,0 0,0.33871 9.57194,0 0,0.33871 0.95719,0 0,0.33871 0.9572,0 0,1.35484 0.95719,0 0,0.67741 1.91439,0 0,0.33871 1.91439,0 0,0.33871 1.91439,0 0,0.67742 1.91439,0 0,1.01613 0.95719,0 0,0.67742 0.95719,0 0,2.37097 0.9572,0 0,1.69355 0.95719,0 0,0.33871 2.87159,0 0,1.35484 0.95719,0 0,0.33871 4.78597,0 0,0.67742 0.95719,0 0,0.67741 3.82878,0 0,0.67742 0.9572,0 0,2.70968 0.95719,0 0,0.67742 0.95719,0 0,1.35484 6.70036,0 0,1.01613 0.9572,0 0,0.33871 0.95719,0 0,0.67742 1.91439,0 0,0.67742 0.95719,0 0,0.67742 0.9572,0 0,0.67742 2.87158,0 0,0.67741 0.95719,0 0,0.67742 0.9572,0 0,0.67742 12.44352,0 0,0.33871 1.91439,0 0,0.33871 0.9572,0 0,0.33871 2.87158,0 0,0.33871 0.95719,0 0,0.67742 12.44353,0 0,0.33871 16.2723,0 0,0.67742 0.95719,0 0,1.01613 0.9572,0 0,0.67742 0.95719,0 0,0.33871 0.95719,0 0,0.67742 0.9572,0 0,0.33871 3.82878,0 0,0.33871 18.18669,0 0,0.33871 0.95719,0 0,0.33871 2.87158,0 0,1.01613 0.9572,0 0,0.33871 14.35791,0 0,0.33871 6.89494,0 0,0"
           style="fill:none;stroke:#000080;stroke-opacity:1;stroke-width:1;stroke-linecap:butt;stroke-linejoin:round;stroke-miterlimit:7;stroke-dasharray:3,3;stroke-dashoffset:0"
           id="path4526" /></g></g><g
       id="g4528"><g
         id="g4530"
         clip-path="url(#clipPath4532)"><path
           d="m 73.125,44.1 0,352.8"
           style="fill:none;stroke:#000000;stroke-opacity:1;stroke-width:0.5;stroke-linecap:butt;stroke-linejoin:round;stroke-miterlimit:10;stroke-dasharray:1,3;stroke-dashoffset:0"
           id="path4536" /></g></g><g
       id="g4538"><path
         d="m 73.125,44.1 0,4"
         style="fill:#000000;fill-opacity:1;fill-rule:nonzero;stroke:#000000;stroke-opacity:1;stroke-width:0.5;stroke-linecap:butt;stroke-linejoin:round;stroke-miterlimit:10;stroke-dasharray:none"
         id="path4540" /><path
         d="m 73.125,396.9 0,-4"
         style="fill:#000000;fill-opacity:1;fill-rule:nonzero;stroke:#000000;stroke-opacity:1;stroke-width:0.5;stroke-linecap:butt;stroke-linejoin:round;stroke-miterlimit:10;stroke-dasharray:none"
         id="path4542" /><text
         transform="matrix(1,0,0,-1,70.101562,30.975)"
         id="text4544"><tspan
           style="fill:#000000;fill-opacity:1;fill-rule:nonzero;stroke:none;font-family:BitstreamVeraSans;font-variant:normal;font-weight:normal;font-size:12;writing-mode:lr;-inkscape-font-specification:BitstreamVeraSans-Roman"
           x="0"
           y="0"
           id="tspan4546">0</tspan></text>
</g><g
       id="g4548"><g
         id="g4550"
         clip-path="url(#clipPath4552)"><path
           d="m 184.58798,44.1 0,352.8"
           style="fill:none;stroke:#000000;stroke-opacity:1;stroke-width:0.5;stroke-linecap:butt;stroke-linejoin:round;stroke-miterlimit:10;stroke-dasharray:1,3;stroke-dashoffset:0"
           id="path4556" /></g></g><g
       id="g4558"><path
         d="m 184.58798,44.1 0,4"
         style="fill:#000000;fill-opacity:1;fill-rule:nonzero;stroke:#000000;stroke-opacity:1;stroke-width:0.5;stroke-linecap:butt;stroke-linejoin:round;stroke-miterlimit:10;stroke-dasharray:none"
         id="path4560" /><path
         d="m 184.58798,396.9 0,-4"
         style="fill:#000000;fill-opacity:1;fill-rule:nonzero;stroke:#000000;stroke-opacity:1;stroke-width:0.5;stroke-linecap:butt;stroke-linejoin:round;stroke-miterlimit:10;stroke-dasharray:none"
         id="path4562" /><text
         transform="matrix(1,0,0,-1,173.98642,30.975)"
         id="text4564"><tspan
           style="fill:#000000;fill-opacity:1;fill-rule:nonzero;stroke:none;font-family:BitstreamVeraSans;font-variant:normal;font-weight:normal;font-size:12;writing-mode:lr;-inkscape-font-specification:BitstreamVeraSans-Roman"
           x="0 7.632 15.264"
           y="0"
           sodipodi:role="line"
           id="tspan4566">500</tspan></text>
</g><g
       id="g4568"><g
         id="g4570"
         clip-path="url(#clipPath4572)"><path
           d="m 296.05097,44.1 0,352.8"
           style="fill:none;stroke:#000000;stroke-opacity:1;stroke-width:0.5;stroke-linecap:butt;stroke-linejoin:round;stroke-miterlimit:10;stroke-dasharray:1,3;stroke-dashoffset:0"
           id="path4576" /></g></g><g
       id="g4578"><path
         d="m 296.05097,44.1 0,4"
         style="fill:#000000;fill-opacity:1;fill-rule:nonzero;stroke:#000000;stroke-opacity:1;stroke-width:0.5;stroke-linecap:butt;stroke-linejoin:round;stroke-miterlimit:10;stroke-dasharray:none"
         id="path4580" /><path
         d="m 296.05097,396.9 0,-4"
         style="fill:#000000;fill-opacity:1;fill-rule:nonzero;stroke:#000000;stroke-opacity:1;stroke-width:0.5;stroke-linecap:butt;stroke-linejoin:round;stroke-miterlimit:10;stroke-dasharray:none"
         id="path4582" /><text
         transform="matrix(1,0,0,-1,281.82441,30.975)"
         id="text4584"><tspan
           style="fill:#000000;fill-opacity:1;fill-rule:nonzero;stroke:none;font-family:BitstreamVeraSans;font-variant:normal;font-weight:normal;font-size:12;writing-mode:lr;-inkscape-font-specification:BitstreamVeraSans-Roman"
           x="0 7.632 15.264 22.896"
           y="0"
           sodipodi:role="line"
           id="tspan4586">1000</tspan></text>
</g><g
       id="g4588"><g
         id="g4590"
         clip-path="url(#clipPath4592)"><path
           d="m 407.51395,44.1 0,352.8"
           style="fill:none;stroke:#000000;stroke-opacity:1;stroke-width:0.5;stroke-linecap:butt;stroke-linejoin:round;stroke-miterlimit:10;stroke-dasharray:1,3;stroke-dashoffset:0"
           id="path4596" /></g></g><g
       id="g4598"><path
         d="m 407.51395,44.1 0,4"
         style="fill:#000000;fill-opacity:1;fill-rule:nonzero;stroke:#000000;stroke-opacity:1;stroke-width:0.5;stroke-linecap:butt;stroke-linejoin:round;stroke-miterlimit:10;stroke-dasharray:none"
         id="path4600" /><path
         d="m 407.51395,396.9 0,-4"
         style="fill:#000000;fill-opacity:1;fill-rule:nonzero;stroke:#000000;stroke-opacity:1;stroke-width:0.5;stroke-linecap:butt;stroke-linejoin:round;stroke-miterlimit:10;stroke-dasharray:none"
         id="path4602" /><text
         transform="matrix(1,0,0,-1,393.28739,30.975)"
         id="text4604"><tspan
           style="fill:#000000;fill-opacity:1;fill-rule:nonzero;stroke:none;font-family:BitstreamVeraSans;font-variant:normal;font-weight:normal;font-size:12;writing-mode:lr;-inkscape-font-specification:BitstreamVeraSans-Roman"
           x="0 7.632 15.264 22.896"
           y="0"
           sodipodi:role="line"
           id="tspan4606">1500</tspan></text>
</g><g
       id="g4608"><g
         id="g4610"
         clip-path="url(#clipPath4612)"><path
           d="m 518.97694,44.1 0,352.8"
           style="fill:none;stroke:#000000;stroke-opacity:1;stroke-width:0.5;stroke-linecap:butt;stroke-linejoin:round;stroke-miterlimit:10;stroke-dasharray:1,3;stroke-dashoffset:0"
           id="path4616" /></g></g><g
       id="g4618"><path
         d="m 518.97694,44.1 0,4"
         style="fill:#000000;fill-opacity:1;fill-rule:nonzero;stroke:#000000;stroke-opacity:1;stroke-width:0.5;stroke-linecap:butt;stroke-linejoin:round;stroke-miterlimit:10;stroke-dasharray:none"
         id="path4620" /><path
         d="m 518.97694,396.9 0,-4"
         style="fill:#000000;fill-opacity:1;fill-rule:nonzero;stroke:#000000;stroke-opacity:1;stroke-width:0.5;stroke-linecap:butt;stroke-linejoin:round;stroke-miterlimit:10;stroke-dasharray:none"
         id="path4622" /><text
         transform="matrix(1,0,0,-1,504.53163,30.975)"
         id="text4624"><tspan
           style="fill:#000000;fill-opacity:1;fill-rule:nonzero;stroke:none;font-family:BitstreamVeraSans;font-variant:normal;font-weight:normal;font-size:12;writing-mode:lr;-inkscape-font-specification:BitstreamVeraSans-Roman"
           x="0 7.632 15.264 22.896"
           y="0"
           sodipodi:role="line"
           id="tspan4626">2000</tspan></text>
<text
         transform="matrix(1,0,0,-1,228.78125,14.35)"
         id="text4628"><tspan
           style="fill:#000000;fill-opacity:1;fill-rule:nonzero;stroke:none;font-family:BitstreamVeraSans;font-variant:normal;font-weight:normal;font-size:12;writing-mode:lr;-inkscape-font-specification:BitstreamVeraSans-Roman"
           x="0 7.332 10.668 22.356 29.736 33.552 38.256 45.6 49.416 56.016 63.36 70.968 77.22 84.6 92.208 98.46 106.068 112.32 116.136 120.816 132.504 138.756"
           y="0"
           sodipodi:role="line"
           id="tspan4630">Time to consensus [ms]</tspan></text>
</g><g
       id="g4632"><g
         id="g4634"
         clip-path="url(#clipPath4636)"><path
           d="m 73.125,44.1 453.375,0"
           style="fill:none;stroke:#000000;stroke-opacity:1;stroke-width:0.5;stroke-linecap:butt;stroke-linejoin:round;stroke-miterlimit:10;stroke-dasharray:1,3;stroke-dashoffset:0"
           id="path4640" /></g></g><g
       id="g4642"><path
         d="m 73.125,44.1 4,0"
         style="fill:#000000;fill-opacity:1;fill-rule:nonzero;stroke:#000000;stroke-opacity:1;stroke-width:0.5;stroke-linecap:butt;stroke-linejoin:round;stroke-miterlimit:10;stroke-dasharray:none"
         id="path4644" /><path
         d="m 526.5,44.1 -4,0"
         style="fill:#000000;fill-opacity:1;fill-rule:nonzero;stroke:#000000;stroke-opacity:1;stroke-width:0.5;stroke-linecap:butt;stroke-linejoin:round;stroke-miterlimit:10;stroke-dasharray:none"
         id="path4646" /><text
         transform="matrix(1,0,0,-1,43.984375,40.7875)"
         id="text4648"><tspan
           style="fill:#000000;fill-opacity:1;fill-rule:nonzero;stroke:none;font-family:BitstreamVeraSans;font-variant:normal;font-weight:normal;font-size:12;writing-mode:lr;-inkscape-font-specification:BitstreamVeraSans-Roman"
           x="0 7.632 11.448 19.08"
           y="0"
           sodipodi:role="line"
           id="tspan4650">0.00</tspan></text>
</g><g
       id="g4652"><g
         id="g4654"
         clip-path="url(#clipPath4656)"><path
           d="m 73.125,128.1 453.375,0"
           style="fill:none;stroke:#000000;stroke-opacity:1;stroke-width:0.5;stroke-linecap:butt;stroke-linejoin:round;stroke-miterlimit:10;stroke-dasharray:1,3;stroke-dashoffset:0"
           id="path4660" /></g></g><g
       id="g4662"><path
         d="m 73.125,128.1 4,0"
         style="fill:#000000;fill-opacity:1;fill-rule:nonzero;stroke:#000000;stroke-opacity:1;stroke-width:0.5;stroke-linecap:butt;stroke-linejoin:round;stroke-miterlimit:10;stroke-dasharray:none"
         id="path4664" /><path
         d="m 526.5,128.1 -4,0"
         style="fill:#000000;fill-opacity:1;fill-rule:nonzero;stroke:#000000;stroke-opacity:1;stroke-width:0.5;stroke-linecap:butt;stroke-linejoin:round;stroke-miterlimit:10;stroke-dasharray:none"
         id="path4666" /><text
         transform="matrix(1,0,0,-1,44.234375,124.7875)"
         id="text4668"><tspan
           style="fill:#000000;fill-opacity:1;fill-rule:nonzero;stroke:none;font-family:BitstreamVeraSans;font-variant:normal;font-weight:normal;font-size:12;writing-mode:lr;-inkscape-font-specification:BitstreamVeraSans-Roman"
           x="0 7.632 11.448 19.08"
           y="0"
           sodipodi:role="line"
           id="tspan4670">0.25</tspan></text>
</g><g
       id="g4672"><g
         id="g4674"
         clip-path="url(#clipPath4676)"><path
           d="m 73.125,212.1 453.375,0"
           style="fill:none;stroke:#000000;stroke-opacity:1;stroke-width:0.5;stroke-linecap:butt;stroke-linejoin:round;stroke-miterlimit:10;stroke-dasharray:1,3;stroke-dashoffset:0"
           id="path4680" /></g></g><g
       id="g4682"><path
         d="m 73.125,212.1 4,0"
         style="fill:#000000;fill-opacity:1;fill-rule:nonzero;stroke:#000000;stroke-opacity:1;stroke-width:0.5;stroke-linecap:butt;stroke-linejoin:round;stroke-miterlimit:10;stroke-dasharray:none"
         id="path4684" /><path
         d="m 526.5,212.1 -4,0"
         style="fill:#000000;fill-opacity:1;fill-rule:nonzero;stroke:#000000;stroke-opacity:1;stroke-width:0.5;stroke-linecap:butt;stroke-linejoin:round;stroke-miterlimit:10;stroke-dasharray:none"
         id="path4686" /><text
         transform="matrix(1,0,0,-1,43.984375,208.7875)"
         id="text4688"><tspan
           style="fill:#000000;fill-opacity:1;fill-rule:nonzero;stroke:none;font-family:BitstreamVeraSans;font-variant:normal;font-weight:normal;font-size:12;writing-mode:lr;-inkscape-font-specification:BitstreamVeraSans-Roman"
           x="0 7.632 11.448 19.08"
           y="0"
           sodipodi:role="line"
           id="tspan4690">0.50</tspan></text>
</g><g
       id="g4692"><g
         id="g4694"
         clip-path="url(#clipPath4696)"><path
           d="m 73.125,296.1 453.375,0"
           style="fill:none;stroke:#000000;stroke-opacity:1;stroke-width:0.5;stroke-linecap:butt;stroke-linejoin:round;stroke-miterlimit:10;stroke-dasharray:1,3;stroke-dashoffset:0"
           id="path4700" /></g></g><g
       id="g4702"><path
         d="m 73.125,296.1 4,0"
         style="fill:#000000;fill-opacity:1;fill-rule:nonzero;stroke:#000000;stroke-opacity:1;stroke-width:0.5;stroke-linecap:butt;stroke-linejoin:round;stroke-miterlimit:10;stroke-dasharray:none"
         id="path4704" /><path
         d="m 526.5,296.1 -4,0"
         style="fill:#000000;fill-opacity:1;fill-rule:nonzero;stroke:#000000;stroke-opacity:1;stroke-width:0.5;stroke-linecap:butt;stroke-linejoin:round;stroke-miterlimit:10;stroke-dasharray:none"
         id="path4706" /><text
         transform="matrix(1,0,0,-1,44.234375,292.7875)"
         id="text4708"><tspan
           style="fill:#000000;fill-opacity:1;fill-rule:nonzero;stroke:none;font-family:BitstreamVeraSans;font-variant:normal;font-weight:normal;font-size:12;writing-mode:lr;-inkscape-font-specification:BitstreamVeraSans-Roman"
           x="0 7.632 11.448 19.08"
           y="0"
           sodipodi:role="line"
           id="tspan4710">0.75</tspan></text>
</g><g
       id="g4712"><g
         id="g4714"
         clip-path="url(#clipPath4716)"><path
           d="m 73.125,380.1 453.375,0"
           style="fill:none;stroke:#000000;stroke-opacity:1;stroke-width:0.5;stroke-linecap:butt;stroke-linejoin:round;stroke-miterlimit:10;stroke-dasharray:1,3;stroke-dashoffset:0"
           id="path4720" /></g></g><path
       inkscape:connector-curvature="0"
       id="path4724"
       style="fill:#000000;fill-opacity:1;fill-rule:nonzero;stroke:#000000;stroke-width:0.5;stroke-linecap:butt;stroke-linejoin:round;stroke-miterlimit:10;stroke-opacity:1;stroke-dasharray:none"
       d="m 73.125,380.1 4,0" /><path
       inkscape:connector-curvature="0"
       id="path4726"
       style="fill:#000000;fill-opacity:1;fill-rule:nonzero;stroke:#000000;stroke-width:0.5;stroke-linecap:butt;stroke-linejoin:round;stroke-miterlimit:10;stroke-opacity:1;stroke-dasharray:none"
       d="m 526.5,380.1 -4,0" /><text
       id="text4728"
       transform="scale(1,-1)"
       x="44.5"
       y="-376.78751"><tspan
         id="tspan4730"
         sodipodi:role="line"
         y="-376.78751"
         x="44.5 52.132 55.947998 63.580002"
         style="font-size:12px;font-variant:normal;font-weight:normal;writing-mode:lr-tb;fill:#000000;fill-opacity:1;fill-rule:nonzero;stroke:none;font-family:BitstreamVeraSans;-inkscape-font-specification:BitstreamVeraSans-Roman">1.00</tspan></text>
<text
       id="text4732"
       transform="matrix(0,1,1,0,0,0)"
       x="136.42969"
       y="36.484375"><tspan
         id="tspan4734"
         sodipodi:role="line"
         y="36.484375"
         x="136.42969 144.80569 152.4137 164.10168 171.70969 175.04568 182.40169 187.10568 190.4417 197.54568 204.92569 208.74168 216.36169 223.74168 231.34969 237.60168 240.9377 245.64169 252.7457 256.56171 260.78571 268.39371 276.00171 282.60168 287.30569 290.64169 297.98569"
         style="font-size:12px;font-variant:normal;font-weight:normal;writing-mode:lr-tb;fill:#000000;fill-opacity:1;fill-rule:nonzero;stroke:none;font-family:BitstreamVeraSans;-inkscape-font-specification:BitstreamVeraSans-Roman">Cumulative density function</tspan></text>
<path
       inkscape:connector-curvature="0"
       id="path4736"
       style="fill:none;stroke:#000000;stroke-width:1;stroke-linecap:butt;stroke-linejoin:round;stroke-miterlimit:10;stroke-opacity:1;stroke-dasharray:none"
       d="m 73.125,44.1 0,352.8" /><path
       inkscape:connector-curvature="0"
       id="path4738"
       style="fill:none;stroke:#000000;stroke-width:1;stroke-linecap:butt;stroke-linejoin:round;stroke-miterlimit:10;stroke-opacity:1;stroke-dasharray:none"
       d="m 73.125,44.1 453.375,0" /><path
       inkscape:connector-curvature="0"
       id="path4740"
       style="fill:none;stroke:#000000;stroke-width:1;stroke-linecap:butt;stroke-linejoin:round;stroke-miterlimit:10;stroke-opacity:1;stroke-dasharray:none"
       d="m 526.5,44.1 0,352.8" /><path
       inkscape:connector-curvature="0"
       id="path4742"
       style="fill:none;stroke:#000000;stroke-width:1;stroke-linecap:butt;stroke-linejoin:round;stroke-miterlimit:10;stroke-opacity:1;stroke-dasharray:none"
       d="m 73.125,396.9 453.375,0" /><text
       id="text4744"
       transform="scale(1,-1)"
       x="136.9375"
       y="-401.89999"><tspan
         id="tspan4746"
         sodipodi:role="line"
         y="-401.89999"
         x="136.9375 146.98869 156.1183 170.14391 179.2735 183.2767 192.1039 197.7487 201.75189 210.2767 219.13269 223.7119 232.8559 241.7119 250.84149 258.3439 262.34711 267.99188 276.51669 281.09589 286.1647 295.29431 304.42389 312.3439 317.98871 321.99188 330.80469 339.9343 344.51349 349.58231 358.39508 364.31351 368.8927 376.81268 380.81592 389.9455 397.44791 403.09271 411.9487 417.8671 422.44629 429.9487 433.9519 441.5119 450.36789 454.94711"
         style="font-size:14.39999962px;font-variant:normal;font-weight:normal;writing-mode:lr-tb;fill:#000000;fill-opacity:1;fill-rule:nonzero;stroke:none;font-family:BitstreamVeraSans;-inkscape-font-specification:BitstreamVeraSans-Roman">Cumulative density function for cluster size 6</tspan></text>
<path
       inkscape:connector-curvature="0"
       id="path4748"
       style="fill:#ffffff;fill-opacity:1;fill-rule:nonzero;stroke:#000000;stroke-width:1;stroke-linecap:butt;stroke-linejoin:round;stroke-miterlimit:10;stroke-opacity:1;stroke-dasharray:none"
       d="m 408.44437,51.3 110.85563,0 0,128.80125 -110.85563,0 0,-128.80125 z" /><path
       inkscape:connector-curvature="0"
       id="path4750"
       style="fill:none;stroke:#ff0000;stroke-width:1;stroke-linecap:butt;stroke-linejoin:round;stroke-miterlimit:10;stroke-opacity:1;stroke-dasharray:none"
       d="m 414.20437,163.70062 28.8,0 0,10.08 -28.8,0 0,-10.08 z" /><text
       id="text4752"
       transform="scale(1,-1)"
       x="454.52438"
       y="-163.70062"><tspan
         id="tspan4754"
         sodipodi:role="line"
         y="-163.70062"
         x="454.52438 463.66837 469.58676 473.58997 482.73398 487.93237 497.09076 506.24918"
         style="font-size:14.39999962px;font-variant:normal;font-weight:normal;writing-mode:lr-tb;fill:#000000;fill-opacity:1;fill-rule:nonzero;stroke:none;font-family:BitstreamVeraSans;-inkscape-font-specification:BitstreamVeraSans-Roman">grid-100</tspan></text>
<path
       inkscape:connector-curvature="0"
       id="path4756"
       style="fill:none;stroke:#ff0000;stroke-width:1;stroke-linecap:butt;stroke-linejoin:round;stroke-miterlimit:7;stroke-opacity:1;stroke-dasharray:8,8;stroke-dashoffset:0"
       d="m 414.20437,142.95375 28.8,0 0,10.08 -28.8,0 0,-10.08 z" /><text
       id="text4758"
       transform="scale(1,-1)"
       x="454.52438"
       y="-142.95375"><tspan
         id="tspan4760"
         sodipodi:role="line"
         y="-142.95375"
         x="454.52438 463.66837 469.58676 473.58997 482.73398 487.93237 497.09076"
         style="font-size:14.39999962px;font-variant:normal;font-weight:normal;writing-mode:lr-tb;fill:#000000;fill-opacity:1;fill-rule:nonzero;stroke:none;font-family:BitstreamVeraSans;-inkscape-font-specification:BitstreamVeraSans-Roman">grid-70</tspan></text>
<path
       inkscape:connector-curvature="0"
       id="path4762"
       style="fill:none;stroke:#ff0000;stroke-width:1;stroke-linecap:butt;stroke-linejoin:round;stroke-miterlimit:7;stroke-opacity:1;stroke-dasharray:3,3;stroke-dashoffset:0"
       d="m 414.20437,122.20687 28.8,0 0,10.08 -28.8,0 0,-10.08 z" /><text
       id="text4764"
       transform="scale(1,-1)"
       x="454.52438"
       y="-122.20687"><tspan
         id="tspan4766"
         sodipodi:role="line"
         y="-122.20687"
         x="454.52438 463.66837 469.58676 473.58997 482.73398 487.93237 497.09076"
         style="font-size:14.39999962px;font-variant:normal;font-weight:normal;writing-mode:lr-tb;fill:#000000;fill-opacity:1;fill-rule:nonzero;stroke:none;font-family:BitstreamVeraSans;-inkscape-font-specification:BitstreamVeraSans-Roman">grid-40</tspan></text>
<path
       inkscape:connector-curvature="0"
       id="path4768"
       style="fill:none;stroke:#000080;stroke-width:1;stroke-linecap:butt;stroke-linejoin:round;stroke-miterlimit:10;stroke-opacity:1;stroke-dasharray:none"
       d="m 414.20437,101.46 28.8,0 0,10.08 -28.8,0 0,-10.08 z" /><text
       id="text4770"
       transform="scale(1,-1)"
       x="454.52438"
       y="-101.46"><tspan
         id="tspan4772"
         sodipodi:role="line"
         y="-101.46"
         x="454.52438 468.54996 477.37717 481.38037 486.57877 495.73718 504.89557"
         style="font-size:14.39999962px;font-variant:normal;font-weight:normal;writing-mode:lr-tb;fill:#000000;fill-opacity:1;fill-rule:nonzero;stroke:none;font-family:BitstreamVeraSans;-inkscape-font-specification:BitstreamVeraSans-Roman">maj-100</tspan></text>
<path
       inkscape:connector-curvature="0"
       id="path4774"
       style="fill:none;stroke:#000080;stroke-width:1;stroke-linecap:butt;stroke-linejoin:round;stroke-miterlimit:7;stroke-opacity:1;stroke-dasharray:8,8;stroke-dashoffset:0"
       d="m 414.20437,80.713125 28.8,0 0,10.08 -28.8,0 0,-10.08 z" /><text
       id="text4776"
       transform="scale(1,-1)"
       x="454.52438"
       y="-80.713127"><tspan
         id="tspan4778"
         sodipodi:role="line"
         y="-80.713127"
         x="454.52438 468.54996 477.37717 481.38037 486.57877 495.73718"
         style="font-size:14.39999962px;font-variant:normal;font-weight:normal;writing-mode:lr-tb;fill:#000000;fill-opacity:1;fill-rule:nonzero;stroke:none;font-family:BitstreamVeraSans;-inkscape-font-specification:BitstreamVeraSans-Roman">maj-70</tspan></text>
<path
       inkscape:connector-curvature="0"
       id="path4780"
       style="fill:none;stroke:#000080;stroke-width:1;stroke-linecap:butt;stroke-linejoin:round;stroke-miterlimit:7;stroke-opacity:1;stroke-dasharray:3,3;stroke-dashoffset:0"
       d="m 414.20437,59.96625 28.8,0 0,10.08 -28.8,0 0,-10.08 z" /><text
       id="text4782"
       transform="scale(1,-1)"
       x="454.52438"
       y="-59.966251"><tspan
         id="tspan4784"
         sodipodi:role="line"
         y="-59.966251"
         x="454.52438 468.54996 477.37717 481.38037 486.57877 495.73718"
         style="font-size:14.39999962px;font-variant:normal;font-weight:normal;writing-mode:lr-tb;fill:#000000;fill-opacity:1;fill-rule:nonzero;stroke:none;font-family:BitstreamVeraSans;-inkscape-font-specification:BitstreamVeraSans-Roman">maj-40</tspan></text>
</g></svg>