<?xml version="1.0" encoding="UTF-8" standalone="no"?>
<!DOCTYPE svg PUBLIC "-//W3C//DTD SVG 1.1//EN"
 "http://www.w3.org/Graphics/SVG/1.1/DTD/svg11.dtd">
<!-- Generated by graphviz version 2.36.0 (20140111.2315)
 -->
<!-- Title: vstruct Pages: 1 -->
<svg width="1286pt" height="298pt"
 viewBox="0.00 0.00 1286.00 298.00" xmlns="http://www.w3.org/2000/svg" xmlns:xlink="http://www.w3.org/1999/xlink">
<g id="graph0" class="graph" transform="scale(1 1) rotate(0) translate(4 294)">
<title>vstruct</title>
<polygon fill="white" stroke="none" points="-4,4 -4,-294 1282,-294 1282,4 -4,4"/>
<!-- [] -->
<g id="node1" class="node"><title>[]</title>
<path fill="none" stroke="black" d="M660,-243C660,-243 690,-243 690,-243 696,-243 702,-249 702,-255 702,-255 702,-277 702,-277 702,-283 696,-289 690,-289 690,-289 660,-289 660,-289 654,-289 648,-283 648,-277 648,-277 648,-255 648,-255 648,-249 654,-243 660,-243"/>
<text text-anchor="middle" x="662" y="-262.3" font-family="Times,serif" font-size="14.00">V</text>
<polyline fill="none" stroke="black" points="676,-243 676,-289 "/>
<text text-anchor="middle" x="689" y="-273.8" font-family="Times,serif" font-size="14.00">1</text>
<polyline fill="none" stroke="black" points="676,-266 702,-266 "/>
<text text-anchor="middle" x="689" y="-250.8" font-family="Times,serif" font-size="14.00">2</text>
</g>
<!-- [1] -->
<g id="node2" class="node"><title>[1]</title>
<path fill="none" stroke="black" d="M408,-159C408,-159 438,-159 438,-159 444,-159 450,-165 450,-171 450,-171 450,-193 450,-193 450,-199 444,-205 438,-205 438,-205 408,-205 408,-205 402,-205 396,-199 396,-193 396,-193 396,-171 396,-171 396,-165 402,-159 408,-159"/>
<text text-anchor="middle" x="410" y="-178.3" font-family="Times,serif" font-size="14.00">V</text>
<polyline fill="none" stroke="black" points="424,-159 424,-205 "/>
<text text-anchor="middle" x="437" y="-189.8" font-family="Times,serif" font-size="14.00">1</text>
<polyline fill="none" stroke="black" points="424,-182 450,-182 "/>
<text text-anchor="middle" x="437" y="-166.8" font-family="Times,serif" font-size="14.00">3</text>
</g>
<!-- []&#45;&gt;[1] -->
<g id="edge13" class="edge"><title>[]&#45;&gt;[1]</title>
<path fill="none" stroke="black" d="M647.552,-256.068C601.988,-241.242 510.71,-211.541 459.677,-194.935"/>
<polygon fill="black" stroke="black" points="460.625,-191.563 450.033,-191.796 458.459,-198.219 460.625,-191.563"/>
</g>
<!-- [2] -->
<g id="node15" class="node"><title>[2]</title>
<path fill="none" stroke="black" d="M840,-159C840,-159 870,-159 870,-159 876,-159 882,-165 882,-171 882,-171 882,-193 882,-193 882,-199 876,-205 870,-205 870,-205 840,-205 840,-205 834,-205 828,-199 828,-193 828,-193 828,-171 828,-171 828,-165 834,-159 840,-159"/>
<text text-anchor="middle" x="842" y="-178.3" font-family="Times,serif" font-size="14.00">V</text>
<polyline fill="none" stroke="black" points="856,-159 856,-205 "/>
<text text-anchor="middle" x="869" y="-189.8" font-family="Times,serif" font-size="14.00">1</text>
<polyline fill="none" stroke="black" points="856,-182 882,-182 "/>
<text text-anchor="middle" x="869" y="-166.8" font-family="Times,serif" font-size="14.00">1</text>
</g>
<!-- []&#45;&gt;[2] -->
<g id="edge26" class="edge"><title>[]&#45;&gt;[2]</title>
<path fill="none" stroke="black" d="M702.338,-252.546C733.442,-238.376 784.37,-215.176 818.763,-199.508"/>
<polygon fill="black" stroke="black" points="820.345,-202.633 827.994,-195.303 817.443,-196.263 820.345,-202.633"/>
</g>
<!-- [1,1] -->
<g id="node3" class="node"><title>[1,1]</title>
<path fill="none" stroke="black" d="M120,-75C120,-75 150,-75 150,-75 156,-75 162,-81 162,-87 162,-87 162,-109 162,-109 162,-115 156,-121 150,-121 150,-121 120,-121 120,-121 114,-121 108,-115 108,-109 108,-109 108,-87 108,-87 108,-81 114,-75 120,-75"/>
<text text-anchor="middle" x="122" y="-94.3" font-family="Times,serif" font-size="14.00">V</text>
<polyline fill="none" stroke="black" points="136,-75 136,-121 "/>
<text text-anchor="middle" x="149" y="-105.8" font-family="Times,serif" font-size="14.00">1</text>
<polyline fill="none" stroke="black" points="136,-98 162,-98 "/>
<text text-anchor="middle" x="149" y="-82.8" font-family="Times,serif" font-size="14.00">1</text>
</g>
<!-- [1]&#45;&gt;[1,1] -->
<g id="edge4" class="edge"><title>[1]&#45;&gt;[1,1]</title>
<path fill="none" stroke="black" d="M395.906,-173.286C344.017,-158.512 230.57,-126.211 171.851,-109.492"/>
<polygon fill="black" stroke="black" points="172.808,-106.126 162.232,-106.754 170.891,-112.858 172.808,-106.126"/>
</g>
<!-- [1,2] -->
<g id="node7" class="node"><title>[1,2]</title>
<path fill="none" stroke="black" d="M336,-75C336,-75 366,-75 366,-75 372,-75 378,-81 378,-87 378,-87 378,-109 378,-109 378,-115 372,-121 366,-121 366,-121 336,-121 336,-121 330,-121 324,-115 324,-109 324,-109 324,-87 324,-87 324,-81 330,-75 336,-75"/>
<text text-anchor="middle" x="338" y="-94.3" font-family="Times,serif" font-size="14.00">V</text>
<polyline fill="none" stroke="black" points="352,-75 352,-121 "/>
<text text-anchor="middle" x="365" y="-105.8" font-family="Times,serif" font-size="14.00">1</text>
<polyline fill="none" stroke="black" points="352,-98 378,-98 "/>
<text text-anchor="middle" x="365" y="-82.8" font-family="Times,serif" font-size="14.00">1</text>
</g>
<!-- [1]&#45;&gt;[1,2] -->
<g id="edge8" class="edge"><title>[1]&#45;&gt;[1,2]</title>
<path fill="none" stroke="black" d="M403.326,-158.593C395.244,-149.389 385.769,-138.598 377.119,-128.747"/>
<polygon fill="black" stroke="black" points="379.629,-126.301 370.401,-121.096 374.369,-130.92 379.629,-126.301"/>
</g>
<!-- [1,3] -->
<g id="node11" class="node"><title>[1,3]</title>
<path fill="none" stroke="black" d="M480,-75C480,-75 510,-75 510,-75 516,-75 522,-81 522,-87 522,-87 522,-109 522,-109 522,-115 516,-121 510,-121 510,-121 480,-121 480,-121 474,-121 468,-115 468,-109 468,-109 468,-87 468,-87 468,-81 474,-75 480,-75"/>
<text text-anchor="middle" x="482" y="-94.3" font-family="Times,serif" font-size="14.00">V</text>
<polyline fill="none" stroke="black" points="496,-75 496,-121 "/>
<text text-anchor="middle" x="509" y="-105.8" font-family="Times,serif" font-size="14.00">1</text>
<polyline fill="none" stroke="black" points="496,-98 522,-98 "/>
<text text-anchor="middle" x="509" y="-82.8" font-family="Times,serif" font-size="14.00">1</text>
</g>
<!-- [1]&#45;&gt;[1,3] -->
<g id="edge12" class="edge"><title>[1]&#45;&gt;[1,3]</title>
<path fill="none" stroke="black" d="M442.674,-158.593C450.756,-149.389 460.231,-138.598 468.881,-128.747"/>
<polygon fill="black" stroke="black" points="471.631,-130.92 475.599,-121.096 466.371,-126.301 471.631,-130.92"/>
</g>
<!-- [1,1,1] -->
<g id="node4" class="node"><title>[1,1,1]</title>
<path fill="none" stroke="black" d="M12,-1C12,-1 42,-1 42,-1 48,-1 54,-7 54,-13 54,-13 54,-25 54,-25 54,-31 48,-37 42,-37 42,-37 12,-37 12,-37 6,-37 0,-31 0,-25 0,-25 0,-13 0,-13 0,-7 6,-1 12,-1"/>
<text text-anchor="middle" x="14" y="-15.3" font-family="Times,serif" font-size="14.00">A</text>
<polyline fill="none" stroke="black" points="28,-1 28,-37 "/>
<text text-anchor="middle" x="41" y="-15.3" font-family="Times,serif" font-size="14.00">1</text>
</g>
<!-- [1,1]&#45;&gt;[1,1,1] -->
<g id="edge1" class="edge"><title>[1,1]&#45;&gt;[1,1,1]</title>
<path fill="none" stroke="black" d="M107.747,-77.5696C92.9841,-67.0442 74.653,-53.9749 59.1899,-42.9502"/>
<polygon fill="black" stroke="black" points="61.1095,-40.0203 50.9352,-37.0649 57.0458,-45.7201 61.1095,-40.0203"/>
</g>
<!-- [1,1,2] -->
<g id="node5" class="node"><title>[1,1,2]</title>
<path fill="none" stroke="black" d="M84,-1C84,-1 114,-1 114,-1 120,-1 126,-7 126,-13 126,-13 126,-25 126,-25 126,-31 120,-37 114,-37 114,-37 84,-37 84,-37 78,-37 72,-31 72,-25 72,-25 72,-13 72,-13 72,-7 78,-1 84,-1"/>
<text text-anchor="middle" x="86" y="-15.3" font-family="Times,serif" font-size="14.00">D</text>
<polyline fill="none" stroke="black" points="100,-1 100,-37 "/>
<text text-anchor="middle" x="113" y="-15.3" font-family="Times,serif" font-size="14.00">1</text>
</g>
<!-- [1,1]&#45;&gt;[1,1,2] -->
<g id="edge2" class="edge"><title>[1,1]&#45;&gt;[1,1,2]</title>
<path fill="none" stroke="black" d="M124.587,-74.7284C120.457,-65.8938 115.674,-55.6636 111.369,-46.4557"/>
<polygon fill="black" stroke="black" points="114.509,-44.9077 107.103,-37.3313 108.168,-47.8725 114.509,-44.9077"/>
</g>
<!-- [1,1,3] -->
<g id="node6" class="node"><title>[1,1,3]</title>
<path fill="none" stroke="black" d="M156,-1C156,-1 186,-1 186,-1 192,-1 198,-7 198,-13 198,-13 198,-25 198,-25 198,-31 192,-37 186,-37 186,-37 156,-37 156,-37 150,-37 144,-31 144,-25 144,-25 144,-13 144,-13 144,-7 150,-1 156,-1"/>
<text text-anchor="middle" x="158" y="-15.3" font-family="Times,serif" font-size="14.00">G</text>
<polyline fill="none" stroke="black" points="172,-1 172,-37 "/>
<text text-anchor="middle" x="185" y="-15.3" font-family="Times,serif" font-size="14.00">1</text>
</g>
<!-- [1,1]&#45;&gt;[1,1,3] -->
<g id="edge3" class="edge"><title>[1,1]&#45;&gt;[1,1,3]</title>
<path fill="none" stroke="black" d="M145.413,-74.7284C149.543,-65.8938 154.326,-55.6636 158.631,-46.4557"/>
<polygon fill="black" stroke="black" points="161.832,-47.8725 162.897,-37.3313 155.491,-44.9077 161.832,-47.8725"/>
</g>
<!-- [1,2,1] -->
<g id="node8" class="node"><title>[1,2,1]</title>
<path fill="none" stroke="black" d="M228,-1C228,-1 258,-1 258,-1 264,-1 270,-7 270,-13 270,-13 270,-25 270,-25 270,-31 264,-37 258,-37 258,-37 228,-37 228,-37 222,-37 216,-31 216,-25 216,-25 216,-13 216,-13 216,-7 222,-1 228,-1"/>
<text text-anchor="middle" x="230" y="-15.3" font-family="Times,serif" font-size="14.00">B</text>
<polyline fill="none" stroke="black" points="244,-1 244,-37 "/>
<text text-anchor="middle" x="257" y="-15.3" font-family="Times,serif" font-size="14.00">1</text>
</g>
<!-- [1,2]&#45;&gt;[1,2,1] -->
<g id="edge5" class="edge"><title>[1,2]&#45;&gt;[1,2,1]</title>
<path fill="none" stroke="black" d="M323.747,-77.5696C308.984,-67.0442 290.653,-53.9749 275.19,-42.9502"/>
<polygon fill="black" stroke="black" points="277.109,-40.0203 266.935,-37.0649 273.046,-45.7201 277.109,-40.0203"/>
</g>
<!-- [1,2,2] -->
<g id="node9" class="node"><title>[1,2,2]</title>
<path fill="none" stroke="black" d="M300,-1C300,-1 330,-1 330,-1 336,-1 342,-7 342,-13 342,-13 342,-25 342,-25 342,-31 336,-37 330,-37 330,-37 300,-37 300,-37 294,-37 288,-31 288,-25 288,-25 288,-13 288,-13 288,-7 294,-1 300,-1"/>
<text text-anchor="middle" x="302" y="-15.3" font-family="Times,serif" font-size="14.00">E</text>
<polyline fill="none" stroke="black" points="316,-1 316,-37 "/>
<text text-anchor="middle" x="329" y="-15.3" font-family="Times,serif" font-size="14.00">1</text>
</g>
<!-- [1,2]&#45;&gt;[1,2,2] -->
<g id="edge6" class="edge"><title>[1,2]&#45;&gt;[1,2,2]</title>
<path fill="none" stroke="black" d="M340.587,-74.7284C336.457,-65.8938 331.674,-55.6636 327.369,-46.4557"/>
<polygon fill="black" stroke="black" points="330.509,-44.9077 323.103,-37.3313 324.168,-47.8725 330.509,-44.9077"/>
</g>
<!-- [1,2,3] -->
<g id="node10" class="node"><title>[1,2,3]</title>
<path fill="none" stroke="black" d="M372,-1C372,-1 402,-1 402,-1 408,-1 414,-7 414,-13 414,-13 414,-25 414,-25 414,-31 408,-37 402,-37 402,-37 372,-37 372,-37 366,-37 360,-31 360,-25 360,-25 360,-13 360,-13 360,-7 366,-1 372,-1"/>
<text text-anchor="middle" x="374" y="-15.3" font-family="Times,serif" font-size="14.00">H</text>
<polyline fill="none" stroke="black" points="388,-1 388,-37 "/>
<text text-anchor="middle" x="401" y="-15.3" font-family="Times,serif" font-size="14.00">1</text>
</g>
<!-- [1,2]&#45;&gt;[1,2,3] -->
<g id="edge7" class="edge"><title>[1,2]&#45;&gt;[1,2,3]</title>
<path fill="none" stroke="black" d="M361.413,-74.7284C365.543,-65.8938 370.326,-55.6636 374.631,-46.4557"/>
<polygon fill="black" stroke="black" points="377.832,-47.8725 378.897,-37.3313 371.491,-44.9077 377.832,-47.8725"/>
</g>
<!-- [1,3,1] -->
<g id="node12" class="node"><title>[1,3,1]</title>
<path fill="none" stroke="black" d="M444,-1C444,-1 474,-1 474,-1 480,-1 486,-7 486,-13 486,-13 486,-25 486,-25 486,-31 480,-37 474,-37 474,-37 444,-37 444,-37 438,-37 432,-31 432,-25 432,-25 432,-13 432,-13 432,-7 438,-1 444,-1"/>
<text text-anchor="middle" x="446" y="-15.3" font-family="Times,serif" font-size="14.00">C</text>
<polyline fill="none" stroke="black" points="460,-1 460,-37 "/>
<text text-anchor="middle" x="473" y="-15.3" font-family="Times,serif" font-size="14.00">1</text>
</g>
<!-- [1,3]&#45;&gt;[1,3,1] -->
<g id="edge9" class="edge"><title>[1,3]&#45;&gt;[1,3,1]</title>
<path fill="none" stroke="black" d="M484.587,-74.7284C480.457,-65.8938 475.674,-55.6636 471.369,-46.4557"/>
<polygon fill="black" stroke="black" points="474.509,-44.9077 467.103,-37.3313 468.168,-47.8725 474.509,-44.9077"/>
</g>
<!-- [1,3,2] -->
<g id="node13" class="node"><title>[1,3,2]</title>
<path fill="none" stroke="black" d="M516,-1C516,-1 546,-1 546,-1 552,-1 558,-7 558,-13 558,-13 558,-25 558,-25 558,-31 552,-37 546,-37 546,-37 516,-37 516,-37 510,-37 504,-31 504,-25 504,-25 504,-13 504,-13 504,-7 510,-1 516,-1"/>
<text text-anchor="middle" x="517.5" y="-15.3" font-family="Times,serif" font-size="14.00">F</text>
<polyline fill="none" stroke="black" points="531,-1 531,-37 "/>
<text text-anchor="middle" x="544.5" y="-15.3" font-family="Times,serif" font-size="14.00">1</text>
</g>
<!-- [1,3]&#45;&gt;[1,3,2] -->
<g id="edge10" class="edge"><title>[1,3]&#45;&gt;[1,3,2]</title>
<path fill="none" stroke="black" d="M505.413,-74.7284C509.543,-65.8938 514.326,-55.6636 518.631,-46.4557"/>
<polygon fill="black" stroke="black" points="521.832,-47.8725 522.897,-37.3313 515.491,-44.9077 521.832,-47.8725"/>
</g>
<!-- [1,3,3] -->
<g id="node14" class="node"><title>[1,3,3]</title>
<path fill="none" stroke="black" d="M588,-1C588,-1 618,-1 618,-1 624,-1 630,-7 630,-13 630,-13 630,-25 630,-25 630,-31 624,-37 618,-37 618,-37 588,-37 588,-37 582,-37 576,-31 576,-25 576,-25 576,-13 576,-13 576,-7 582,-1 588,-1"/>
<text text-anchor="middle" x="589" y="-15.3" font-family="Times,serif" font-size="14.00">I</text>
<polyline fill="none" stroke="black" points="602,-1 602,-37 "/>
<text text-anchor="middle" x="616" y="-15.3" font-family="Times,serif" font-size="14.00">1</text>
</g>
<!-- [1,3]&#45;&gt;[1,3,3] -->
<g id="edge11" class="edge"><title>[1,3]&#45;&gt;[1,3,3]</title>
<path fill="none" stroke="black" d="M522.253,-77.5696C537.016,-67.0442 555.347,-53.9749 570.81,-42.9502"/>
<polygon fill="black" stroke="black" points="572.954,-45.7201 579.065,-37.0649 568.891,-40.0203 572.954,-45.7201"/>
</g>
<!-- [2,1] -->
<g id="node16" class="node"><title>[2,1]</title>
<path fill="none" stroke="black" d="M768,-75C768,-75 798,-75 798,-75 804,-75 810,-81 810,-87 810,-87 810,-109 810,-109 810,-115 804,-121 798,-121 798,-121 768,-121 768,-121 762,-121 756,-115 756,-109 756,-109 756,-87 756,-87 756,-81 762,-75 768,-75"/>
<text text-anchor="middle" x="770" y="-94.3" font-family="Times,serif" font-size="14.00">V</text>
<polyline fill="none" stroke="black" points="784,-75 784,-121 "/>
<text text-anchor="middle" x="797" y="-105.8" font-family="Times,serif" font-size="14.00">1</text>
<polyline fill="none" stroke="black" points="784,-98 810,-98 "/>
<text text-anchor="middle" x="797" y="-82.8" font-family="Times,serif" font-size="14.00">3</text>
</g>
<!-- [2]&#45;&gt;[2,1] -->
<g id="edge17" class="edge"><title>[2]&#45;&gt;[2,1]</title>
<path fill="none" stroke="black" d="M835.326,-158.593C827.244,-149.389 817.769,-138.598 809.119,-128.747"/>
<polygon fill="black" stroke="black" points="811.629,-126.301 802.401,-121.096 806.369,-130.92 811.629,-126.301"/>
</g>
<!-- [2,2] -->
<g id="node20" class="node"><title>[2,2]</title>
<path fill="none" stroke="black" d="M912,-75C912,-75 942,-75 942,-75 948,-75 954,-81 954,-87 954,-87 954,-109 954,-109 954,-115 948,-121 942,-121 942,-121 912,-121 912,-121 906,-121 900,-115 900,-109 900,-109 900,-87 900,-87 900,-81 906,-75 912,-75"/>
<text text-anchor="middle" x="914" y="-94.3" font-family="Times,serif" font-size="14.00">V</text>
<polyline fill="none" stroke="black" points="928,-75 928,-121 "/>
<text text-anchor="middle" x="941" y="-105.8" font-family="Times,serif" font-size="14.00">1</text>
<polyline fill="none" stroke="black" points="928,-98 954,-98 "/>
<text text-anchor="middle" x="941" y="-82.8" font-family="Times,serif" font-size="14.00">3</text>
</g>
<!-- [2]&#45;&gt;[2,2] -->
<g id="edge21" class="edge"><title>[2]&#45;&gt;[2,2]</title>
<path fill="none" stroke="black" d="M874.674,-158.593C882.756,-149.389 892.231,-138.598 900.881,-128.747"/>
<polygon fill="black" stroke="black" points="903.631,-130.92 907.599,-121.096 898.371,-126.301 903.631,-130.92"/>
</g>
<!-- [2,3] -->
<g id="node24" class="node"><title>[2,3]</title>
<path fill="none" stroke="black" d="M1128,-75C1128,-75 1158,-75 1158,-75 1164,-75 1170,-81 1170,-87 1170,-87 1170,-109 1170,-109 1170,-115 1164,-121 1158,-121 1158,-121 1128,-121 1128,-121 1122,-121 1116,-115 1116,-109 1116,-109 1116,-87 1116,-87 1116,-81 1122,-75 1128,-75"/>
<text text-anchor="middle" x="1130" y="-94.3" font-family="Times,serif" font-size="14.00">V</text>
<polyline fill="none" stroke="black" points="1144,-75 1144,-121 "/>
<text text-anchor="middle" x="1157" y="-105.8" font-family="Times,serif" font-size="14.00">1</text>
<polyline fill="none" stroke="black" points="1144,-98 1170,-98 "/>
<text text-anchor="middle" x="1157" y="-82.8" font-family="Times,serif" font-size="14.00">3</text>
</g>
<!-- [2]&#45;&gt;[2,3] -->
<g id="edge25" class="edge"><title>[2]&#45;&gt;[2,3]</title>
<path fill="none" stroke="black" d="M882.094,-173.286C933.983,-158.512 1047.43,-126.211 1106.15,-109.492"/>
<polygon fill="black" stroke="black" points="1107.11,-112.858 1115.77,-106.754 1105.19,-106.126 1107.11,-112.858"/>
</g>
<!-- [2,1,1] -->
<g id="node17" class="node"><title>[2,1,1]</title>
<path fill="none" stroke="black" d="M660,-1C660,-1 690,-1 690,-1 696,-1 702,-7 702,-13 702,-13 702,-25 702,-25 702,-31 696,-37 690,-37 690,-37 660,-37 660,-37 654,-37 648,-31 648,-25 648,-25 648,-13 648,-13 648,-7 654,-1 660,-1"/>
<text text-anchor="middle" x="662" y="-15.3" font-family="Times,serif" font-size="14.00">A</text>
<polyline fill="none" stroke="black" points="676,-1 676,-37 "/>
<text text-anchor="middle" x="689" y="-15.3" font-family="Times,serif" font-size="14.00">1</text>
</g>
<!-- [2,1]&#45;&gt;[2,1,1] -->
<g id="edge14" class="edge"><title>[2,1]&#45;&gt;[2,1,1]</title>
<path fill="none" stroke="black" d="M755.747,-77.5696C740.984,-67.0442 722.653,-53.9749 707.19,-42.9502"/>
<polygon fill="black" stroke="black" points="709.109,-40.0203 698.935,-37.0649 705.046,-45.7201 709.109,-40.0203"/>
</g>
<!-- [2,1,2] -->
<g id="node18" class="node"><title>[2,1,2]</title>
<path fill="none" stroke="black" d="M732,-1C732,-1 762,-1 762,-1 768,-1 774,-7 774,-13 774,-13 774,-25 774,-25 774,-31 768,-37 762,-37 762,-37 732,-37 732,-37 726,-37 720,-31 720,-25 720,-25 720,-13 720,-13 720,-7 726,-1 732,-1"/>
<text text-anchor="middle" x="734" y="-15.3" font-family="Times,serif" font-size="14.00">D</text>
<polyline fill="none" stroke="black" points="748,-1 748,-37 "/>
<text text-anchor="middle" x="761" y="-15.3" font-family="Times,serif" font-size="14.00">1</text>
</g>
<!-- [2,1]&#45;&gt;[2,1,2] -->
<g id="edge15" class="edge"><title>[2,1]&#45;&gt;[2,1,2]</title>
<path fill="none" stroke="black" d="M772.587,-74.7284C768.457,-65.8938 763.674,-55.6636 759.369,-46.4557"/>
<polygon fill="black" stroke="black" points="762.509,-44.9077 755.103,-37.3313 756.168,-47.8725 762.509,-44.9077"/>
</g>
<!-- [2,1,3] -->
<g id="node19" class="node"><title>[2,1,3]</title>
<path fill="none" stroke="black" d="M804,-1C804,-1 834,-1 834,-1 840,-1 846,-7 846,-13 846,-13 846,-25 846,-25 846,-31 840,-37 834,-37 834,-37 804,-37 804,-37 798,-37 792,-31 792,-25 792,-25 792,-13 792,-13 792,-7 798,-1 804,-1"/>
<text text-anchor="middle" x="806" y="-15.3" font-family="Times,serif" font-size="14.00">G</text>
<polyline fill="none" stroke="black" points="820,-1 820,-37 "/>
<text text-anchor="middle" x="833" y="-15.3" font-family="Times,serif" font-size="14.00">1</text>
</g>
<!-- [2,1]&#45;&gt;[2,1,3] -->
<g id="edge16" class="edge"><title>[2,1]&#45;&gt;[2,1,3]</title>
<path fill="none" stroke="black" d="M793.413,-74.7284C797.543,-65.8938 802.326,-55.6636 806.631,-46.4557"/>
<polygon fill="black" stroke="black" points="809.832,-47.8725 810.897,-37.3313 803.491,-44.9077 809.832,-47.8725"/>
</g>
<!-- [2,2,1] -->
<g id="node21" class="node"><title>[2,2,1]</title>
<path fill="none" stroke="black" d="M876,-1C876,-1 906,-1 906,-1 912,-1 918,-7 918,-13 918,-13 918,-25 918,-25 918,-31 912,-37 906,-37 906,-37 876,-37 876,-37 870,-37 864,-31 864,-25 864,-25 864,-13 864,-13 864,-7 870,-1 876,-1"/>
<text text-anchor="middle" x="878" y="-15.3" font-family="Times,serif" font-size="14.00">B</text>
<polyline fill="none" stroke="black" points="892,-1 892,-37 "/>
<text text-anchor="middle" x="905" y="-15.3" font-family="Times,serif" font-size="14.00">1</text>
</g>
<!-- [2,2]&#45;&gt;[2,2,1] -->
<g id="edge18" class="edge"><title>[2,2]&#45;&gt;[2,2,1]</title>
<path fill="none" stroke="black" d="M916.587,-74.7284C912.457,-65.8938 907.674,-55.6636 903.369,-46.4557"/>
<polygon fill="black" stroke="black" points="906.509,-44.9077 899.103,-37.3313 900.168,-47.8725 906.509,-44.9077"/>
</g>
<!-- [2,2,2] -->
<g id="node22" class="node"><title>[2,2,2]</title>
<path fill="none" stroke="black" d="M948,-1C948,-1 978,-1 978,-1 984,-1 990,-7 990,-13 990,-13 990,-25 990,-25 990,-31 984,-37 978,-37 978,-37 948,-37 948,-37 942,-37 936,-31 936,-25 936,-25 936,-13 936,-13 936,-7 942,-1 948,-1"/>
<text text-anchor="middle" x="950" y="-15.3" font-family="Times,serif" font-size="14.00">E</text>
<polyline fill="none" stroke="black" points="964,-1 964,-37 "/>
<text text-anchor="middle" x="977" y="-15.3" font-family="Times,serif" font-size="14.00">1</text>
</g>
<!-- [2,2]&#45;&gt;[2,2,2] -->
<g id="edge19" class="edge"><title>[2,2]&#45;&gt;[2,2,2]</title>
<path fill="none" stroke="black" d="M937.413,-74.7284C941.543,-65.8938 946.326,-55.6636 950.631,-46.4557"/>
<polygon fill="black" stroke="black" points="953.832,-47.8725 954.897,-37.3313 947.491,-44.9077 953.832,-47.8725"/>
</g>
<!-- [2,2,3] -->
<g id="node23" class="node"><title>[2,2,3]</title>
<path fill="none" stroke="black" d="M1020,-1C1020,-1 1050,-1 1050,-1 1056,-1 1062,-7 1062,-13 1062,-13 1062,-25 1062,-25 1062,-31 1056,-37 1050,-37 1050,-37 1020,-37 1020,-37 1014,-37 1008,-31 1008,-25 1008,-25 1008,-13 1008,-13 1008,-7 1014,-1 1020,-1"/>
<text text-anchor="middle" x="1022" y="-15.3" font-family="Times,serif" font-size="14.00">H</text>
<polyline fill="none" stroke="black" points="1036,-1 1036,-37 "/>
<text text-anchor="middle" x="1049" y="-15.3" font-family="Times,serif" font-size="14.00">1</text>
</g>
<!-- [2,2]&#45;&gt;[2,2,3] -->
<g id="edge20" class="edge"><title>[2,2]&#45;&gt;[2,2,3]</title>
<path fill="none" stroke="black" d="M954.253,-77.5696C969.016,-67.0442 987.347,-53.9749 1002.81,-42.9502"/>
<polygon fill="black" stroke="black" points="1004.95,-45.7201 1011.06,-37.0649 1000.89,-40.0203 1004.95,-45.7201"/>
</g>
<!-- [2,3,1] -->
<g id="node25" class="node"><title>[2,3,1]</title>
<path fill="none" stroke="black" d="M1092,-1C1092,-1 1122,-1 1122,-1 1128,-1 1134,-7 1134,-13 1134,-13 1134,-25 1134,-25 1134,-31 1128,-37 1122,-37 1122,-37 1092,-37 1092,-37 1086,-37 1080,-31 1080,-25 1080,-25 1080,-13 1080,-13 1080,-7 1086,-1 1092,-1"/>
<text text-anchor="middle" x="1094" y="-15.3" font-family="Times,serif" font-size="14.00">C</text>
<polyline fill="none" stroke="black" points="1108,-1 1108,-37 "/>
<text text-anchor="middle" x="1121" y="-15.3" font-family="Times,serif" font-size="14.00">1</text>
</g>
<!-- [2,3]&#45;&gt;[2,3,1] -->
<g id="edge22" class="edge"><title>[2,3]&#45;&gt;[2,3,1]</title>
<path fill="none" stroke="black" d="M1132.59,-74.7284C1128.46,-65.8938 1123.67,-55.6636 1119.37,-46.4557"/>
<polygon fill="black" stroke="black" points="1122.51,-44.9077 1115.1,-37.3313 1116.17,-47.8725 1122.51,-44.9077"/>
</g>
<!-- [2,3,2] -->
<g id="node26" class="node"><title>[2,3,2]</title>
<path fill="none" stroke="black" d="M1164,-1C1164,-1 1194,-1 1194,-1 1200,-1 1206,-7 1206,-13 1206,-13 1206,-25 1206,-25 1206,-31 1200,-37 1194,-37 1194,-37 1164,-37 1164,-37 1158,-37 1152,-31 1152,-25 1152,-25 1152,-13 1152,-13 1152,-7 1158,-1 1164,-1"/>
<text text-anchor="middle" x="1165.5" y="-15.3" font-family="Times,serif" font-size="14.00">F</text>
<polyline fill="none" stroke="black" points="1179,-1 1179,-37 "/>
<text text-anchor="middle" x="1192.5" y="-15.3" font-family="Times,serif" font-size="14.00">1</text>
</g>
<!-- [2,3]&#45;&gt;[2,3,2] -->
<g id="edge23" class="edge"><title>[2,3]&#45;&gt;[2,3,2]</title>
<path fill="none" stroke="black" d="M1153.41,-74.7284C1157.54,-65.8938 1162.33,-55.6636 1166.63,-46.4557"/>
<polygon fill="black" stroke="black" points="1169.83,-47.8725 1170.9,-37.3313 1163.49,-44.9077 1169.83,-47.8725"/>
</g>
<!-- [2,3,3] -->
<g id="node27" class="node"><title>[2,3,3]</title>
<path fill="none" stroke="black" d="M1236,-1C1236,-1 1266,-1 1266,-1 1272,-1 1278,-7 1278,-13 1278,-13 1278,-25 1278,-25 1278,-31 1272,-37 1266,-37 1266,-37 1236,-37 1236,-37 1230,-37 1224,-31 1224,-25 1224,-25 1224,-13 1224,-13 1224,-7 1230,-1 1236,-1"/>
<text text-anchor="middle" x="1237" y="-15.3" font-family="Times,serif" font-size="14.00">I</text>
<polyline fill="none" stroke="black" points="1250,-1 1250,-37 "/>
<text text-anchor="middle" x="1264" y="-15.3" font-family="Times,serif" font-size="14.00">1</text>
</g>
<!-- [2,3]&#45;&gt;[2,3,3] -->
<g id="edge24" class="edge"><title>[2,3]&#45;&gt;[2,3,3]</title>
<path fill="none" stroke="black" d="M1170.25,-77.5696C1185.02,-67.0442 1203.35,-53.9749 1218.81,-42.9502"/>
<polygon fill="black" stroke="black" points="1220.95,-45.7201 1227.06,-37.0649 1216.89,-40.0203 1220.95,-45.7201"/>
</g>
</g>
</svg>
