<?xml version="1.0" encoding="UTF-8" standalone="no"?>
<!DOCTYPE svg PUBLIC "-//W3C//DTD SVG 1.1//EN"
 "http://www.w3.org/Graphics/SVG/1.1/DTD/svg11.dtd">
<!-- Generated by graphviz version 2.36.0 (20140111.2315)
 -->
<!-- Title: vstruct Pages: 1 -->
<svg width="394pt" height="224pt"
 viewBox="0.00 0.00 394.00 224.00" xmlns="http://www.w3.org/2000/svg" xmlns:xlink="http://www.w3.org/1999/xlink">
<g id="graph0" class="graph" transform="scale(1 1) rotate(0) translate(4 220)">
<title>vstruct</title>
<polygon fill="white" stroke="none" points="-4,4 -4,-220 390,-220 390,4 -4,4"/>
<!-- [] -->
<g id="node1" class="node"><title>[]</title>
<path fill="none" stroke="black" d="M177,-179C177,-179 207,-179 207,-179 213,-179 219,-185 219,-191 219,-191 219,-203 219,-203 219,-209 213,-215 207,-215 207,-215 177,-215 177,-215 171,-215 165,-209 165,-203 165,-203 165,-191 165,-191 165,-185 171,-179 177,-179"/>
<text text-anchor="middle" x="179" y="-193.3" font-family="Kp" font-size="14.00">V</text>
<polyline fill="none" stroke="black" points="193,-179 193,-215 "/>
<text text-anchor="middle" x="206" y="-193.3" font-family="Kp" font-size="14.00">2</text>
</g>
<!-- [1] -->
<g id="node2" class="node"><title>[1]</title>
<path fill="none" stroke="black" d="M140,-119C140,-119 170,-119 170,-119 176,-119 182,-125 182,-131 182,-131 182,-143 182,-143 182,-149 176,-155 170,-155 170,-155 140,-155 140,-155 134,-155 128,-149 128,-143 128,-143 128,-131 128,-131 128,-125 134,-119 140,-119"/>
<text text-anchor="middle" x="142" y="-133.3" font-family="Kp" font-size="14.00">V</text>
<polyline fill="none" stroke="black" points="156,-119 156,-155 "/>
<text text-anchor="middle" x="169" y="-133.3" font-family="Kp" font-size="14.00">2</text>
</g>
<!-- []&#45;&gt;[1] -->
<g id="edge7" class="edge"><title>[]&#45;&gt;[1]</title>
<path fill="none" stroke="black" d="M177.151,-172.724C173.41,-166.859 169.462,-160.67 165.951,-155.166"/>
<polygon fill="black" stroke="black" points="175.269,-174.328 181.099,-178.912 179.4,-171.693 175.269,-174.328"/>
</g>
<!-- [2] -->
<g id="node9" class="node"><title>[2]</title>
<path fill="none" stroke="black" d="M215,-119C215,-119 245,-119 245,-119 251,-119 257,-125 257,-131 257,-131 257,-143 257,-143 257,-149 251,-155 245,-155 245,-155 215,-155 215,-155 209,-155 203,-149 203,-143 203,-143 203,-131 203,-131 203,-125 209,-119 215,-119"/>
<text text-anchor="middle" x="217" y="-133.3" font-family="Kp" font-size="14.00">V</text>
<polyline fill="none" stroke="black" points="231,-119 231,-155 "/>
<text text-anchor="middle" x="244" y="-133.3" font-family="Kp" font-size="14.00">1</text>
</g>
<!-- []&#45;&gt;[2] -->
<g id="edge14" class="edge"><title>[]&#45;&gt;[2]</title>
<path fill="none" stroke="black" d="M207.25,-172.724C211.092,-166.859 215.147,-160.67 218.753,-155.166"/>
<polygon fill="black" stroke="black" points="204.983,-171.714 203.196,-178.912 209.081,-174.399 204.983,-171.714"/>
</g>
<!-- [1,1] -->
<g id="node3" class="node"><title>[1,1]</title>
<path fill="none" stroke="black" d="M53,-59C53,-59 83,-59 83,-59 89,-59 95,-65 95,-71 95,-71 95,-83 95,-83 95,-89 89,-95 83,-95 83,-95 53,-95 53,-95 47,-95 41,-89 41,-83 41,-83 41,-71 41,-71 41,-65 47,-59 53,-59"/>
<text text-anchor="middle" x="55" y="-73.3" font-family="Kp" font-size="14.00">V</text>
<polyline fill="none" stroke="black" points="69,-59 69,-95 "/>
<text text-anchor="middle" x="82" y="-73.3" font-family="Kp" font-size="14.00">1</text>
</g>
<!-- [1]&#45;&gt;[1,1] -->
<g id="edge3" class="edge"><title>[1]&#45;&gt;[1,1]</title>
<path fill="none" stroke="black" d="M123.428,-114.952C113.676,-108.451 103.059,-101.372 93.7497,-95.1665"/>
<polygon fill="black" stroke="black" points="122.184,-117.067 129.368,-118.912 124.902,-112.99 122.184,-117.067"/>
</g>
<!-- [1,2] -->
<g id="node6" class="node"><title>[1,2]</title>
<path fill="none" stroke="black" d="M140,-59C140,-59 170,-59 170,-59 176,-59 182,-65 182,-71 182,-71 182,-83 182,-83 182,-89 176,-95 170,-95 170,-95 140,-95 140,-95 134,-95 128,-89 128,-83 128,-83 128,-71 128,-71 128,-65 134,-59 140,-59"/>
<text text-anchor="middle" x="142" y="-73.3" font-family="Kp" font-size="14.00">V</text>
<polyline fill="none" stroke="black" points="156,-59 156,-95 "/>
<text text-anchor="middle" x="169" y="-73.3" font-family="Kp" font-size="14.00">1</text>
</g>
<!-- [1]&#45;&gt;[1,2] -->
<g id="edge6" class="edge"><title>[1]&#45;&gt;[1,2]</title>
<path fill="none" stroke="black" d="M155,-111.597C155,-106.072 155,-100.319 155,-95.1665"/>
<polygon fill="black" stroke="black" points="152.55,-111.912 155,-118.912 157.45,-111.912 152.55,-111.912"/>
</g>
<!-- [1,1,1] -->
<g id="node4" class="node"><title>[1,1,1]</title>
<ellipse fill="none" stroke="black" cx="18" cy="-18" rx="18" ry="18"/>
<text text-anchor="middle" x="18" y="-14.3" font-family="Tt-Kp" font-size="14.00">A</text>
</g>
<!-- [1,1]&#45;&gt;[1,1,1] -->
<g id="edge1" class="edge"><title>[1,1]&#45;&gt;[1,1,1]</title>
<path fill="none" stroke="black" d="M48.2923,-53.5332C41.9809,-46.3382 35.1979,-38.6056 29.6538,-32.2853"/>
<polygon fill="black" stroke="black" points="46.5404,-55.2514 52.9984,-58.8981 50.2241,-52.0201 46.5404,-55.2514"/>
</g>
<!-- [1,1,2] -->
<g id="node5" class="node"><title>[1,1,2]</title>
<ellipse fill="none" stroke="black" cx="68" cy="-18" rx="18" ry="18"/>
<text text-anchor="middle" x="68" y="-14.3" font-family="Tt-Kp" font-size="14.00">C</text>
</g>
<!-- [1,1]&#45;&gt;[1,1,2] -->
<g id="edge2" class="edge"><title>[1,1]&#45;&gt;[1,1,2]</title>
<path fill="none" stroke="black" d="M68,-51.8641C68,-46.5598 68,-41.0488 68,-36.0898"/>
<polygon fill="black" stroke="black" points="65.5501,-51.8981 68,-58.8981 70.4501,-51.8982 65.5501,-51.8981"/>
</g>
<!-- [1,2,1] -->
<g id="node7" class="node"><title>[1,2,1]</title>
<ellipse fill="none" stroke="black" cx="118" cy="-18" rx="18" ry="18"/>
<text text-anchor="middle" x="118" y="-14.3" font-family="Tt-Kp" font-size="14.00">B</text>
</g>
<!-- [1,2]&#45;&gt;[1,2,1] -->
<g id="edge4" class="edge"><title>[1,2]&#45;&gt;[1,2,1]</title>
<path fill="none" stroke="black" d="M140.056,-52.9787C135.761,-46.3608 131.199,-39.3334 127.346,-33.3973"/>
<polygon fill="black" stroke="black" points="138.032,-54.3606 143.899,-58.8981 142.142,-51.6927 138.032,-54.3606"/>
</g>
<!-- [1,2,2] -->
<g id="node8" class="node"><title>[1,2,2]</title>
<ellipse fill="none" stroke="black" cx="168" cy="-18" rx="18" ry="18"/>
<text text-anchor="middle" x="168" y="-14.3" font-family="Tt-Kp" font-size="14.00">D</text>
</g>
<!-- [1,2]&#45;&gt;[1,2,2] -->
<g id="edge5" class="edge"><title>[1,2]&#45;&gt;[1,2,2]</title>
<path fill="none" stroke="black" d="M160.535,-51.7326C161.767,-46.3283 163.047,-40.7164 164.192,-35.6975"/>
<polygon fill="black" stroke="black" points="158.068,-51.5286 158.9,-58.8981 162.846,-52.6182 158.068,-51.5286"/>
</g>
<!-- [2,1] -->
<g id="node10" class="node"><title>[2,1]</title>
<path fill="none" stroke="black" d="M215,-59C215,-59 245,-59 245,-59 251,-59 257,-65 257,-71 257,-71 257,-83 257,-83 257,-89 251,-95 245,-95 245,-95 215,-95 215,-95 209,-95 203,-89 203,-83 203,-83 203,-71 203,-71 203,-65 209,-59 215,-59"/>
<text text-anchor="middle" x="217" y="-73.3" font-family="Kp" font-size="14.00">V</text>
<polyline fill="none" stroke="black" points="231,-59 231,-95 "/>
<text text-anchor="middle" x="244" y="-73.3" font-family="Kp" font-size="14.00">2</text>
</g>
<!-- [2]&#45;&gt;[2,1] -->
<g id="edge10" class="edge"><title>[2]&#45;&gt;[2,1]</title>
<path fill="none" stroke="black" d="M230,-111.597C230,-106.072 230,-100.319 230,-95.1665"/>
<polygon fill="black" stroke="black" points="227.55,-111.912 230,-118.912 232.45,-111.912 227.55,-111.912"/>
</g>
<!-- [2,2] -->
<g id="node13" class="node"><title>[2,2]</title>
<path fill="none" stroke="black" d="M303,-59C303,-59 333,-59 333,-59 339,-59 345,-65 345,-71 345,-71 345,-83 345,-83 345,-89 339,-95 333,-95 333,-95 303,-95 303,-95 297,-95 291,-89 291,-83 291,-83 291,-71 291,-71 291,-65 297,-59 303,-59"/>
<text text-anchor="middle" x="305" y="-73.3" font-family="Kp" font-size="14.00">V</text>
<polyline fill="none" stroke="black" points="319,-59 319,-95 "/>
<text text-anchor="middle" x="332" y="-73.3" font-family="Kp" font-size="14.00">2</text>
</g>
<!-- [2]&#45;&gt;[2,2] -->
<g id="edge13" class="edge"><title>[2]&#45;&gt;[2,2]</title>
<path fill="none" stroke="black" d="M261.935,-114.952C271.799,-108.451 282.538,-101.372 291.954,-95.1665"/>
<polygon fill="black" stroke="black" points="260.423,-113.014 255.927,-118.912 263.12,-117.105 260.423,-113.014"/>
</g>
<!-- [2,1,1] -->
<g id="node11" class="node"><title>[2,1,1]</title>
<ellipse fill="none" stroke="black" cx="218" cy="-18" rx="18" ry="18"/>
<text text-anchor="middle" x="218" y="-14.3" font-family="Tt-Kp" font-size="14.00">A</text>
</g>
<!-- [2,1]&#45;&gt;[2,1,1] -->
<g id="edge8" class="edge"><title>[2,1]&#45;&gt;[2,1,1]</title>
<path fill="none" stroke="black" d="M224.891,-51.7326C223.753,-46.3283 222.572,-40.7164 221.515,-35.6975"/>
<polygon fill="black" stroke="black" points="222.56,-52.553 226.4,-58.8981 227.355,-51.5435 222.56,-52.553"/>
</g>
<!-- [2,1,2] -->
<g id="node12" class="node"><title>[2,1,2]</title>
<ellipse fill="none" stroke="black" cx="268" cy="-18" rx="18" ry="18"/>
<text text-anchor="middle" x="268" y="-14.3" font-family="Tt-Kp" font-size="14.00">C</text>
</g>
<!-- [2,1]&#45;&gt;[2,1,2] -->
<g id="edge9" class="edge"><title>[2,1]&#45;&gt;[2,1,2]</title>
<path fill="none" stroke="black" d="M245.348,-52.9787C249.759,-46.3608 254.444,-39.3334 258.402,-33.3973"/>
<polygon fill="black" stroke="black" points="243.246,-51.7147 241.401,-58.8981 247.323,-54.4328 243.246,-51.7147"/>
</g>
<!-- [2,2,1] -->
<g id="node14" class="node"><title>[2,2,1]</title>
<ellipse fill="none" stroke="black" cx="318" cy="-18" rx="18" ry="18"/>
<text text-anchor="middle" x="318" y="-14.3" font-family="Tt-Kp" font-size="14.00">B</text>
</g>
<!-- [2,2]&#45;&gt;[2,2,1] -->
<g id="edge11" class="edge"><title>[2,2]&#45;&gt;[2,2,1]</title>
<path fill="none" stroke="black" d="M318,-51.8641C318,-46.5598 318,-41.0488 318,-36.0898"/>
<polygon fill="black" stroke="black" points="315.55,-51.8981 318,-58.8981 320.45,-51.8982 315.55,-51.8981"/>
</g>
<!-- [2,2,2] -->
<g id="node15" class="node"><title>[2,2,2]</title>
<ellipse fill="none" stroke="black" cx="368" cy="-18" rx="18" ry="18"/>
<text text-anchor="middle" x="368" y="-14.3" font-family="Tt-Kp" font-size="14.00">D</text>
</g>
<!-- [2,2]&#45;&gt;[2,2,2] -->
<g id="edge12" class="edge"><title>[2,2]&#45;&gt;[2,2,2]</title>
<path fill="none" stroke="black" d="M337.708,-53.5332C344.019,-46.3382 350.802,-38.6056 356.346,-32.2853"/>
<polygon fill="black" stroke="black" points="335.776,-52.0201 333.002,-58.8981 339.46,-55.2514 335.776,-52.0201"/>
</g>
</g>
</svg>
