<?xml version="1.0" encoding="UTF-8" standalone="no"?>
<!-- Generated by graphviz version 2.36.0 (20140111.2315)
 -->

<!-- Title: vstruct Pages: 1 -->

<svg
   xmlns:dc="http://purl.org/dc/elements/1.1/"
   xmlns:cc="http://creativecommons.org/ns#"
   xmlns:rdf="http://www.w3.org/1999/02/22-rdf-syntax-ns#"
   xmlns:svg="http://www.w3.org/2000/svg"
   xmlns="http://www.w3.org/2000/svg"
   xmlns:sodipodi="http://sodipodi.sourceforge.net/DTD/sodipodi-0.dtd"
   xmlns:inkscape="http://www.inkscape.org/namespaces/inkscape"
   width="297.37631"
   height="121.41622"
   viewBox="0 0 237.90105 97.132976"
   id="svg4047"
   version="1.1"
   inkscape:version="0.48.4 r9939"
   sodipodi:docname="Majority5.svg">
  <metadata
     id="metadata4139">
    <rdf:RDF>
      <cc:Work
         rdf:about="">
        <dc:format>image/svg+xml</dc:format>
        <dc:type
           rdf:resource="http://purl.org/dc/dcmitype/StillImage" />
      </cc:Work>
    </rdf:RDF>
  </metadata>
  <defs
     id="defs4137" />
  <sodipodi:namedview
     pagecolor="#ffffff"
     bordercolor="#666666"
     borderopacity="1"
     objecttolerance="10"
     gridtolerance="10"
     guidetolerance="10"
     inkscape:pageopacity="0"
     inkscape:pageshadow="2"
     inkscape:window-width="1219"
     inkscape:window-height="662"
     id="namedview4135"
     showgrid="false"
     fit-margin-top="0"
     fit-margin-left="0"
     fit-margin-right="0"
     fit-margin-bottom="0"
     inkscape:zoom="2.8469742"
     inkscape:cx="157.28376"
     inkscape:cy="49.311557"
     inkscape:window-x="0"
     inkscape:window-y="27"
     inkscape:window-maximized="0"
     inkscape:current-layer="svg4047" />
  <g
     id="g12515"
     transform="translate(252.53308,-132.99904)">
    <path
       style="fill:#808080;stroke:none"
       inkscape:connector-curvature="0"
       id="path4057-3"
       d="m -147.63204,171.13202 c 0,0 30,0 30,0 6,0 12,-6 12,-12 0,0 0,-12 0,-12 0,-6 -6,-12 -12,-12 0,0 -30,0 -30,0 -6,0 -12,6 -12,12 0,0 0,12 0,12 0,6 6,12 12,12" />
    <ellipse
       transform="translate(-250.63204,230.13202)"
       style="fill:#808080;stroke:none"
       sodipodi:ry="18"
       sodipodi:rx="18"
       sodipodi:cy="-18"
       sodipodi:cx="18"
       d="M 36,-18 C 36,-8.0588745 27.941125,0 18,0 8.0588745,0 0,-8.0588745 0,-18 c 0,-9.941125 8.0588745,-18 18,-18 9.941125,0 18,8.058875 18,18 z"
       id="ellipse4068-2"
       ry="18"
       rx="18"
       cy="-18"
       cx="18" />
    <ellipse
       transform="translate(-250.63204,230.13202)"
       style="fill:#808080;stroke:none"
       sodipodi:ry="18"
       sodipodi:rx="18"
       sodipodi:cy="-18"
       sodipodi:cx="68"
       d="M 86,-18 C 86,-8.0588745 77.941125,0 68,0 58.058875,0 50,-8.0588745 50,-18 c 0,-9.941125 8.058875,-18 18,-18 9.941125,0 18,8.058875 18,18 z"
       id="ellipse4082-4"
       ry="18"
       rx="18"
       cy="-18"
       cx="68" />
    <ellipse
       transform="translate(-250.63204,230.13202)"
       style="fill:#808080;stroke:none"
       sodipodi:ry="18"
       sodipodi:rx="18"
       sodipodi:cy="-18"
       sodipodi:cx="118"
       d="m 136,-18 c 0,9.9411255 -8.05887,18 -18,18 -9.94113,0 -18,-8.0588745 -18,-18 0,-9.941125 8.05887,-18 18,-18 9.94113,0 18,8.058875 18,18 z"
       id="ellipse4096-3"
       ry="18"
       rx="18"
       cy="-18"
       cx="118" />
    <ellipse
       transform="translate(-250.63204,230.13202)"
       style="fill:#808080;stroke:none"
       sodipodi:ry="18"
       sodipodi:rx="18"
       sodipodi:cy="-18"
       sodipodi:cx="168"
       d="m 186,-18 c 0,9.9411255 -8.05887,18 -18,18 -9.94113,0 -18,-8.0588745 -18,-18 0,-9.941125 8.05887,-18 18,-18 9.94113,0 18,8.058875 18,18 z"
       id="ellipse4110-1"
       ry="18"
       rx="18"
       cy="-18"
       cx="168" />
    <ellipse
       transform="translate(-250.63204,230.13202)"
       style="fill:#808080;stroke:none"
       sodipodi:ry="18"
       sodipodi:rx="18"
       sodipodi:cy="-18"
       sodipodi:cx="218"
       d="m 236,-18 c 0,9.9411255 -8.05887,18 -18,18 -9.94113,0 -18,-8.0588745 -18,-18 0,-9.941125 8.05887,-18 18,-18 9.94113,0 18,8.058875 18,18 z"
       id="ellipse4124-4"
       ry="18"
       rx="18"
       cy="-18"
       cx="218" />
  </g>
  <path
     d="m 103.5,36.499999 c 0,0 30,0 30,0 6,0 12,-6 12,-12 0,0 0,-12 0,-12 0,-5.9999997 -6,-11.99999973 -12,-11.99999973 0,0 -30,0 -30,0 -6,0 -12,6.00000003 -12,11.99999973 0,0 0,12 0,12 0,6 6,12 12,12"
     id="path4057"
     inkscape:connector-curvature="0"
     style="fill:#ffffff;stroke:#000000" />
  <text
     x="105.5"
     y="22.199997"
     font-size="14.00"
     id="text4059"
     style="font-size:14px;text-anchor:middle;font-family:Kp">V</text>
  <polyline
     points="119,-59 119,-95 "
     id="polyline4061"
     style="fill:none;stroke:#000000"
     transform="translate(0.5,95.499999)" />
  <text
     x="132.5"
     y="22.199997"
     font-size="14.00"
     id="text4063"
     style="font-size:14px;text-anchor:middle;font-family:Kp">3</text>
  <ellipse
     cx="18"
     cy="-18"
     rx="18"
     ry="18"
     id="ellipse4068"
     d="M 36,-18 C 36,-8.0588745 27.941125,0 18,0 8.0588745,0 0,-8.0588745 0,-18 c 0,-9.941125 8.0588745,-18 18,-18 9.941125,0 18,8.058875 18,18 z"
     sodipodi:cx="18"
     sodipodi:cy="-18"
     sodipodi:rx="18"
     sodipodi:ry="18"
     style="fill:#ffffff;stroke:#000000"
     transform="translate(0.5,95.499999)" />
  <text
     x="18.5"
     y="81.199997"
     font-size="14.00"
     id="text4070"
     style="font-size:14px;text-anchor:middle;font-family:Tt-Kp">A</text>
  <g
     class="edge"
     id="edge1"
     transform="translate(0.5,95.499999)">
    <title
       id="title4073">[]-&gt;[1]</title>
    <path
       style="fill:none;stroke:#000000"
       inkscape:connector-curvature="0"
       id="path4075"
       d="M 84.6056,-59.1692 C 71.4625,-52.2923 56.3503,-44.0674 43,-36 c -3.5039,2.1174 -7.1935,4.5227 -10.6303,6.8438" />
    <polygon
       style="fill:#000000;stroke:#000000"
       id="polygon4077"
       points="83.5418,-61.3774 90.8831,-62.4302 85.8007,-57.0291 83.5418,-61.3774 " />
  </g>
  <ellipse
     cx="68"
     cy="-18"
     rx="18"
     ry="18"
     id="ellipse4082"
     d="M 86,-18 C 86,-8.0588745 77.941125,0 68,0 58.058875,0 50,-8.0588745 50,-18 c 0,-9.941125 8.058875,-18 18,-18 9.941125,0 18,8.058875 18,18 z"
     sodipodi:cx="68"
     sodipodi:cy="-18"
     sodipodi:rx="18"
     sodipodi:ry="18"
     style="fill:#ffffff;stroke:#000000"
     transform="translate(0.5,95.499999)" />
  <text
     x="68.5"
     y="81.199997"
     font-size="14.00"
     id="text4084"
     style="font-size:14px;text-anchor:middle;font-family:Tt-Kp">B</text>
  <g
     class="edge"
     id="edge2"
     transform="translate(0.5,95.499999)">
    <title
       id="title4087">[]-&gt;[2]</title>
    <path
       style="fill:none;stroke:#000000"
       inkscape:connector-curvature="0"
       id="path4089"
       d="m 98.2923,-53.5332 c -6.3114,7.195 -13.0944,14.9276 -18.6385,21.2479" />
    <polygon
       style="fill:#000000;stroke:#000000"
       id="polygon4091"
       points="96.5404,-55.2514 102.998,-58.8981 100.224,-52.0201 96.5404,-55.2514 " />
  </g>
  <ellipse
     cx="118"
     cy="-18"
     rx="18"
     ry="18"
     id="ellipse4096"
     d="m 136,-18 c 0,9.9411255 -8.05887,18 -18,18 -9.94113,0 -18,-8.0588745 -18,-18 0,-9.941125 8.05887,-18 18,-18 9.94113,0 18,8.058875 18,18 z"
     sodipodi:cx="118"
     sodipodi:cy="-18"
     sodipodi:rx="18"
     sodipodi:ry="18"
     style="fill:#ffffff;stroke:#000000"
     transform="translate(0.5,95.499999)" />
  <text
     x="118.5"
     y="81.199997"
     font-size="14.00"
     id="text4098"
     style="font-size:14px;text-anchor:middle;font-family:Tt-Kp">C</text>
  <g
     class="edge"
     id="edge3"
     transform="translate(0.5,95.499999)">
    <title
       id="title4101">[]-&gt;[3]</title>
    <path
       style="fill:none;stroke:#000000"
       inkscape:connector-curvature="0"
       id="path4103"
       d="m 118,-51.8641 c 0,5.3043 0,10.8153 0,15.7743" />
    <polygon
       style="fill:#000000;stroke:#000000"
       id="polygon4105"
       points="115.55,-51.8981 118,-58.8981 120.45,-51.8982 115.55,-51.8981 " />
  </g>
  <ellipse
     cx="168"
     cy="-18"
     rx="18"
     ry="18"
     id="ellipse4110"
     d="m 186,-18 c 0,9.9411255 -8.05887,18 -18,18 -9.94113,0 -18,-8.0588745 -18,-18 0,-9.941125 8.05887,-18 18,-18 9.94113,0 18,8.058875 18,18 z"
     sodipodi:cx="168"
     sodipodi:cy="-18"
     sodipodi:rx="18"
     sodipodi:ry="18"
     style="fill:#ffffff;stroke:#000000"
     transform="translate(0.5,95.499999)" />
  <text
     x="168.5"
     y="81.199997"
     font-size="14.00"
     id="text4112"
     style="font-size:14px;text-anchor:middle;font-family:Tt-Kp">D</text>
  <g
     class="edge"
     id="edge4"
     transform="translate(0.5,95.499999)">
    <title
       id="title4115">[]-&gt;[4]</title>
    <path
       style="fill:none;stroke:#000000"
       inkscape:connector-curvature="0"
       id="path4117"
       d="m 137.708,-53.5332 c 6.311,7.195 13.094,14.9276 18.638,21.2479" />
    <polygon
       style="fill:#000000;stroke:#000000"
       id="polygon4119"
       points="135.776,-52.0201 133.002,-58.8981 139.46,-55.2514 135.776,-52.0201 " />
  </g>
  <ellipse
     cx="218"
     cy="-18"
     rx="18"
     ry="18"
     id="ellipse4124"
     d="m 236,-18 c 0,9.9411255 -8.05887,18 -18,18 -9.94113,0 -18,-8.0588745 -18,-18 0,-9.941125 8.05887,-18 18,-18 9.94113,0 18,8.058875 18,18 z"
     sodipodi:cx="218"
     sodipodi:cy="-18"
     sodipodi:rx="18"
     sodipodi:ry="18"
     style="fill:#ffffff;stroke:#000000"
     transform="translate(0.5,95.499999)" />
  <text
     x="218.5"
     y="81.199997"
     font-size="14.00"
     id="text4126"
     style="font-size:14px;text-anchor:middle;font-family:Tt-Kp">E</text>
  <g
     class="edge"
     id="edge5"
     transform="translate(0.5,95.499999)">
    <title
       id="title4129">[]-&gt;[5]</title>
    <path
       style="fill:none;stroke:#000000"
       inkscape:connector-curvature="0"
       id="path4131"
       d="M 151.394,-59.1692 C 164.537,-52.2923 179.65,-44.0674 193,-36 c 3.504,2.1174 7.193,4.5227 10.63,6.8438" />
    <polygon
       style="fill:#000000;stroke:#000000"
       id="polygon4133"
       points="150.199,-57.0291 145.117,-62.4302 152.458,-61.3774 150.199,-57.0291 " />
  </g>
</svg>
