<?xml version="1.0" encoding="UTF-8" standalone="no"?>
<!-- Generated by graphviz version 2.36.0 (20140111.2315)
 -->

<!-- Title: vstruct Pages: 1 -->

<svg
   xmlns:dc="http://purl.org/dc/elements/1.1/"
   xmlns:cc="http://creativecommons.org/ns#"
   xmlns:rdf="http://www.w3.org/1999/02/22-rdf-syntax-ns#"
   xmlns:svg="http://www.w3.org/2000/svg"
   xmlns="http://www.w3.org/2000/svg"
   xmlns:sodipodi="http://sodipodi.sourceforge.net/DTD/sodipodi-0.dtd"
   xmlns:inkscape="http://www.inkscape.org/namespaces/inkscape"
   width="350pt"
   height="130pt"
   viewBox="0.00 0.00 350.00 130.00"
   id="svg2"
   version="1.1"
   inkscape:version="0.48.4 r9939"
   sodipodi:docname="Majority5.svg">
  <metadata
     id="metadata118">
    <rdf:RDF>
      <cc:Work
         rdf:about="">
        <dc:format>image/svg+xml</dc:format>
        <dc:type
           rdf:resource="http://purl.org/dc/dcmitype/StillImage" />
        <dc:title></dc:title>
      </cc:Work>
    </rdf:RDF>
  </metadata>
  <defs
     id="defs116">
    <marker
       inkscape:stockid="DotM"
       orient="auto"
       refY="0"
       refX="0"
       id="DotM"
       style="overflow:visible">
      <path
         inkscape:connector-curvature="0"
         id="path6317"
         d="m -2.5,-1 c 0,2.76 -2.24,5 -5,5 -2.76,0 -5,-2.24 -5,-5 0,-2.76 2.24,-5 5,-5 2.76,0 5,2.24 5,5 z"
         style="fill-rule:evenodd;stroke:#000000;stroke-width:1pt"
         transform="matrix(0.4,0,0,0.4,2.96,0.4)" />
    </marker>
    <marker
       inkscape:stockid="DotM"
       orient="auto"
       refY="0"
       refX="0"
       id="marker7656"
       style="overflow:visible">
      <path
         inkscape:connector-curvature="0"
         id="path7658"
         d="m -2.5,-1 c 0,2.76 -2.24,5 -5,5 -2.76,0 -5,-2.24 -5,-5 0,-2.76 2.24,-5 5,-5 2.76,0 5,2.24 5,5 z"
         style="fill-rule:evenodd;stroke:#000000;stroke-width:1pt"
         transform="matrix(0.4,0,0,0.4,2.96,0.4)" />
    </marker>
    <marker
       inkscape:stockid="DotM"
       orient="auto"
       refY="0"
       refX="0"
       id="marker7660"
       style="overflow:visible">
      <path
         inkscape:connector-curvature="0"
         id="path7662"
         d="m -2.5,-1 c 0,2.76 -2.24,5 -5,5 -2.76,0 -5,-2.24 -5,-5 0,-2.76 2.24,-5 5,-5 2.76,0 5,2.24 5,5 z"
         style="fill-rule:evenodd;stroke:#000000;stroke-width:1pt"
         transform="matrix(0.4,0,0,0.4,2.96,0.4)" />
    </marker>
  </defs>
  <sodipodi:namedview
     pagecolor="#ffffff"
     bordercolor="#666666"
     borderopacity="1"
     objecttolerance="10"
     gridtolerance="10"
     guidetolerance="10"
     inkscape:pageopacity="0"
     inkscape:pageshadow="2"
     inkscape:window-width="1366"
     inkscape:window-height="702"
     id="namedview114"
     showgrid="false"
     inkscape:zoom="1.3851429"
     inkscape:cx="168.59842"
     inkscape:cy="98.479192"
     inkscape:window-x="0"
     inkscape:window-y="27"
     inkscape:window-maximized="1"
     inkscape:current-layer="svg2" />
  <g
     id="g5689"
     transform="translate(233.97676,103.69875)">
    <path
       style="fill:#000000;fill-opacity:0.45490196;stroke:none"
       inkscape:connector-curvature="0"
       id="path12-8"
       d="m -72.583696,-51.033557 c 0,0 30,0 30,0 6,0 12,-6 12,-12 0,0 0,-22 0,-22 0,-6 -6,-12 -12,-12 0,0 -30,0 -30,0 -6,0 -12,6 -12,12 0,0 0,22 0,22 0,6 6,12 12,12" />
    <polyline
       transform="translate(-228.5837,23.966443)"
       style="fill:#000000;fill-opacity:0.45490196;stroke:none"
       id="polyline16-9"
       points="172,-75 172,-121 " />
    <polyline
       transform="translate(-228.5837,23.966443)"
       style="fill:#000000;fill-opacity:0.45490196;stroke:none"
       id="polyline20-7"
       points="172,-98 198,-98 " />
    <path
       style="fill:#000000;fill-opacity:0.45490196;stroke:none"
       inkscape:connector-curvature="0"
       id="path27-0"
       d="m -216.5837,22.966443 c 0,0 30,0 30,0 6,0 12,-6 12,-12 0,0 0,-12.0000004 0,-12.0000004 0,-6 -6,-11.9999996 -12,-11.9999996 0,0 -30,0 -30,0 -6,0 -12,5.9999996 -12,11.9999996 0,0 0,12.0000004 0,12.0000004 0,6 6,12 12,12" />
    <polyline
       transform="translate(-228.5837,23.966443)"
       style="fill:#000000;fill-opacity:0.45490196;stroke:none"
       id="polyline31-6"
       points="28,-1 28,-37 " />
    <path
       style="fill:#000000;fill-opacity:0.45490196;stroke:none"
       inkscape:connector-curvature="0"
       id="path45-8"
       d="m -144.5837,22.966443 c 0,0 30,0 30,0 6,0 12,-6 12,-12 0,0 0,-12.0000004 0,-12.0000004 0,-6 -6,-11.9999996 -12,-11.9999996 0,0 -30,0 -30,0 -6,0 -12,5.9999996 -12,11.9999996 0,0 0,12.0000004 0,12.0000004 0,6 6,12 12,12" />
    <polyline
       transform="translate(-228.5837,23.966443)"
       style="fill:#000000;fill-opacity:0.45490196;stroke:none"
       id="polyline49-3"
       points="100,-1 100,-37 " />
    <path
       style="fill:#000000;fill-opacity:0.45490196;stroke:none"
       inkscape:connector-curvature="0"
       id="path63-6"
       d="m -72.583696,22.966443 c 0,0 30,0 30,0 6,0 12,-6 12,-12 0,0 0,-12.0000004 0,-12.0000004 0,-6 -6,-11.9999996 -12,-11.9999996 0,0 -30,0 -30,0 -6,0 -12,5.9999996 -12,11.9999996 0,0 0,12.0000004 0,12.0000004 0,6 6,12 12,12" />
    <polyline
       transform="translate(-228.5837,23.966443)"
       style="fill:#000000;fill-opacity:0.45490196;stroke:none"
       id="polyline67-9"
       points="172,-1 172,-37 " />
    <path
       style="fill:#000000;fill-opacity:0.45490196;stroke:none"
       inkscape:connector-curvature="0"
       id="path81-1"
       d="m -0.58369584,22.966443 c 0,0 29.99999984,0 29.99999984,0 6,0 12,-6 12,-12 0,0 0,-12.0000004 0,-12.0000004 0,-6 -6,-11.9999996 -12,-11.9999996 0,0 -29.99999984,0 -29.99999984,0 -5.99999996,0 -12.00000016,5.9999996 -12.00000016,11.9999996 0,0 0,12.0000004 0,12.0000004 0,6 6.0000002,12 12.00000016,12" />
    <polyline
       transform="translate(-228.5837,23.966443)"
       style="fill:#000000;fill-opacity:0.45490196;stroke:none"
       id="polyline85-9"
       points="244,-1 244,-37 " />
    <path
       style="fill:#000000;fill-opacity:0.45490196;stroke:none"
       inkscape:connector-curvature="0"
       id="path99-0"
       d="m 71.416304,22.966443 c 0,0 29.999996,0 29.999996,0 6,0 12,-6 12,-12 0,0 0,-12.0000004 0,-12.0000004 0,-6 -6,-11.9999996 -12,-11.9999996 0,0 -29.999996,0 -29.999996,0 -6,0 -12,5.9999996 -12,11.9999996 0,0 0,12.0000004 0,12.0000004 0,6 6,12 12,12" />
    <polyline
       transform="translate(-228.5837,23.966443)"
       style="fill:#000000;fill-opacity:0.45490196;stroke:none"
       id="polyline103-4"
       points="316,-1 316,-37 " />
  </g>
  <path
     d="m 160,51 c 0,0 30,0 30,0 6,0 12,-6 12,-12 0,0 0,-22 0,-22 0,-6 -6,-12 -12,-12 0,0 -30,0 -30,0 -6,0 -12,6 -12,12 0,0 0,22 0,22 0,6 6,12 12,12"
     id="path12"
     inkscape:connector-curvature="0"
     style="fill:#ffffff;stroke:#000000;fill-opacity:1" />
  <text
     x="162"
     y="31.699997"
     font-size="14.00"
     id="text14"
     style="font-size:14px;text-anchor:middle;font-family:Nimbus Roman No9 L;-inkscape-font-specification:Nimbus Roman No9 L Italic;font-weight:normal;font-style:italic;font-stretch:normal;font-variant:normal">V</text>
  <polyline
     points="172,-75 172,-121 "
     id="polyline16"
     style="fill:none;stroke:#000000"
     transform="translate(4,126)" />
  <text
     x="189"
     y="20.199997"
     font-size="14.00"
     id="text18"
     style="font-size:14px;text-anchor:middle;font-family:Nimbus Roman No9 L;-inkscape-font-specification:Nimbus Roman No9 L;font-weight:normal;font-style:normal;font-stretch:normal;font-variant:normal">1</text>
  <polyline
     points="172,-98 198,-98 "
     id="polyline20"
     style="fill:none;stroke:#000000"
     transform="translate(4,126)" />
  <text
     x="189"
     y="43.199997"
     font-size="14.00"
     id="text22"
     style="font-size:14px;text-anchor:middle;font-family:Nimbus Roman No9 L;-inkscape-font-specification:Nimbus Roman No9 L;font-weight:normal;font-style:normal;font-stretch:normal;font-variant:normal">3</text>
  <path
     d="m 16,125 c 0,0 30,0 30,0 6,0 12,-6 12,-12 0,0 0,-12 0,-12 0,-6 -6,-12 -12,-12 0,0 -30,0 -30,0 -6,0 -12,6 -12,12 0,0 0,12 0,12 0,6 6,12 12,12"
     id="path27"
     inkscape:connector-curvature="0"
     style="fill:#ffffff;stroke:#000000;fill-opacity:1" />
  <text
     x="18"
     y="110.7"
     font-size="14.00"
     id="text29"
     style="font-size:14px;text-anchor:middle;font-family:Nimbus Roman No9 L;-inkscape-font-specification:Nimbus Roman No9 L;font-weight:normal;font-style:normal;font-stretch:normal;font-variant:normal">A</text>
  <polyline
     points="28,-1 28,-37 "
     id="polyline31"
     style="fill:none;stroke:#000000"
     transform="translate(4,126)" />
  <text
     x="45"
     y="110.7"
     font-size="14.00"
     id="text33"
     style="font-size:14px;text-anchor:middle;font-family:Nimbus Roman No9 L;-inkscape-font-specification:Nimbus Roman No9 L;font-weight:normal;font-style:normal;font-stretch:normal;font-variant:normal">1</text>
  <g
     class="edge"
     id="edge1"
     transform="translate(4,126)">
    <title
       id="title36">[]-&gt;[1]</title>
    <path
       style="fill:none;stroke:#000000"
       inkscape:connector-curvature="0"
       id="path38"
       d="m 143.915,-82.5169 c -22.784,12.1831 -55.559,29.7085 -80.6132,43.1055" />
    <polygon
       style="fill:#000000;stroke:#000000"
       id="polygon40"
       points="61.6215,-42.4819 64.9223,-36.309 64.9223,-36.309 54.4534,-34.68 " />
  </g>
  <path
     d="m 88,125 c 0,0 30,0 30,0 6,0 12,-6 12,-12 0,0 0,-12 0,-12 0,-6 -6,-12 -12,-12 0,0 -30,0 -30,0 -6,0 -12,6 -12,12 0,0 0,12 0,12 0,6 6,12 12,12"
     id="path45"
     inkscape:connector-curvature="0"
     style="fill:#ffffff;stroke:#000000;fill-opacity:1" />
  <text
     x="90"
     y="110.7"
     font-size="14.00"
     id="text47"
     style="font-size:14px;text-anchor:middle;font-family:Nimbus Roman No9 L;-inkscape-font-specification:Nimbus Roman No9 L;font-weight:normal;font-style:normal;font-stretch:normal;font-variant:normal">B</text>
  <polyline
     points="100,-1 100,-37 "
     id="polyline49"
     style="fill:none;stroke:#000000"
     transform="translate(4,126)" />
  <text
     x="117"
     y="110.7"
     font-size="14.00"
     id="text51"
     style="font-size:14px;text-anchor:middle;font-family:Nimbus Roman No9 L;-inkscape-font-specification:Nimbus Roman No9 L;font-weight:normal;font-style:normal;font-stretch:normal;font-variant:normal">1</text>
  <g
     class="edge"
     id="edge2"
     transform="translate(4,126)">
    <title
       id="title54">[]-&gt;[2]</title>
    <path
       style="fill:none;stroke:#000000"
       inkscape:connector-curvature="0"
       id="path56"
       d="m 150.175,-74.7284 c -8.783,9.3926 -19.041,20.3625 -28.057,30.0046" />
    <polygon
       style="fill:#000000;stroke:#000000"
       id="polygon58"
       points="119.479,-47.026 124.592,-42.2451 124.592,-42.2451 115.206,-37.3313 " />
  </g>
  <path
     d="m 160,125 c 0,0 30,0 30,0 6,0 12,-6 12,-12 0,0 0,-12 0,-12 0,-6 -6,-12 -12,-12 0,0 -30,0 -30,0 -6,0 -12,6 -12,12 0,0 0,12 0,12 0,6 6,12 12,12"
     id="path63"
     inkscape:connector-curvature="0"
     style="fill:#ffffff;stroke:#000000;fill-opacity:1" />
  <text
     x="162"
     y="110.7"
     font-size="14.00"
     id="text65"
     style="font-size:14px;text-anchor:middle;font-family:Nimbus Roman No9 L;-inkscape-font-specification:Nimbus Roman No9 L;font-weight:normal;font-style:normal;font-stretch:normal;font-variant:normal">C</text>
  <polyline
     points="172,-1 172,-37 "
     id="polyline67"
     style="fill:none;stroke:#000000"
     transform="translate(4,126)" />
  <text
     x="189"
     y="110.7"
     font-size="14.00"
     id="text69"
     style="font-size:14px;text-anchor:middle;font-family:Nimbus Roman No9 L;-inkscape-font-specification:Nimbus Roman No9 L;font-weight:normal;font-style:normal;font-stretch:normal;font-variant:normal">1</text>
  <g
     class="edge"
     id="edge3"
     transform="translate(4,126)">
    <title
       id="title72">[]-&gt;[3]</title>
    <path
       style="fill:none;stroke:#000000"
       inkscape:connector-curvature="0"
       id="path74"
       d="m 171,-74.7284 c 0,8.4626 0,18.2057 0,27.1044" />
    <polygon
       style="fill:#000000;stroke:#000000"
       id="polygon76"
       points="167.5,-47.3313 174.5,-47.3313 174.5,-47.3313 171,-37.3313 " />
  </g>
  <path
     d="m 232,125 c 0,0 30,0 30,0 6,0 12,-6 12,-12 0,0 0,-12 0,-12 0,-6 -6,-12 -12,-12 0,0 -30,0 -30,0 -6,0 -12,6 -12,12 0,0 0,12 0,12 0,6 6,12 12,12"
     id="path81"
     inkscape:connector-curvature="0"
     style="fill:#ffffff;stroke:#000000;fill-opacity:1" />
  <text
     x="234"
     y="110.7"
     font-size="14.00"
     id="text83"
     style="font-size:14px;text-anchor:middle;font-family:Nimbus Roman No9 L;-inkscape-font-specification:Nimbus Roman No9 L;font-weight:normal;font-style:normal;font-stretch:normal;font-variant:normal">D</text>
  <polyline
     points="244,-1 244,-37 "
     id="polyline85"
     style="fill:none;stroke:#000000"
     transform="translate(4,126)" />
  <text
     x="261"
     y="110.7"
     font-size="14.00"
     id="text87"
     style="font-size:14px;text-anchor:middle;font-family:Nimbus Roman No9 L;-inkscape-font-specification:Nimbus Roman No9 L;font-weight:normal;font-style:normal;font-stretch:normal;font-variant:normal">1</text>
  <g
     class="edge"
     id="edge4"
     transform="translate(4,126)">
    <title
       id="title90">[]-&gt;[4]</title>
    <path
       style="fill:none;stroke:#000000"
       inkscape:connector-curvature="0"
       id="path92"
       d="m 191.825,-74.7284 c 8.783,9.3926 19.041,20.3625 28.057,30.0046" />
    <polygon
       style="fill:#000000;stroke:#000000"
       id="polygon94"
       points="217.408,-42.2451 222.521,-47.026 222.521,-47.026 226.794,-37.3313 " />
  </g>
  <path
     d="m 304,125 c 0,0 30,0 30,0 6,0 12,-6 12,-12 0,0 0,-12 0,-12 0,-6 -6,-12 -12,-12 0,0 -30,0 -30,0 -6,0 -12,6 -12,12 0,0 0,12 0,12 0,6 6,12 12,12"
     id="path99"
     inkscape:connector-curvature="0"
     style="fill:#ffffff;stroke:#000000;fill-opacity:1" />
  <text
     x="306"
     y="110.7"
     font-size="14.00"
     id="text101"
     style="font-size:14px;text-anchor:middle;font-family:Nimbus Roman No9 L;-inkscape-font-specification:Nimbus Roman No9 L;font-weight:normal;font-style:normal;font-stretch:normal;font-variant:normal">E</text>
  <polyline
     points="316,-1 316,-37 "
     id="polyline103"
     style="fill:none;stroke:#000000"
     transform="translate(4,126)" />
  <text
     x="333"
     y="110.7"
     font-size="14.00"
     id="text105"
     style="font-size:14px;text-anchor:middle;font-family:Nimbus Roman No9 L;-inkscape-font-specification:Nimbus Roman No9 L;font-weight:normal;font-style:normal;font-stretch:normal;font-variant:normal">1</text>
  <g
     class="edge"
     id="edge5"
     transform="translate(4,126)">
    <title
       id="title108">[]-&gt;[5]</title>
    <path
       style="fill:none;stroke:#000000"
       inkscape:connector-curvature="0"
       id="path110"
       d="m 198.085,-82.5169 c 22.784,12.1831 55.559,29.7085 80.613,43.1055" />
    <polygon
       style="fill:#000000;stroke:#000000"
       id="polygon112"
       points="277.078,-36.309 280.379,-42.4819 280.379,-42.4819 287.547,-34.68 " />
  </g>
  <text
     xml:space="preserve"
     style="font-size:12.80000019px;font-style:italic;font-variant:normal;font-weight:normal;font-stretch:normal;line-height:125%;letter-spacing:0px;word-spacing:0px;fill:#000000;fill-opacity:1;stroke:none;font-family:Myriad Pro;-inkscape-font-specification:Myriad Pro Italic"
     x="79.714752"
     y="30.873598"
     id="text6163"
     sodipodi:linespacing="125%"><tspan
       sodipodi:role="line"
       id="tspan6165"
       x="79.714752"
       y="30.873598"
       style="font-size:12.80000019px;font-style:italic;font-variant:normal;font-weight:normal;font-stretch:normal;font-family:Myriad Pro;-inkscape-font-specification:Myriad Pro Italic">Virtual node</tspan></text>
  <text
     xml:space="preserve"
     style="font-size:12.80000019px;font-style:italic;font-variant:normal;font-weight:normal;font-stretch:normal;text-align:center;line-height:100%;letter-spacing:0px;word-spacing:0px;text-anchor:middle;fill:#000000;fill-opacity:1;stroke:none;font-family:Myriad Pro;-inkscape-font-specification:Myriad Pro Italic"
     x="30.6833"
     y="66.209145"
     id="text6163-9"
     sodipodi:linespacing="100%"><tspan
       sodipodi:role="line"
       id="tspan6165-6"
       x="30.683298"
       y="66.209145"
       style="font-size:12.80000019px;font-style:italic;font-variant:normal;font-weight:normal;font-stretch:normal;text-align:center;line-height:100%;text-anchor:middle;font-family:Myriad Pro;-inkscape-font-specification:Myriad Pro Italic">Physical</tspan><tspan
       sodipodi:role="line"
       x="30.6833"
       y="79.009148"
       style="font-size:12.80000019px;font-style:italic;font-variant:normal;font-weight:normal;font-stretch:normal;text-align:center;line-height:100%;text-anchor:middle;font-family:Myriad Pro;-inkscape-font-specification:Myriad Pro Italic"
       id="tspan6192">node</tspan></text>
  <text
     xml:space="preserve"
     style="font-size:12.80000019px;font-style:italic;font-variant:normal;font-weight:normal;font-stretch:normal;line-height:125%;letter-spacing:0px;word-spacing:0px;fill:#000000;fill-opacity:1;stroke:none;font-family:Myriad Pro;-inkscape-font-specification:Myriad Pro Italic"
     x="223.93518"
     y="42.38377"
     id="text6163-67"
     sodipodi:linespacing="125%"><tspan
       sodipodi:role="line"
       id="tspan6165-1"
       x="223.93518"
       y="42.38377"
       style="font-size:12.80000019px;font-style:italic;font-variant:normal;font-weight:normal;font-stretch:normal;font-family:Myriad Pro;-inkscape-font-specification:Myriad Pro Italic">Threshold</tspan></text>
  <text
     xml:space="preserve"
     style="font-size:12.80000019px;font-style:italic;font-variant:normal;font-weight:normal;font-stretch:normal;line-height:100%;letter-spacing:0px;word-spacing:0px;fill:#000000;fill-opacity:1;stroke:none;font-family:Myriad Pro;-inkscape-font-specification:Myriad Pro Italic"
     x="322.97864"
     y="19.259506"
     id="text6163-677"
     sodipodi:linespacing="100%"><tspan
       sodipodi:role="line"
       id="tspan6165-7"
       x="322.97864"
       y="19.259506"
       style="font-size:12.80000019px;font-style:italic;font-variant:normal;font-weight:normal;font-stretch:normal;text-align:center;line-height:100%;text-anchor:middle;font-family:Myriad Pro;-inkscape-font-specification:Myriad Pro Italic">Number</tspan><tspan
       sodipodi:role="line"
       x="322.97864"
       y="32.059505"
       style="font-size:12.80000019px;font-style:italic;font-variant:normal;font-weight:normal;font-stretch:normal;text-align:center;line-height:100%;text-anchor:middle;font-family:Myriad Pro;-inkscape-font-specification:Myriad Pro Italic"
       id="tspan6233">of votes</tspan></text>
  <path
     style="opacity:0.58367345;fill:none;stroke:#000000;stroke-width:0.80000001;stroke-linecap:butt;stroke-linejoin:miter;stroke-miterlimit:4;stroke-opacity:1;stroke-dasharray:none;marker-start:url(#DotM);marker-end:none"
     d="m 326.3519,96.360696 0,-60.19079"
     id="path6235"
     inkscape:connector-curvature="0" />
  <path
     style="opacity:0.58367345;fill:none;stroke:#000000;stroke-width:0.80000001;stroke-linecap:butt;stroke-linejoin:miter;stroke-miterlimit:4;stroke-opacity:1;stroke-dasharray:none;marker-start:url(#DotM);marker-end:none"
     d="m 196.52812,38.199752 24.12403,0"
     id="path6245"
     inkscape:connector-curvature="0" />
  <path
     style="opacity:0.58367345;fill:none;stroke:#000000;stroke-width:0.80000001;stroke-linecap:butt;stroke-linejoin:miter;stroke-miterlimit:4;stroke-opacity:1;stroke-dasharray:none;marker-start:url(#DotM);marker-end:none"
     d="m 196.52812,16.869994 98.02119,0"
     id="path6247"
     inkscape:connector-curvature="0" />
</svg>
