<?xml version="1.0" encoding="UTF-8" standalone="no"?>
<!-- Generated by graphviz version 2.36.0 (20140111.2315)
 -->

<!-- Title: vstruct Pages: 1 -->

<svg
   xmlns:dc="http://purl.org/dc/elements/1.1/"
   xmlns:cc="http://creativecommons.org/ns#"
   xmlns:rdf="http://www.w3.org/1999/02/22-rdf-syntax-ns#"
   xmlns:svg="http://www.w3.org/2000/svg"
   xmlns="http://www.w3.org/2000/svg"
   xmlns:sodipodi="http://sodipodi.sourceforge.net/DTD/sodipodi-0.dtd"
   xmlns:inkscape="http://www.inkscape.org/namespaces/inkscape"
   width="296.25"
   height="148.205"
   viewBox="0 0 237 118.564"
   id="svg4047"
   version="1.1"
   inkscape:version="0.48.4 r9939"
   sodipodi:docname="Majority5.svg">
  <metadata
     id="metadata4139">
    <rdf:RDF>
      <cc:Work
         rdf:about="">
        <dc:format>image/svg+xml</dc:format>
        <dc:type
           rdf:resource="http://purl.org/dc/dcmitype/StillImage" />
      </cc:Work>
    </rdf:RDF>
  </metadata>
  <defs
     id="defs4137">
    <marker
       inkscape:stockid="DotM"
       orient="auto"
       refY="0"
       refX="0"
       id="DotM"
       style="overflow:visible">
      <path
         inkscape:connector-curvature="0"
         id="path6317"
         d="m -2.5,-1 c 0,2.76 -2.24,5 -5,5 -2.76,0 -5,-2.24 -5,-5 0,-2.76 2.24,-5 5,-5 2.76,0 5,2.24 5,5 z"
         style="fill-rule:evenodd;stroke:#000000;stroke-width:1pt"
         transform="matrix(0.4,0,0,0.4,2.96,0.4)" />
    </marker>
  </defs>
  <sodipodi:namedview
     pagecolor="#ffffff"
     bordercolor="#666666"
     borderopacity="1"
     objecttolerance="10"
     gridtolerance="10"
     guidetolerance="10"
     inkscape:pageopacity="0"
     inkscape:pageshadow="2"
     inkscape:window-width="1219"
     inkscape:window-height="662"
     id="namedview4135"
     showgrid="false"
     fit-margin-top="0"
     fit-margin-left="0"
     fit-margin-right="0"
     fit-margin-bottom="0"
     inkscape:zoom="1.4234871"
     inkscape:cx="96.328674"
     inkscape:cy="42.042854"
     inkscape:window-x="0"
     inkscape:window-y="27"
     inkscape:window-maximized="0"
     inkscape:current-layer="node1" />
  <g
     class="node"
     id="node1"
     transform="translate(0.5,95.5)">
    <title
       id="title4055">[]</title>
    <path
       style="fill:none;stroke:#000000"
       inkscape:connector-curvature="0"
       id="path4057"
       d="m 103,-59 c 0,0 30,0 30,0 6,0 12,-6 12,-12 0,0 0,-12 0,-12 0,-6 -6,-12 -12,-12 0,0 -30,0 -30,0 -6,0 -12,6 -12,12 0,0 0,12 0,12 0,6 6,12 12,12" />
    <text
       style="font-size:14px;text-anchor:middle;font-family:Kp"
       id="text4059"
       font-size="14.00"
       y="-73.300003"
       x="105">V</text>
    <polyline
       style="fill:none;stroke:#000000"
       id="polyline4061"
       points="119,-59 119,-95 " />
    <text
       style="font-size:14px;text-anchor:middle;font-family:Kp"
       id="text4063"
       font-size="14.00"
       y="-73.300003"
       x="132">3</text>
    <text
       xml:space="preserve"
       style="font-size:12.80000019000000044px;font-style:italic;font-variant:normal;font-weight:normal;font-stretch:normal;line-height:125%;letter-spacing:0px;word-spacing:0px;fill:#000000;fill-opacity:1;stroke:none;font-family:Kp;-inkscape-font-specification:Kp Medium Italic"
       x="76.273201"
       y="19.736006"
       id="text4188"
       sodipodi:linespacing="125%"><tspan
         sodipodi:role="line"
         id="tspan4190"
         x="76.273201"
         y="19.736006"
         style="font-size:12.80000019000000044px;font-style:italic;font-variant:normal;font-weight:normal;font-stretch:normal;font-family:Kp;-inkscape-font-specification:Kp Medium Italic">Physical nodes</tspan></text>
    <text
       xml:space="preserve"
       style="font-size:12.80000019000000044px;font-style:italic;font-variant:normal;font-weight:normal;font-stretch:normal;line-height:125%;letter-spacing:0px;word-spacing:0px;fill:#000000;fill-opacity:1;stroke:none;font-family:Kp;-inkscape-font-specification:Kp Medium Italic"
       x="161.79005"
       y="-73.4552"
       id="text4192"
       sodipodi:linespacing="125%"><tspan
         sodipodi:role="line"
         id="tspan4194"
         x="161.79005"
         y="-73.4552">Threshold</tspan></text>
    <text
       xml:space="preserve"
       style="font-size:12.80000019px;font-style:italic;font-variant:normal;font-weight:normal;font-stretch:normal;line-height:125%;letter-spacing:0px;word-spacing:0px;fill:#000000;fill-opacity:1;stroke:none;font-family:Kp;-inkscape-font-specification:Kp Medium Italic"
       x="11.822004"
       y="-73.4552"
       id="text4196"
       sodipodi:linespacing="125%"><tspan
         sodipodi:role="line"
         id="tspan4198"
         x="11.822004"
         y="-73.4552">Virtual node</tspan></text>
    <path
       style="opacity:0.58367345;fill:none;stroke:#000000;stroke-width:0.80000001;stroke-linecap:butt;stroke-linejoin:miter;stroke-miterlimit:4;stroke-opacity:1;stroke-dasharray:none;marker-start:url(#DotM);marker-end:none"
       d="m 139.45144,-77.555282 19.34945,0"
       id="path6245"
       inkscape:connector-curvature="0" />
  </g>
  <g
     class="node"
     id="node2"
     transform="translate(0.5,95.5)">
    <title
       id="title4066">[1]</title>
    <ellipse
       style="fill:none;stroke:#000000"
       sodipodi:ry="18"
       sodipodi:rx="18"
       sodipodi:cy="-18"
       sodipodi:cx="18"
       d="M 36,-18 C 36,-8.0588745 27.941125,0 18,0 8.0588745,0 0,-8.0588745 0,-18 c 0,-9.941125 8.0588745,-18 18,-18 9.941125,0 18,8.058875 18,18 z"
       id="ellipse4068"
       ry="18"
       rx="18"
       cy="-18"
       cx="18" />
    <text
       style="font-size:14px;text-anchor:middle;font-family:Tt-Kp"
       id="text4070"
       font-size="14.00"
       y="-14.3"
       x="18">A</text>
  </g>
  <g
     class="edge"
     id="edge1"
     transform="translate(0.5,95.5)">
    <title
       id="title4073">[]-&gt;[1]</title>
    <path
       style="fill:none;stroke:#000000"
       inkscape:connector-curvature="0"
       id="path4075"
       d="M 84.6056,-59.1692 C 71.4625,-52.2923 56.3503,-44.0674 43,-36 c -3.5039,2.1174 -7.1935,4.5227 -10.6303,6.8438" />
    <polygon
       style="fill:#000000;stroke:#000000"
       id="polygon4077"
       points="90.8831,-62.4302 85.8007,-57.0291 83.5418,-61.3774 83.5418,-61.3774 " />
  </g>
  <g
     class="node"
     id="node3"
     transform="translate(0.5,95.5)">
    <title
       id="title4080">[2]</title>
    <ellipse
       style="fill:none;stroke:#000000"
       sodipodi:ry="18"
       sodipodi:rx="18"
       sodipodi:cy="-18"
       sodipodi:cx="68"
       d="M 86,-18 C 86,-8.0588745 77.941125,0 68,0 58.058875,0 50,-8.0588745 50,-18 c 0,-9.941125 8.058875,-18 18,-18 9.941125,0 18,8.058875 18,18 z"
       id="ellipse4082"
       ry="18"
       rx="18"
       cy="-18"
       cx="68" />
    <text
       style="font-size:14px;text-anchor:middle;font-family:Tt-Kp"
       id="text4084"
       font-size="14.00"
       y="-14.3"
       x="68">B</text>
  </g>
  <g
     class="edge"
     id="edge2"
     transform="translate(0.5,95.5)">
    <title
       id="title4087">[]-&gt;[2]</title>
    <path
       style="fill:none;stroke:#000000"
       inkscape:connector-curvature="0"
       id="path4089"
       d="m 98.2923,-53.5332 c -6.3114,7.195 -13.0944,14.9276 -18.6385,21.2479" />
    <polygon
       style="fill:#000000;stroke:#000000"
       id="polygon4091"
       points="102.998,-58.8981 100.224,-52.0201 96.5404,-55.2514 96.5404,-55.2514 " />
  </g>
  <g
     class="node"
     id="node4"
     transform="translate(0.5,95.5)">
    <title
       id="title4094">[3]</title>
    <ellipse
       style="fill:none;stroke:#000000"
       sodipodi:ry="18"
       sodipodi:rx="18"
       sodipodi:cy="-18"
       sodipodi:cx="118"
       d="m 136,-18 c 0,9.9411255 -8.05887,18 -18,18 -9.94113,0 -18,-8.0588745 -18,-18 0,-9.941125 8.05887,-18 18,-18 9.94113,0 18,8.058875 18,18 z"
       id="ellipse4096"
       ry="18"
       rx="18"
       cy="-18"
       cx="118" />
    <text
       style="font-size:14px;text-anchor:middle;font-family:Tt-Kp"
       id="text4098"
       font-size="14.00"
       y="-14.3"
       x="118">C</text>
  </g>
  <g
     class="edge"
     id="edge3"
     transform="translate(0.5,95.5)">
    <title
       id="title4101">[]-&gt;[3]</title>
    <path
       style="fill:none;stroke:#000000"
       inkscape:connector-curvature="0"
       id="path4103"
       d="m 118,-51.8641 c 0,5.3043 0,10.8153 0,15.7743" />
    <polygon
       style="fill:#000000;stroke:#000000"
       id="polygon4105"
       points="118,-58.8981 120.45,-51.8982 115.55,-51.8981 115.55,-51.8981 " />
  </g>
  <g
     class="node"
     id="node5"
     transform="translate(0.5,95.5)">
    <title
       id="title4108">[4]</title>
    <ellipse
       style="fill:none;stroke:#000000"
       sodipodi:ry="18"
       sodipodi:rx="18"
       sodipodi:cy="-18"
       sodipodi:cx="168"
       d="m 186,-18 c 0,9.9411255 -8.05887,18 -18,18 -9.94113,0 -18,-8.0588745 -18,-18 0,-9.941125 8.05887,-18 18,-18 9.94113,0 18,8.058875 18,18 z"
       id="ellipse4110"
       ry="18"
       rx="18"
       cy="-18"
       cx="168" />
    <text
       style="font-size:14px;text-anchor:middle;font-family:Tt-Kp"
       id="text4112"
       font-size="14.00"
       y="-14.3"
       x="168">D</text>
  </g>
  <g
     class="edge"
     id="edge4"
     transform="translate(0.5,95.5)">
    <title
       id="title4115">[]-&gt;[4]</title>
    <path
       style="fill:none;stroke:#000000"
       inkscape:connector-curvature="0"
       id="path4117"
       d="m 137.708,-53.5332 c 6.311,7.195 13.094,14.9276 18.638,21.2479" />
    <polygon
       style="fill:#000000;stroke:#000000"
       id="polygon4119"
       points="133.002,-58.8981 139.46,-55.2514 135.776,-52.0201 135.776,-52.0201 " />
  </g>
  <g
     class="node"
     id="node6"
     transform="translate(0.5,95.5)">
    <title
       id="title4122">[5]</title>
    <ellipse
       style="fill:none;stroke:#000000"
       sodipodi:ry="18"
       sodipodi:rx="18"
       sodipodi:cy="-18"
       sodipodi:cx="218"
       d="m 236,-18 c 0,9.9411255 -8.05887,18 -18,18 -9.94113,0 -18,-8.0588745 -18,-18 0,-9.941125 8.05887,-18 18,-18 9.94113,0 18,8.058875 18,18 z"
       id="ellipse4124"
       ry="18"
       rx="18"
       cy="-18"
       cx="218" />
    <text
       style="font-size:14px;text-anchor:middle;font-family:Tt-Kp"
       id="text4126"
       font-size="14.00"
       y="-14.3"
       x="218">E</text>
  </g>
  <g
     class="edge"
     id="edge5"
     transform="translate(0.5,95.5)">
    <title
       id="title4129">[]-&gt;[5]</title>
    <path
       style="fill:none;stroke:#000000"
       inkscape:connector-curvature="0"
       id="path4131"
       d="M 151.394,-59.1692 C 164.537,-52.2923 179.65,-44.0674 193,-36 c 3.504,2.1174 7.193,4.5227 10.63,6.8438" />
    <polygon
       style="fill:#000000;stroke:#000000"
       id="polygon4133"
       points="145.117,-62.4302 152.458,-61.3774 150.199,-57.0291 150.199,-57.0291 " />
  </g>
</svg>
