<?xml version="1.0" encoding="UTF-8" standalone="no"?>
<!-- Created with Inkscape (http://www.inkscape.org/) -->

<svg
   xmlns:dc="http://purl.org/dc/elements/1.1/"
   xmlns:cc="http://creativecommons.org/ns#"
   xmlns:rdf="http://www.w3.org/1999/02/22-rdf-syntax-ns#"
   xmlns:svg="http://www.w3.org/2000/svg"
   xmlns="http://www.w3.org/2000/svg"
   xmlns:sodipodi="http://sodipodi.sourceforge.net/DTD/sodipodi-0.dtd"
   xmlns:inkscape="http://www.inkscape.org/namespaces/inkscape"
   id="svg2"
   version="1.1"
   inkscape:version="0.48.4 r9939"
   width="240.08376"
   height="140.06673"
   xml:space="preserve"
   sodipodi:docname="Replicated_state_machine.pdf"><metadata
     id="metadata8"><rdf:RDF><cc:Work
         rdf:about=""><dc:format>image/svg+xml</dc:format><dc:type
           rdf:resource="http://purl.org/dc/dcmitype/StillImage" /><dc:title></dc:title></cc:Work></rdf:RDF></metadata><defs
     id="defs6"><clipPath
       clipPathUnits="userSpaceOnUse"
       id="clipPath174"><path
         d="m 3367.2,5952 1924,0 0,1128 -1924,0 0,-1128 z"
         id="path176"
         inkscape:connector-curvature="0" /></clipPath></defs><sodipodi:namedview
     pagecolor="#ffffff"
     bordercolor="#666666"
     borderopacity="1"
     objecttolerance="10"
     gridtolerance="10"
     guidetolerance="10"
     inkscape:pageopacity="0"
     inkscape:pageshadow="2"
     inkscape:window-width="846"
     inkscape:window-height="688"
     id="namedview4"
     showgrid="false"
     fit-margin-top="0"
     fit-margin-left="0"
     fit-margin-right="0"
     fit-margin-bottom="0"
     inkscape:zoom="2.6970053"
     inkscape:cx="135.47207"
     inkscape:cy="35.552137"
     inkscape:window-x="0"
     inkscape:window-y="27"
     inkscape:window-maximized="0"
     inkscape:current-layer="g172" /><g
     id="g10"
     inkscape:groupmode="layer"
     inkscape:label="raft"
     transform="matrix(1.25,0,0,-1.25,-420.9,884.57945)"><g
       id="g172"
       clip-path="url(#clipPath174)"
       transform="scale(0.1,0.1)"><path
         d="m 4027.37,6898.96 1207.7,0 c 26.58,0 48,-21.41 48,-48 l 0,-824.97 c 0,-26.6 -21.42,-48 -48,-48 l -1207.7,0 c -26.59,0 -48,21.4 -48,48 l 0,824.97 c 0,26.59 21.41,48 48,48"
         style="fill:#ffffbf;fill-opacity:1;fill-rule:nonzero;stroke:none"
         id="path178"
         inkscape:connector-curvature="0" /><path
         d="m 4027.37,6898.95 1207.7,0 c 26.58,0 48,-21.4 48,-48 l 0,-824.97 c 0,-26.59 -21.42,-48 -48,-48 l -1207.7,0 c -26.59,0 -48,21.41 -48,48 l 0,824.97 c 0,26.6 21.41,48 48,48 z"
         style="fill:none;stroke:#000000;stroke-width:9.60000038;stroke-linecap:butt;stroke-linejoin:miter;stroke-miterlimit:4;stroke-opacity:1;stroke-dasharray:none"
         id="path180"
         inkscape:connector-curvature="0" /><path
         d="m 4001.78,6915.96 1207.68,0 c 26.6,0 48,-21.41 48,-48 l 0,-824.97 c 0,-26.6 -21.4,-48 -48,-48 l -1207.68,0 c -26.6,0 -48,21.4 -48,48 l 0,824.97 c 0,26.59 21.4,48 48,48"
         style="fill:#ffffbf;fill-opacity:1;fill-rule:nonzero;stroke:none"
         id="path182"
         inkscape:connector-curvature="0" /><path
         d="m 4001.78,6915.95 1207.68,0 c 26.6,0 48,-21.4 48,-48 l 0,-824.97 c 0,-26.59 -21.4,-48 -48,-48 l -1207.68,0 c -26.6,0 -48,21.41 -48,48 l 0,824.97 c 0,26.6 21.4,48 48,48 z"
         style="fill:none;stroke:#000000;stroke-width:9.60000038;stroke-linecap:butt;stroke-linejoin:miter;stroke-miterlimit:4;stroke-opacity:1;stroke-dasharray:none"
         id="path184"
         inkscape:connector-curvature="0" /><path
         d="m 3976.18,6932.97 1207.69,0 c 26.59,0 48,-21.41 48,-48 l 0,-824.97 c 0,-26.59 -21.41,-48 -48,-48 l -1207.69,0 c -26.59,0 -48,21.41 -48,48 l 0,824.97 c 0,26.59 21.41,48 48,48"
         style="fill:#ffffbf;fill-opacity:1;fill-rule:nonzero;stroke:none"
         id="path186"
         inkscape:connector-curvature="0" /><path
         d="m 3976.18,6932.97 1207.69,0 c 26.59,0 48,-21.4 48,-48 l 0,-824.97 c 0,-26.59 -21.41,-48 -48,-48 l -1207.69,0 c -26.59,0 -48,21.41 -48,48 l 0,824.97 c 0,26.6 21.41,48 48,48 z"
         style="fill:none;stroke:#000000;stroke-width:9.60000038;stroke-linecap:butt;stroke-linejoin:miter;stroke-miterlimit:4;stroke-opacity:1;stroke-dasharray:none"
         id="path188"
         inkscape:connector-curvature="0" /><path
         d="m 3950.57,6949.99 1207.7,0 c 26.59,0 48,-21.43 48,-48 l 0,-824.99 c 0,-26.57 -21.41,-48 -48,-48 l -1207.7,0 c -26.59,0 -48,21.43 -48,48 l 0,824.99 c 0,26.57 21.41,48 48,48"
         style="fill:#ffffbf;fill-opacity:1;fill-rule:nonzero;stroke:none"
         id="path190"
         inkscape:connector-curvature="0" /><path
         d="m 3950.57,6949.98 1207.7,0 c 26.59,0 48,-21.41 48,-48 l 0,-824.98 c 0,-26.57 -21.41,-48 -48,-48 l -1207.7,0 c -26.59,0 -48,21.43 -48,48 l 0,824.98 c 0,26.59 21.41,48 48,48 z"
         style="fill:none;stroke:#000000;stroke-width:9.60000038;stroke-linecap:butt;stroke-linejoin:miter;stroke-miterlimit:4;stroke-opacity:1;stroke-dasharray:none"
         id="path192"
         inkscape:connector-curvature="0" /><path
         d="m 3924.98,6966.99 1207.69,0 c 26.6,0 48,-21.41 48,-48 l 0,-824.97 c 0,-26.59 -21.4,-48 -48,-48 l -1207.69,0 c -26.59,0 -48,21.41 -48,48 l 0,824.97 c 0,26.59 21.41,48 48,48"
         style="fill:#ffffbf;fill-opacity:1;fill-rule:nonzero;stroke:none"
         id="path194"
         inkscape:connector-curvature="0" /><g
         id="g196"
         transform="scale(1.17204,-0.827965)"><path
           d="m 3348.86,-8414.6 1030.42,0 c 22.69,0 40.95,25.86 40.95,57.98 l 0,996.38 c 0,32.12 -18.26,57.98 -40.95,57.98 l -1030.42,0 c -22.69,0 -40.96,-25.86 -40.96,-57.98 l 0,-996.38 c 0,-32.12 18.27,-57.98 40.96,-57.98 z"
           style="fill:none;stroke:#000000;stroke-width:12.99370003;stroke-linecap:butt;stroke-linejoin:miter;stroke-miterlimit:4;stroke-opacity:1;stroke-dasharray:none"
           id="path198"
           inkscape:connector-curvature="0" /></g><path
         d="m 3964,6896.43 c -0.06,11 -7.56,17.37 -20.5,17.37 -12.25,0 -19.88,-6.31 -19.88,-16.44 0,-6.87 3.63,-11.19 11,-13.06 l 13.88,-3.69 c 7.06,-1.88 10.31,-4.68 10.31,-9.06 0,-3 -1.63,-6.06 -4,-7.75 -2.25,-1.57 -5.75,-2.37 -10.31,-2.37 -6.06,0 -10.19,1.43 -12.88,4.62 -2.06,2.5 -3,5.18 -2.94,8.62 l -6.74,0 c 0.06,-5.12 1.06,-8.5 3.31,-11.56 3.81,-5.25 10.31,-8 18.81,-8 6.69,0 12.12,1.5 15.75,4.32 3.75,2.93 6.13,7.93 6.13,12.8 0,6.88 -4.32,12 -11.88,14.07 l -14.06,3.75 c -6.75,1.81 -9.25,4 -9.25,8.31 0,5.69 5,9.44 12.56,9.44 8.87,0 13.87,-4.07 13.94,-11.37 l 6.75,0 z m 44.92,-21.57 c 0,6.13 -0.44,9.81 -1.56,12.81 -2.63,6.63 -8.75,10.56 -16.32,10.56 -11.18,0 -18.43,-8.56 -18.43,-21.8 0,-13.2 7,-21.32 18.31,-21.32 9.19,0 15.56,5.19 17.19,13.94 l -6.44,0 c -1.81,-5.25 -5.38,-8.06 -10.56,-8.06 -4.07,0 -7.5,1.87 -9.69,5.24 -1.5,2.32 -2.06,4.63 -2.13,8.63 l 29.63,0 z m -29.44,5.19 c 0.5,7.44 5.06,12.31 11.5,12.31 6.31,0 11.13,-5.25 11.13,-11.81 0,-0.19 0,-0.32 -0.07,-0.5 l -22.56,0 z m 38.13,17.06 0,-40.25 6.43,0 0,20.87 c 0,5.76 1.44,9.57 4.57,11.76 2,1.5 3.87,1.94 8.37,2 l 0,6.56 c -1.12,0.12 -1.62,0.18 -2.5,0.18 -4.12,0 -7.31,-2.43 -11,-8.43 l 0,7.31 -5.87,0 z m 42.21,-40.25 15.45,40.25 -7.2,0 -11.37,-32.62 -10.75,32.62 -7.25,0 14.12,-40.25 7,0 z m 55.89,18 c 0,6.13 -0.43,9.81 -1.56,12.81 -2.62,6.63 -8.75,10.56 -16.31,10.56 -11.19,0 -18.44,-8.56 -18.44,-21.8 0,-13.2 7,-21.32 18.31,-21.32 9.19,0 15.57,5.19 17.19,13.94 l -6.44,0 c -1.81,-5.25 -5.37,-8.06 -10.56,-8.06 -4.06,0 -7.5,1.87 -9.69,5.24 -1.5,2.32 -2.06,4.63 -2.12,8.63 l 29.62,0 z m -29.43,5.19 c 0.5,7.44 5.06,12.31 11.5,12.31 6.31,0 11.12,-5.25 11.12,-11.81 0,-0.19 0,-0.32 -0.06,-0.5 l -22.56,0 z m 38.12,17.06 0,-40.25 6.44,0 0,20.87 c 0,5.76 1.44,9.57 4.56,11.76 2,1.5 3.88,1.94 8.38,2 l 0,6.56 c -1.13,0.12 -1.63,0.18 -2.5,0.18 -4.13,0 -7.32,-2.43 -11,-8.43 l 0,7.31"
         style="fill:#000000;fill-opacity:1;fill-rule:nonzero;stroke:none"
         id="path200"
         inkscape:connector-curvature="0" /><path
         d="m 3999.03,6373.79 731.7,0 c 26.59,0 48,-21.41 48,-48 l 0,-158.38 c 0,-26.59 -21.41,-48 -48,-48 l -731.7,0 c -26.59,0 -48,21.41 -48,48 l 0,158.38 c 0,26.59 21.41,48 48,48"
         style="fill:#abdda4;fill-opacity:1;fill-rule:nonzero;stroke:none"
         id="path202"
         inkscape:connector-curvature="0" /><path
         d="m 3999.03,6373.78 731.7,0 c 26.59,0 48,-21.4 48,-48 l 0,-158.37 c 0,-26.6 -21.41,-48 -48,-48 l -731.7,0 c -26.59,0 -48,21.4 -48,48 l 0,158.37 c 0,26.6 21.41,48 48,48 z"
         style="fill:none;stroke:#000000;stroke-width:12.80000019;stroke-linecap:butt;stroke-linejoin:miter;stroke-miterlimit:4;stroke-opacity:1;stroke-dasharray:none"
         id="path204"
         inkscape:connector-curvature="0" /><path
         d="m 3994.18,6342.53 -7.18,0 0,-56 34.81,0 0,6.31 -27.63,0 0,49.69 z m 50.32,-14.62 c -11.25,0 -18.13,-8.07 -18.13,-21.57 0,-13.5 6.75,-21.55 18.25,-21.55 11.25,0 18.19,8.05 18.19,21.24 0,13.94 -6.69,21.88 -18.31,21.88 z m 0.12,-5.88 c 7.19,0 11.5,-5.93 11.5,-15.93 0,-9.44 -4.44,-15.44 -11.5,-15.44 -7.18,0 -11.56,5.94 -11.56,15.68 0,9.69 4.38,15.69 11.56,15.69 z m 53.38,4.76 0,-5.82 c -3.19,4.75 -7.13,6.94 -12.25,6.94 -10.25,0 -17.13,-8.88 -17.13,-21.94 0,-6.63 1.75,-12 5.06,-15.81 3,-3.37 7.32,-5.37 11.5,-5.37 5.07,0 8.63,2.12 12.26,7.18 l 0,-2.06 c 0,-5.44 -0.76,-8.75 -2.32,-11 -1.68,-2.38 -5,-3.75 -8.94,-3.75 -2.93,0 -5.5,0.75 -7.31,2.18 -1.43,1.13 -2.06,2.19 -2.43,4.57 l -6.5,0 c 0.68,-7.57 6.56,-12.12 16,-12.12 6,0 11.18,1.93 13.74,5.12 3.13,3.69 4.26,8.81 4.26,18.25 l 0,33.63 -5.94,0 z m -11.56,-4.76 c 6.87,0 11,-5.87 11,-15.93 0,-9.57 -4.19,-15.44 -10.94,-15.44 -7,0 -11.19,5.94 -11.19,15.68 0,9.69 4.25,15.69 11.13,15.69"
         style="fill:#000000;fill-opacity:1;fill-rule:nonzero;stroke:none"
         id="path206"
         inkscape:connector-curvature="0" /><path
         d="m 4897.12,6128.96 c 0,-16.19 -31.37,-29.32 -70.08,-29.32 -38.7,0 -70.09,13.13 -70.09,29.32 0,16.18 31.39,29.29 70.09,29.29 38.71,0 70.08,-13.11 70.08,-29.29"
         style="fill:#b6883c;fill-opacity:1;fill-rule:nonzero;stroke:none"
         id="path208"
         inkscape:connector-curvature="0" /><g
         id="g210"
         transform="scale(0.694017,-1.30598)"><path
           d="m 7056.2,-4692.98 c 0,12.4 -45.21,22.45 -100.97,22.45 -55.77,0 -101,-10.05 -101,-22.45 0,-12.39 45.23,-22.44 101,-22.44 55.76,0 100.97,10.05 100.97,22.44 z"
           style="fill:none;stroke:#705c2c;stroke-width:5.17117977;stroke-linecap:butt;stroke-linejoin:miter;stroke-miterlimit:4;stroke-opacity:1;stroke-dasharray:none"
           id="path212"
           inkscape:connector-curvature="0" /></g><path
         d="m 4897.12,6166.08 c 0,-16.17 -31.37,-29.29 -70.08,-29.29 -38.7,0 -70.09,13.12 -70.09,29.29 0,16.19 31.39,29.31 70.09,29.31 38.71,0 70.08,-13.12 70.08,-29.31"
         style="fill:#b6883c;fill-opacity:1;fill-rule:nonzero;stroke:none"
         id="path214"
         inkscape:connector-curvature="0" /><g
         id="g216"
         transform="scale(0.694017,-1.30598)"><path
           d="m 7056.2,-4721.41 c 0,12.38 -45.21,22.44 -100.97,22.44 -55.77,0 -101,-10.06 -101,-22.44 0,-12.39 45.23,-22.44 101,-22.44 55.76,0 100.97,10.05 100.97,22.44 z"
           style="fill:none;stroke:#705c2c;stroke-width:5.17117977;stroke-linecap:butt;stroke-linejoin:miter;stroke-miterlimit:4;stroke-opacity:1;stroke-dasharray:none"
           id="path218"
           inkscape:connector-curvature="0" /></g><path
         d="m 4897.51,6203.22 c 0,-16.19 -31.39,-29.31 -70.09,-29.31 -38.71,0 -70.08,13.12 -70.08,29.31 0,16.19 31.37,29.31 70.08,29.31 38.7,0 70.09,-13.12 70.09,-29.31"
         style="fill:#b6883c;fill-opacity:1;fill-rule:nonzero;stroke:none"
         id="path220"
         inkscape:connector-curvature="0" /><g
         id="g222"
         transform="scale(0.694017,-1.30598)"><path
           d="m 7056.76,-4749.85 c 0,12.4 -45.23,22.45 -100.99,22.45 -55.77,0 -100.98,-10.05 -100.98,-22.45 0,-12.39 45.21,-22.44 100.98,-22.44 55.76,0 100.99,10.05 100.99,22.44 z"
           style="fill:none;stroke:#705c2c;stroke-width:5.16953993;stroke-linecap:butt;stroke-linejoin:miter;stroke-miterlimit:4;stroke-opacity:1;stroke-dasharray:none"
           id="path224"
           inkscape:connector-curvature="0" /></g><path
         d="m 4548.01,6920.82 547.58,0 c 26.58,0 48,-21.41 48,-48 l 0,-350.72 c 0,-26.6 -21.42,-48 -48,-48 l -547.58,0 c -26.59,0 -48,21.4 -48,48 l 0,350.72 c 0,26.59 21.41,48 48,48"
         style="fill:#abdda4;fill-opacity:1;fill-rule:nonzero;stroke:none"
         id="path226"
         inkscape:connector-curvature="0" /><path
         d="m 4548.01,6920.81 547.58,0 c 26.58,0 48,-21.4 48,-48 l 0,-350.72 c 0,-26.59 -21.42,-48 -48,-48 l -547.58,0 c -26.59,0 -48,21.41 -48,48 l 0,350.72 c 0,26.6 21.41,48 48,48 z"
         style="fill:none;stroke:#000000;stroke-width:12.80000019;stroke-linecap:butt;stroke-linejoin:miter;stroke-miterlimit:4;stroke-opacity:1;stroke-dasharray:none"
         id="path228"
         inkscape:connector-curvature="0" /><path
         d="m 4569.2,6879.52 c -0.06,11 -7.56,17.37 -20.5,17.37 -12.25,0 -19.88,-6.31 -19.88,-16.43 0,-6.88 3.63,-11.19 11,-13.07 l 13.88,-3.69 c 7.07,-1.87 10.31,-4.68 10.31,-9.06 0,-3 -1.62,-6.06 -4,-7.75 -2.24,-1.56 -5.74,-2.37 -10.31,-2.37 -6.06,0 -10.19,1.44 -12.88,4.62 -2.05,2.5 -3,5.19 -2.93,8.63 l -6.75,0 c 0.06,-5.13 1.06,-8.5 3.31,-11.57 3.82,-5.24 10.32,-8 18.82,-8 6.68,0 12.12,1.5 15.74,4.32 3.76,2.94 6.13,7.94 6.13,12.81 0,6.87 -4.32,12 -11.87,14.06 l -14.07,3.75 c -6.75,1.82 -9.25,4 -9.25,8.32 0,5.68 5,9.43 12.56,9.43 8.88,0 13.88,-4.06 13.94,-11.37 l 6.75,0 z m 25.07,0.68 -6.63,0 0,11.07 -6.37,0 0,-11.07 -5.45,0 0,-5.24 5.45,0 0,-30.38 c 0,-4.06 2.8,-6.38 7.8,-6.38 1.5,0 3.07,0.13 5.2,0.5 l 0,5.38 c -0.82,-0.19 -1.82,-0.31 -3.07,-0.31 -2.75,0 -3.56,0.81 -3.56,3.62 l 0,27.57 6.63,0 0,5.24 z m 42.91,-36.5 c -0.74,-0.12 -1,-0.12 -1.43,-0.12 -2.19,0 -3.44,1.12 -3.44,3.12 l 0,23.69 c 0,7.13 -5.19,10.94 -15.13,10.94 -5.81,0 -10.68,-1.69 -13.37,-4.69 -1.81,-2.06 -2.63,-4.37 -2.75,-8.31 l 6.44,0 c 0.56,4.87 3.44,7.13 9.44,7.13 5.74,0 9,-2.19 9,-6 l 0,-1.69 c 0,-2.69 -1.63,-3.88 -6.69,-4.44 -9.07,-1.19 -10.44,-1.5 -12.88,-2.5 -4.69,-1.87 -7.06,-5.5 -7.06,-10.75 0,-7.31 5.06,-11.88 13.19,-11.88 5.06,0 9.12,1.76 13.68,5.88 0.44,-4.06 2.44,-5.88 6.57,-5.88 1.31,0 2.31,0.13 4.43,0.69 l 0,4.81 z m -11.24,8.94 c 0,-2.18 -0.63,-3.5 -2.5,-5.25 -2.63,-2.37 -5.82,-3.62 -9.57,-3.62 -5,0 -7.87,2.43 -7.87,6.5 0,4.19 2.81,6.37 9.62,7.37 6.82,0.88 8.19,1.19 10.32,2.19 l 0,-7.19 z m 32.37,27.56 -6.63,0 0,11.07 -6.37,0 0,-11.07 -5.44,0 0,-5.24 5.44,0 0,-30.38 c 0,-4.06 2.81,-6.38 7.81,-6.38 1.5,0 3.06,0.13 5.19,0.5 l 0,5.38 c -0.81,-0.19 -1.81,-0.31 -3.06,-0.31 -2.75,0 -3.57,0.81 -3.57,3.62 l 0,27.57 6.63,0 0,5.24 z m 41.17,-22.24 c 0,6.12 -0.44,9.81 -1.56,12.81 -2.63,6.62 -8.75,10.56 -16.31,10.56 -11.19,0 -18.44,-8.56 -18.44,-21.81 0,-13.19 7,-21.32 18.31,-21.32 9.19,0 15.56,5.19 17.19,13.94 l -6.44,0 c -1.81,-5.25 -5.37,-8.06 -10.56,-8.06 -4.06,0 -7.5,1.88 -9.69,5.25 -1.5,2.31 -2.06,4.63 -2.12,8.63 l 29.62,0 z m -29.44,5.18 c 0.5,7.44 5.07,12.32 11.5,12.32 6.32,0 11.13,-5.26 11.13,-11.82 0,-0.18 0,-0.31 -0.06,-0.5 l -22.57,0 z m 90.05,-23.18 15.75,46.93 0,-46.93 6.75,0 0,56 -9.88,0 -16.31,-48.76 -16.56,48.76 -9.94,0 0,-56 6.75,0 0,46.93 15.94,-46.93 7.5,0 z m 69.23,3.74 c -0.75,-0.12 -1,-0.12 -1.43,-0.12 -2.19,0 -3.44,1.12 -3.44,3.12 l 0,23.69 c 0,7.13 -5.18,10.94 -15.13,10.94 -5.81,0 -10.68,-1.69 -13.37,-4.69 -1.81,-2.06 -2.63,-4.37 -2.75,-8.31 l 6.44,0 c 0.56,4.87 3.43,7.13 9.43,7.13 5.75,0 9,-2.19 9,-6 l 0,-1.69 c 0,-2.69 -1.62,-3.88 -6.68,-4.44 -9.07,-1.19 -10.44,-1.5 -12.88,-2.5 -4.69,-1.87 -7.06,-5.5 -7.06,-10.75 0,-7.31 5.06,-11.88 13.19,-11.88 5.06,0 9.13,1.76 13.68,5.88 0.45,-4.06 2.45,-5.88 6.57,-5.88 1.31,0 2.31,0.13 4.43,0.69 l 0,4.81 z m -11.25,8.94 c 0,-2.18 -0.62,-3.5 -2.5,-5.25 -2.62,-2.37 -5.8,-3.62 -9.56,-3.62 -5,0 -7.87,2.43 -7.87,6.5 0,4.19 2.81,6.37 9.63,7.37 6.8,0.88 8.18,1.19 10.3,2.19 l 0,-7.19 z m 49.07,14.06 c -0.32,3.88 -1.19,6.44 -2.69,8.69 -2.75,3.75 -7.63,5.94 -13.25,5.94 -10.81,0 -17.88,-8.56 -17.88,-21.94 0,-13 6.95,-21.19 17.82,-21.19 9.63,0 15.68,5.76 16.43,15.57 l -6.43,0 c -1.07,-6.44 -4.37,-9.69 -9.82,-9.69 -7.05,0 -11.31,5.81 -11.31,15.31 0,10.07 4.13,16.07 11.13,16.07 5.37,0 8.75,-3.19 9.56,-8.76 l 6.44,0 z m 7.59,29.26 0,-56 6.38,0 0,22.18 c 0,8.25 4.31,13.63 10.93,13.63 2.07,0 4.13,-0.69 5.69,-1.88 1.81,-1.31 2.56,-3.19 2.56,-6.06 l 0,-27.87 6.38,0 0,30.43 c 0,6.75 -4.81,10.94 -12.63,10.94 -5.68,0 -9.18,-1.75 -12.93,-6.63 l 0,21.26 -6.38,0 z m 48.88,-15.76 -6.38,0 0,-40.24 6.38,0 0,40.24 z m 0,15.76 -6.44,0 0,-8.07 6.44,0 0,8.07 z m 10.96,-15.76 0,-40.24 6.44,0 0,22.18 c 0,8.25 4.31,13.63 10.94,13.63 5.06,0 8.32,-3.07 8.32,-7.94 l 0,-27.87 6.37,0 0,30.43 c 0,6.69 -5,10.94 -12.75,10.94 -6,0 -9.88,-2.25 -13.38,-7.87 l 0,6.74 -5.94,0 z m 76.75,-22.24 c 0,6.12 -0.43,9.81 -1.55,12.81 -2.63,6.62 -8.76,10.56 -16.32,10.56 -11.18,0 -18.44,-8.56 -18.44,-21.81 0,-13.19 7,-21.32 18.31,-21.32 9.19,0 15.57,5.19 17.19,13.94 l -6.44,0 c -1.8,-5.25 -5.37,-8.06 -10.56,-8.06 -4.06,0 -7.5,1.88 -9.69,5.25 -1.5,2.31 -2.05,4.63 -2.12,8.63 l 29.62,0 z m -29.43,5.18 c 0.5,7.44 5.06,12.32 11.5,12.32 6.31,0 11.12,-5.26 11.12,-11.82 0,-0.18 0,-0.31 -0.06,-0.5"
         style="fill:#000000;fill-opacity:1;fill-rule:nonzero;stroke:none"
         id="path230"
         inkscape:connector-curvature="0" /><path
         d="m 4092.75,6577.31 c -30.14,-59.14 1.78,-131.74 23.28,-162.01"
         style="fill:none;stroke:#000000;stroke-width:9.60000038;stroke-linecap:round;stroke-linejoin:miter;stroke-miterlimit:4;stroke-opacity:1;stroke-dasharray:none"
         id="path232"
         inkscape:connector-curvature="0" /><path
         d="m 4128.86,6397.23 -34.9,15.96 31.31,22.25"
         style="fill:#000000;fill-opacity:1;fill-rule:evenodd;stroke:none"
         id="path234"
         inkscape:connector-curvature="0" /><path
         d="m 4128.86,6397.23 -34.9,15.96 31.31,22.25 3.59,-38.21 z"
         style="fill:none;stroke:#000000;stroke-width:4.80000019;stroke-linecap:butt;stroke-linejoin:miter;stroke-miterlimit:4;stroke-opacity:1;stroke-dasharray:none"
         id="path236"
         inkscape:connector-curvature="0" /><path
         d="m 3990.45,6809.22 371.08,0 c 26.59,0 48,-21.4 48,-48 l 0,-151.59 c 0,-26.58 -21.41,-48 -48,-48 l -371.08,0 c -26.58,0 -48,21.42 -48,48 l 0,151.59 c 0,26.6 21.42,48 48,48"
         style="fill:#abdda4;fill-opacity:1;fill-rule:nonzero;stroke:none"
         id="path238"
         inkscape:connector-curvature="0" /><path
         d="m 3990.45,6809.22 371.08,0 c 26.59,0 48,-21.41 48,-48 l 0,-151.6 c 0,-26.57 -21.41,-48 -48,-48 l -371.08,0 c -26.58,0 -48,21.43 -48,48 l 0,151.6 c 0,26.59 21.42,48 48,48 z"
         style="fill:none;stroke:#000000;stroke-width:12.80000019;stroke-linecap:butt;stroke-linejoin:miter;stroke-miterlimit:4;stroke-opacity:1;stroke-dasharray:none"
         id="path240"
         inkscape:connector-curvature="0" /><path
         d="m 4016.78,6760.6 c -2.25,12.31 -9.32,18.31 -21.63,18.31 -7.5,0 -13.56,-2.38 -17.75,-7 -5.06,-5.57 -7.81,-13.5 -7.81,-22.57 0,-9.24 2.81,-17.18 8.12,-22.62 4.32,-4.43 9.88,-6.5 17.13,-6.5 13.69,0 21.37,7.38 23.06,22.19 l -7.37,0 c -0.63,-3.88 -1.38,-6.44 -2.57,-8.69 -2.25,-4.62 -7.06,-7.19 -13,-7.19 -11.18,0 -18.25,8.88 -18.25,22.88 0,14.38 6.75,23.19 17.63,23.19 4.5,0 8.75,-1.38 11.06,-3.57 2.06,-1.87 3.19,-4.24 4.06,-8.43 l 7.32,0 z m 25.5,2.74 c -11.25,0 -18.13,-8.05 -18.13,-21.55 0,-13.5 6.75,-21.57 18.25,-21.57 11.25,0 18.19,8.07 18.19,21.25 0,13.94 -6.69,21.87 -18.31,21.87 z m 0.12,-5.87 c 7.19,0 11.5,-5.94 11.5,-15.94 0,-9.43 -4.44,-15.43 -11.5,-15.43 -7.19,0 -11.56,5.93 -11.56,15.69 0,9.68 4.37,15.68 11.56,15.68 z m 27.13,4.75 0,-40.25 6.43,0 0,22.19 c 0,8.25 4.32,13.63 10.94,13.63 5.06,0 8.31,-3.07 8.31,-7.95 l 0,-27.87 6.38,0 0,30.44 c 0,6.69 -5,10.93 -12.75,10.93 -6,0 -9.88,-2.24 -13.38,-7.87 l 0,6.75 -5.93,0 z m 71,-11.19 c -0.07,7.88 -5.25,12.31 -14.57,12.31 -9.37,0 -15.43,-4.81 -15.43,-12.24 0,-6.31 3.18,-9.31 12.75,-11.63 l 6,-1.44 c 4.43,-1.06 6.18,-2.69 6.18,-5.62 0,-3.75 -3.75,-6.31 -9.37,-6.31 -3.44,0 -6.38,1 -8,2.69 -1,1.18 -1.44,2.31 -1.81,5.18 l -6.75,0 c 0.31,-9.31 5.5,-13.75 16.06,-13.75 10.12,0 16.56,5 16.56,12.75 0,6 -3.37,9.25 -11.37,11.19 l -6.13,1.5 c -5.25,1.18 -7.44,2.87 -7.44,5.75 0,3.69 3.32,6.06 8.5,6.06 5.13,0 7.94,-2.25 8.07,-6.44 l 6.75,0 z m 44.14,-11.06 c 0,6.13 -0.44,9.82 -1.56,12.82 -2.63,6.62 -8.75,10.55 -16.32,10.55 -11.18,0 -18.43,-8.55 -18.43,-21.81 0,-13.19 7,-21.31 18.31,-21.31 9.19,0 15.56,5.19 17.19,13.94 l -6.44,0 c -1.81,-5.25 -5.38,-8.06 -10.56,-8.06 -4.07,0 -7.5,1.87 -9.69,5.24 -1.5,2.32 -2.06,4.63 -2.13,8.63 l 29.63,0 z m -29.44,5.19 c 0.5,7.44 5.06,12.31 11.5,12.31 6.31,0 11.13,-5.25 11.13,-11.81 0,-0.19 0,-0.32 -0.07,-0.5 l -22.56,0 z m 38.19,17.06 0,-40.25 6.44,0 0,22.19 c 0,8.25 4.31,13.63 10.93,13.63 5.07,0 8.32,-3.07 8.32,-7.95 l 0,-27.87 6.37,0 0,30.44 c 0,6.69 -5,10.93 -12.75,10.93 -6,0 -9.87,-2.24 -13.37,-7.87 l 0,6.75 -5.94,0 z m 71,-11.19 c -0.06,7.88 -5.25,12.31 -14.56,12.31 -9.38,0 -15.44,-4.81 -15.44,-12.24 0,-6.31 3.19,-9.31 12.75,-11.63 l 6,-1.44 c 4.44,-1.06 6.19,-2.69 6.19,-5.62 0,-3.75 -3.75,-6.31 -9.38,-6.31 -3.44,0 -6.37,1 -8,2.69 -1,1.18 -1.44,2.31 -1.81,5.18 l -6.75,0 c 0.31,-9.31 5.5,-13.75 16.06,-13.75 10.13,0 16.56,5 16.56,12.75 0,6 -3.37,9.25 -11.37,11.19 l -6.13,1.5 c -5.25,1.18 -7.43,2.87 -7.43,5.75 0,3.69 3.31,6.06 8.5,6.06 5.12,0 7.93,-2.25 8.06,-6.44 l 6.75,0 z m 41.78,-29.06 0,40.25 -6.38,0 0,-22.81 c 0,-8.25 -4.25,-13.62 -10.93,-13.62 -5.07,0 -8.32,3.12 -8.32,7.93 l 0,28.5 -6.37,0 0,-31.06 c 0,-6.63 5,-10.94 12.81,-10.94 5.94,0 9.69,2.07 13.44,7.38 l 0,-5.63 5.75,0 z m 39.37,29.06 c -0.06,7.88 -5.25,12.31 -14.56,12.31 -9.37,0 -15.44,-4.81 -15.44,-12.24 0,-6.31 3.2,-9.31 12.75,-11.63 l 6,-1.44 c 4.45,-1.06 6.19,-2.69 6.19,-5.62 0,-3.75 -3.74,-6.31 -9.37,-6.31 -3.44,0 -6.37,1 -8,2.69 -1,1.18 -1.44,2.31 -1.82,5.18 l -6.75,0 c 0.32,-9.31 5.5,-13.75 16.07,-13.75 10.13,0 16.56,5 16.56,12.75 0,6 -3.38,9.25 -11.38,11.19 l -6.12,1.5 c -5.25,1.18 -7.43,2.87 -7.43,5.75 0,3.69 3.3,6.06 8.5,6.06 5.12,0 7.93,-2.25 8.05,-6.44"
         style="fill:#000000;fill-opacity:1;fill-rule:nonzero;stroke:none"
         id="path242"
         inkscape:connector-curvature="0" /><path
         d="m 4001.84,6625.97 15.75,46.94 0,-46.94 6.75,0 0,56 -9.88,0 -16.31,-48.75 -16.56,48.75 -9.94,0 0,-56 6.75,0 0,46.94 15.94,-46.94 7.5,0 z m 48.98,41.37 c -11.25,0 -18.12,-8.05 -18.12,-21.55 0,-13.5 6.75,-21.57 18.25,-21.57 11.25,0 18.19,8.07 18.19,21.25 0,13.94 -6.69,21.87 -18.32,21.87 z m 0.13,-5.87 c 7.19,0 11.5,-5.94 11.5,-15.94 0,-9.43 -4.44,-15.43 -11.5,-15.43 -7.18,0 -11.56,5.93 -11.56,15.69 0,9.68 4.38,15.68 11.56,15.68 z m 59.75,20.5 -6.38,0 0,-20.81 c -2.68,4.06 -6.93,6.18 -12.37,6.18 -10.44,0 -17.25,-8.37 -17.25,-21.18 0,-13.56 6.69,-21.94 17.5,-21.94 5.57,0 9.37,2.07 12.81,7.07 l 0,-5.32 5.69,0 0,56 z m -17.63,-20.56 c 6.88,0 11.25,-6.19 11.25,-15.75 0,-9.32 -4.43,-15.44 -11.18,-15.44 -7.07,0 -11.75,6.19 -11.75,15.57 0,9.37 4.68,15.62 11.68,15.62 z m 59.38,-35.44 0,40.25 -6.38,0 0,-22.81 c 0,-8.25 -4.25,-13.62 -10.93,-13.62 -5.07,0 -8.32,3.12 -8.32,7.93 l 0,28.5 -6.37,0 0,-31.06 c 0,-6.63 5,-10.94 12.82,-10.94 5.93,0 9.68,2.07 13.43,7.38 l 0,-5.63 5.75,0 z m 17.44,56 -6.44,0 0,-56 6.44,0 0,56 z m 44.78,-38 c 0,6.13 -0.44,9.82 -1.56,12.82 -2.63,6.62 -8.75,10.55 -16.32,10.55 -11.18,0 -18.43,-8.55 -18.43,-21.81 0,-13.19 7,-21.31 18.31,-21.31 9.19,0 15.56,5.19 17.19,13.94 l -6.44,0 c -1.81,-5.25 -5.38,-8.06 -10.56,-8.06 -4.07,0 -7.5,1.87 -9.69,5.24 -1.5,2.32 -2.06,4.63 -2.13,8.63 l 29.63,0 z m -29.44,5.19 c 0.5,7.44 5.06,12.31 11.5,12.31 6.31,0 11.13,-5.25 11.13,-11.81 0,-0.19 0,-0.32 -0.07,-0.5"
         style="fill:#000000;fill-opacity:1;fill-rule:nonzero;stroke:none"
         id="path244"
         inkscape:connector-curvature="0" /><path
         d="m 3515.04,6788.16 c 152.97,207.15 309.14,99.86 408.32,29.45"
         style="fill:none;stroke:#000000;stroke-width:9.60000038;stroke-linecap:round;stroke-linejoin:miter;stroke-miterlimit:4;stroke-opacity:1;stroke-dasharray:none"
         id="path246"
         inkscape:connector-curvature="0" /><path
         d="m 3941.44,6804.79 -38.21,3.57 22.23,31.31"
         style="fill:#000000;fill-opacity:1;fill-rule:evenodd;stroke:none"
         id="path248"
         inkscape:connector-curvature="0" /><path
         d="m 3941.43,6804.78 -38.2,3.58 22.23,31.31 15.97,-34.89 z"
         style="fill:none;stroke:#000000;stroke-width:4.80000019;stroke-linecap:butt;stroke-linejoin:miter;stroke-miterlimit:4;stroke-opacity:1;stroke-dasharray:none"
         id="path250"
         inkscape:connector-curvature="0" /><path
         d="m 3443.4,6766.47 252.94,0 c 14.37,0 25.95,-8.28 25.95,-18.56 l 0,-162.94 c 0,-10.28 -11.58,-18.58 -25.95,-18.58 l -252.94,0 c -14.37,0 -25.96,8.3 -25.96,18.58 l 0,162.94 c 0,10.28 11.59,18.56 25.96,18.56"
         style="fill:#ffffbf;fill-opacity:1;fill-rule:nonzero;stroke:none"
         id="path252"
         inkscape:connector-curvature="0" /><path
         d="m 3443.4,6766.47 252.94,0 c 14.37,0 25.95,-8.28 25.95,-18.56 l 0,-162.94 c 0,-10.28 -11.58,-18.58 -25.95,-18.58 l -252.94,0 c -14.37,0 -25.96,8.3 -25.96,18.58 l 0,162.94 c 0,10.28 11.59,18.56 25.96,18.56 z"
         style="fill:none;stroke:#000000;stroke-width:10.88000011;stroke-linecap:butt;stroke-linejoin:miter;stroke-miterlimit:4;stroke-opacity:1;stroke-dasharray:none"
         id="path254"
         inkscape:connector-curvature="0" /><path
         d="m 3424.2,6785.67 252.94,0 c 14.39,0 25.97,-8.28 25.97,-18.57 l 0,-162.93 c 0,-10.29 -11.58,-18.57 -25.97,-18.57 l -252.94,0 c -14.38,0 -25.95,8.28 -25.95,18.57 l 0,162.93 c 0,10.29 11.57,18.57 25.95,18.57"
         style="fill:#ffffbf;fill-opacity:1;fill-rule:nonzero;stroke:none"
         id="path256"
         inkscape:connector-curvature="0" /><path
         d="m 3424.2,6785.67 252.94,0 c 14.39,0 25.97,-8.28 25.97,-18.58 l 0,-162.92 c 0,-10.29 -11.58,-18.58 -25.97,-18.58 l -252.94,0 c -14.38,0 -25.95,8.29 -25.95,18.58 l 0,162.92 c 0,10.3 11.57,18.58 25.95,18.58 z"
         style="fill:none;stroke:#000000;stroke-width:10.88000011;stroke-linecap:butt;stroke-linejoin:miter;stroke-miterlimit:4;stroke-opacity:1;stroke-dasharray:none"
         id="path258"
         inkscape:connector-curvature="0" /><path
         d="m 3398.61,6804.88 252.93,0 c 14.38,0 25.96,-8.28 25.96,-18.58 l 0,-162.92 c 0,-10.3 -11.58,-18.58 -25.96,-18.58 l -252.93,0 c -14.4,0 -25.97,8.28 -25.97,18.58 l 0,162.92 c 0,10.3 11.57,18.58 25.97,18.58"
         style="fill:#ffffbf;fill-opacity:1;fill-rule:nonzero;stroke:none"
         id="path260"
         inkscape:connector-curvature="0" /><path
         d="m 3398.61,6804.88 252.93,0 c 14.38,0 25.96,-8.29 25.96,-18.58 l 0,-162.92 c 0,-10.3 -11.58,-18.58 -25.96,-18.58 l -252.93,0 c -14.4,0 -25.97,8.28 -25.97,18.58 l 0,162.92 c 0,10.29 11.57,18.58 25.97,18.58 z"
         style="fill:none;stroke:#000000;stroke-width:10.88000011;stroke-linecap:butt;stroke-linejoin:miter;stroke-miterlimit:4;stroke-opacity:1;stroke-dasharray:none"
         id="path262"
         inkscape:connector-curvature="0" /><path
         d="m 3462,6743.08 c -2.25,12.31 -9.32,18.31 -21.63,18.31 -7.5,0 -13.56,-2.37 -17.75,-7 -5.06,-5.56 -7.81,-13.5 -7.81,-22.56 0,-9.25 2.81,-17.19 8.13,-22.63 4.31,-4.43 9.87,-6.5 17.12,-6.5 13.69,0 21.38,7.38 23.06,22.19 l -7.37,0 c -0.63,-3.87 -1.38,-6.43 -2.57,-8.69 -2.24,-4.62 -7.06,-7.18 -13,-7.18 -11.18,0 -18.24,8.87 -18.24,22.87 0,14.38 6.74,23.19 17.62,23.19 4.5,0 8.75,-1.38 11.06,-3.56 2.06,-1.88 3.19,-4.25 4.06,-8.44 l 7.32,0 z m 16.31,17.38 -6.44,0 0,-56 6.44,0 0,56 z m 16.9,-15.76 -6.37,0 0,-40.24 6.37,0 0,40.24 z m 0,15.76 -6.43,0 0,-8.07 6.43,0 0,8.07 z m 44.99,-38 c 0,6.12 -0.43,9.81 -1.56,12.81 -2.63,6.62 -8.75,10.56 -16.32,10.56 -11.18,0 -18.43,-8.56 -18.43,-21.81 0,-13.19 7,-21.32 18.31,-21.32 9.19,0 15.57,5.19 17.19,13.94 l -6.44,0 c -1.81,-5.25 -5.38,-8.06 -10.56,-8.06 -4.07,0 -7.5,1.88 -9.69,5.25 -1.5,2.31 -2.06,4.63 -2.13,8.63 l 29.63,0 z m -29.43,5.18 c 0.5,7.44 5.05,12.32 11.5,12.32 6.3,0 11.12,-5.26 11.12,-11.82 0,-0.18 0,-0.31 -0.07,-0.5 l -22.55,0 z m 38.18,17.06 0,-40.24 6.44,0 0,22.18 c 0,8.25 4.31,13.63 10.93,13.63 5.07,0 8.32,-3.07 8.32,-7.94 l 0,-27.87 6.37,0 0,30.43 c 0,6.69 -5,10.94 -12.74,10.94 -6,0 -9.88,-2.25 -13.38,-7.87 l 0,6.74 -5.94,0 z m 56.87,0 -6.62,0 0,11.07 -6.38,0 0,-11.07 -5.43,0 0,-5.24 5.43,0 0,-30.38 c 0,-4.06 2.82,-6.38 7.82,-6.38 1.5,0 3.06,0.13 5.18,0.5 l 0,5.38 c -0.81,-0.19 -1.81,-0.31 -3.05,-0.31 -2.76,0 -3.57,0.81 -3.57,3.62 l 0,27.57 6.62,0"
         style="fill:#000000;fill-opacity:1;fill-rule:nonzero;stroke:none"
         id="path264"
         inkscape:connector-curvature="0" /><path
         d="M 3938.62,6693.21 C 3786.53,6628.38 3592.5,6410.52 3706.03,6140.36"
         style="fill:none;stroke:#000000;stroke-width:9.60000038;stroke-linecap:round;stroke-linejoin:miter;stroke-miterlimit:4;stroke-opacity:1;stroke-dasharray:none"
         id="path266"
         inkscape:connector-curvature="0" /><path
         d="m 3709.07,6135.25 c 71.87,-93.5 145.14,-149.39 212.41,-126.23"
         style="fill:none;stroke:#000000;stroke-width:9.60000038;stroke-linecap:round;stroke-linejoin:miter;stroke-miterlimit:4;stroke-opacity:1;stroke-dasharray:none"
         id="path268"
         inkscape:connector-curvature="0" /><path
         d="m 3931.96,6012.63 -12.57,-14.49 -6.25,18.15"
         style="fill:#000000;fill-opacity:1;fill-rule:evenodd;stroke:none"
         id="path270"
         inkscape:connector-curvature="0" /><path
         d="m 3931.97,6012.62 -12.58,-14.48 -6.25,18.14 18.83,-3.66 z"
         style="fill:none;stroke:#000000;stroke-width:2.4000001;stroke-linecap:butt;stroke-linejoin:miter;stroke-miterlimit:4;stroke-opacity:1;stroke-dasharray:none"
         id="path272"
         inkscape:connector-curvature="0" /><path
         d="m 3709.07,6135.38 c 85.04,-148.74 165.25,-161.14 243.02,-147.52"
         style="fill:none;stroke:#000000;stroke-width:9.60000038;stroke-linecap:round;stroke-linejoin:miter;stroke-miterlimit:4;stroke-opacity:1;stroke-dasharray:none"
         id="path274"
         inkscape:connector-curvature="0" /><path
         d="m 3963,5989.77 -14.71,-12.33 -3.31,18.92"
         style="fill:#000000;fill-opacity:1;fill-rule:evenodd;stroke:none"
         id="path276"
         inkscape:connector-curvature="0" /><path
         d="m 3963,5989.77 -14.71,-12.33 -3.31,18.92 18.02,-6.59 z"
         style="fill:none;stroke:#000000;stroke-width:2.4000001;stroke-linecap:butt;stroke-linejoin:miter;stroke-miterlimit:4;stroke-opacity:1;stroke-dasharray:none"
         id="path278"
         inkscape:connector-curvature="0" /><path
         d="m 3709.11,6135.25 c 36.62,-145.68 178.89,-196.68 262.7,-165.61"
         style="fill:none;stroke:#000000;stroke-width:9.60000038;stroke-linecap:round;stroke-linejoin:miter;stroke-miterlimit:4;stroke-opacity:1;stroke-dasharray:none"
         id="path280"
         inkscape:connector-curvature="0" /><path
         d="m 3982.18,5973.49 -12.23,-14.77 -6.67,18"
         style="fill:#000000;fill-opacity:1;fill-rule:evenodd;stroke:none"
         id="path282"
         inkscape:connector-curvature="0" /><path
         d="m 3982.19,5973.48 -12.24,-14.76 -6.67,18 18.91,-3.24 z"
         style="fill:none;stroke:#000000;stroke-width:2.4000001;stroke-linecap:butt;stroke-linejoin:miter;stroke-miterlimit:4;stroke-opacity:1;stroke-dasharray:none"
         id="path284"
         inkscape:connector-curvature="0" /><path
         d="m 4851.95,6744.96 c 0,-22.97 -18.8,-41.6 -42,-41.6 -23.18,0 -42,18.63 -42,41.6 0,22.98 18.82,41.6 42,41.6 23.2,0 42,-18.62 42,-41.6"
         style="fill:#d7e3f4;fill-opacity:1;fill-rule:nonzero;stroke:none"
         id="path286"
         inkscape:connector-curvature="0" /><g
         id="g288"
         transform="scale(1.00478,-0.995215)"><path
           d="m 4828.85,-6777.39 c 0,23.08 -18.71,41.8 -41.8,41.8 -23.08,0 -41.8,-18.72 -41.8,-41.8 0,-23.09 18.72,-41.8 41.8,-41.8 23.09,0 41.8,18.71 41.8,41.8 z"
           style="fill:none;stroke:#000000;stroke-width:6.40007019;stroke-linecap:round;stroke-linejoin:miter;stroke-miterlimit:4;stroke-opacity:1;stroke-dasharray:none"
           id="path290"
           inkscape:connector-curvature="0" /></g><path
         d="m 4851.95,6616.96 c 0,-22.97 -18.8,-41.6 -42,-41.6 -23.18,0 -42,18.63 -42,41.6 0,22.98 18.82,41.6 42,41.6 23.2,0 42,-18.62 42,-41.6"
         style="fill:#d7e3f4;fill-opacity:1;fill-rule:nonzero;stroke:none"
         id="path292"
         inkscape:connector-curvature="0" /><g
         id="g294"
         transform="scale(1.00478,-0.995215)"><path
           d="m 4828.85,-6648.77 c 0,23.08 -18.71,41.79 -41.8,41.79 -23.08,0 -41.8,-18.71 -41.8,-41.79 0,-23.09 18.72,-41.81 41.8,-41.81 23.09,0 41.8,18.72 41.8,41.81 z"
           style="fill:none;stroke:#000000;stroke-width:6.40007019;stroke-linecap:round;stroke-linejoin:miter;stroke-miterlimit:4;stroke-opacity:1;stroke-dasharray:none"
           id="path296"
           inkscape:connector-curvature="0" /></g><path
         d="m 4954.36,6680.96 c 0,-22.97 -18.82,-41.6 -42,-41.6 -23.21,0 -42,18.63 -42,41.6 0,22.98 18.79,41.6 42,41.6 23.18,0 42,-18.62 42,-41.6"
         style="fill:#d7e3f4;fill-opacity:1;fill-rule:nonzero;stroke:none"
         id="path298"
         inkscape:connector-curvature="0" /><g
         id="g300"
         transform="scale(1.00478,-0.995215)"><path
           d="m 4930.76,-6713.07 c 0,23.07 -18.72,41.79 -41.8,41.79 -23.09,0 -41.8,-18.72 -41.8,-41.79 0,-23.1 18.71,-41.81 41.8,-41.81 23.08,0 41.8,18.71 41.8,41.81 z"
           style="fill:none;stroke:#000000;stroke-width:6.40007019;stroke-linecap:round;stroke-linejoin:miter;stroke-miterlimit:4;stroke-opacity:1;stroke-dasharray:none"
           id="path302"
           inkscape:connector-curvature="0" /></g><path
         d="m 4711.12,6721.91 c 7.39,21.54 21.63,32.81 44,32"
         style="fill:none;stroke:#000000;stroke-width:6.4000001;stroke-linecap:round;stroke-linejoin:miter;stroke-miterlimit:4;stroke-opacity:1;stroke-dasharray:none"
         id="path304"
         inkscape:connector-curvature="0" /><path
         d="m 4762.51,6753.64 -11.3,-5.98 0.46,12.78"
         style="fill:#000000;fill-opacity:1;fill-rule:evenodd;stroke:none"
         id="path306"
         inkscape:connector-curvature="0" /><path
         d="m 4762.51,6753.64 -11.3,-5.98 0.46,12.78 10.84,-6.8 z"
         style="fill:none;stroke:#000000;stroke-width:1.60000002;stroke-linecap:butt;stroke-linejoin:miter;stroke-miterlimit:4;stroke-opacity:1;stroke-dasharray:none"
         id="path308"
         inkscape:connector-curvature="0" /><path
         d="m 4854.75,6754.5 c 25.14,1.83 45.45,-1.38 57.43,-20.55"
         style="fill:none;stroke:#000000;stroke-width:6.4000001;stroke-linecap:round;stroke-linejoin:miter;stroke-miterlimit:4;stroke-opacity:1;stroke-dasharray:none"
         id="path310"
         inkscape:connector-curvature="0" /><path
         d="m 4916.11,6727.69 -11.3,6 10.84,6.78"
         style="fill:#000000;fill-opacity:1;fill-rule:evenodd;stroke:none"
         id="path312"
         inkscape:connector-curvature="0" /><path
         d="m 4916.11,6727.69 -11.3,6 10.84,6.78 0.46,-12.78 z"
         style="fill:none;stroke:#000000;stroke-width:1.60000002;stroke-linecap:butt;stroke-linejoin:miter;stroke-miterlimit:4;stroke-opacity:1;stroke-dasharray:none"
         id="path314"
         inkscape:connector-curvature="0" /><path
         d="m 4921.81,6637.59 c -7.08,-21.48 -26.7,-28.4 -53.52,-28.48"
         style="fill:none;stroke:#000000;stroke-width:6.4000001;stroke-linecap:round;stroke-linejoin:miter;stroke-miterlimit:4;stroke-opacity:1;stroke-dasharray:none"
         id="path316"
         inkscape:connector-curvature="0" /><path
         d="m 4860.92,6609.1 11.04,6.43 0.04,-12.81"
         style="fill:#000000;fill-opacity:1;fill-rule:evenodd;stroke:none"
         id="path318"
         inkscape:connector-curvature="0" /><path
         d="m 4860.92,6609.09 11.04,6.44 0.04,-12.81 -11.08,6.37 z"
         style="fill:none;stroke:#000000;stroke-width:1.60000002;stroke-linecap:butt;stroke-linejoin:miter;stroke-miterlimit:4;stroke-opacity:1;stroke-dasharray:none"
         id="path320"
         inkscape:connector-curvature="0" /><path
         d="m 4767.28,6612.69 c -22.34,-1.03 -40,0.83 -52.39,17.59"
         style="fill:none;stroke:#000000;stroke-width:6.4000001;stroke-linecap:round;stroke-linejoin:miter;stroke-miterlimit:4;stroke-opacity:1;stroke-dasharray:none"
         id="path322"
         inkscape:connector-curvature="0" /><path
         d="m 4710.5,6636.23 11.71,-5.1 -10.27,-7.61"
         style="fill:#000000;fill-opacity:1;fill-rule:evenodd;stroke:none"
         id="path324"
         inkscape:connector-curvature="0" /><path
         d="m 4710.5,6636.23 11.72,-5.11 -10.29,-7.6 -1.43,12.71 z"
         style="fill:none;stroke:#000000;stroke-width:1.60000002;stroke-linecap:butt;stroke-linejoin:miter;stroke-miterlimit:4;stroke-opacity:1;stroke-dasharray:none"
         id="path326"
         inkscape:connector-curvature="0" /><path
         d="m 4736.36,6680.96 c 0,-22.97 -18.63,-41.6 -41.61,-41.6 -22.97,0 -41.6,18.63 -41.6,41.6 0,22.98 18.63,41.6 41.6,41.6 22.98,0 41.61,-18.62 41.61,-41.6"
         style="fill:#d7e3f4;fill-opacity:1;fill-rule:nonzero;stroke:none"
         id="path328"
         inkscape:connector-curvature="0" /><path
         d="m 4736.36,6680.95 c 0,-22.97 -18.63,-41.59 -41.61,-41.59 -22.97,0 -41.6,18.62 -41.6,41.59 0,22.99 18.63,41.62 41.6,41.62 22.98,0 41.61,-18.63 41.61,-41.62 z"
         style="fill:none;stroke:#000000;stroke-width:6.4000001;stroke-linecap:round;stroke-linejoin:miter;stroke-miterlimit:4;stroke-opacity:1;stroke-dasharray:none"
         id="path330"
         inkscape:connector-curvature="0" /><path
         d="m 4952.06,6697.67 c 59.51,-12.2 38.65,-41.92 11.86,-42"
         style="fill:none;stroke:#000000;stroke-width:6.4000001;stroke-linecap:round;stroke-linejoin:miter;stroke-miterlimit:4;stroke-opacity:1;stroke-dasharray:none"
         id="path332"
         inkscape:connector-curvature="0" /><path
         d="m 4956.53,6655.66 11.04,6.42 0.05,-12.79"
         style="fill:#000000;fill-opacity:1;fill-rule:evenodd;stroke:none"
         id="path334"
         inkscape:connector-curvature="0" /><path
         d="m 4956.53,6655.66 11.04,6.42 0.05,-12.79 -11.09,6.37 z"
         style="fill:none;stroke:#000000;stroke-width:1.60000002;stroke-linecap:butt;stroke-linejoin:miter;stroke-miterlimit:4;stroke-opacity:1;stroke-dasharray:none"
         id="path336"
         inkscape:connector-curvature="0" /><path
         d="m 4830.42,6575.88 c -9.56,-52.3 -41.61,-40.55 -43.22,-12.22"
         style="fill:none;stroke:#000000;stroke-width:6.4000001;stroke-linecap:round;stroke-linejoin:miter;stroke-miterlimit:4;stroke-opacity:1;stroke-dasharray:none"
         id="path338"
         inkscape:connector-curvature="0" /><path
         d="m 4786.79,6571.03 7.02,-10.69 -12.78,-0.73"
         style="fill:#000000;fill-opacity:1;fill-rule:evenodd;stroke:none"
         id="path340"
         inkscape:connector-curvature="0" /><path
         d="m 4786.79,6571.03 7.02,-10.69 -12.78,-0.73 5.76,11.42 z"
         style="fill:none;stroke:#000000;stroke-width:1.60000002;stroke-linecap:butt;stroke-linejoin:miter;stroke-miterlimit:4;stroke-opacity:1;stroke-dasharray:none"
         id="path342"
         inkscape:connector-curvature="0" /><path
         d="m 4786.23,6285.43 c 84.98,15.68 84.13,80.45 84.06,142.54"
         style="fill:none;stroke:#000000;stroke-width:9.60000038;stroke-linecap:round;stroke-linejoin:miter;stroke-miterlimit:4;stroke-opacity:1;stroke-dasharray:none"
         id="path344"
         inkscape:connector-curvature="0" /><path
         d="m 4870.27,6450.13 19.23,-33.2 -38.39,-0.04"
         style="fill:#000000;fill-opacity:1;fill-rule:evenodd;stroke:none"
         id="path346"
         inkscape:connector-curvature="0" /><path
         d="m 4870.26,6450.12 19.24,-33.2 -38.39,-0.03 19.15,33.23 z"
         style="fill:none;stroke:#000000;stroke-width:4.80000019;stroke-linecap:butt;stroke-linejoin:miter;stroke-miterlimit:4;stroke-opacity:1;stroke-dasharray:none"
         id="path348"
         inkscape:connector-curvature="0" /><path
         d="m 4011.09,6162.36 722.637,0 0,97.3594 -722.637,0 0,-97.3594 z"
         style="fill:#d7e3f4;fill-opacity:1;fill-rule:nonzero;stroke:none"
         id="path350"
         inkscape:connector-curvature="0" /><path
         d="m 4011.09,6162.36 722.637,0 0,97.3594 -722.637,0 0,-97.3594 z"
         style="fill:none;stroke:#000000;stroke-width:6.4000001;stroke-linecap:round;stroke-linejoin:miter;stroke-miterlimit:4;stroke-opacity:1;stroke-dasharray:none"
         id="path352"
         inkscape:connector-curvature="0" /><path
         d="m 4217.79,6258.62 0,-95.81"
         style="fill:none;stroke:#000000;stroke-width:6.4000001;stroke-linecap:butt;stroke-linejoin:miter;stroke-miterlimit:4;stroke-opacity:1;stroke-dasharray:none"
         id="path354"
         inkscape:connector-curvature="0" /><path
         d="m 4423.64,6258.62 0,-95.81"
         style="fill:none;stroke:#000000;stroke-width:6.4000001;stroke-linecap:butt;stroke-linejoin:miter;stroke-miterlimit:4;stroke-opacity:1;stroke-dasharray:none"
         id="path356"
         inkscape:connector-curvature="0" /><path
         d="m 4058.25,6211.14 13.5,19.44 -7.19,0 -9.69,-14.62 -9.69,14.62 -7.31,0 13.44,-19.75 -14.19,-20.5 7.32,0 10.18,15.44 10.06,-15.44 7.44,0"
         style="fill:#000000;fill-opacity:1;fill-rule:nonzero;stroke:none"
         id="path358"
         inkscape:connector-curvature="0" /><path
         d="m 4092.46,6222.83 2.82,0 c -1.47,-2.92 -2.57,-4.97 -3.32,-6.13 -0.71,-1.17 -2.02,-2.93 -3.93,-5.31 l 59.25,0 0,-3.75 -59.25,0 c 2.58,-2.67 5.03,-6.5 7.37,-11.5 l -2.87,0 c -3.22,3.58 -5.97,6.29 -8.25,8.13 -2.3,1.83 -4.67,3.34 -7.13,4.56 l 0,1.63 c 2.16,0.9 4.44,2.31 6.81,4.18 2.41,1.91 5.25,4.65 8.5,8.19"
         style="fill:#000000;fill-opacity:1;fill-rule:nonzero;stroke:none"
         id="path360"
         inkscape:connector-curvature="0" /><path
         d="m 4168.01,6215.27 0.81,0 2.88,0.12 c 7.44,0 11.25,-3.37 11.25,-9.93 0,-6.82 -4.18,-10.88 -11.25,-10.88 -7.38,0 -11,3.69 -11.5,11.56 l -6.75,0 c 0.32,-4.37 1.12,-7.18 2.37,-9.68 2.82,-5.19 8.19,-7.88 15.63,-7.88 11.19,0 18.44,6.69 18.44,16.94 0,6.94 -2.69,10.75 -9.25,13 5.13,2 7.63,5.81 7.63,11.31 0,9.37 -6.2,14.94 -16.57,14.94 -11,0 -16.88,-5.94 -17.06,-17.57 l 6.75,0 c 0.06,3.32 0.38,5.13 1.25,6.82 1.5,3 4.87,4.87 9.13,4.87 6,0 9.55,-3.56 9.55,-9.31 0,-3.81 -1.37,-6.12 -4.37,-7.38 -1.81,-0.74 -4.18,-1.06 -8.94,-1.12"
         style="fill:#000000;fill-opacity:1;fill-rule:nonzero;stroke:none"
         id="path362"
         inkscape:connector-curvature="0" /><path
         d="m 4270.34,6230.58 -11.13,-31.31 -10.31,31.31 -6.81,0 13.56,-40.38 -2.44,-6.37 c -1,-2.87 -2.5,-3.94 -5.18,-3.94 -0.88,0 -2,0.13 -3.38,0.44 l 0,-5.75 c 1.31,-0.69 2.63,-1 4.31,-1 2.07,0 4.32,0.69 6,1.94 2,1.44 3.13,3.12 4.38,6.37 l 17.87,48.69"
         style="fill:#000000;fill-opacity:1;fill-rule:nonzero;stroke:none"
         id="path364"
         inkscape:connector-curvature="0" /><path
         d="m 4297.18,6222.83 2.82,0 c -1.47,-2.92 -2.56,-4.97 -3.32,-6.13 -0.72,-1.17 -2.03,-2.93 -3.93,-5.31 l 59.25,0 0,-3.75 -59.25,0 c 2.57,-2.67 5.03,-6.5 7.37,-11.5 l -2.87,0 c -3.22,3.58 -5.97,6.29 -8.25,8.13 -2.3,1.83 -4.68,3.34 -7.13,4.56 l 0,1.63 c 2.16,0.9 4.44,2.31 6.81,4.18 2.41,1.91 5.26,4.65 8.5,8.19"
         style="fill:#000000;fill-opacity:1;fill-rule:nonzero;stroke:none"
         id="path366"
         inkscape:connector-curvature="0" /><path
         d="m 4375.61,6229.14 0,-38.81 6.75,0 0,54.44 -4.44,0 c -2.38,-8.38 -3.88,-9.5 -14.38,-10.81 l 0,-4.82"
         style="fill:#000000;fill-opacity:1;fill-rule:nonzero;stroke:none"
         id="path368"
         inkscape:connector-curvature="0" /><path
         d="m 4628.44,6258.62 0,-95.81"
         style="fill:none;stroke:#000000;stroke-width:6.4000001;stroke-linecap:butt;stroke-linejoin:miter;stroke-miterlimit:4;stroke-opacity:1;stroke-dasharray:none"
         id="path370"
         inkscape:connector-curvature="0" /><path
         d="m 4476.28,6230.58 -11.13,-31.31 -10.31,31.31 -6.81,0 13.56,-40.38 -2.44,-6.37 c -1,-2.87 -2.5,-3.94 -5.19,-3.94 -0.87,0 -2,0.13 -3.37,0.44 l 0,-5.75 c 1.31,-0.69 2.62,-1 4.31,-1 2.06,0 4.31,0.69 6,1.94 2,1.44 3.13,3.12 4.38,6.37 l 17.87,48.69"
         style="fill:#000000;fill-opacity:1;fill-rule:nonzero;stroke:none"
         id="path372"
         inkscape:connector-curvature="0" /><path
         d="m 4503.11,6222.83 2.81,0 c -1.47,-2.92 -2.56,-4.97 -3.31,-6.13 -0.72,-1.17 -2.04,-2.93 -3.94,-5.31 l 59.25,0 0,-3.75 -59.25,0 c 2.58,-2.67 5.03,-6.5 7.37,-11.5 l -2.87,0 c -3.22,3.58 -5.97,6.29 -8.25,8.13 -2.3,1.83 -4.67,3.34 -7.13,4.56 l 0,1.63 c 2.16,0.9 4.44,2.31 6.82,4.18 2.4,1.91 5.25,4.65 8.5,8.19"
         style="fill:#000000;fill-opacity:1;fill-rule:nonzero;stroke:none"
         id="path374"
         inkscape:connector-curvature="0" /><path
         d="m 4565.71,6202.77 c 1.32,-8.88 7.13,-14.19 15.44,-14.19 6,0 11.44,2.88 14.63,7.75 3.43,5.31 5,12 5,21.87 0,9.13 -1.44,15 -4.63,19.82 -3,4.37 -7.75,6.75 -13.75,6.75 -10.37,0 -17.81,-7.69 -17.81,-18.31 0,-10.19 6.87,-17.32 16.75,-17.32 5.12,0 8.87,1.88 12.44,6.06 -0.13,-13.24 -4.38,-20.62 -12.13,-20.62 -4.81,0 -8.12,3 -9.19,8.19 l -6.75,0 z m 16.63,36.12 c 6.25,0 11.06,-5.25 11.06,-12.31 0,-6.69 -4.69,-11.44 -11.31,-11.44 -6.56,0 -10.63,4.5 -10.63,11.82 0,6.93 4.63,11.93 10.88,11.93"
         style="fill:#000000;fill-opacity:1;fill-rule:nonzero;stroke:none"
         id="path376"
         inkscape:connector-curvature="0" /><path
         d="m 4665.34,6215.08 -8,0 0,-8 8,0 0,8 z m 21.31,0 -8,0 0,-8 8,0 0,8 z m 21.3,0 -8,0 0,-8 8,0"
         style="fill:#000000;fill-opacity:1;fill-rule:nonzero;stroke:none"
         id="path378"
         inkscape:connector-curvature="0" /><path
         d="m 3705.03,6141.43 c 38.53,-59.45 116.03,-123 186.43,-109.86"
         style="fill:none;stroke:#000000;stroke-width:9.60000038;stroke-linecap:round;stroke-linejoin:miter;stroke-miterlimit:4;stroke-opacity:1;stroke-dasharray:none"
         id="path380"
         inkscape:connector-curvature="0" /><path
         d="m 3902.36,6033.6 -14.57,-12.49 -3.51,18.88"
         style="fill:#000000;fill-opacity:1;fill-rule:evenodd;stroke:none"
         id="path382"
         inkscape:connector-curvature="0" /><path
         d="m 3902.36,6033.59 -14.57,-12.48 -3.51,18.88 18.08,-6.4 z"
         style="fill:none;stroke:#000000;stroke-width:2.4000001;stroke-linecap:butt;stroke-linejoin:miter;stroke-miterlimit:4;stroke-opacity:1;stroke-dasharray:none"
         id="path384"
         inkscape:connector-curvature="0" /><path
         d="m 4810.56,6927.78 c -636.42,267.56 -1270.33,118 -1308.1,-89.34"
         style="fill:none;stroke:#000000;stroke-width:9.60000038;stroke-linecap:round;stroke-linejoin:miter;stroke-miterlimit:4;stroke-opacity:1;stroke-dasharray:none"
         id="path386"
         inkscape:connector-curvature="0" /><path
         d="m 3498.5,6816.64 -12.94,36.13 37.78,-6.89"
         style="fill:#000000;fill-opacity:1;fill-rule:evenodd;stroke:none"
         id="path388"
         inkscape:connector-curvature="0" /><path
         d="m 3498.5,6816.64 -12.94,36.13 37.78,-6.89 -24.84,-29.24 z"
         style="fill:none;stroke:#000000;stroke-width:4.80000019;stroke-linecap:butt;stroke-linejoin:miter;stroke-miterlimit:4;stroke-opacity:1;stroke-dasharray:none"
         id="path390"
         inkscape:connector-curvature="0" /><g
         id="g392"
         transform="scale(1.03966,-0.960339)"><path
           d="m 3670.85,-6661.47 c 0,26.31 -20.64,47.66 -46.08,47.66 -25.45,0 -46.07,-21.35 -46.07,-47.66 0,-26.32 20.62,-47.65 46.07,-47.65 25.44,0 46.08,21.33 46.08,47.65 z"
           style="fill:none;stroke:#000000;stroke-width:9.60756016;stroke-linecap:butt;stroke-linejoin:miter;stroke-miterlimit:4;stroke-opacity:1;stroke-dasharray:none"
           id="path394"
           inkscape:connector-curvature="0" /></g><path
         d="m 3759.56,6375.99 26.19,0 0,-6.32 -35.19,0 0,6.32 c 2.83,2.95 6.71,6.9 11.62,11.87 4.91,4.96 8,8.14 9.26,9.57 2.4,2.7 4.09,5 5.06,6.87 0.95,1.87 1.44,3.7 1.44,5.5 0,2.95 -1.05,5.34 -3.13,7.19 -2.04,1.87 -4.74,2.81 -8.06,2.81 -2.35,0 -4.81,-0.42 -7.44,-1.25 -2.63,-0.85 -5.42,-2.06 -8.37,-3.69 l 0,7.57 c 3,1.2 5.81,2.12 8.43,2.74 2.63,0.63 5.03,0.94 7.25,0.94 5.7,0 10.27,-1.44 13.69,-4.31 3.4,-2.87 5.13,-6.72 5.13,-11.5 0,-2.3 -0.44,-4.47 -1.32,-6.5 -0.84,-2.05 -2.37,-4.47 -4.62,-7.25 -0.63,-0.72 -2.61,-2.78 -5.94,-6.19 -3.29,-3.42 -7.97,-8.22 -14,-14.37"
         style="fill:#000000;fill-opacity:1;fill-rule:nonzero;stroke:none"
         id="path396"
         inkscape:connector-curvature="0" /><g
         id="g398"
         transform="scale(1.03966,-0.960339)"><path
           d="m 3663.68,-7114.77 c 0,26.32 -20.64,47.65 -46.08,47.65 -25.45,0 -46.07,-21.33 -46.07,-47.65 0,-26.31 20.62,-47.66 46.07,-47.66 25.44,0 46.08,21.35 46.08,47.66 z"
           style="fill:none;stroke:#000000;stroke-width:9.60756016;stroke-linecap:butt;stroke-linejoin:miter;stroke-miterlimit:4;stroke-opacity:1;stroke-dasharray:none"
           id="path400"
           inkscape:connector-curvature="0" /></g><path
         d="m 3746.98,6811.3 12.25,0 0,42.25 -13.31,-2.69 0,6.87 13.25,2.63 7.5,0 0,-49.06 12.19,0 0,-6.31 -31.88,0"
         style="fill:#000000;fill-opacity:1;fill-rule:nonzero;stroke:none"
         id="path402"
         inkscape:connector-curvature="0" /><g
         id="g404"
         transform="scale(1.03966,-0.960339)"><path
           d="m 4796.12,-6600.52 c 0,26.33 -20.63,47.66 -46.07,47.66 -25.45,0 -46.07,-21.33 -46.07,-47.66 0,-26.31 20.62,-47.65 46.07,-47.65 25.44,0 46.07,21.34 46.07,47.65 z"
           style="fill:none;stroke:#000000;stroke-width:9.60756016;stroke-linecap:butt;stroke-linejoin:miter;stroke-miterlimit:4;stroke-opacity:1;stroke-dasharray:none"
           id="path406"
           inkscape:connector-curvature="0" /></g><path
         d="m 4945.71,6341 c 3.63,-0.75 6.44,-2.36 8.44,-4.81 2,-2.42 3,-5.4 3,-8.94 0,-5.5 -1.87,-9.75 -5.62,-12.75 -3.75,-2.97 -9.09,-4.44 -16,-4.44 -2.35,0 -4.74,0.24 -7.19,0.69 -2.47,0.45 -5,1.14 -7.63,2.07 l 0,7.24 c 2.08,-1.24 4.35,-2.18 6.82,-2.81 2.45,-0.59 5.03,-0.87 7.75,-0.87 4.7,0 8.28,0.91 10.75,2.75 2.45,1.87 3.68,4.57 3.68,8.12 0,3.25 -1.15,5.78 -3.43,7.63 -2.3,1.87 -5.49,2.81 -9.57,2.81 l -6.43,0 0,6.13 6.75,0 c 3.65,0 6.47,0.71 8.43,2.18 1.96,1.5 2.94,3.63 2.94,6.38 0,2.87 -1.03,5.06 -3.06,6.56 -2,1.53 -4.88,2.31 -8.63,2.31 -2.04,0 -4.25,-0.23 -6.62,-0.69 -2.34,-0.46 -4.92,-1.15 -7.75,-2.06 l 0,6.69 c 2.87,0.78 5.53,1.37 8,1.75 2.5,0.4 4.84,0.62 7.06,0.62 5.66,0 10.16,-1.31 13.5,-3.93 3.33,-2.6 5,-6.07 5,-10.44 0,-3.09 -0.9,-5.69 -2.69,-7.81 -1.75,-2.09 -4.25,-3.55 -7.5,-4.38"
         style="fill:#000000;fill-opacity:1;fill-rule:nonzero;stroke:none"
         id="path408"
         inkscape:connector-curvature="0" /><g
         id="g410"
         transform="scale(1.03966,-0.960339)"><path
           d="m 3903.22,-6740.17 c 0,26.33 -20.61,47.66 -46.06,47.66 -25.45,0 -46.07,-21.33 -46.07,-47.66 0,-26.3 20.62,-47.66 46.07,-47.66 25.45,0 46.06,21.36 46.06,47.66 z"
           style="fill:none;stroke:#000000;stroke-width:9.60756016;stroke-linecap:butt;stroke-linejoin:miter;stroke-miterlimit:4;stroke-opacity:1;stroke-dasharray:none"
           id="path412"
           inkscape:connector-curvature="0" /></g><path
         d="m 4001.17,6451.55 26.19,0 0,-6.32 -35.19,0 0,6.32 c 2.83,2.95 6.7,6.91 11.62,11.88 4.91,4.95 8,8.13 9.25,9.56 2.41,2.7 4.1,5 5.07,6.87 0.95,1.87 1.43,3.7 1.43,5.5 0,2.96 -1.04,5.34 -3.12,7.19 -2.05,1.88 -4.74,2.81 -8.06,2.81 -2.35,0 -4.82,-0.42 -7.44,-1.25 -2.63,-0.84 -5.42,-2.06 -8.38,-3.68 l 0,7.56 c 3,1.2 5.82,2.12 8.44,2.74 2.63,0.63 5.03,0.94 7.25,0.94 5.71,0 10.27,-1.44 13.69,-4.31 3.4,-2.87 5.12,-6.72 5.12,-11.5 0,-2.3 -0.43,-4.47 -1.31,-6.5 -0.84,-2.04 -2.37,-4.47 -4.62,-7.25 -0.63,-0.72 -2.61,-2.78 -5.94,-6.18 -3.3,-3.43 -7.97,-8.23 -14,-14.38"
         style="fill:#000000;fill-opacity:1;fill-rule:nonzero;stroke:none"
         id="path414"
         inkscape:connector-curvature="0" /><g
         id="g416"
         transform="scale(1.03966,-0.960339)"><path
           d="m 3454.82,-7305.4 c 0,26.33 -20.62,47.66 -46.06,47.66 -25.45,0 -46.07,-21.33 -46.07,-47.66 0,-26.32 20.62,-47.66 46.07,-47.66 25.44,0 46.06,21.34 46.06,47.66 z"
           style="fill:none;stroke:#000000;stroke-width:9.60756016;stroke-linecap:butt;stroke-linejoin:miter;stroke-miterlimit:4;stroke-opacity:1;stroke-dasharray:none"
           id="path418"
           inkscape:connector-curvature="0" /></g><path
         d="m 3549.17,7036.94 -18.94,-29.56 18.94,0 0,29.56 z m -2,6.5 9.44,0 0,-36.06 7.87,0 0,-6.25 -7.87,0 0,-13.07 -7.44,0 0,13.07 -25.06,0 0,7.25"
         style="fill:#000000;fill-opacity:1;fill-rule:nonzero;stroke:none"
         id="path420"
         inkscape:connector-curvature="0" /></g></g></svg>