<?xml version="1.0" encoding="UTF-8" standalone="no"?>
<!-- Created with Inkscape (http://www.inkscape.org/) -->

<svg
   xmlns:dc="http://purl.org/dc/elements/1.1/"
   xmlns:cc="http://creativecommons.org/ns#"
   xmlns:rdf="http://www.w3.org/1999/02/22-rdf-syntax-ns#"
   xmlns:svg="http://www.w3.org/2000/svg"
   xmlns="http://www.w3.org/2000/svg"
   xmlns:sodipodi="http://sodipodi.sourceforge.net/DTD/sodipodi-0.dtd"
   xmlns:inkscape="http://www.inkscape.org/namespaces/inkscape"
   id="svg2"
   version="1.1"
   inkscape:version="0.48.4 r9939"
   width="378.98999"
   height="231.52036"
   xml:space="preserve"
   sodipodi:docname="Request_header.svg"><metadata
     id="metadata8"><rdf:RDF><cc:Work
         rdf:about=""><dc:format>image/svg+xml</dc:format><dc:type
           rdf:resource="http://purl.org/dc/dcmitype/StillImage" /><dc:title></dc:title></cc:Work></rdf:RDF></metadata><defs
     id="defs6"><clipPath
       clipPathUnits="userSpaceOnUse"
       id="clipPath18"><path
         d="m 54,738 504,0 0,-661.703 -504,0 L 54,738 z"
         id="path20"
         inkscape:connector-curvature="0" /></clipPath></defs><sodipodi:namedview
     pagecolor="#ffffff"
     bordercolor="#666666"
     borderopacity="1"
     objecttolerance="10"
     gridtolerance="10"
     guidetolerance="10"
     inkscape:pageopacity="0"
     inkscape:pageshadow="2"
     inkscape:window-width="1366"
     inkscape:window-height="702"
     id="namedview4"
     showgrid="false"
     inkscape:zoom="1.3485026"
     inkscape:cx="184.79224"
     inkscape:cy="71.896085"
     inkscape:window-x="0"
     inkscape:window-y="27"
     inkscape:window-maximized="1"
     inkscape:current-layer="g10"
     fit-margin-top="5"
     fit-margin-left="5"
     fit-margin-right="5"
     fit-margin-bottom="5" /><g
     id="g10"
     inkscape:groupmode="layer"
     inkscape:label="Memcached_protocol"
     transform="matrix(1.25,0,0,-1.25,-77.498865,482.11326)"><g
       id="g3391"
       transform="matrix(0.9748846,0,0,0.83738664,213.46238,294.16822)"><g
         id="g3393"><g
           id="g3395"
           transform="translate(2.83466,-2.83466)"><path
             d="m -150.06607,-102.28854 2.61214,-1.42951 2.55444,1.96192 4.19907,0.97459 3.08339,-3.01863 0.69593,2.90094 5.51105,-2.03871 0.41653,0.10319 3.81862,-0.80682 3.8389,1.63451 3.39092,1.44787 4.47689,-3.19783 2.70055,2.33809 3.2666,-2.28613 2.03275,2.0131 2.07171,-0.34185 1.85198,1.51754 3.93947,-1.13224 2.52736,-1.91785 4.02281,0.20021 1.92039,1.48451 2.98629,1.08788 2.21861,-0.82778 4.01985,-0.47139 3.75534,-1.71174 3.53542,2.68146 3.60971,0.24325 1.19627,-1.71086 3.72808,1.96364 0.84103,-2.97566 5.38203,2.91623 3.32404,-1.95742 2.91763,-0.93112 3.05635,-0.11653 2.35494,0.10139 1.58578,2.11107 4.224,-0.9369 2.9631,-0.61327 3.81047,1.89368 3.37655,-2.73354 1.68963,1.71814 4.15199,1.57833 2.69006,-1.63897 0.61774,0.6342 2.74433,0.34099 5.68396,-2.85061 0.83766,1.07632 4.96317,0.97515 1.6907,-2.24132 3.6389,1.10415 3.55006,0.81337 3.38521,1.09514 2.07009,0.51195 4.68559,-1.70128 3.09883,0.73419 -0.01038,1.04875 3.30608,-2.48278 1.81235,1.12297 5.02231,0.95927 3.72415,0.15809 3.05662,-2.9243 2.47014,0.75574 1.33924,-0.47094 5.12054,2.84416 1.38356,-1.90143 3.68195,1.78239 1.67982,-1.66403 5.03468,1.84926 1.73835,-0.83598 3.43679,-2.77993 3.54554,2.04142 3.94172,-0.77468 2.59507,0.09 0.5487,-0.88791 4.86749,1.92658 0.99466,-1.37186 3.49117,2.58476 5.18049,-1.50253 3.16333,0.62622 1.10567,-0.5958 2.17194,-0.58508 4.48923,-0.28802 1.29445,-0.73833 5.61347,0.24138 3.13332,-0.60376 2.25789,3.4677 4.32217,-3.44237 0.45754,3.26444 2.31939,-1.06226 4.77021,0.66026 2.49476,-0.17693 4.03893,-0.24347 3.12279,0.2583 3.64704,-2.26135 1.79673,1.89569 3.20767,-2.22375 2.23804,2.52141 2.39943,0.72522 2.45779,-2.72267 5.05049,0.25354 3.30391,0.89357 0.48032,4.83198 -1.56459,0.70954 0.17282,1.79565 -0.84664,5.14462 0.0684,2.92407 2.39257,2.77576 -0.38575,2.13738 1.37308,2.38327 -2.17974,4.23227 -0.71811,4.10328 0.0705,3.68988 2.82341,-0.27372 -1.64147,4.94763 -0.1112,0.76454 1.51123,5.92816 0.0646,3.62996 -0.61586,2.82045 -0.53493,-0.28516 1.42755,2.6467 -3.62321,4.35211 0.10843,3.54094 0.18293,1.06083 2.01603,4.76533 -1.77024,3.27901 -0.32454,2.73456 2.76084,1.49858 -0.62483,3.35231 -1.07344,3.06134 1.44081,4.61615 0.93267,3.27672 -2.57008,2.58393 1.99617,1.31803 -1.95724,5.54814 2.53225,1.50998 -3.79362,4.10054 0.93847,0.88308 2.47321,5.75467 -1.49648,0.86293 -1.68632,2.16315 2.12949,4.49219 -1.19864,1.73616 1.43747,3.55424 -1.09047,5.02654 2.36259,0.6422 -3.03413,5.5274 1.73634,1.47183 0.567,2.43323 -0.77423,4.16199 0.73863,0.48884 -2.12374,4.26515 0.1674,3.193 0.33833,4.13086 -0.92573,3.97416 -0.34017,2.45491 1.4303,1.50518 0.69949,1.52853 1.45903,3.70627 -3.01588,4.53584 2.04099,1.50673 0.65472,5.50691 -1.03925,0.56559 1.44899,4.13934 -3.35991,1.08856 3.16962,3.83664 -1.33629,5.22917 0.38784,1.2946 -0.16835,1.15462 -0.60935,6.25781 -1.18698,-1.36818 -3.04201,0.57914 -6.20845,0.63414 -0.003,-0.25592 -6.04401,-0.7957 -0.0777,0.17355 -4.39172,0.0865 -1.92881,0.88156 -2.11426,1.03826 -5.7794,-1.69815 -0.33195,1.73488 -5.15377,-1.28267 -0.73985,0.88009 -3.43291,-2.37735 -4.16653,1.42812 -4.42089,1.19971 -3.29864,0.57193 -2.26376,-2.27633 -0.41721,1.17014 -5.23272,0.57301 -0.95315,-1.84913 -3.74719,-0.46473 -3.09677,0.47768 -5.5551,1.16396 0.28568,0.21957 -3.02009,-1.92152 -5.37782,1.72722 -2.18875,0.34727 -0.90771,0.55608 -3.93387,-0.91509 -3.05849,1.13477 -2.36829,-2.16632 -3.4143,-0.65934 -3.02614,0.39641 -3.20665,-0.2475 -2.97131,1.63337 -5.07455,0.68165 -3.30926,-0.14764 -3.11133,-0.44873 -2.93866,0.6425 -0.36488,-2.54457 -4.89437,0.51103 -2.53875,2.23503 -0.58865,-2.6308 -4.80782,2.32067 -2.18944,-0.85367 -3.51413,-0.79061 -4.84684,0.21596 -2.18957,-0.54271 -0.47692,0.062 -6.74848,2.27835 0.17803,-0.67143 -5.85243,-1.613 -2.26513,0.1135 -2.10188,0.62355 -1.64073,0.57376 -4.01477,-0.42004 -3.81412,-0.80382 -3.27725,-0.21575 -2.96748,-0.35563 -2.28292,3.40473 -4.61589,-0.9853 -2.59027,-2.06437 -1.44586,1.01535 -2.65967,0.18907 -4.54217,1.09248 -0.87183,0.11188 -4.84676,0.67914 -1.30093,-2.90361 -3.98204,0.84896 -3.17398,1.27938 -3.10985,-2.20749 -1.42892,0.29395 -6.11828,0.89445 0.34098,-0.83869 -4.5889,0.96496 -2.49281,1.39284 -4.06913,-3.19993 -1.79118,1.36058 -3.35918,-1.07925 -4.2017,2.97165 -2.50028,-1.73703 -3.51034,1.93347 -2.29231,-2.25345 -2.76949,-0.17233 -3.14348,0.63712 -2.4396,-0.78113 -1.46051,2.29242 -5.37944,-1.19062 -0.73873,0.24607 -3.02975,0.35194 -4.46613,-3.04891 -3.62135,1.93485 -3.9413,-0.69569 -1.6153,2.03915 -2.55274,-0.2623 -4.22931,-0.80871 -3.20656,-0.98366 -2.12159,1.77484 -3.85821,-1.04584 -0.27788,-2.31746 0.17798,-3.24954 -0.22742,-4.37852 0.9644,-2.99002 -0.46061,-3.11124 -0.69358,-2.66627 2.01621,-0.86184 -2.85939,-4.79966 0.48816,-2.52192 1.56958,-2.0207 -0.28178,-4.20296 -0.20302,-1.89438 1.42956,-2.45807 -1.93947,-5.44282 0.90854,-3.51684 -1.33032,-0.57662 0.4162,-2.34118 0.008,-5.02589 -1.25292,-3.53448 -0.27638,-1.44343 1.20166,-3.36001 -0.0216,-1.12762 -0.75603,-4.14131 2.18234,-3.89746 -2.12965,-4.61733 3.24123,0.74377 -3.88354,-3.05052 0.1653,-4.64569 2.45635,-3.03453 -0.71419,-4.05586 -0.43246,-0.77828 0.63494,-3.76197 0.98017,-2.53362 -2.55542,-5.80164 2.62279,-2.61462 0.21946,0.41194 -2.16384,-3.85652 -0.19086,-5.23688 2.7717,-0.5159 -3.60878,-4.66253 0.73794,-4.17182 -0.20535,-0.74185 1.50825,-1.85315 1.31122,-3.34921 -1.31976,-4.83858 0.7957,-2.12745 -0.49091,-1.57824 -1.6911,-4.51696 1.65689,-4.43916 -0.1642,-3.53706 -2.32089,-0.97042 1.86546,-2.84539 0.17626,-5.46742 1.21567,0.26053 -1.07476,-2.36124 1.43657,-5.30977 -1.98672,-3.06904 1.14683,-3.05075 -1.7502,-2.77906 1.53348,-1.05239 0.89403,-3.678 -1.6172,-2.14255 0.15886,-5.48979 1.96098,-1.23941 -2.88129,-5.02098 2.66034,-1.16121 -0.88003,-2.76576 -0.8716,-5.39053 z"
             style="fill:#000000;fill-opacity:0.5;fill-rule:nonzero;stroke:none"
             id="path3397"
             inkscape:connector-curvature="0" /></g></g></g><g
       id="g3399"
       transform="matrix(0.9748846,0,0,0.83738664,213.46238,294.16822)"
       style="fill:#f2f2f2"><path
         d="m -150.06607,-102.28854 2.61214,-1.42951 2.55444,1.96192 4.19907,0.97459 3.08339,-3.01863 0.69593,2.90094 5.51105,-2.03871 0.41653,0.10319 3.81862,-0.80682 3.8389,1.63451 3.39092,1.44787 4.47689,-3.19783 2.70055,2.33809 3.2666,-2.28613 2.03275,2.0131 2.07171,-0.34185 1.85198,1.51754 3.93947,-1.13224 2.52736,-1.91785 4.02281,0.20021 1.92039,1.48451 2.98629,1.08788 2.21861,-0.82778 4.01985,-0.47139 3.75534,-1.71174 3.53542,2.68146 3.60971,0.24325 1.19627,-1.71086 3.72808,1.96364 0.84103,-2.97566 5.38203,2.91623 3.32404,-1.95742 2.91763,-0.93112 3.05635,-0.11653 2.35494,0.10139 1.58578,2.11107 4.224,-0.9369 2.9631,-0.61327 3.81047,1.89368 3.37655,-2.73354 1.68963,1.71814 4.15199,1.57833 2.69006,-1.63897 0.61774,0.6342 2.74433,0.34099 5.68396,-2.85061 0.83766,1.07632 4.96317,0.97515 1.6907,-2.24132 3.6389,1.10415 3.55006,0.81337 3.38521,1.09514 2.07009,0.51195 4.68559,-1.70128 3.09883,0.73419 -0.01038,1.04875 3.30608,-2.48278 1.81235,1.12297 5.02231,0.95927 3.72415,0.15809 3.05662,-2.9243 2.47014,0.75574 1.33924,-0.47094 5.12054,2.84416 1.38356,-1.90143 3.68195,1.78239 1.67982,-1.66403 5.03468,1.84926 1.73835,-0.83598 3.43679,-2.77993 3.54554,2.04142 3.94172,-0.77468 2.59507,0.09 0.5487,-0.88791 4.86749,1.92658 0.99466,-1.37186 3.49117,2.58476 5.18049,-1.50253 3.16333,0.62622 1.10567,-0.5958 2.17194,-0.58508 4.48923,-0.28802 1.29445,-0.73833 5.61347,0.24138 3.13332,-0.60376 2.25789,3.4677 4.32217,-3.44237 0.45754,3.26444 2.31939,-1.06226 4.77021,0.66026 2.49476,-0.17693 4.03893,-0.24347 3.12279,0.2583 3.64704,-2.26135 1.79673,1.89569 3.20767,-2.22375 2.23804,2.52141 2.39943,0.72522 2.45779,-2.72267 5.05049,0.25354 3.30391,0.89357 0.48032,4.83198 -1.56459,0.70954 0.17282,1.79565 -0.84664,5.14462 0.0684,2.92407 2.39257,2.77576 -0.38575,2.13738 1.37308,2.38327 -2.17974,4.23227 -0.71811,4.10328 0.0705,3.68988 2.82341,-0.27372 -1.64147,4.94763 -0.1112,0.76454 1.51123,5.92816 0.0646,3.62996 -0.61586,2.82045 -0.53493,-0.28516 1.42755,2.6467 -3.62321,4.35211 0.10843,3.54094 0.18293,1.06083 2.01603,4.76533 -1.77024,3.27901 -0.32454,2.73456 2.76084,1.49858 -0.62483,3.35231 -1.07344,3.06134 1.44081,4.61615 0.93267,3.27672 -2.57008,2.58393 1.99617,1.31803 -1.95724,5.54814 2.53225,1.50998 -3.79362,4.10054 0.93847,0.88308 2.47321,5.75467 -1.49648,0.86293 -1.68632,2.16315 2.12949,4.49219 -1.19864,1.73616 1.43747,3.55424 -1.09047,5.02654 2.36259,0.6422 -3.03413,5.5274 1.73634,1.47183 0.567,2.43323 -0.77423,4.16199 0.73863,0.48884 -2.12374,4.26515 0.1674,3.193 0.33833,4.13086 -0.92573,3.97416 -0.34017,2.45491 1.4303,1.50518 0.69949,1.52853 1.45903,3.70627 -3.01588,4.53584 2.04099,1.50673 0.65472,5.50691 -1.03925,0.56559 1.44899,4.13934 -3.35991,1.08856 3.16962,3.83664 -1.33629,5.22917 0.38784,1.2946 -0.16835,1.15462 -0.60935,6.25781 -1.18698,-1.36818 -3.04201,0.57914 -6.20845,0.63414 -0.003,-0.25592 -6.04401,-0.7957 -0.0777,0.17355 -4.39172,0.0865 -1.92881,0.88156 -2.11426,1.03826 -5.7794,-1.69815 -0.33195,1.73488 -5.15377,-1.28267 -0.73985,0.88009 -3.43291,-2.37735 -4.16653,1.42812 -4.42089,1.19971 -3.29864,0.57193 -2.26376,-2.27633 -0.41721,1.17014 -5.23272,0.57301 -0.95315,-1.84913 -3.74719,-0.46473 -3.09677,0.47768 -5.5551,1.16396 0.28568,0.21957 -3.02009,-1.92152 -5.37782,1.72722 -2.18875,0.34727 -0.90771,0.55608 -3.93387,-0.91509 -3.05849,1.13477 -2.36829,-2.16632 -3.4143,-0.65934 -3.02614,0.39641 -3.20665,-0.2475 -2.97131,1.63337 -5.07455,0.68165 -3.30926,-0.14764 -3.11133,-0.44873 -2.93866,0.6425 -0.36488,-2.54457 -4.89437,0.51103 -2.53875,2.23503 -0.58865,-2.6308 -4.80782,2.32067 -2.18944,-0.85367 -3.51413,-0.79061 -4.84684,0.21596 -2.18957,-0.54271 -0.47692,0.062 -6.74848,2.27835 0.17803,-0.67143 -5.85243,-1.613 -2.26513,0.1135 -2.10188,0.62355 -1.64073,0.57376 -4.01477,-0.42004 -3.81412,-0.80382 -3.27725,-0.21575 -2.96748,-0.35563 -2.28292,3.40473 -4.61589,-0.9853 -2.59027,-2.06437 -1.44586,1.01535 -2.65967,0.18907 -4.54217,1.09248 -0.87183,0.11188 -4.84676,0.67914 -1.30093,-2.90361 -3.98204,0.84896 -3.17398,1.27938 -3.10985,-2.20749 -1.42892,0.29395 -6.11828,0.89445 0.34098,-0.83869 -4.5889,0.96496 -2.49281,1.39284 -4.06913,-3.19993 -1.79118,1.36058 -3.35918,-1.07925 -4.2017,2.97165 -2.50028,-1.73703 -3.51034,1.93347 -2.29231,-2.25345 -2.76949,-0.17233 -3.14348,0.63712 -2.4396,-0.78113 -1.46051,2.29242 -5.37944,-1.19062 -0.73873,0.24607 -3.02975,0.35194 -4.46613,-3.04891 -3.62135,1.93485 -3.9413,-0.69569 -1.6153,2.03915 -2.55274,-0.2623 -4.22931,-0.80871 -3.20656,-0.98366 -2.12159,1.77484 -3.85821,-1.04584 -0.27788,-2.31746 0.17798,-3.24954 -0.22742,-4.37852 0.9644,-2.99002 -0.46061,-3.11124 -0.69358,-2.66627 2.01621,-0.86184 -2.85939,-4.79966 0.48816,-2.52192 1.56958,-2.0207 -0.28178,-4.20296 -0.20302,-1.89438 1.42956,-2.45807 -1.93947,-5.44282 0.90854,-3.51684 -1.33032,-0.57662 0.4162,-2.34118 0.008,-5.02589 -1.25292,-3.53448 -0.27638,-1.44343 1.20166,-3.36001 -0.0216,-1.12762 -0.75603,-4.14131 2.18234,-3.89746 -2.12965,-4.61733 3.24123,0.74377 -3.88354,-3.05052 0.1653,-4.64569 2.45635,-3.03453 -0.71419,-4.05586 -0.43246,-0.77828 0.63494,-3.76197 0.98017,-2.53362 -2.55542,-5.80164 2.62279,-2.61462 0.21946,0.41194 -2.16384,-3.85652 -0.19086,-5.23688 2.7717,-0.5159 -3.60878,-4.66253 0.73794,-4.17182 -0.20535,-0.74185 1.50825,-1.85315 1.31122,-3.34921 -1.31976,-4.83858 0.7957,-2.12745 -0.49091,-1.57824 -1.6911,-4.51696 1.65689,-4.43916 -0.1642,-3.53706 -2.32089,-0.97042 1.86546,-2.84539 0.17626,-5.46742 1.21567,0.26053 -1.07476,-2.36124 1.43657,-5.30977 -1.98672,-3.06904 1.14683,-3.05075 -1.7502,-2.77906 1.53348,-1.05239 0.89403,-3.678 -1.6172,-2.14255 0.15886,-5.48979 1.96098,-1.23941 -2.88129,-5.02098 2.66034,-1.16121 -0.88003,-2.76576 -0.8716,-5.39053 z"
         style="fill:#f2f2f2;fill-opacity:1;fill-rule:nonzero;stroke:#000000;stroke-width:0.44105086;stroke-linecap:butt;stroke-linejoin:miter;stroke-miterlimit:10;stroke-opacity:1;stroke-dasharray:none"
         id="path3401"
         inkscape:connector-curvature="0" /></g><text
       transform="scale(1,-1)"
       id="text130"
       x="170.02852"
       y="-360.23492"><tspan
         style="font-size:10.12423229px;font-variant:normal;font-weight:bold;writing-mode:lr-tb;fill:#000000;fill-opacity:1;fill-rule:nonzero;stroke:none;font-family:DejaVu Sans Bold;-inkscape-font-specification:DejaVuSans-Bold"
         x="170.02852 178.10765 185.23512 192.73717 200.19873 207.32619 213.57285 218.59447 222.24931 229.71086 236.8282 243.90504 251.41721 258.54465"
         y="-360.23492"
         sodipodi:role="line"
         id="tspan132">Request header</tspan></text>
<text
       transform="scale(1,-1)"
       id="text134"
       x="77.552261"
       y="-342.83624"><tspan
         style="font-size:6.86197901px;font-variant:normal;font-weight:normal;writing-mode:lr-tb;fill:#000000;fill-opacity:1;fill-rule:nonzero;stroke:none;font-family:DejaVu Sans Mono;-inkscape-font-specification:DejaVuSansMono"
         x="77.552261 81.607689 85.669983 89.725426 93.787712 97.843132 118.14086 122.19628 150.61174 154.66718 183.07576 187.13806 215.54665 219.60893 248.01753 252.07294 280.4884 284.54382 312.95929 317.01471 345.43018"
         y="-342.83624"
         sodipodi:role="line"
         id="tspan136">Byte/ 0 | 1 | 2 | 3 |</tspan><tspan
         style="font-size:6.86197901px;font-variant:normal;font-weight:normal;writing-mode:lr-tb;fill:#000000;fill-opacity:1;fill-rule:nonzero;stroke:none;font-family:DejaVu Sans Mono;-inkscape-font-specification:DejaVuSansMono"
         x="53.199093 89.725426 93.787712 150.61174 154.66718 215.54665 219.60893 280.4884 284.54382 345.43018"
         sodipodi:role="line"
         id="tspan138"
         y="-334.58685"> / | | | |</tspan><tspan
         style="font-size:6.86197901px;font-variant:normal;font-weight:normal;writing-mode:lr-tb;fill:#000000;fill-opacity:1;fill-rule:nonzero;stroke:none;font-family:DejaVu Sans Mono;-inkscape-font-specification:DejaVuSansMono"
         x="53.199093 85.669983 89.725426 93.787712 97.843132 101.90541 105.96086 110.02314 114.07858 118.14086 122.19628 126.25857 130.31403 134.3763 138.43173 142.49402 146.54945 150.61174 154.66718 158.7226 162.7849 166.84032 170.90262 174.95804 179.02034 183.07576 187.13806 191.1935 195.25578 199.3112 203.37349 207.42892 211.49121 215.54665 219.60893 223.66437 227.72665 231.78209 235.84438 239.89981 243.96211 248.01753 252.07294 256.13525 260.19067 264.25296 268.30838 272.3707 276.42612 280.4884 284.54382 288.60614 292.66156 296.72385 300.77927 304.84158 308.897 312.95929 317.01471 321.07703 325.13245 329.19473 333.25015 337.31247 341.36789 345.43018"
         y="-326.33749"
         sodipodi:role="line"
         id="tspan140"> |0 1 2 3 4 5 6 7|0 1 2 3 4 5 6 7|0 1 2 3 4 5 6 7|0 1 2 3 4 5 6 7|</tspan><tspan
         style="font-size:6.86197901px;font-variant:normal;font-weight:normal;writing-mode:lr-tb;fill:#000000;fill-opacity:1;fill-rule:nonzero;stroke:none;font-family:DejaVu Sans Mono;-inkscape-font-specification:DejaVuSansMono"
         x="53.199093 85.669983 89.725426 93.787712 97.843132 101.90541 105.96086 110.02314 114.07858 118.14086 122.19628 126.25857 130.31403 134.3763 138.43173 142.49402 146.54945 150.61174 154.66718 158.7226 162.7849 166.84032 170.90262 174.95804 179.02034 183.07576 187.13806 191.1935 195.25578 199.3112 203.37349 207.42892 211.49121 215.54665 219.60893 223.66437 227.72665 231.78209 235.84438 239.89981 243.96211 248.01753 252.07294 256.13525 260.19067 264.25296 268.30838 272.3707 276.42612 280.4884 284.54382 288.60614 292.66156 296.72385 300.77927 304.84158 308.897 312.95929 317.01471 321.07703 325.13245 329.19473 333.25015 337.31247 341.36789 345.43018"
         y="-318.0881"
         sodipodi:role="line"
         id="tspan142"> +---------------+---------------+---------------+---------------+</tspan><tspan
         style="font-size:6.86197901px;font-variant:normal;font-weight:normal;writing-mode:lr-tb;fill:#000000;fill-opacity:1;fill-rule:nonzero;stroke:none;font-family:DejaVu Sans Mono;-inkscape-font-specification:DejaVuSansMono"
         x="53.199093 81.607689 85.669983 89.725426 93.787712 97.843132 101.90541 105.96086 110.02314 114.07858 150.61174 154.66718 158.7226 162.7849 166.84032 170.90262 174.95804 179.02034 183.07576 215.54665 219.60893 223.66437 227.72665 231.78209 235.84438 239.89981 243.96211 248.01753 252.07294 256.13525 260.19067 264.25296 345.43018"
         y="-309.83875"
         sodipodi:role="line"
         id="tspan144"> 0| Magic | Opcode | Key length |</tspan><tspan
         style="font-size:6.86197901px;font-variant:normal;font-weight:normal;writing-mode:lr-tb;fill:#000000;fill-opacity:1;fill-rule:nonzero;stroke:none;font-family:DejaVu Sans Mono;-inkscape-font-specification:DejaVuSansMono"
         x="53.199093 85.669983 89.725426 93.787712 97.843132 101.90541 105.96086 110.02314 114.07858 118.14086 122.19628 126.25857 130.31403 134.3763 138.43173 142.49402 146.54945 150.61174 154.66718 158.7226 162.7849 166.84032 170.90262 174.95804 179.02034 183.07576 187.13806 191.1935 195.25578 199.3112 203.37349 207.42892 211.49121 215.54665 219.60893 223.66437 227.72665 231.78209 235.84438 239.89981 243.96211 248.01753 252.07294 256.13525 260.19067 264.25296 268.30838 272.3707 276.42612 280.4884 284.54382 288.60614 292.66156 296.72385 300.77927 304.84158 308.897 312.95929 317.01471 321.07703 325.13245 329.19473 333.25015 337.31247 341.36789 345.43018"
         y="-301.58936"
         sodipodi:role="line"
         id="tspan146"> +---------------+---------------+---------------+---------------+</tspan><tspan
         style="font-size:6.86197901px;font-variant:normal;font-weight:normal;writing-mode:lr-tb;fill:#000000;fill-opacity:1;fill-rule:nonzero;stroke:none;font-family:DejaVu Sans Mono;-inkscape-font-specification:DejaVuSansMono"
         x="53.199093 81.607689 85.669983 89.725426 93.787712 97.843132 101.90541 105.96086 110.02314 114.07858 118.14086 122.19628 126.25857 130.31403 134.3763 138.43173 142.49402 146.54945 150.61174 154.66718 158.7226 162.7849 166.84032 170.90262 174.95804 179.02034 183.07576 187.13806 191.1935 195.25578 215.54665 219.60893 223.66437 227.72665 231.78209 235.84438 239.89981 243.96211 248.01753 252.07294 256.13525 260.19067 264.25296 345.43018"
         y="-293.34"
         sodipodi:role="line"
         id="tspan148"> 4| Extras length | Data type | vbucket id |</tspan><tspan
         style="font-size:6.86197901px;font-variant:normal;font-weight:normal;writing-mode:lr-tb;fill:#000000;fill-opacity:1;fill-rule:nonzero;stroke:none;font-family:DejaVu Sans Mono;-inkscape-font-specification:DejaVuSansMono"
         x="53.199093 85.669983 89.725426 93.787712 97.843132 101.90541 105.96086 110.02314 114.07858 118.14086 122.19628 126.25857 130.31403 134.3763 138.43173 142.49402 146.54945 150.61174 154.66718 158.7226 162.7849 166.84032 170.90262 174.95804 179.02034 183.07576 187.13806 191.1935 195.25578 199.3112 203.37349 207.42892 211.49121 215.54665 219.60893 223.66437 227.72665 231.78209 235.84438 239.89981 243.96211 248.01753 252.07294 256.13525 260.19067 264.25296 268.30838 272.3707 276.42612 280.4884 284.54382 288.60614 292.66156 296.72385 300.77927 304.84158 308.897 312.95929 317.01471 321.07703 325.13245 329.19473 333.25015 337.31247 341.36789 345.43018"
         y="-285.09061"
         sodipodi:role="line"
         id="tspan150"> +---------------+---------------+---------------+---------------+</tspan><tspan
         style="font-size:6.86197901px;font-variant:normal;font-weight:normal;writing-mode:lr-tb;fill:#000000;fill-opacity:1;fill-rule:nonzero;stroke:none;font-family:DejaVu Sans Mono;-inkscape-font-specification:DejaVuSansMono"
         x="53.199093 81.607689 85.669983 89.725426 93.787712 97.843132 101.90541 105.96086 110.02314 114.07858 118.14086 122.19628 126.25857 130.31403 134.3763 138.43173 142.49402 146.54945 150.61174 154.66718 158.7226 162.7849 345.43018"
         y="-276.84125"
         sodipodi:role="line"
         id="tspan152"> 8| Total body length |</tspan><tspan
         style="font-size:6.86197901px;font-variant:normal;font-weight:normal;writing-mode:lr-tb;fill:#000000;fill-opacity:1;fill-rule:nonzero;stroke:none;font-family:DejaVu Sans Mono;-inkscape-font-specification:DejaVuSansMono"
         x="53.199093 85.669983 89.725426 93.787712 97.843132 101.90541 105.96086 110.02314 114.07858 118.14086 122.19628 126.25857 130.31403 134.3763 138.43173 142.49402 146.54945 150.61174 154.66718 158.7226 162.7849 166.84032 170.90262 174.95804 179.02034 183.07576 187.13806 191.1935 195.25578 199.3112 203.37349 207.42892 211.49121 215.54665 219.60893 223.66437 227.72665 231.78209 235.84438 239.89981 243.96211 248.01753 252.07294 256.13525 260.19067 264.25296 268.30838 272.3707 276.42612 280.4884 284.54382 288.60614 292.66156 296.72385 300.77927 304.84158 308.897 312.95929 317.01471 321.07703 325.13245 329.19473 333.25015 337.31247 341.36789 345.43018"
         y="-268.59186"
         sodipodi:role="line"
         id="tspan154"> +---------------+---------------+---------------+---------------+</tspan><tspan
         style="font-size:6.86197901px;font-variant:normal;font-weight:normal;writing-mode:lr-tb;fill:#000000;fill-opacity:1;fill-rule:nonzero;stroke:none;font-family:DejaVu Sans Mono;-inkscape-font-specification:DejaVuSansMono"
         x="53.199093 77.552261 81.607689 85.669983 89.725426 93.787712 97.843132 101.90541 105.96086 110.02314 114.07858 118.14086 345.43018"
         y="-260.3425"
         sodipodi:role="line"
         id="tspan156"> 12| Opaque |</tspan><tspan
         style="font-size:6.86197901px;font-variant:normal;font-weight:normal;writing-mode:lr-tb;fill:#000000;fill-opacity:1;fill-rule:nonzero;stroke:none;font-family:DejaVu Sans Mono;-inkscape-font-specification:DejaVuSansMono"
         x="53.199093 85.669983 89.725426 93.787712 97.843132 101.90541 105.96086 110.02314 114.07858 118.14086 122.19628 126.25857 130.31403 134.3763 138.43173 142.49402 146.54945 150.61174 154.66718 158.7226 162.7849 166.84032 170.90262 174.95804 179.02034 183.07576 187.13806 191.1935 195.25578 199.3112 203.37349 207.42892 211.49121 215.54665 219.60893 223.66437 227.72665 231.78209 235.84438 239.89981 243.96211 248.01753 252.07294 256.13525 260.19067 264.25296 268.30838 272.3707 276.42612 280.4884 284.54382 288.60614 292.66156 296.72385 300.77927 304.84158 308.897 312.95929 317.01471 321.07703 325.13245 329.19473 333.25015 337.31247 341.36789 345.43018"
         y="-252.09311"
         sodipodi:role="line"
         id="tspan158"> +---------------+---------------+---------------+---------------+</tspan><tspan
         style="font-size:6.86197901px;font-variant:normal;font-weight:normal;writing-mode:lr-tb;fill:#000000;fill-opacity:1;fill-rule:nonzero;stroke:none;font-family:DejaVu Sans Mono;-inkscape-font-specification:DejaVuSansMono"
         x="53.199093 77.552261 81.607689 85.669983 89.725426 93.787712 97.843132 101.90541 105.96086 345.43018"
         y="-243.84373"
         sodipodi:role="line"
         id="tspan160"> 16| CAS |</tspan><tspan
         style="font-size:6.86197901px;font-variant:normal;font-weight:normal;writing-mode:lr-tb;fill:#000000;fill-opacity:1;fill-rule:nonzero;stroke:none;font-family:DejaVu Sans Mono;-inkscape-font-specification:DejaVuSansMono"
         x="53.199093 85.669983 89.725426 345.43018"
         y="-235.59436"
         sodipodi:role="line"
         id="tspan162"> | |</tspan><tspan
         style="font-size:6.86197901px;font-variant:normal;font-weight:normal;writing-mode:lr-tb;fill:#000000;fill-opacity:1;fill-rule:nonzero;stroke:none;font-family:DejaVu Sans Mono;-inkscape-font-specification:DejaVuSansMono"
         x="53.199093 85.669983 89.725426 93.787712 97.843132 101.90541 105.96086 110.02314 114.07858 118.14086 122.19628 126.25857 130.31403 134.3763 138.43173 142.49402 146.54945 150.61174 154.66718 158.7226 162.7849 166.84032 170.90262 174.95804 179.02034 183.07576 187.13806 191.1935 195.25578 199.3112 203.37349 207.42892 211.49121 215.54665 219.60893 223.66437 227.72665 231.78209 235.84438 239.89981 243.96211 248.01753 252.07294 256.13525 260.19067 264.25296 268.30838 272.3707 276.42612 280.4884 284.54382 288.60614 292.66156 296.72385 300.77927 304.84158 308.897 312.95929 317.01471 321.07703 325.13245 329.19473 333.25015 337.31247 341.36789 345.43018"
         y="-227.34499"
         sodipodi:role="line"
         id="tspan164"> +---------------+---------------+---------------+---------------+</tspan><tspan
         style="font-size:6.86197901px;font-variant:normal;font-weight:normal;writing-mode:lr-tb;fill:#000000;fill-opacity:1;fill-rule:nonzero;stroke:none;font-family:DejaVu Sans Mono;-inkscape-font-specification:DejaVuSansMono"
         x="53.199093 85.669983 89.725426 93.787712 97.843132 101.90541 105.96086 110.02314 114.07858 118.14086 122.19628 126.25857 130.31403 134.3763 138.43173"
         y="-219.09561"
         sodipodi:role="line"
         id="tspan166"> Total 24 bytes</tspan></text>
</g></svg>