<?xml version="1.0" encoding="UTF-8" standalone="no"?>
<!-- Generated by graphviz version 2.36.0 (20140111.2315)
 -->

<!-- Title: vstruct Pages: 1 -->

<svg
   xmlns:dc="http://purl.org/dc/elements/1.1/"
   xmlns:cc="http://creativecommons.org/ns#"
   xmlns:rdf="http://www.w3.org/1999/02/22-rdf-syntax-ns#"
   xmlns:svg="http://www.w3.org/2000/svg"
   xmlns="http://www.w3.org/2000/svg"
   xmlns:sodipodi="http://sodipodi.sourceforge.net/DTD/sodipodi-0.dtd"
   xmlns:inkscape="http://www.inkscape.org/namespaces/inkscape"
   width="638pt"
   height="188pt"
   viewBox="0.00 0.00 638.00 188.00"
   id="svg2"
   version="1.1"
   inkscape:version="0.48.4 r9939"
   sodipodi:docname="Tree3_13_tree.svg">
  <metadata
     id="metadata188">
    <rdf:RDF>
      <cc:Work
         rdf:about="">
        <dc:format>image/svg+xml</dc:format>
        <dc:type
           rdf:resource="http://purl.org/dc/dcmitype/StillImage" />
      </cc:Work>
    </rdf:RDF>
  </metadata>
  <defs
     id="defs186" />
  <sodipodi:namedview
     pagecolor="#ffffff"
     bordercolor="#666666"
     borderopacity="1"
     objecttolerance="10"
     gridtolerance="10"
     guidetolerance="10"
     inkscape:pageopacity="0"
     inkscape:pageshadow="2"
     inkscape:window-width="1366"
     inkscape:window-height="702"
     id="namedview184"
     showgrid="false"
     inkscape:zoom="1.5197492"
     inkscape:cx="530.3636"
     inkscape:cy="85.68372"
     inkscape:window-x="0"
     inkscape:window-y="27"
     inkscape:window-maximized="1"
     inkscape:current-layer="svg2" />
  <g
     id="g4136">
    <path
       sodipodi:nodetypes="cc"
       style="fill:#4d4d4d;stroke:#4d4d4d;stroke-width:1;stroke-opacity:1;fill-opacity:1"
       inkscape:connector-curvature="0"
       id="path26"
       d="M 409.57193,31.866001 C 386.47165,45.3978 344.62153,69.912472 318.26648,85.351555" />
    <path
       style="fill:#4d4d4d;stroke:#4d4d4d;stroke-width:1;stroke-opacity:1;fill-opacity:1"
       inkscape:connector-curvature="0"
       id="path40"
       d="m 424.71795,40.52081 c 0,11.074344 0,24.383943 0,36.730243" />
    <path
       style="fill:#4d4d4d;stroke:#4d4d4d;stroke-width:0.99999994000000003;stroke-opacity:1;fill-opacity:1"
       inkscape:connector-curvature="0"
       id="path54"
       d="m 439.86397,31.865999 c 23.36664,13.689022 65.69932,38.488526 92.35825,54.106994" />
    <path
       style="fill:#4d4d4d;stroke:#4d4d4d;stroke-width:1;stroke-opacity:1;fill-opacity:1"
       inkscape:connector-curvature="0"
       id="path68"
       d="m 292.62975,107.1931 c -13.16719,12.8462 -32.78862,31.98948 -47.62932,46.46867" />
    <path
       style="fill:#4d4d4d;stroke:#4d4d4d;stroke-width:1;stroke-opacity:1;fill-opacity:1"
       inkscape:connector-curvature="0"
       id="path82"
       d="m 299.58056,111.2354 c -4.18515,12.01787 -9.39979,26.9932 -14.09537,40.47833" />
    <path
       style="fill:#4d4d4d;stroke:#4d4d4d;stroke-width:1;stroke-opacity:1;fill-opacity:1"
       inkscape:connector-curvature="0"
       id="path96"
       d="m 310.67583,111.2354 c 4.42649,12.68094 9.94184,28.48252 14.90818,42.71167" />
    <path
       style="fill:#4d4d4d;stroke:#4d4d4d;stroke-width:0.99999994000000003;stroke-opacity:1;fill-opacity:1"
       inkscape:connector-curvature="0"
       id="path110"
       d="m 415.03781,109.1655 c -9.20472,13.4231 -21.65911,31.58576 -32.06369,46.75875" />
    <path
       style="fill:#4d4d4d;stroke:#4d4d4d;stroke-width:1;stroke-opacity:1;fill-opacity:1"
       inkscape:connector-curvature="0"
       id="path124"
       d="m 424.71795,112.49942 c 0,10.73811 0,23.64266 0,35.61439" />
    <path
       style="fill:#4d4d4d;stroke:#4d4d4d;stroke-width:1;stroke-opacity:1;fill-opacity:1"
       inkscape:connector-curvature="0"
       id="path138"
       d="m 434.39809,109.1655 c 8.83482,12.88883 20.78875,30.32858 30.77522,44.89764" />
    <path
       style="fill:#4d4d4d;stroke:#4d4d4d;stroke-width:1;stroke-opacity:1;fill-opacity:1"
       inkscape:connector-curvature="0"
       id="path152"
       d="m 538.76008,111.2354 c -4.42648,12.68094 -9.94182,28.48252 -14.90816,42.71167" />
    <path
       style="fill:#4d4d4d;stroke:#4d4d4d;stroke-width:1;stroke-opacity:1;fill-opacity:1"
       inkscape:connector-curvature="0"
       id="path166"
       d="m 549.85535,111.2354 c 4.66782,13.34401 10.48387,29.97184 15.72097,44.94501" />
    <path
       style="fill:#4d4d4d;stroke:#4d4d4d;stroke-width:1;stroke-opacity:1;fill-opacity:1"
       inkscape:connector-curvature="0"
       id="path180"
       d="m 556.80616,107.1931 c 13.84542,13.50831 34.47741,33.63826 50.08269,48.86373" />
    <ellipse
       transform="matrix(0.66438747,0,0,1,215.4359,184)"
       style="fill:#4d4d4d;stroke:#4d4d4d;stroke-width:1.22684382999999997;fill-opacity:1;stroke-opacity:1"
       sodipodi:ry="18"
       sodipodi:rx="27"
       sodipodi:cy="-162"
       sodipodi:cx="315"
       d="m 342,-162 c 0,9.94113 -12.08831,18 -27,18 -14.91169,0 -27,-8.05887 -27,-18 0,-9.94113 12.08831,-18 27,-18 14.91169,0 27,8.05887 27,18 z"
       id="ellipse12"
       ry="18"
       rx="27"
       cy="-162"
       cx="315" />
    <ellipse
       transform="matrix(0.66438747,0,0,1,215.4359,184)"
       style="fill:#4d4d4d;stroke:#4d4d4d;stroke-width:1.22684382999999997;fill-opacity:1;stroke-opacity:1"
       sodipodi:ry="18"
       sodipodi:rx="27"
       sodipodi:cy="-90"
       sodipodi:cx="135"
       d="m 162,-90 c 0,9.941125 -12.08831,18 -27,18 -14.91169,0 -27,-8.058875 -27,-18 0,-9.941125 12.08831,-18 27,-18 14.91169,0 27,8.058875 27,18 z"
       id="ellipse19"
       ry="18"
       rx="27"
       cy="-90"
       cx="135" />
    <ellipse
       transform="matrix(0.66438747,0,0,1,215.4359,184)"
       style="fill:#4d4d4d;stroke:#4d4d4d;stroke-width:1.22684382999999997;fill-opacity:1;stroke-opacity:1"
       sodipodi:ry="18"
       sodipodi:rx="27"
       sodipodi:cy="-90"
       sodipodi:cx="315"
       d="m 342,-90 c 0,9.941125 -12.08831,18 -27,18 -14.91169,0 -27,-8.058875 -27,-18 0,-9.941125 12.08831,-18 27,-18 14.91169,0 27,8.058875 27,18 z"
       id="ellipse33"
       ry="18"
       rx="27"
       cy="-90"
       cx="315" />
    <ellipse
       transform="matrix(0.66438747,0,0,1,215.4359,184)"
       style="fill:#4d4d4d;stroke:#4d4d4d;stroke-width:1.22684382999999997;fill-opacity:1;stroke-opacity:1"
       sodipodi:ry="18"
       sodipodi:rx="27"
       sodipodi:cy="-90"
       sodipodi:cx="495"
       d="m 522,-90 c 0,9.941125 -12.08831,18 -27,18 -14.91169,0 -27,-8.058875 -27,-18 0,-9.941125 12.08831,-18 27,-18 14.91169,0 27,8.058875 27,18 z"
       id="ellipse47"
       ry="18"
       rx="27"
       cy="-90"
       cx="495" />
    <ellipse
       transform="matrix(0.66438747,0,0,1,215.4359,184)"
       style="fill:#4d4d4d;stroke:#4d4d4d;stroke-width:1.22684382999999997;fill-opacity:1;stroke-opacity:1"
       sodipodi:ry="18"
       sodipodi:rx="27"
       sodipodi:cy="-18"
       sodipodi:cx="27"
       d="M 54,-18 C 54,-8.0588745 41.911688,0 27,0 12.088312,0 0,-8.0588745 0,-18 c 0,-9.941125 12.088312,-18 27,-18 14.911688,0 27,8.058875 27,18 z"
       id="ellipse61"
       ry="18"
       rx="27"
       cy="-18"
       cx="27" />
    <ellipse
       transform="matrix(0.66438747,0,0,1,215.4359,184)"
       style="fill:#4d4d4d;stroke:#4d4d4d;stroke-width:1.22684382999999997;fill-opacity:1;stroke-opacity:1"
       sodipodi:ry="18"
       sodipodi:rx="27"
       sodipodi:cy="-18"
       sodipodi:cx="99"
       d="M 126,-18 C 126,-8.0588745 113.91169,0 99,0 84.088312,0 72,-8.0588745 72,-18 c 0,-9.941125 12.088312,-18 27,-18 14.91169,0 27,8.058875 27,18 z"
       id="ellipse75"
       ry="18"
       rx="27"
       cy="-18"
       cx="99" />
    <ellipse
       transform="matrix(0.66438747,0,0,1,215.4359,184)"
       style="fill:#4d4d4d;stroke:#4d4d4d;stroke-width:1.22684382999999997;fill-opacity:1;stroke-opacity:1"
       sodipodi:ry="18"
       sodipodi:rx="27"
       sodipodi:cy="-18"
       sodipodi:cx="171"
       d="m 198,-18 c 0,9.9411255 -12.08831,18 -27,18 -14.91169,0 -27,-8.0588745 -27,-18 0,-9.941125 12.08831,-18 27,-18 14.91169,0 27,8.058875 27,18 z"
       id="ellipse89"
       ry="18"
       rx="27"
       cy="-18"
       cx="171" />
    <ellipse
       transform="matrix(0.66438747,0,0,1,215.4359,184)"
       style="fill:#4d4d4d;stroke:#4d4d4d;stroke-width:1.22684382999999997;fill-opacity:1;stroke-opacity:1"
       sodipodi:ry="18"
       sodipodi:rx="27"
       sodipodi:cy="-18"
       sodipodi:cx="243"
       d="m 270,-18 c 0,9.9411255 -12.08831,18 -27,18 -14.91169,0 -27,-8.0588745 -27,-18 0,-9.941125 12.08831,-18 27,-18 14.91169,0 27,8.058875 27,18 z"
       id="ellipse103"
       ry="18"
       rx="27"
       cy="-18"
       cx="243" />
    <ellipse
       transform="matrix(0.66438747,0,0,1,215.4359,184)"
       style="fill:#4d4d4d;stroke:#4d4d4d;stroke-width:1.22684382999999997;fill-opacity:1;stroke-opacity:1"
       sodipodi:ry="18"
       sodipodi:rx="27"
       sodipodi:cy="-18"
       sodipodi:cx="315"
       d="m 342,-18 c 0,9.9411255 -12.08831,18 -27,18 -14.91169,0 -27,-8.0588745 -27,-18 0,-9.941125 12.08831,-18 27,-18 14.91169,0 27,8.058875 27,18 z"
       id="ellipse117"
       ry="18"
       rx="27"
       cy="-18"
       cx="315" />
    <ellipse
       transform="matrix(0.66438747,0,0,1,215.4359,184)"
       style="fill:#4d4d4d;stroke:#4d4d4d;stroke-width:1.22684382999999997;fill-opacity:1;stroke-opacity:1"
       sodipodi:ry="18"
       sodipodi:rx="27"
       sodipodi:cy="-18"
       sodipodi:cx="387"
       d="m 414,-18 c 0,9.9411255 -12.08831,18 -27,18 -14.91169,0 -27,-8.0588745 -27,-18 0,-9.941125 12.08831,-18 27,-18 14.91169,0 27,8.058875 27,18 z"
       id="ellipse131"
       ry="18"
       rx="27"
       cy="-18"
       cx="387" />
    <ellipse
       transform="matrix(0.66438747,0,0,1,215.4359,184)"
       style="fill:#4d4d4d;stroke:#4d4d4d;stroke-width:1.22684382999999997;fill-opacity:1;stroke-opacity:1"
       sodipodi:ry="18"
       sodipodi:rx="27"
       sodipodi:cy="-18"
       sodipodi:cx="459"
       d="m 486,-18 c 0,9.9411255 -12.08831,18 -27,18 -14.91169,0 -27,-8.0588745 -27,-18 0,-9.941125 12.08831,-18 27,-18 14.91169,0 27,8.058875 27,18 z"
       id="ellipse145"
       ry="18"
       rx="27"
       cy="-18"
       cx="459" />
    <ellipse
       transform="matrix(0.66438747,0,0,1,215.4359,184)"
       style="fill:#4d4d4d;stroke:#4d4d4d;stroke-width:1.22684382999999997;fill-opacity:1;stroke-opacity:1"
       sodipodi:ry="18"
       sodipodi:rx="27"
       sodipodi:cy="-18"
       sodipodi:cx="531"
       d="m 558,-18 c 0,9.9411255 -12.08831,18 -27,18 -14.91169,0 -27,-8.0588745 -27,-18 0,-9.941125 12.08831,-18 27,-18 14.91169,0 27,8.058875 27,18 z"
       id="ellipse159"
       ry="18"
       rx="27"
       cy="-18"
       cx="531" />
    <ellipse
       transform="matrix(0.66438747,0,0,1,215.4359,184)"
       style="fill:#4d4d4d;stroke:#4d4d4d;stroke-width:1.22684382999999997;fill-opacity:1;stroke-opacity:1"
       sodipodi:ry="18"
       sodipodi:rx="27"
       sodipodi:cy="-18"
       sodipodi:cx="603"
       d="m 630,-18 c 0,9.9411255 -12.08831,18 -27,18 -14.91169,0 -27,-8.0588745 -27,-18 0,-9.941125 12.08831,-18 27,-18 14.91169,0 27,8.058875 27,18 z"
       id="ellipse173"
       ry="18"
       rx="27"
       cy="-18"
       cx="603" />
    <text
       sodipodi:linespacing="125%"
       id="text3316"
       y="26.981508"
       x="418.74957"
       style="font-size:19.20000076000000178px;font-style:italic;font-variant:normal;font-weight:bold;font-stretch:normal;line-height:125%;letter-spacing:0px;word-spacing:0px;fill:#ffffff;fill-opacity:1;stroke:none;font-family:Myriad Pro;-inkscape-font-specification:Sans Bold Italic"
       xml:space="preserve"><tspan
         y="26.981508"
         x="418.74957"
         id="tspan3318"
         sodipodi:role="line">A</tspan></text>
    <text
       sodipodi:linespacing="125%"
       id="text3320"
       y="99.118095"
       x="299.52264"
       style="font-size:19.20000076000000178px;font-style:italic;font-variant:normal;font-weight:bold;font-stretch:normal;line-height:125%;letter-spacing:0px;word-spacing:0px;fill:#ffffff;fill-opacity:1;stroke:none;font-family:Myriad Pro;-inkscape-font-specification:Sans Bold Italic"
       xml:space="preserve"><tspan
         y="99.118095"
         x="299.52264"
         id="tspan3322"
         sodipodi:role="line">B</tspan></text>
    <text
       sodipodi:linespacing="125%"
       id="text3324"
       y="99.194893"
       x="418.9227"
       style="font-size:19.20000076000000178px;font-style:italic;font-variant:normal;font-weight:bold;font-stretch:normal;line-height:125%;letter-spacing:0px;word-spacing:0px;fill:#ffffff;fill-opacity:1;stroke:none;font-family:Myriad Pro;-inkscape-font-specification:Sans Bold Italic"
       xml:space="preserve"><tspan
         y="99.194893"
         x="418.9227"
         id="tspan3326"
         sodipodi:role="line">F</tspan></text>
    <text
       sodipodi:linespacing="125%"
       id="text3328"
       y="98.983696"
       x="540.03149"
       style="font-size:19.20000076000000178px;font-style:italic;font-variant:normal;font-weight:bold;font-stretch:normal;line-height:125%;letter-spacing:0px;word-spacing:0px;fill:#ffffff;fill-opacity:1;stroke:none;font-family:Myriad Pro;-inkscape-font-specification:Sans Bold Italic"
       xml:space="preserve"><tspan
         y="98.983696"
         x="540.03149"
         id="tspan3330"
         sodipodi:role="line">J</tspan></text>
    <text
       sodipodi:linespacing="125%"
       id="text3332"
       y="171.80241"
       x="226.68373"
       style="font-size:19.20000076000000178px;font-style:italic;font-variant:normal;font-weight:bold;font-stretch:normal;line-height:125%;letter-spacing:0px;word-spacing:0px;fill:#ffffff;fill-opacity:1;stroke:none;font-family:Myriad Pro;-inkscape-font-specification:Sans Bold Italic"
       xml:space="preserve"><tspan
         y="171.80241"
         x="226.68373"
         id="tspan3334"
         sodipodi:role="line">C</tspan></text>
    <text
       sodipodi:linespacing="125%"
       id="text3336"
       y="171.91762"
       x="274.32172"
       style="font-size:19.20000076000000178px;font-style:italic;font-variant:normal;font-weight:bold;font-stretch:normal;line-height:125%;letter-spacing:0px;word-spacing:0px;fill:#ffffff;fill-opacity:1;stroke:none;font-family:Myriad Pro;-inkscape-font-specification:Sans Bold Italic"
       xml:space="preserve"><tspan
         y="171.91762"
         x="274.32172"
         id="tspan3338"
         sodipodi:role="line">D</tspan></text>
    <text
       sodipodi:linespacing="125%"
       id="text3340"
       y="171.99442"
       x="323.51492"
       style="font-size:19.20000076000000178px;font-style:italic;font-variant:normal;font-weight:bold;font-stretch:normal;line-height:125%;letter-spacing:0px;word-spacing:0px;fill:#ffffff;fill-opacity:1;stroke:none;font-family:Myriad Pro;-inkscape-font-specification:Sans Bold Italic"
       xml:space="preserve"><tspan
         y="171.99442"
         x="323.51492"
         id="tspan3342"
         sodipodi:role="line">E</tspan></text>
    <text
       sodipodi:linespacing="125%"
       id="text3344"
       y="171.86002"
       x="370.1449"
       style="font-size:19.20000076000000178px;font-style:italic;font-variant:normal;font-weight:bold;font-stretch:normal;line-height:125%;letter-spacing:0px;word-spacing:0px;fill:#ffffff;fill-opacity:1;stroke:none;font-family:Myriad Pro;-inkscape-font-specification:Sans Bold Italic"
       xml:space="preserve"><tspan
         y="171.86002"
         x="370.1449"
         id="tspan3346"
         sodipodi:role="line">G</tspan></text>
    <text
       sodipodi:linespacing="125%"
       id="text3348"
       y="171.99442"
       x="418.03241"
       style="font-size:19.20000076000000178px;font-style:italic;font-variant:normal;font-weight:bold;font-stretch:normal;line-height:125%;letter-spacing:0px;word-spacing:0px;fill:#ffffff;fill-opacity:1;stroke:none;font-family:Myriad Pro;-inkscape-font-specification:Sans Bold Italic"
       xml:space="preserve"><tspan
         y="171.99442"
         x="418.03241"
         id="tspan3350"
         sodipodi:role="line">H</tspan></text>
    <text
       sodipodi:linespacing="125%"
       id="text3352"
       y="171.99442"
       x="469.73123"
       style="font-size:19.20000076000000178px;font-style:italic;font-variant:normal;font-weight:bold;font-stretch:normal;line-height:125%;letter-spacing:0px;word-spacing:0px;fill:#ffffff;fill-opacity:1;stroke:none;font-family:Myriad Pro;-inkscape-font-specification:Sans Bold Italic"
       xml:space="preserve"><tspan
         y="171.99442"
         x="469.73123"
         id="tspan3354"
         sodipodi:role="line">I</tspan></text>
    <text
       sodipodi:linespacing="125%"
       id="text3356"
       y="171.99442"
       x="514.25885"
       style="font-size:19.20000076000000178px;font-style:italic;font-variant:normal;font-weight:bold;font-stretch:normal;line-height:125%;letter-spacing:0px;word-spacing:0px;fill:#ffffff;fill-opacity:1;stroke:none;font-family:Myriad Pro;-inkscape-font-specification:Sans Bold Italic"
       xml:space="preserve"><tspan
         y="171.99442"
         x="514.25885"
         id="tspan3358"
         sodipodi:role="line">K</tspan></text>
    <text
       sodipodi:linespacing="125%"
       id="text3360"
       y="171.99442"
       x="563.99927"
       style="font-size:19.20000076000000178px;font-style:italic;font-variant:normal;font-weight:bold;font-stretch:normal;line-height:125%;letter-spacing:0px;word-spacing:0px;fill:#ffffff;fill-opacity:1;stroke:none;font-family:Myriad Pro;-inkscape-font-specification:Sans Bold Italic"
       xml:space="preserve"><tspan
         y="171.99442"
         x="563.99927"
         id="tspan3362"
         sodipodi:role="line">L</tspan></text>
    <text
       sodipodi:linespacing="125%"
       id="text3364"
       y="171.99442"
       x="608.58441"
       style="font-size:19.20000076000000178px;font-style:italic;font-variant:normal;font-weight:bold;font-stretch:normal;line-height:125%;letter-spacing:0px;word-spacing:0px;fill:#ffffff;fill-opacity:1;stroke:none;font-family:Myriad Pro;-inkscape-font-specification:Sans Bold Italic"
       xml:space="preserve"><tspan
         y="171.99442"
         x="608.58441"
         id="tspan3366"
         sodipodi:role="line">M</tspan></text>
  </g>
</svg>
