<?xml version="1.0" encoding="UTF-8" standalone="no"?>
<!-- Generated by graphviz version 2.36.0 (20140111.2315)
 -->

<!-- Title: vstruct Pages: 1 -->

<svg
   xmlns:dc="http://purl.org/dc/elements/1.1/"
   xmlns:cc="http://creativecommons.org/ns#"
   xmlns:rdf="http://www.w3.org/1999/02/22-rdf-syntax-ns#"
   xmlns:svg="http://www.w3.org/2000/svg"
   xmlns="http://www.w3.org/2000/svg"
   xmlns:sodipodi="http://sodipodi.sourceforge.net/DTD/sodipodi-0.dtd"
   xmlns:inkscape="http://www.inkscape.org/namespaces/inkscape"
   width="444pt"
   height="284pt"
   viewBox="0.00 0.00 444.00 284.00"
   id="svg15760"
   version="1.1"
   inkscape:version="0.48.4 r9939"
   sodipodi:docname="Tree3_13.svg">
  <metadata
     id="metadata16090">
    <rdf:RDF>
      <cc:Work
         rdf:about="">
        <dc:format>image/svg+xml</dc:format>
        <dc:type
           rdf:resource="http://purl.org/dc/dcmitype/StillImage" />
        <dc:title></dc:title>
      </cc:Work>
    </rdf:RDF>
  </metadata>
  <defs
     id="defs16088" />
  <sodipodi:namedview
     pagecolor="#ffffff"
     bordercolor="#666666"
     borderopacity="1"
     objecttolerance="10"
     gridtolerance="10"
     guidetolerance="10"
     inkscape:pageopacity="0"
     inkscape:pageshadow="2"
     inkscape:window-width="682"
     inkscape:window-height="702"
     id="namedview16086"
     showgrid="false"
     inkscape:zoom="0.66478873"
     inkscape:cx="334.17589"
     inkscape:cy="177.10869"
     inkscape:window-x="683"
     inkscape:window-y="27"
     inkscape:window-maximized="0"
     inkscape:current-layer="svg15760" />
  <g
     id="g16449"
     transform="translate(12.808021,-452.31476)">
    <path
       style="fill:#808080;stroke:none"
       inkscape:connector-curvature="0"
       id="path15770-3"
       d="m 234.1785,494.78952 c 0,0 30,0 30,0 6,0 12,-6 12,-12 0,0 0,-12 0,-12 0,-6 -6,-12 -12,-12 0,0 -30,0 -30,0 -6,0 -12,6 -12,12 0,0 0,12 0,12 0,6 6,12 12,12" />
    <path
       style="fill:#808080;stroke:none"
       inkscape:connector-curvature="0"
       id="path15781-0"
       d="m 205.1785,554.78952 c 0,0 30,0 30,0 6,0 12,-6 12,-12 0,0 0,-12 0,-12 0,-6 -6,-12 -12,-12 0,0 -30,0 -30,0 -6,0 -12,6 -12,12 0,0 0,12 0,12 0,6 6,12 12,12" />
    <ellipse
       transform="translate(-7.8214979,733.78952)"
       style="fill:#808080;stroke:none"
       sodipodi:ry="18"
       sodipodi:rx="18"
       sodipodi:cy="-197"
       sodipodi:cx="287"
       d="m 305,-197 c 0,9.94113 -8.05887,18 -18,18 -9.94113,0 -18,-8.05887 -18,-18 0,-9.94113 8.05887,-18 18,-18 9.94113,0 18,8.05887 18,18 z"
       id="ellipse15799-6"
       ry="18"
       rx="18"
       cy="-197"
       cx="287" />
    <path
       style="fill:#808080;stroke:none"
       inkscape:connector-curvature="0"
       id="path15813-7"
       d="m 126.1785,614.78952 c 0,0 30,0 30,0 6,0 12,-6 12,-12 0,0 0,-12 0,-12 0,-6 -6,-12 -12,-12 0,0 -30,0 -30,0 -6,0 -12,6 -12,12 0,0 0,12 0,12 0,6 6,12 12,12" />
    <path
       style="fill:#808080;stroke:none"
       inkscape:connector-curvature="0"
       id="path15831-8"
       d="m 205.1785,614.78952 c 0,0 30,0 30,0 6,0 12,-6 12,-12 0,0 0,-12 0,-12 0,-6 -6,-12 -12,-12 0,0 -30,0 -30,0 -6,0 -12,6 -12,12 0,0 0,12 0,12 0,6 6,12 12,12" />
    <path
       style="fill:#808080;stroke:none"
       inkscape:connector-curvature="0"
       id="path15849-8"
       d="m 329.1785,614.78952 c 0,0 30,0 30,0 6,0 12,-6 12,-12 0,0 0,-12 0,-12 0,-6 -6,-12 -12,-12 0,0 -30,0 -30,0 -6,0 -12,6 -12,12 0,0 0,12 0,12 0,6 6,12 12,12" />
    <path
       style="fill:#808080;stroke:none"
       inkscape:connector-curvature="0"
       id="path15867-2"
       d="m 56.178502,674.78952 c 0,0 30,0 30,0 6,0 12,-6 12,-12 0,0 0,-12 0,-12 0,-6 -6,-12 -12,-12 0,0 -30,0 -30,0 -6,0 -12,6 -12,12 0,0 0,12 0,12 0,6 6,12 12,12" />
    <ellipse
       transform="translate(-7.8214979,733.78952)"
       style="fill:#808080;stroke:none"
       sodipodi:ry="18"
       sodipodi:rx="18"
       sodipodi:cy="-77"
       sodipodi:cx="149"
       d="m 167,-77 c 0,9.941125 -8.05887,18 -18,18 -9.94113,0 -18,-8.058875 -18,-18 0,-9.941125 8.05887,-18 18,-18 9.94113,0 18,8.058875 18,18 z"
       id="ellipse15885-2"
       ry="18"
       rx="18"
       cy="-77"
       cx="149" />
    <ellipse
       transform="translate(-7.8214979,733.78952)"
       style="fill:#808080;stroke:none"
       sodipodi:ry="18"
       sodipodi:rx="18"
       sodipodi:cy="-18"
       sodipodi:cx="18"
       d="M 36,-18 C 36,-8.0588745 27.941125,0 18,0 8.0588745,0 0,-8.0588745 0,-18 c 0,-9.941125 8.0588745,-18 18,-18 9.941125,0 18,8.058875 18,18 z"
       id="ellipse15899-0"
       ry="18"
       rx="18"
       cy="-18"
       cx="18" />
    <ellipse
       transform="translate(-7.8214979,733.78952)"
       style="fill:#808080;stroke:none"
       sodipodi:ry="18"
       sodipodi:rx="18"
       sodipodi:cy="-18"
       sodipodi:cx="68"
       d="M 86,-18 C 86,-8.0588745 77.941125,0 68,0 58.058875,0 50,-8.0588745 50,-18 c 0,-9.941125 8.058875,-18 18,-18 9.941125,0 18,8.058875 18,18 z"
       id="ellipse15913-4"
       ry="18"
       rx="18"
       cy="-18"
       cx="68" />
    <ellipse
       transform="translate(-7.8214979,733.78952)"
       style="fill:#808080;stroke:none"
       sodipodi:ry="18"
       sodipodi:rx="18"
       sodipodi:cy="-18"
       sodipodi:cx="118"
       d="m 136,-18 c 0,9.9411255 -8.05887,18 -18,18 -9.94113,0 -18,-8.0588745 -18,-18 0,-9.941125 8.05887,-18 18,-18 9.94113,0 18,8.058875 18,18 z"
       id="ellipse15927-0"
       ry="18"
       rx="18"
       cy="-18"
       cx="118" />
    <path
       style="fill:#808080;stroke:none"
       inkscape:connector-curvature="0"
       id="path15941-7"
       d="m 195.1785,674.78952 c 0,0 30,0 30,0 6,0 12,-6 12,-12 0,0 0,-12 0,-12 0,-6 -6,-12 -12,-12 0,0 -30,0 -30,0 -6,0 -12,6 -12,12 0,0 0,12 0,12 0,6 6,12 12,12" />
    <ellipse
       transform="translate(-7.8214979,733.78952)"
       style="fill:#808080;stroke:none"
       sodipodi:ry="18"
       sodipodi:rx="18"
       sodipodi:cy="-77"
       sodipodi:cx="277"
       d="m 295,-77 c 0,9.941125 -8.05887,18 -18,18 -9.94113,0 -18,-8.058875 -18,-18 0,-9.941125 8.05887,-18 18,-18 9.94113,0 18,8.058875 18,18 z"
       id="ellipse15959-7"
       ry="18"
       rx="18"
       cy="-77"
       cx="277" />
    <ellipse
       transform="translate(-7.8214979,733.78952)"
       style="fill:#808080;stroke:none"
       sodipodi:ry="18"
       sodipodi:rx="18"
       sodipodi:cy="-18"
       sodipodi:cx="168"
       d="m 186,-18 c 0,9.9411255 -8.05887,18 -18,18 -9.94113,0 -18,-8.0588745 -18,-18 0,-9.941125 8.05887,-18 18,-18 9.94113,0 18,8.058875 18,18 z"
       id="ellipse15973-2"
       ry="18"
       rx="18"
       cy="-18"
       cx="168" />
    <ellipse
       transform="translate(-7.8214979,733.78952)"
       style="fill:#808080;stroke:none"
       sodipodi:ry="18"
       sodipodi:rx="18"
       sodipodi:cy="-18"
       sodipodi:cx="218"
       d="m 236,-18 c 0,9.9411255 -8.05887,18 -18,18 -9.94113,0 -18,-8.0588745 -18,-18 0,-9.941125 8.05887,-18 18,-18 9.94113,0 18,8.058875 18,18 z"
       id="ellipse15987-7"
       ry="18"
       rx="18"
       cy="-18"
       cx="218" />
    <ellipse
       transform="translate(-7.8214979,733.78952)"
       style="fill:#808080;stroke:none"
       sodipodi:ry="18"
       sodipodi:rx="18"
       sodipodi:cy="-18"
       sodipodi:cx="268"
       d="m 286,-18 c 0,9.9411255 -8.05887,18 -18,18 -9.94113,0 -18,-8.0588745 -18,-18 0,-9.941125 8.05887,-18 18,-18 9.94113,0 18,8.058875 18,18 z"
       id="ellipse16001-9"
       ry="18"
       rx="18"
       cy="-18"
       cx="268" />
    <path
       style="fill:#808080;stroke:none"
       inkscape:connector-curvature="0"
       id="path16015-6"
       d="m 329.1785,674.78952 c 0,0 30,0 30,0 6,0 12,-6 12,-12 0,0 0,-12 0,-12 0,-6 -6,-12 -12,-12 0,0 -30,0 -30,0 -6,0 -12,6 -12,12 0,0 0,12 0,12 0,6 6,12 12,12" />
    <ellipse
       transform="translate(-7.8214979,733.78952)"
       style="fill:#808080;stroke:none"
       sodipodi:ry="18"
       sodipodi:rx="18"
       sodipodi:cy="-77"
       sodipodi:cx="411"
       d="m 429,-77 c 0,9.941125 -8.05887,18 -18,18 -9.94113,0 -18,-8.058875 -18,-18 0,-9.941125 8.05887,-18 18,-18 9.94113,0 18,8.058875 18,18 z"
       id="ellipse16033-3"
       ry="18"
       rx="18"
       cy="-77"
       cx="411" />
    <ellipse
       transform="translate(-7.8214979,733.78952)"
       style="fill:#808080;stroke:none"
       sodipodi:ry="18"
       sodipodi:rx="18"
       sodipodi:cy="-18"
       sodipodi:cx="318"
       d="m 336,-18 c 0,9.9411255 -8.05887,18 -18,18 -9.94113,0 -18,-8.0588745 -18,-18 0,-9.941125 8.05887,-18 18,-18 9.94113,0 18,8.058875 18,18 z"
       id="ellipse16047-8"
       ry="18"
       rx="18"
       cy="-18"
       cx="318" />
    <ellipse
       transform="translate(-7.8214979,733.78952)"
       style="fill:#808080;stroke:none"
       sodipodi:ry="18"
       sodipodi:rx="18"
       sodipodi:cy="-18"
       sodipodi:cx="368"
       d="m 386,-18 c 0,9.9411255 -8.05887,18 -18,18 -9.94113,0 -18,-8.0588745 -18,-18 0,-9.941125 8.05887,-18 18,-18 9.94113,0 18,8.058875 18,18 z"
       id="ellipse16061-0"
       ry="18"
       rx="18"
       cy="-18"
       cx="368" />
    <ellipse
       transform="translate(-7.8214979,733.78952)"
       style="fill:#808080;stroke:none"
       sodipodi:ry="18"
       sodipodi:rx="18"
       sodipodi:cy="-18"
       sodipodi:cx="418"
       d="m 436,-18 c 0,9.9411255 -8.05887,18 -18,18 -9.94113,0 -18,-8.0588745 -18,-18 0,-9.941125 8.05887,-18 18,-18 9.94113,0 18,8.058875 18,18 z"
       id="ellipse16075-7"
       ry="18"
       rx="18"
       cy="-18"
       cx="418" />
  </g>
  <path
     d="m 246,41 c 0,0 30,0 30,0 6,0 12,-6 12,-12 0,0 0,-12 0,-12 0,-6 -6,-12 -12,-12 0,0 -30,0 -30,0 -6,0 -12,6 -12,12 0,0 0,12 0,12 0,6 6,12 12,12"
     id="path15770"
     inkscape:connector-curvature="0"
     style="fill:#ffffff;stroke:#000000" />
  <text
     x="248"
     y="26.699997"
     font-size="14.00"
     id="text15772"
     style="font-size:14px;text-anchor:middle;font-family:Kp">V</text>
  <polyline
     points="258,-239 258,-275 "
     id="polyline15774"
     style="fill:none;stroke:#000000"
     transform="translate(4,280)" />
  <text
     x="275"
     y="26.699997"
     font-size="14.00"
     id="text15776"
     style="font-size:14px;text-anchor:middle;font-family:Kp">2</text>
  <path
     d="m 217,101 c 0,0 30,0 30,0 6,0 12,-6 12,-12 0,0 0,-12 0,-12 0,-6 -6,-12 -12,-12 0,0 -30,0 -30,0 -6,0 -12,6 -12,12 0,0 0,12 0,12 0,6 6,12 12,12"
     id="path15781"
     inkscape:connector-curvature="0"
     style="fill:#ffffff;stroke:#000000" />
  <text
     x="219"
     y="86.699997"
     font-size="14.00"
     id="text15783"
     style="font-size:14px;text-anchor:middle;font-family:Kp">V</text>
  <polyline
     points="229,-179 229,-215 "
     id="polyline15785"
     style="fill:none;stroke:#000000"
     transform="translate(4,280)" />
  <text
     x="246"
     y="86.699997"
     font-size="14.00"
     id="text15787"
     style="font-size:14px;text-anchor:middle;font-family:Kp">1</text>
  <path
     d="m 249.175,47.651 c -2.877,5.753 -5.899,11.796 -8.592,17.183"
     id="path15792"
     inkscape:connector-curvature="0"
     style="fill:none;stroke:#000000" />
  <polygon
     points="243.134,-233.746 248.456,-238.912 247.517,-231.555 243.134,-233.746 "
     id="polygon15794"
     style="fill:#000000;stroke:#000000"
     transform="translate(4,280)" />
  <ellipse
     cx="287"
     cy="-197"
     rx="18"
     ry="18"
     id="ellipse15799"
     d="m 305,-197 c 0,9.94113 -8.05887,18 -18,18 -9.94113,0 -18,-8.05887 -18,-18 0,-9.94113 8.05887,-18 18,-18 9.94113,0 18,8.05887 18,18 z"
     sodipodi:cx="287"
     sodipodi:cy="-197"
     sodipodi:rx="18"
     sodipodi:ry="18"
     style="fill:#ffffff;stroke:#000000"
     transform="translate(4,280)" />
  <text
     x="291"
     y="86.699997"
     font-size="14.00"
     id="text15801"
     style="font-size:14px;text-anchor:middle;font-family:Tt-Kp">A</text>
  <path
     d="m 273.067,47.33 c 3.32,6.419 6.84,13.224 9.874,19.089"
     id="path15806"
     inkscape:connector-curvature="0"
     style="fill:none;stroke:#000000" />
  <polygon
     points="266.879,-231.569 265.839,-238.912 271.231,-233.82 266.879,-231.569 "
     id="polygon15808"
     style="fill:#000000;stroke:#000000"
     transform="translate(4,280)" />
  <path
     d="m 138,161 c 0,0 30,0 30,0 6,0 12,-6 12,-12 0,0 0,-12 0,-12 0,-6 -6,-12 -12,-12 0,0 -30,0 -30,0 -6,0 -12,6 -12,12 0,0 0,12 0,12 0,6 6,12 12,12"
     id="path15813"
     inkscape:connector-curvature="0"
     style="fill:#ffffff;stroke:#000000" />
  <text
     x="140"
     y="146.7"
     font-size="14.00"
     id="text15815"
     style="font-size:14px;text-anchor:middle;font-family:Kp">V</text>
  <polyline
     points="150,-119 150,-155 "
     id="polyline15817"
     style="fill:none;stroke:#000000"
     transform="translate(4,280)" />
  <text
     x="167"
     y="146.7"
     font-size="14.00"
     id="text15819"
     style="font-size:14px;text-anchor:middle;font-family:Kp">2</text>
  <path
     d="m 203.08,105.232 c -8.786,6.451 -18.325,13.454 -26.698,19.602"
     id="path15824"
     inkscape:connector-curvature="0"
     style="fill:none;stroke:#000000" />
  <polygon
     points="197.632,-176.744 204.725,-178.912 200.532,-172.794 197.632,-176.744 "
     id="polygon15826"
     style="fill:#000000;stroke:#000000"
     transform="translate(4,280)" />
  <path
     d="m 217,161 c 0,0 30,0 30,0 6,0 12,-6 12,-12 0,0 0,-12 0,-12 0,-6 -6,-12 -12,-12 0,0 -30,0 -30,0 -6,0 -12,6 -12,12 0,0 0,12 0,12 0,6 6,12 12,12"
     id="path15831"
     inkscape:connector-curvature="0"
     style="fill:#ffffff;stroke:#000000" />
  <text
     x="219"
     y="146.7"
     font-size="14.00"
     id="text15833"
     style="font-size:14px;text-anchor:middle;font-family:Kp">V</text>
  <polyline
     points="229,-119 229,-155 "
     id="polyline15835"
     style="fill:none;stroke:#000000"
     transform="translate(4,280)" />
  <text
     x="246"
     y="146.7"
     font-size="14.00"
     id="text15837"
     style="font-size:14px;text-anchor:middle;font-family:Kp">2</text>
  <path
     d="m 232,108.403 c 0,5.525 0,11.278 0,16.431"
     id="path15842"
     inkscape:connector-curvature="0"
     style="fill:none;stroke:#000000" />
  <polygon
     points="225.55,-171.912 228,-178.912 230.45,-171.912 225.55,-171.912 "
     id="polygon15844"
     style="fill:#000000;stroke:#000000"
     transform="translate(4,280)" />
  <path
     d="m 341,161 c 0,0 30,0 30,0 6,0 12,-6 12,-12 0,0 0,-12 0,-12 0,-6 -6,-12 -12,-12 0,0 -30,0 -30,0 -6,0 -12,6 -12,12 0,0 0,12 0,12 0,6 6,12 12,12"
     id="path15849"
     inkscape:connector-curvature="0"
     style="fill:#ffffff;stroke:#000000" />
  <text
     x="343"
     y="146.7"
     font-size="14.00"
     id="text15851"
     style="font-size:14px;text-anchor:middle;font-family:Kp">V</text>
  <polyline
     points="353,-119 353,-155 "
     id="polyline15853"
     style="fill:none;stroke:#000000"
     transform="translate(4,280)" />
  <text
     x="370"
     y="146.7"
     font-size="14.00"
     id="text15855"
     style="font-size:14px;text-anchor:middle;font-family:Kp">2</text>
  <path
     d="m 265.571,101.791 c 0.143,0.07 0.286,0.14 0.429,0.209 20.913,10.168 45.007,20.822 62.999,28.575"
     id="path15860"
     inkscape:connector-curvature="0"
     style="fill:none;stroke:#000000" />
  <polygon
     points="260.177,-176.167 255.009,-181.486 262.367,-180.55 260.177,-176.167 "
     id="polygon15862"
     style="fill:#000000;stroke:#000000"
     transform="translate(4,280)" />
  <path
     d="m 68,221 c 0,0 30,0 30,0 6,0 12,-6 12,-12 0,0 0,-12 0,-12 0,-6 -6,-12 -12,-12 0,0 -30,0 -30,0 -6,0 -12,6 -12,12 0,0 0,12 0,12 0,6 6,12 12,12"
     id="path15867"
     inkscape:connector-curvature="0"
     style="fill:#ffffff;stroke:#000000" />
  <text
     x="70"
     y="206.7"
     font-size="14.00"
     id="text15869"
     style="font-size:14px;text-anchor:middle;font-family:Kp">V</text>
  <polyline
     points="80,-59 80,-95 "
     id="polyline15871"
     style="fill:none;stroke:#000000"
     transform="translate(4,280)" />
  <text
     x="97"
     y="206.7"
     font-size="14.00"
     id="text15873"
     style="font-size:14px;text-anchor:middle;font-family:Kp">1</text>
  <path
     d="m 126.706,165.787 c -7.598,6.295 -15.781,13.075 -22.9878,19.0465"
     id="path15878"
     inkscape:connector-curvature="0"
     style="fill:none;stroke:#000000" />
  <polygon
     points="121.423,-116.332 128.376,-118.912 124.549,-112.559 121.423,-116.332 "
     id="polygon15880"
     style="fill:#000000;stroke:#000000"
     transform="translate(4,280)" />
  <ellipse
     cx="149"
     cy="-77"
     rx="18"
     ry="18"
     id="ellipse15885"
     d="m 167,-77 c 0,9.941125 -8.05887,18 -18,18 -9.94113,0 -18,-8.058875 -18,-18 0,-9.941125 8.05887,-18 18,-18 9.94113,0 18,8.058875 18,18 z"
     sodipodi:cx="149"
     sodipodi:cy="-77"
     sodipodi:rx="18"
     sodipodi:ry="18"
     style="fill:#ffffff;stroke:#000000"
     transform="translate(4,280)" />
  <text
     x="153"
     y="206.7"
     font-size="14.00"
     id="text15887"
     style="font-size:14px;text-anchor:middle;font-family:Tt-Kp">B</text>
  <path
     d="m 153,168.403 c 0,5.525 0,11.278 0,16.4305"
     id="path15892"
     inkscape:connector-curvature="0"
     style="fill:none;stroke:#000000" />
  <polygon
     points="146.55,-111.912 149,-118.912 151.45,-111.912 146.55,-111.912 "
     id="polygon15894"
     style="fill:#000000;stroke:#000000"
     transform="translate(4,280)" />
  <ellipse
     cx="18"
     cy="-18"
     rx="18"
     ry="18"
     id="ellipse15899"
     d="M 36,-18 C 36,-8.0588745 27.941125,0 18,0 8.0588745,0 0,-8.0588745 0,-18 c 0,-9.941125 8.0588745,-18 18,-18 9.941125,0 18,8.058875 18,18 z"
     sodipodi:cx="18"
     sodipodi:cy="-18"
     sodipodi:rx="18"
     sodipodi:ry="18"
     style="fill:#ffffff;stroke:#000000"
     transform="translate(4,280)" />
  <text
     x="22"
     y="265.70001"
     font-size="14.00"
     id="text15901"
     style="font-size:14px;text-anchor:middle;font-family:Tt-Kp">C</text>
  <path
     d="m 59.5546,225.908 c -8.4597,7.905 -17.6856,16.5259 -24.876,23.2448"
     id="path15906"
     inkscape:connector-curvature="0"
     style="fill:none;stroke:#000000" />
  <polygon
     points="53.9106,-55.909 60.698,-58.8981 57.2561,-52.3288 53.9106,-55.909 "
     id="polygon15908"
     style="fill:#000000;stroke:#000000"
     transform="translate(4,280)" />
  <ellipse
     cx="68"
     cy="-18"
     rx="18"
     ry="18"
     id="ellipse15913"
     d="M 86,-18 C 86,-8.0588745 77.941125,0 68,0 58.058875,0 50,-8.0588745 50,-18 c 0,-9.941125 8.058875,-18 18,-18 9.941125,0 18,8.058875 18,18 z"
     sodipodi:cx="68"
     sodipodi:cy="-18"
     sodipodi:rx="18"
     sodipodi:ry="18"
     style="fill:#ffffff;stroke:#000000"
     transform="translate(4,280)" />
  <text
     x="72"
     y="265.70001"
     font-size="14.00"
     id="text15915"
     style="font-size:14px;text-anchor:middle;font-family:Tt-Kp">D</text>
  <path
     d="m 78.3422,228.1359 c -1.0237,5.3043 -2.0872,10.8153 -3.0442,15.7743"
     id="path15920"
     inkscape:connector-curvature="0"
     style="fill:none;stroke:#000000" />
  <polygon
     points="71.9675,-52.4892 75.6996,-58.8981 76.7788,-51.5607 71.9675,-52.4892 "
     id="polygon15922"
     style="fill:#000000;stroke:#000000"
     transform="translate(4,280)" />
  <ellipse
     cx="118"
     cy="-18"
     rx="18"
     ry="18"
     id="ellipse15927"
     d="m 136,-18 c 0,9.9411255 -8.05887,18 -18,18 -9.94113,0 -18,-8.0588745 -18,-18 0,-9.941125 8.05887,-18 18,-18 9.94113,0 18,8.058875 18,18 z"
     sodipodi:cx="118"
     sodipodi:cy="-18"
     sodipodi:rx="18"
     sodipodi:ry="18"
     style="fill:#ffffff;stroke:#000000"
     transform="translate(4,280)" />
  <text
     x="122"
     y="265.70001"
     font-size="14.00"
     id="text15929"
     style="font-size:14px;text-anchor:middle;font-family:Tt-Kp">E</text>
  <path
     d="m 98.7514,227.0213 c 4.528,6.6179 9.3366,13.6453 13.3976,19.5814"
     id="path15934"
     inkscape:connector-curvature="0"
     style="fill:none;stroke:#000000" />
  <polygon
     points="92.6321,-51.7375 90.7013,-58.8981 96.6761,-54.5044 92.6321,-51.7375 "
     id="polygon15936"
     style="fill:#000000;stroke:#000000"
     transform="translate(4,280)" />
  <path
     d="m 207,221 c 0,0 30,0 30,0 6,0 12,-6 12,-12 0,0 0,-12 0,-12 0,-6 -6,-12 -12,-12 0,0 -30,0 -30,0 -6,0 -12,6 -12,12 0,0 0,12 0,12 0,6 6,12 12,12"
     id="path15941"
     inkscape:connector-curvature="0"
     style="fill:#ffffff;stroke:#000000" />
  <text
     x="209"
     y="206.7"
     font-size="14.00"
     id="text15943"
     style="font-size:14px;text-anchor:middle;font-family:Kp">V</text>
  <polyline
     points="219,-59 219,-95 "
     id="polyline15945"
     style="fill:none;stroke:#000000"
     transform="translate(4,280)" />
  <text
     x="236"
     y="206.7"
     font-size="14.00"
     id="text15947"
     style="font-size:14px;text-anchor:middle;font-family:Kp">1</text>
  <path
     d="m 227.857,168.027 c -0.972,5.639 -1.989,11.537 -2.897,16.8065"
     id="path15952"
     inkscape:connector-curvature="0"
     style="fill:none;stroke:#000000" />
  <polygon
     points="221.45,-112.43 225.054,-118.912 226.279,-111.597 221.45,-112.43 "
     id="polygon15954"
     style="fill:#000000;stroke:#000000"
     transform="translate(4,280)" />
  <ellipse
     cx="277"
     cy="-77"
     rx="18"
     ry="18"
     id="ellipse15959"
     d="m 295,-77 c 0,9.941125 -8.05887,18 -18,18 -9.94113,0 -18,-8.058875 -18,-18 0,-9.941125 8.05887,-18 18,-18 9.94113,0 18,8.058875 18,18 z"
     sodipodi:cx="277"
     sodipodi:cy="-77"
     sodipodi:rx="18"
     sodipodi:ry="18"
     style="fill:#ffffff;stroke:#000000"
     transform="translate(4,280)" />
  <text
     x="281"
     y="206.7"
     font-size="14.00"
     id="text15961"
     style="font-size:14px;text-anchor:middle;font-family:Tt-Kp">F</text>
  <path
     d="m 251.135,166.649 c 6.309,7.469 13.118,15.528 18.639,22.0628"
     id="path15966"
     inkscape:connector-curvature="0"
     style="fill:none;stroke:#000000" />
  <polygon
     points="245.083,-111.983 242.437,-118.912 248.826,-115.146 245.083,-111.983 "
     id="polygon15968"
     style="fill:#000000;stroke:#000000"
     transform="translate(4,280)" />
  <ellipse
     cx="168"
     cy="-18"
     rx="18"
     ry="18"
     id="ellipse15973"
     d="m 186,-18 c 0,9.9411255 -8.05887,18 -18,18 -9.94113,0 -18,-8.0588745 -18,-18 0,-9.941125 8.05887,-18 18,-18 9.94113,0 18,8.058875 18,18 z"
     sodipodi:cx="168"
     sodipodi:cy="-18"
     sodipodi:rx="18"
     sodipodi:ry="18"
     style="fill:#ffffff;stroke:#000000"
     transform="translate(4,280)" />
  <text
     x="172"
     y="265.70001"
     font-size="14.00"
     id="text15975"
     style="font-size:14px;text-anchor:middle;font-family:Tt-Kp">G</text>
  <path
     d="m 202.292,226.4668 c -6.311,7.195 -13.094,14.9276 -18.638,21.2479"
     id="path15980"
     inkscape:connector-curvature="0"
     style="fill:none;stroke:#000000" />
  <polygon
     points="196.54,-55.2514 202.998,-58.8981 200.224,-52.0201 196.54,-55.2514 "
     id="polygon15982"
     style="fill:#000000;stroke:#000000"
     transform="translate(4,280)" />
  <ellipse
     cx="218"
     cy="-18"
     rx="18"
     ry="18"
     id="ellipse15987"
     d="m 236,-18 c 0,9.9411255 -8.05887,18 -18,18 -9.94113,0 -18,-8.0588745 -18,-18 0,-9.941125 8.05887,-18 18,-18 9.94113,0 18,8.058875 18,18 z"
     sodipodi:cx="218"
     sodipodi:cy="-18"
     sodipodi:rx="18"
     sodipodi:ry="18"
     style="fill:#ffffff;stroke:#000000"
     transform="translate(4,280)" />
  <text
     x="222"
     y="265.70001"
     font-size="14.00"
     id="text15989"
     style="font-size:14px;text-anchor:middle;font-family:Tt-Kp">H</text>
  <path
     d="m 222,228.1359 c 0,5.3043 0,10.8153 0,15.7743"
     id="path15994"
     inkscape:connector-curvature="0"
     style="fill:none;stroke:#000000" />
  <polygon
     points="215.55,-51.8981 218,-58.8981 220.45,-51.8982 215.55,-51.8981 "
     id="polygon15996"
     style="fill:#000000;stroke:#000000"
     transform="translate(4,280)" />
  <ellipse
     cx="268"
     cy="-18"
     rx="18"
     ry="18"
     id="ellipse16001"
     d="m 286,-18 c 0,9.9411255 -8.05887,18 -18,18 -9.94113,0 -18,-8.0588745 -18,-18 0,-9.941125 8.05887,-18 18,-18 9.94113,0 18,8.058875 18,18 z"
     sodipodi:cx="268"
     sodipodi:cy="-18"
     sodipodi:rx="18"
     sodipodi:ry="18"
     style="fill:#ffffff;stroke:#000000"
     transform="translate(4,280)" />
  <text
     x="272"
     y="265.70001"
     font-size="14.00"
     id="text16003"
     style="font-size:14px;text-anchor:middle;font-family:Tt-Kp">I</text>
  <path
     d="m 241.708,226.4668 c 6.311,7.195 13.094,14.9276 18.638,21.2479"
     id="path16008"
     inkscape:connector-curvature="0"
     style="fill:none;stroke:#000000" />
  <polygon
     points="235.776,-52.0201 233.002,-58.8981 239.46,-55.2514 235.776,-52.0201 "
     id="polygon16010"
     style="fill:#000000;stroke:#000000"
     transform="translate(4,280)" />
  <path
     d="m 341,221 c 0,0 30,0 30,0 6,0 12,-6 12,-12 0,0 0,-12 0,-12 0,-6 -6,-12 -12,-12 0,0 -30,0 -30,0 -6,0 -12,6 -12,12 0,0 0,12 0,12 0,6 6,12 12,12"
     id="path16015"
     inkscape:connector-curvature="0"
     style="fill:#ffffff;stroke:#000000" />
  <text
     x="343"
     y="206.7"
     font-size="14.00"
     id="text16017"
     style="font-size:14px;text-anchor:middle;font-family:Kp">V</text>
  <polyline
     points="353,-59 353,-95 "
     id="polyline16019"
     style="fill:none;stroke:#000000"
     transform="translate(4,280)" />
  <text
     x="370"
     y="206.7"
     font-size="14.00"
     id="text16021"
     style="font-size:14px;text-anchor:middle;font-family:Kp">1</text>
  <path
     d="m 356,168.403 c 0,5.525 0,11.278 0,16.4305"
     id="path16026"
     inkscape:connector-curvature="0"
     style="fill:none;stroke:#000000" />
  <polygon
     points="349.55,-111.912 352,-118.912 354.45,-111.912 349.55,-111.912 "
     id="polygon16028"
     style="fill:#000000;stroke:#000000"
     transform="translate(4,280)" />
  <ellipse
     cx="411"
     cy="-77"
     rx="18"
     ry="18"
     id="ellipse16033"
     d="m 429,-77 c 0,9.941125 -8.05887,18 -18,18 -9.94113,0 -18,-8.058875 -18,-18 0,-9.941125 8.05887,-18 18,-18 9.94113,0 18,8.058875 18,18 z"
     sodipodi:cx="411"
     sodipodi:cy="-77"
     sodipodi:rx="18"
     sodipodi:ry="18"
     style="fill:#ffffff;stroke:#000000"
     transform="translate(4,280)" />
  <text
     x="415"
     y="206.7"
     font-size="14.00"
     id="text16035"
     style="font-size:14px;text-anchor:middle;font-family:Tt-Kp">J</text>
  <path
     d="m 378.837,166.45 c 8.086,7.949 16.878,16.5918 23.768,23.3648"
     id="path16040"
     inkscape:connector-curvature="0"
     style="fill:none;stroke:#000000" />
  <polygon
     points="372.657,-112.257 369.383,-118.912 376.092,-115.752 372.657,-112.257 "
     id="polygon16042"
     style="fill:#000000;stroke:#000000"
     transform="translate(4,280)" />
  <ellipse
     cx="318"
     cy="-18"
     rx="18"
     ry="18"
     id="ellipse16047"
     d="m 336,-18 c 0,9.9411255 -8.05887,18 -18,18 -9.94113,0 -18,-8.0588745 -18,-18 0,-9.941125 8.05887,-18 18,-18 9.94113,0 18,8.058875 18,18 z"
     sodipodi:cx="318"
     sodipodi:cy="-18"
     sodipodi:rx="18"
     sodipodi:ry="18"
     style="fill:#ffffff;stroke:#000000"
     transform="translate(4,280)" />
  <text
     x="322"
     y="265.70001"
     font-size="14.00"
     id="text16049"
     style="font-size:14px;text-anchor:middle;font-family:Tt-Kp">K</text>
  <path
     d="m 342.089,227.3222 c -3.812,6.3899 -7.838,13.139 -11.276,18.9039"
     id="path16054"
     inkscape:connector-curvature="0"
     style="fill:none;stroke:#000000" />
  <polygon
     points="336.109,-54.1415 341.799,-58.8981 340.317,-51.6313 336.109,-54.1415 "
     id="polygon16056"
     style="fill:#000000;stroke:#000000"
     transform="translate(4,280)" />
  <ellipse
     cx="368"
     cy="-18"
     rx="18"
     ry="18"
     id="ellipse16061"
     d="m 386,-18 c 0,9.9411255 -8.05887,18 -18,18 -9.94113,0 -18,-8.0588745 -18,-18 0,-9.941125 8.05887,-18 18,-18 9.94113,0 18,8.058875 18,18 z"
     sodipodi:cx="368"
     sodipodi:cy="-18"
     sodipodi:rx="18"
     sodipodi:ry="18"
     style="fill:#ffffff;stroke:#000000"
     transform="translate(4,280)" />
  <text
     x="372"
     y="265.70001"
     font-size="14.00"
     id="text16063"
     style="font-size:14px;text-anchor:middle;font-family:Tt-Kp">L</text>
  <path
     d="m 362.709,227.8993 c 1.548,5.517 3.163,11.2702 4.604,16.4032"
     id="path16068"
     inkscape:connector-curvature="0"
     style="fill:none;stroke:#000000" />
  <polygon
     points="356.334,-51.4964 356.801,-58.8981 361.051,-52.8208 356.334,-51.4964 "
     id="polygon16070"
     style="fill:#000000;stroke:#000000"
     transform="translate(4,280)" />
  <ellipse
     cx="418"
     cy="-18"
     rx="18"
     ry="18"
     id="ellipse16075"
     d="m 436,-18 c 0,9.9411255 -8.05887,18 -18,18 -9.94113,0 -18,-8.0588745 -18,-18 0,-9.941125 8.05887,-18 18,-18 9.94113,0 18,8.058875 18,18 z"
     sodipodi:cx="418"
     sodipodi:cy="-18"
     sodipodi:rx="18"
     sodipodi:ry="18"
     style="fill:#ffffff;stroke:#000000"
     transform="translate(4,280)" />
  <text
     x="422"
     y="265.70001"
     font-size="14.00"
     id="text16077"
     style="font-size:14px;text-anchor:middle;font-family:Tt-Kp">M</text>
  <path
     d="m 381.187,225.7524 c 9.362,8.0855 19.615,16.9398 27.502,23.7514"
     id="path16082"
     inkscape:connector-curvature="0"
     style="fill:none;stroke:#000000" />
  <polygon
     points="375.499,-52.4685 371.802,-58.8981 378.701,-56.177 375.499,-52.4685 "
     id="polygon16084"
     style="fill:#000000;stroke:#000000"
     transform="translate(4,280)" />
</svg>
